<?xml version="1.0" encoding="UTF-8" standalone="no"?>
<!-- Created with Inkscape (http://www.inkscape.org/) -->

<svg
   width="154.78539mm"
   height="154.62775mm"
   viewBox="0 0 154.78539 154.62775"
   version="1.1"
   id="svg1"
   xml:space="preserve"
   xmlns:inkscape="http://www.inkscape.org/namespaces/inkscape"
   xmlns:sodipodi="http://sodipodi.sourceforge.net/DTD/sodipodi-0.dtd"
   xmlns="http://www.w3.org/2000/svg"
   xmlns:svg="http://www.w3.org/2000/svg"><sodipodi:namedview
     id="namedview1"
     pagecolor="#ffffff"
     bordercolor="#000000"
     borderopacity="0.25"
     inkscape:showpageshadow="2"
     inkscape:pageopacity="0.0"
     inkscape:pagecheckerboard="0"
     inkscape:deskcolor="#d1d1d1"
     inkscape:document-units="mm" /><defs
     id="defs1" /><g
     inkscape:label="Layer 1"
     inkscape:groupmode="layer"
     id="layer1"
     transform="translate(-27.709456,-70.840757)"><path
       d="m 125.80512,71.534891 -0.62071,0.855927 0.73977,0.755914 -1.05198,-0.109537 -0.28469,1.018381 v 0 l 0.73977,0.755915 0.86916,-0.602192 -0.28469,1.018381 0.9562,0.451909 v 0 l -1.05172,-0.109802 -0.28496,1.018645 -0.43074,-0.965729 -1.02446,0.262732 v 0 l -0.28496,1.018381 0.95647,0.451908 -1.02447,0.262467 0.0868,1.0541 v 0 0 0 0 0 0 l 0.73977,0.755914 0.86942,-0.602191 -0.28469,1.018381 0.9562,0.451908 v 0 l 0.86942,-0.602456 -0.44794,-0.958056 0.95647,0.451644 0.6059,-0.866775 v 0 l -0.28496,1.018645 0.95647,0.451644 -1.02446,0.262731 0.0868,1.0541 v 0 l 0.9562,0.451644 0.6059,-0.866775 0.0871,1.053836 1.05357,0.09155 v 0 0 0 0 0 0 l -1.05172,-0.109802 -0.28496,1.018646 -0.431,-0.965729 -1.02421,0.262467 v 0 l -0.28495,1.018645 0.95647,0.451644 -1.02447,0.262731 0.0868,1.0541 v 0 l -0.431,-0.965729 -1.02447,0.262732 0.62098,-0.856192 -0.73978,-0.755915 v 0 l -1.02446,0.262732 0.087,1.053835 -0.73977,-0.75565 -0.86942,0.602192 v 0 0 0 0 0 0 l -0.28469,1.018645 0.9562,0.451644 -1.02447,0.262731 0.0871,1.053836 v 0 l 0.95621,0.451908 0.60589,-0.866775 0.087,1.053836 1.05357,0.09154 v 0 l -1.02447,0.262467 0.0868,1.0541 -0.73951,-0.755914 -0.86942,0.602456 v 0 l 0.0868,1.053835 1.05383,0.09128 -0.86942,0.602457 0.44768,0.958056 v 0 0 0 0 0 0 0 0 0 0 0 0 0 0 0 0 0 0 0 0 0 0 0 0 0 0 0 0 0 0 0 l 0.73977,0.755915 0.86942,-0.602192 -0.28469,1.018381 0.95621,0.451908 v 0 l 0.86915,-0.602456 -0.44767,-0.958056 0.9562,0.451644 0.60616,-0.866775 v 0 l -0.28495,1.018646 0.95647,0.451643 -1.02447,0.262732 0.0868,1.0541 v 0 l 0.95621,0.451643 0.60589,-0.866775 0.0871,1.053836 1.05357,0.09155 v 0 0 0 0 0 0 l 0.86942,-0.602457 -0.44767,-0.958056 0.9562,0.451644 0.6059,-0.866775 v 0 l -0.44768,-0.958056 -1.0197,0.280458 0.60589,-0.866775 -0.75274,-0.74295 v 0 l 0.95621,0.451644 0.60589,-0.866775 0.0868,1.0541 1.05383,0.09128 v 0 l 0.6059,-0.866775 -0.75274,-0.74295 1.05357,0.09128 0.26696,-1.023144 v 0 0 0 0 0 0 l -0.28469,1.018382 0.95621,0.451643 -1.02447,0.262732 0.0871,1.0541 v 0 l 0.9562,0.451643 0.6059,-0.866775 0.0868,1.0541 1.05384,0.09128 v 0 l -1.02447,0.262731 0.0868,1.0541 -0.73951,-0.755915 -0.86942,0.602192 v 0 l 0.0868,1.0541 1.05383,0.09128 -0.86942,0.602192 0.44767,0.958321 v 0 0 0 0 0 0 l 0.95621,0.451643 0.60589,-0.866775 0.0871,1.0541 1.05357,0.09128 v 0 l 0.6059,-0.866775 -0.75274,-0.74295 1.05357,0.09128 0.26697,-1.023408 v 0 l 0.087,1.0541 1.05357,0.09128 -0.86942,0.602192 0.44794,0.95832 v 0 l 1.05357,0.09128 0.26697,-1.023409 0.44767,0.958321 1.01971,-0.280723 v 0 0 0 0 0 0 0 0 0 0 0 0 0 0 0 0 0 0 0 0 0 0 0 0 0 0 0 0 0 0 0 l -1.05172,-0.109537 -0.28496,1.018646 -0.431,-0.96573 -1.02421,0.262467 v 0 l -0.28495,1.018646 0.95647,0.451644 -1.02447,0.262731 0.0868,1.0541 v 0 l -0.431,-0.965729 -1.02447,0.262466 0.62098,-0.855927 -0.73978,-0.755914 v 0 l -1.02446,0.262731 0.087,1.053835 -0.73977,-0.75565 -0.86942,0.602192 v 0 0 0 0 0 0 l -0.28469,1.018381 0.9562,0.451909 -1.02447,0.262731 0.0871,1.053835 v 0 l 0.95621,0.45191 0.60589,-0.86678 0.0871,1.05384 1.05357,0.0913 v 0 l -1.02447,0.26273 0.0868,1.0541 -0.73951,-0.75591 -0.86942,0.60219 v 0 l 0.0868,1.0541 1.05383,0.0913 -0.86942,0.60245 0.44768,0.95806 v 0 0 0 0 0 0 l -0.43101,-0.96573 -1.02446,0.26273 0.62097,-0.85619 -0.73977,-0.75591 v 0 l -1.02447,0.26273 0.0871,1.05383 -0.73978,-0.75565 -0.86942,0.60219 v 0 l 0.62098,-0.85619 -0.73977,-0.75591 1.05198,0.1098 0.28469,-1.01865 v 0 l -0.73977,-0.75591 -0.86943,0.60246 0.28496,-1.01865 -0.95647,-0.45164 v 0 0 0 0 0 0 l -1.02446,0.26273 0.087,1.05383 -0.73977,-0.75565 -0.86942,0.60219 v 0 l 0.087,1.0541 1.05357,0.0913 -0.86942,0.6022 0.44793,0.95805 v 0 l -0.73977,-0.75565 -0.86942,0.60219 0.28469,-1.01864 -0.9562,-0.45165 v 0 l -0.86942,0.6022 0.44794,0.95832 -0.95647,-0.45191 -0.6059,0.86677 v 0 0 0 0 0 0 0 0 0 0 0 0 0 0 0 0 0 0 0 0 0 0 0 0 0 0 0 0 0 0 0 l -0.28469,1.01865 0.9562,0.45164 -1.02446,0.26273 0.087,1.0541 v 0 l 0.95621,0.45165 0.60589,-0.86678 0.0871,1.0541 1.05357,0.0913 v 0 l -1.02446,0.26273 0.087,1.05384 -0.73977,-0.75565 -0.86942,0.60219 v 0 l 0.0868,1.0541 1.05384,0.0913 -0.86942,0.60219 0.44767,0.95806 v 0 0 0 0 0 0 l 0.95621,0.45191 0.60616,-0.86678 0.0868,1.05384 1.05357,0.0916 v 0 l 0.6059,-0.86704 -0.75274,-0.74269 1.05383,0.0913 0.26697,-1.02341 v 0 l 0.0868,1.0541 1.05357,0.0913 -0.86916,0.6022 0.44768,0.95832 v 0 l 1.05357,0.0913 0.26696,-1.02341 0.44768,0.95806 1.0197,-0.28046 v 0 0 0 0 0 0 l -1.0242,0.26273 0.0868,1.0541 -0.73978,-0.75592 -0.86916,0.6022 v 0 l 0.0868,1.0541 1.05357,0.0913 -0.86916,0.60245 0.44768,0.95806 v 0 l -0.73978,-0.75592 -0.86942,0.6022 0.28469,-1.01839 -0.9562,-0.4519 v 0 l -0.86942,0.60245 0.44794,0.95806 -0.95647,-0.45165 -0.6059,0.86678 v 0 0 0 0 0 0 l 0.0871,1.0541 1.05357,0.0913 -0.86942,0.60219 0.44794,0.95806 v 0 l 1.05357,0.0915 0.26697,-1.02341 0.44767,0.95806 1.0197,-0.28046 v 0 l -0.86942,0.60245 0.44794,0.95806 -0.95647,-0.45191 -0.60589,0.86704 v 0 l 0.44794,0.95806 1.0197,-0.28046 -0.60589,0.86677 0.75274,0.74295 v 0 0 0 0 0 0 0 0 0 0 0 0 0 0 0 0 0 0 0 0 0 0 0 0 0 0 0 0 0 0 0 0 0 0 0 0 0 0 0 0 0 0 0 0 0 0 0 0 0 0 0 0 0 0 0 0 0 0 0 0 0 0 0 0 0 0 0 0 0 0 0 0 0 0 0 0 0 0 0 0 0 0 0 0 0 0 0 0 0 0 0 0 0 0 0 0 0 0 0 0 0 0 0 0 0 0 0 0 0 0 0 0 0 0 0 0 0 0 0 0 0 0 0 0 0 0 0 0 0 0 0 0 0 0 0 0 0 0 0 0 0 0 0 0 0 0 0 0 0 0 0 0 0 0 0 0 l 0.73951,0.75592 0.86942,-0.60246 -0.28469,1.01865 0.9562,0.45164 v 0 l 0.86942,-0.60219 -0.44767,-0.95806 0.9562,0.45165 0.6059,-0.86678 v 0 l -0.2847,1.01838 0.95621,0.45191 -1.02447,0.26273 0.0871,1.05384 v 0 l 0.9562,0.45191 0.6059,-0.86704 0.0868,1.0541 1.05384,0.0913 v 0 0 0 0 0 0 l 0.86915,-0.60219 -0.44767,-0.95806 0.9562,0.45164 0.6059,-0.86677 v 0 l -0.44768,-0.95806 -1.0197,0.28046 0.6059,-0.86704 -0.75274,-0.74268 v 0 l 0.9562,0.45164 0.60616,-0.86678 0.0868,1.0541 1.05358,0.0913 v 0 l 0.60589,-0.86677 -0.75274,-0.74295 1.05384,0.0913 0.26696,-1.02341 v 0 0 0 0 0 0 l -0.28495,1.01865 0.95646,0.45164 -1.02446,0.26273 0.0868,1.0541 v 0 l 0.95621,0.45165 0.60616,-0.86678 0.0868,1.0541 1.05357,0.0913 v 0 l -1.02447,0.26273 0.087,1.05384 -0.73977,-0.75565 -0.86942,0.60219 v 0 l 0.087,1.0541 1.05357,0.0913 -0.86942,0.60219 0.44794,0.95806 v 0 0 0 0 0 0 l 0.95621,0.4519 0.60589,-0.86677 0.0868,1.05383 1.05383,0.0913 v 0 l 0.6059,-0.86677 -0.75274,-0.74269 1.05357,0.0913 0.26696,-1.0234 v 0 l 0.0868,1.0541 1.05383,0.0913 -0.86942,0.60219 0.44768,0.95832 v 0 l 1.05357,0.0913 0.26696,-1.02341 0.44794,0.95806 1.01971,-0.28046 v 0 0 0 0 0 0 0 0 0 0 0 0 0 0 0 0 0 0 0 0 0 0 0 0 0 0 0 0 0 0 0 l 0.86915,-0.60219 -0.44767,-0.95806 0.9562,0.45164 0.60616,-0.86677 v 0 l -0.44794,-0.95832 -1.0197,0.28046 0.60589,-0.86678 -0.75274,-0.74268 v 0 l 0.95647,0.45164 0.6059,-0.86678 0.0868,1.05384 1.05357,0.0915 v 0 l 0.6059,-0.86704 -0.75274,-0.74268 1.05383,0.0913 0.26697,-1.02341 v 0 0 0 0 0 0 l -0.44794,-0.95806 -1.01971,0.28046 0.6059,-0.86678 -0.75274,-0.74295 v 0 l -1.0197,0.28046 0.1053,1.05225 -0.75274,-0.74269 -0.85884,0.61728 v 0 l 0.6059,-0.86678 -0.75274,-0.74295 1.05384,0.0913 0.26696,-1.02341 v 0 l -0.75274,-0.74268 -0.85884,0.61727 0.26697,-1.02341 -0.96388,-0.43497 v 0 0 0 0 0 0 l 0.9562,0.45164 0.6059,-0.86677 0.0868,1.0541 1.05384,0.0913 v 0 l 0.6059,-0.86678 -0.75274,-0.74295 1.05357,0.0913 0.26696,-1.02341 v 0 l 0.0871,1.0541 1.05357,0.0913 -0.86942,0.60246 0.44767,0.95805 v 0 l 1.05384,0.0913 0.26696,-1.0234 0.44768,0.95832 1.0197,-0.28046 v 0 0 0 0 0 0 l 0.6059,-0.86704 -0.75274,-0.74269 1.05357,0.0913 0.26696,-1.02341 v 0 l -0.75273,-0.74295 -0.85858,0.61754 0.26697,-1.02341 -0.96414,-0.43497 v 0 l 1.05383,0.0913 0.26697,-1.02341 0.44767,0.95806 1.0197,-0.28046 v 0 l 0.26697,-1.02314 -0.96388,-0.43524 1.01971,-0.28046 -0.10531,-1.05225 v 0 0 0 0 0 0 0 0 0 0 0 0 0 0 0 0 0 0 0 0 0 0 0 0 0 0 0 0 0 0 0 l -0.28469,1.01865 0.9562,0.45164 -1.02446,0.26273 0.0871,1.05384 v 0 l 0.9562,0.4519 0.6059,-0.86677 0.0868,1.05383 1.05383,0.0913 v 0 l -1.02446,0.26274 0.0868,1.0541 -0.73977,-0.75592 -0.86916,0.60246 v 0 l 0.0868,1.05383 1.05357,0.0913 -0.86915,0.60246 0.44767,0.95805 v 0 0 0 0 0 0 l 0.95621,0.45165 0.60589,-0.86678 0.0871,1.0541 1.05357,0.0913 v 0 l 0.6059,-0.86677 -0.75274,-0.74295 1.05357,0.0913 0.26696,-1.02314 v 0 l 0.0871,1.05383 1.05357,0.0913 -0.86942,0.60246 0.44768,0.95805 v 0 l 1.05383,0.0913 0.26697,-1.02314 0.44767,0.95806 1.01971,-0.28046 v 0 0 0 0 0 0 l -1.02447,0.26273 0.0871,1.05383 -0.73978,-0.75565 -0.86942,0.6022 v 0 l 0.0871,1.0541 1.05357,0.0913 -0.86942,0.60219 0.44767,0.95805 v 0 l -0.73951,-0.75565 -0.86942,0.6022 0.28469,-1.01865 -0.9562,-0.45164 v 0 l -0.86942,0.60219 0.44767,0.95832 -0.9562,-0.45191 -0.6059,0.86678 v 0 0 0 0 0 0 l 0.0868,1.0541 1.05383,0.0913 -0.86942,0.60245 0.44768,0.95806 v 0 l 1.05383,0.0913 0.26697,-1.02341 0.44767,0.95832 1.01971,-0.28046 v 0 l -0.86942,0.60219 0.44767,0.95806 -0.9562,-0.45164 -0.6059,0.86677 v 0 l 0.44768,0.95832 1.0197,-0.28046 -0.6059,0.86678 0.75274,0.74268 v 0 0 0 0 0 0 0 0 0 0 0 0 0 0 0 0 0 0 0 0 0 0 0 0 0 0 0 0 0 0 0 l 0.95647,0.45191 0.6059,-0.86677 0.0868,1.05383 1.05357,0.0913 v 0 l 0.6059,-0.86677 -0.75274,-0.74269 1.05383,0.0913 0.26697,-1.0234 v 0 l 0.0868,1.0541 1.05357,0.0913 -0.86915,0.60219 0.44767,0.95832 v 0 l 1.05357,0.0913 0.26697,-1.02341 0.44767,0.95806 1.01971,-0.28046 v 0 0 0 0 0 0 l 0.60616,-0.86678 -0.75274,-0.74295 1.05357,0.0915 0.26696,-1.02341 v 0 l -0.75274,-0.74295 -0.85884,0.61728 0.26697,-1.02341 -0.96388,-0.43498 v 0 l 1.05357,0.0913 0.26697,-1.02314 0.44767,0.95805 1.01971,-0.28045 v 0 l 0.26696,-1.02341 -0.96388,-0.43498 1.01971,-0.28046 -0.10531,-1.05224 v 0 0 0 0 0 0 l 0.0871,1.05383 1.05357,0.0913 -0.86915,0.60246 0.44767,0.95805 v 0 l 1.05357,0.0913 0.26697,-1.02314 0.44767,0.95806 1.01971,-0.28046 v 0 l -0.86916,0.60219 0.44768,0.95832 -0.95621,-0.45191 -0.60589,0.86678 v 0 l 0.44767,0.95832 1.0197,-0.28046 -0.60589,0.86677 0.75274,0.74295 v 0 0 0 0 0 0 l 1.05357,0.0913 0.26696,-1.0234 0.44768,0.95805 1.0197,-0.28046 v 0 l 0.26697,-1.02314 -0.96388,-0.43524 1.0197,-0.28046 -0.1053,-1.05225 v 0 l 0.44794,0.95806 1.0197,-0.28046 -0.60589,0.86678 0.75274,0.74295 v 0 l 1.0197,-0.28046 -0.1053,-1.05225 0.75274,0.74269 0.85883,-0.61728 v 0 0 0 0 0 0 0 0 0 0 0 0 0 0 0 0 0 0 0 0 0 0 0 0 0 0 0 0 0 0 0 0 0 0 0 0 0 0 0 0 0 0 0 0 0 0 0 0 0 0 0 0 0 0 0 0 0 0 0 0 0 0 0 0 0 0 0 0 0 0 0 0 0 0 0 0 0 0 0 0 0 0 0 0 0 0 0 0 0 0 0 0 0 0 0 0 0 0 0 0 0 0 0 0 0 0 0 0 0 0 0 0 0 0 0 0 0 0 0 0 0 0 0 0 0 0 0 0 0 0 0 0 0 0 0 0 0 0 0 0 0 0 0 0 0 0 0 0 0 0 0 0 0 0 0 0 l -1.05198,-0.10953 -0.28469,1.01864 -0.43101,-0.96599 -1.02446,0.26273 v 0 l -0.28469,1.01865 0.9562,0.45164 -1.02447,0.26273 0.0871,1.0541 v 0 l -0.43101,-0.96599 -1.02446,0.26273 0.62071,-0.85619 -0.73951,-0.75565 v 0 l -1.02447,0.26273 0.0868,1.05383 -0.73978,-0.75591 -0.86915,0.60245 v 0 0 0 0 0 0 l -0.2847,1.01839 0.95621,0.4519 -1.02447,0.26274 0.0868,1.05383 v 0 l 0.95647,0.45191 0.6059,-0.86704 0.0868,1.0541 1.05357,0.0913 v 0 l -1.02446,0.26273 0.087,1.0541 -0.73977,-0.75591 -0.86942,0.60219 v 0 l 0.0871,1.0541 1.05357,0.0913 -0.86942,0.60245 0.44794,0.95806 v 0 0 0 0 0 0 l -0.43101,-0.96573 -1.02447,0.26247 0.62072,-0.85593 -0.73951,-0.75591 v 0 l -1.02447,0.26273 0.0868,1.05383 -0.73977,-0.75565 -0.86916,0.60219 v 0 l 0.62071,-0.85619 -0.73951,-0.75591 1.05172,0.1098 0.28469,-1.01865 v 0 l -0.73951,-0.75591 -0.86942,0.60246 0.28469,-1.01865 -0.9562,-0.45164 v 0 0 0 0 0 0 l -1.02447,0.26246 0.0868,1.0541 -0.73951,-0.75591 -0.86943,0.60245 v 0 l 0.0868,1.05384 1.05383,0.0915 -0.86942,0.60219 0.44768,0.95806 v 0 l -0.73978,-0.75592 -0.86915,0.60246 0.28469,-1.01865 -0.95621,-0.45164 v 0 l -0.86942,0.60219 0.44768,0.95806 -0.95621,-0.45165 -0.60589,0.86678 v 0 0 0 0 0 0 0 0 0 0 0 0 0 0 0 0 0 0 0 0 0 0 0 0 0 0 0 0 0 0 0 l -0.28469,1.01864 0.9562,0.45165 -1.02447,0.26273 0.0868,1.0541 v 0 l 0.95647,0.45164 0.60589,-0.86677 0.0868,1.0541 1.05357,0.0913 v 0 l -1.02421,0.26273 0.0868,1.05384 -0.73978,-0.75565 -0.86942,0.60219 v 0 l 0.0871,1.0541 1.05357,0.0913 -0.86916,0.60218 0.44768,0.95806 v 0 0 0 0 0 0 l 0.9562,0.45191 0.6059,-0.86678 0.0871,1.05384 1.05357,0.0913 v 0 l 0.60589,-0.86677 -0.75274,-0.74269 1.05357,0.0913 0.26697,-1.0234 v 0 l 0.0871,1.05409 1.05357,0.0913 -0.86942,0.6022 0.44767,0.95805 v 0 l 1.05384,0.0916 0.26696,-1.02341 0.44768,0.95806 1.0197,-0.28046 v 0 0 0 0 0 0 l -1.02447,0.26273 0.0871,1.0541 -0.73977,-0.75592 -0.86942,0.6022 v 0 l 0.0868,1.0541 1.05384,0.0913 -0.86943,0.60219 0.44768,0.95832 v 0 l -0.73978,-0.75592 -0.86915,0.6022 0.28469,-1.01838 -0.9562,-0.45191 v 0 l -0.86942,0.60245 0.44767,0.95806 -0.9562,-0.45164 -0.6059,0.86677 v 0 0 0 0 0 0 l 0.0868,1.05384 1.05384,0.0915 -0.86942,0.60219 0.44767,0.95806 v 0 l 1.05357,0.0913 0.26697,-1.02314 0.44794,0.95805 1.0197,-0.28045 v 0 l -0.86942,0.60219 0.44768,0.95832 -0.95621,-0.45191 -0.60589,0.86704 v 0 l 0.44767,0.95806 1.01971,-0.28046 -0.6059,0.86677 0.75274,0.74295 v 0 0 0 0 0 0 0 0 0 0 0 0 0 0 0 0 0 0 0 0 0 0 0 0 0 0 0 0 0 0 0 l -0.43101,-0.96573 -1.02446,0.26247 0.62097,-0.85593 -0.73977,-0.75591 v 0 l -1.02447,0.26273 0.0871,1.05383 -0.73978,-0.75591 -0.86942,0.60246 v 0 l 0.62098,-0.8562 -0.73977,-0.75591 1.05198,0.1098 0.28469,-1.01864 v 0 l -0.73977,-0.75592 -0.86942,0.60219 0.28495,-1.01838 -0.95647,-0.45164 v 0 0 0 0 0 0 l -1.02446,0.26246 0.087,1.0541 -0.73977,-0.75591 -0.86942,0.60246 v 0 l 0.0871,1.05383 1.05357,0.0913 -0.86942,0.60246 0.44794,0.95806 v 0 l -0.73978,-0.75592 -0.86942,0.60246 0.28469,-1.01865 -0.9562,-0.45164 v 0 l -0.86942,0.60219 0.44794,0.95806 -0.95647,-0.45165 -0.6059,0.86678 v 0 0 0 0 0 0 l 0.62098,-0.85619 -0.73978,-0.75565 1.05199,0.10953 0.28469,-1.01864 v 0 l -0.73978,-0.75592 -0.86915,0.60246 0.28469,-1.01865 -0.95647,-0.45164 v 0 l 1.05198,0.10954 0.2847,-1.01838 0.431,0.96572 1.02447,-0.26273 v 0 l 0.28469,-1.01864 -0.9562,-0.45165 1.02446,-0.26273 -0.0868,-1.05383 v 0 0 0 0 0 0 l -0.73978,-0.75592 -0.86942,0.60219 0.28469,-1.01864 -0.9562,-0.45165 v 0 l -0.86942,0.6022 0.44767,0.95832 -0.9562,-0.45191 -0.6059,0.86704 v 0 l 0.2847,-1.01865 -0.95621,-0.45164 1.02447,-0.26273 -0.0868,-1.0541 v 0 l -0.95647,-0.45165 -0.6059,0.86678 -0.0868,-1.0541 -1.05357,-0.0913 v 0 0 0 0 0 0 0 0 0 0 0 0 0 0 0 0 0 0 0 0 0 0 0 0 0 0 0 0 0 0 0 l -1.02447,0.26273 0.0868,1.0541 -0.73977,-0.75592 -0.86916,0.6022 v 0 l 0.0868,1.0541 1.05357,0.0913 -0.86916,0.60219 0.44768,0.95832 v 0 l -0.73978,-0.75592 -0.86942,0.6022 0.28469,-1.01838 -0.9562,-0.45191 v 0 l -0.86916,0.60219 0.44768,0.95832 -0.95621,-0.45191 -0.60616,0.86704 v 0 0 0 0 0 0 l 0.0871,1.05384 1.05357,0.0913 -0.86916,0.60245 0.44768,0.95806 v 0 l 1.05357,0.0913 0.26696,-1.02314 0.44768,0.95805 1.0197,-0.28045 v 0 l -0.86915,0.60219 0.44767,0.95832 -0.9562,-0.45191 -0.6059,0.86677 v 0 l 0.44768,0.95833 1.0197,-0.28046 -0.60589,0.86677 0.75273,0.74295 v 0 0 0 0 0 0 l -0.73977,-0.75591 -0.86942,0.60219 0.28469,-1.01865 -0.9562,-0.45164 v 0 l -0.86942,0.60219 0.44794,0.95832 -0.95647,-0.45191 -0.6059,0.86704 v 0 l 0.28496,-1.01864 -0.95647,-0.45165 1.02446,-0.26273 -0.0868,-1.0541 v 0 l -0.9562,-0.45164 -0.60616,0.86677 -0.0868,-1.0541 -1.05357,-0.0913 v 0 0 0 0 0 0 l -0.86942,0.60219 0.44768,0.95832 -0.95621,-0.4519 -0.60589,0.86677 v 0 l 0.44767,0.95832 1.01971,-0.28046 -0.6059,0.86678 0.75274,0.74295 v 0 l -0.9562,-0.45191 -0.6059,0.86678 -0.0871,-1.05384 -1.05357,-0.0913 v 0 l -0.60589,0.86677 0.75273,0.74295 -1.05357,-0.0915 -0.26696,1.02341 v 0 0 0 0 0 0 0 0 0 0 0 0 0 0 0 0 0 0 0 0 0 0 0 0 0 0 0 0 0 0 0 0 0 0 0 0 0 0 0 0 0 0 0 0 0 0 0 0 0 0 0 0 0 0 0 0 0 0 0 0 0 0 0 0 0 0 0 0 0 0 0 0 0 0 0 0 0 0 0 0 0 0 0 0 0 0 0 0 0 0 0 0 0 0 0 0 0 0 0 0 0 0 0 0 0 0 0 0 0 0 0 0 0 0 0 0 0 0 0 0 0 0 0 0 0 0 0 0 0 0 0 0 0 0 0 0 0 0 0 0 0 0 0 0 0 0 0 0 0 0 0 0 0 0 0 0 l -0.28469,1.01864 0.9562,0.45165 -1.02446,0.26273 0.0868,1.0541 v 0 l 0.95647,0.45164 0.60589,-0.86677 0.0868,1.05383 1.05357,0.0915 v 0 l -1.0242,0.26246 0.0868,1.0541 -0.73978,-0.75591 -0.86915,0.60246 v 0 l 0.0868,1.05383 1.05357,0.0915 -0.86915,0.60219 0.44767,0.95805 v 0 0 0 0 0 0 l 0.9562,0.45191 0.6059,-0.86704 0.0871,1.0541 1.05357,0.0913 v 0 l 0.60589,-0.86677 -0.75273,-0.74295 1.05357,0.0915 0.26696,-1.02341 v 0 l 0.0871,1.05383 1.05357,0.0916 -0.86942,0.60219 0.44767,0.95806 v 0 l 1.05384,0.0913 0.26696,-1.02315 0.44768,0.95806 1.0197,-0.28046 v 0 0 0 0 0 0 l -1.02446,0.26273 0.087,1.0541 -0.73977,-0.75591 -0.86942,0.60219 v 0 l 0.0871,1.0541 1.05357,0.0913 -0.86942,0.60219 0.44767,0.95832 v 0 l -0.73951,-0.75591 -0.86942,0.60219 0.28469,-1.01838 -0.9562,-0.45191 v 0 l -0.86942,0.60246 0.44767,0.95805 -0.9562,-0.4519 -0.6059,0.86704 v 0 0 0 0 0 0 l 0.0868,1.05383 1.05384,0.0916 -0.86942,0.60219 0.44767,0.95805 v 0 l 1.05358,0.0913 0.26696,-1.02315 0.44794,0.95806 1.0197,-0.28046 v 0 l -0.86942,0.60219 0.44768,0.95832 -0.95621,-0.45191 -0.60589,0.86678 v 0 l 0.44767,0.95832 1.01971,-0.28046 -0.6059,0.86678 0.75274,0.74295 v 0 0 0 0 0 0 0 0 0 0 0 0 0 0 0 0 0 0 0 0 0 0 0 0 0 0 0 0 0 0 0 l 0.9562,0.45164 0.60617,-0.86677 0.0868,1.05383 1.05357,0.0915 v 0 l 0.6059,-0.86704 -0.75274,-0.74269 1.05383,0.0913 0.26697,-1.02341 v 0 l 0.0868,1.0541 1.05357,0.0913 -0.86916,0.60219 0.44768,0.95832 v 0 l 1.05357,0.0913 0.26696,-1.02341 0.44768,0.95806 1.0197,-0.28046 v 0 0 0 0 0 0 l 0.6059,-0.86678 -0.75274,-0.74268 1.05383,0.0913 0.26697,-1.02341 v 0 l -0.75274,-0.74295 -0.85884,0.61727 0.26697,-1.02314 -0.96388,-0.43524 v 0 l 1.05357,0.0916 0.26697,-1.02341 0.44767,0.95805 1.0197,-0.28045 v 0 l 0.26697,-1.02341 -0.96388,-0.43498 1.01971,-0.28046 -0.10531,-1.05224 v 0 0 0 0 0 0 l 0.0871,1.05383 1.05357,0.0915 -0.86942,0.60219 0.44794,0.95806 v 0 l 1.05357,0.0913 0.26696,-1.02315 0.44768,0.95806 1.0197,-0.28046 v 0 l -0.86915,0.60219 0.44767,0.95832 -0.9562,-0.4519 -0.60616,0.86677 v 0 l 0.44794,0.95832 1.0197,-0.28046 -0.60589,0.86678 0.75274,0.74295 v 0 0 0 0 0 0 l 1.05357,0.0913 0.26696,-1.02341 0.44768,0.95806 1.0197,-0.28046 v 0 l 0.26696,-1.02314 -0.96387,-0.43524 1.0197,-0.28046 -0.1053,-1.05225 v 0 l 0.44794,0.95806 1.0197,-0.28046 -0.60589,0.86704 0.75274,0.74268 v 0 l 1.0197,-0.28046 -0.1053,-1.05224 0.75273,0.74295 0.85884,-0.61728 v 0 0 0 0 0 0 0 0 0 0 0 0 0 0 0 0 0 0 0 0 0 0 0 0 0 0 0 0 0 0 0 l -1.02446,0.26247 0.0868,1.0541 -0.73978,-0.75591 -0.86915,0.60245 v 0 l 0.0868,1.05384 1.05357,0.0913 -0.86915,0.60245 0.44767,0.95806 v 0 l -0.73977,-0.75591 -0.86943,0.60245 0.28496,-1.01864 -0.95647,-0.45165 v 0 l -0.86915,0.60219 0.44767,0.95806 -0.9562,-0.45164 -0.6059,0.86677 v 0 0 0 0 0 0 l 0.0868,1.0541 1.05358,0.0913 -0.86916,0.60219 0.44767,0.95833 v 0 l 1.05357,0.0913 0.26697,-1.02341 0.44767,0.95805 1.01971,-0.28045 v 0 l -0.86916,0.60245 0.44768,0.95806 -0.95621,-0.45164 -0.60589,0.86677 v 0 l 0.44767,0.95806 1.01971,-0.28046 -0.6059,0.86677 0.75274,0.74295 v 0 0 0 0 0 0 l -0.73977,-0.75591 -0.86943,0.60245 0.28496,-1.01864 -0.95647,-0.45164 v 0 l -0.86915,0.60219 0.44767,0.95805 -0.9562,-0.45164 -0.6059,0.86677 v 0 l 0.28469,-1.01864 -0.95647,-0.45165 1.02447,-0.26273 -0.0868,-1.05383 v 0 l -0.95621,-0.45191 -0.60589,0.86677 -0.0871,-1.05383 -1.05357,-0.0913 v 0 0 0 0 0 0 l -0.86942,0.60219 0.44767,0.95806 -0.9562,-0.45165 -0.6059,0.86678 v 0 l 0.44768,0.95805 1.0197,-0.28045 -0.60589,0.86677 0.75274,0.74295 v 0 l -0.95621,-0.45164 -0.60589,0.86677 -0.0868,-1.0541 -1.05383,-0.0913 v 0 l -0.6059,0.86678 0.75274,0.74295 -1.05357,-0.0913 -0.26697,1.02341 v 0 0 0 0 0 0 0 0 0 0 0 0 0 0 0 0 0 0 0 0 0 0 0 0 0 0 0 0 0 0 0 l 0.0868,1.05384 1.05383,0.0913 -0.86942,0.60246 0.44768,0.95805 v 0 l 1.05357,0.0913 0.26723,-1.02314 0.44767,0.95806 1.01971,-0.28046 v 0 l -0.86942,0.60219 0.44767,0.95805 -0.9562,-0.45164 -0.6059,0.86678 v 0 l 0.44768,0.95832 1.0197,-0.28046 -0.6059,0.86677 0.75274,0.74269 v 0 0 0 0 0 0 l 1.05384,0.0915 0.26696,-1.0234 0.44768,0.95805 1.0197,-0.28046 v 0 l 0.26697,-1.02314 -0.96388,-0.43524 1.0197,-0.28046 -0.1053,-1.05225 v 0 l 0.44768,0.95806 1.0197,-0.28046 -0.6059,0.86678 0.75274,0.74295 v 0 l 1.01971,-0.28046 -0.10504,-1.05225 0.75274,0.74269 0.85857,-0.61728 v 0 0 0 0 0 0 l -0.86916,0.60246 0.44768,0.95806 -0.95647,-0.45165 -0.6059,0.86678 v 0 l 0.44794,0.95805 1.01971,-0.28045 -0.6059,0.86677 0.75274,0.74295 v 0 l -0.95647,-0.45164 -0.60589,0.86677 -0.0868,-1.0541 -1.05357,-0.0913 v 0 l -0.60589,0.86678 0.75274,0.74295 -1.05384,-0.0913 -0.26696,1.02315 v 0 0 0 0 0 0 l 0.44794,0.95832 1.0197,-0.28046 -0.60589,0.86678 0.75273,0.74295 v 0 l 1.01971,-0.28046 -0.10531,-1.05252 0.75274,0.74295 0.85884,-0.61727 v 0 l -0.60589,0.86678 0.75274,0.74295 -1.05384,-0.0913 -0.26696,1.02314 v 0 l 0.75274,0.74295 0.85883,-0.61727 -0.26696,1.0234 0.96388,0.43498 v 0 0 0 0 0 0 0 0 0 0 0 0 0 0 0 0 0 0 0 0 0 0 0 0 0 0 0 0 0 0 0 0 0 0 0 0 0 0 0 0 0 0 0 0 0 0 0 0 0 0 0 0 0 0 0 0 0 0 0 0 0 0 0 0 0 0 0 0 0 0 0 0 0 0 0 0 0 0 0 0 0 0 0 0 0 0 0 0 0 0 0 0 0 0 0 0 0 0 0 0 0 0 0 0 0 0 0 0 0 0 0 0 0 0 0 0 0 0 0 0 0 0 0 0 0 0 0 0 0 0 0 0 0 0 0 0 0 0 0 0 0 0 0 0 0 0 0 0 0 0 0 0 0 0 0 0 0 0 0 0 0 0 0 0 0 0 0 0 0 0 0 0 0 0 0 0 0 0 0 0 0 0 0 0 0 0 0 0 0 0 0 0 0 0 0 0 0 0 0 0 0 0 0 0 0 0 0 0 0 0 0 0 0 0 0 0 0 0 0 0 0 0 0 0 0 0 0 0 0 0 0 0 0 0 0 0 0 0 0 0 0 0 0 0 0 0 0 0 0 0 0 0 0 0 0 0 0 0 0 0 0 0 0 0 0 0 0 0 0 0 0 0 0 0 0 0 0 0 0 0 0 0 0 0 0 0 0 0 0 0 0 0 0 0 0 0 0 0 0 0 0 0 0 0 0 0 0 0 0 0 0 0 0 0 0 0 0 0 0 0 0 0 0 0 0 0 0 0 0 0 0 0 0 0 0 0 0 0 0 0 0 0 0 0 0 0 0 0 0 0 0 0 0 0 0 0 0 0 0 0 0 0 0 0 0 0 0 0 0 0 0 0 0 0 0 0 0 0 0 0 0 0 0 0 0 0 0 0 0 0 0 0 0 0 0 0 0 0 0 0 0 0 0 0 0 0 0 0 0 0 0 0 0 0 0 0 0 0 0 0 0 0 0 0 0 0 0 0 0 0 0 0 0 0 0 0 0 0 0 0 0 0 0 0 0 0 0 0 0 0 0 0 0 0 0 0 0 0 0 0 0 0 0 0 0 0 0 0 0 0 0 0 0 0 0 0 0 0 0 0 0 0 0 0 0 0 0 0 0 0 0 0 0 0 0 0 0 0 0 0 0 0 0 0 0 0 0 0 0 0 0 0 0 0 0 0 0 0 0 0 0 0 0 0 0 0 0 0 0 0 0 0 0 0 0 0 0 0 0 0 0 0 0 0 0 0 0 0 0 0 0 0 0 0 0 0 0 0 0 0 0 0 0 0 0 0 0 0 0 0 0 0 0 0 0 0 0 0 0 0 0 0 0 0 0 0 0 0 0 0 0 0 0 0 0 0 0 0 0 0 0 0 0 0 0 0 0 0 0 0 0 0 0 0 0 0 0 0 0 0 0 0 0 0 0 0 0 0 0 0 0 0 0 0 0 0 0 0 0 0 0 0 0 0 0 0 0 0 0 0 0 0 0 0 0 0 0 0 0 0 0 0 0 0 0 0 0 0 0 0 0 0 0 0 0 0 0 0 0 0 0 0 0 0 0 0 0 0 0 0 0 0 0 0 0 0 0 0 0 0 0 0 0 0 0 0 0 0 0 0 0 0 0 0 0 0 0 0 0 0 0 0 0 0 0 0 0 0 0 0 0 0 0 0 0 0 0 0 0 0 0 0 0 0 0 0 0 0 0 0 0 0 0 0 0 0 0 0 0 0 0 0 0 0 0 0 0 0 0 0 0 0 0 0 0 0 0 0 0 0 0 l -0.43101,-0.96573 -1.02447,0.26247 0.62098,-0.85593 -0.73978,-0.75591 v 0 l -1.02446,0.26273 0.0871,1.05383 -0.73978,-0.75565 -0.86942,0.60219 v 0 l 0.62098,-0.85619 -0.73978,-0.75591 1.05199,0.1098 0.28469,-1.01865 v 0 l -0.73978,-0.75591 -0.86915,0.60246 0.28469,-1.01865 -0.95647,-0.45164 v 0 0 0 0 0 0 l -1.0242,0.26246 0.0868,1.0541 -0.73978,-0.75591 -0.86915,0.60245 v 0 l 0.0868,1.05384 1.05357,0.0916 -0.86915,0.60219 0.44767,0.95805 v 0 l -0.73977,-0.75591 -0.86942,0.60246 0.28469,-1.01865 -0.95621,-0.45164 v 0 l -0.86942,0.60219 0.44794,0.95805 -0.95647,-0.45164 -0.60589,0.86677 v 0 0 0 0 0 0 l 0.62097,-0.85619 -0.73977,-0.75565 1.05198,0.10954 0.28469,-1.01865 v 0 l -0.73977,-0.75565 -0.86916,0.6022 0.28469,-1.01865 -0.9562,-0.45164 v 0 l 1.05172,0.10953 0.28469,-1.01838 0.43101,0.96573 1.02446,-0.26273 v 0 l 0.2847,-1.01838 -0.95621,-0.45191 1.02447,-0.26273 -0.0868,-1.05384 v 0 0 0 0 0 0 l -0.73977,-0.75591 -0.86942,0.60219 0.28469,-1.01838 -0.9562,-0.45191 v 0 l -0.86942,0.60246 0.44794,0.95805 -0.95647,-0.45164 -0.6059,0.86678 v 0 l 0.28469,-1.01865 -0.9562,-0.45164 1.02446,-0.26273 -0.0868,-1.0541 v 0 l -0.95647,-0.45165 -0.60589,0.86678 -0.0868,-1.0541 -1.05357,-0.0913 v 0 0 0 0 0 0 0 0 0 0 0 0 0 0 0 0 0 0 0 0 0 0 0 0 0 0 0 0 0 0 0 l -1.02446,0.26273 0.0868,1.0541 -0.73978,-0.75592 -0.86915,0.60219 v 0 l 0.0868,1.0541 1.05357,0.0913 -0.86915,0.6022 0.44767,0.95832 v 0 l -0.73977,-0.75592 -0.86942,0.60219 0.28495,-1.01838 -0.95647,-0.45191 v 0 l -0.86915,0.60246 0.44767,0.95806 -0.9562,-0.45165 -0.6059,0.86678 v 0 0 0 0 0 0 l 0.0868,1.05383 1.05358,0.0916 -0.86916,0.60219 0.44767,0.95806 v 0 l 1.05358,0.0913 0.26696,-1.02314 0.44767,0.95805 1.01971,-0.28046 v 0 l -0.86916,0.60219 0.44768,0.95833 -0.95621,-0.45191 -0.60589,0.86677 v 0 l 0.44767,0.95832 1.01971,-0.28046 -0.6059,0.86678 0.75274,0.74295 v 0 0 0 0 0 0 l -0.73977,-0.75591 -0.86943,0.60219 0.28496,-1.01838 -0.95647,-0.45191 v 0 l -0.86915,0.60245 0.44767,0.95806 -0.9562,-0.45164 -0.6059,0.86677 v 0 l 0.28469,-1.01864 -0.95647,-0.45165 1.02447,-0.26273 -0.0868,-1.0541 v 0 l -0.95621,-0.45164 -0.60589,0.86677 -0.0871,-1.0541 -1.05357,-0.0913 v 0 0 0 0 0 0 l -0.86942,0.60246 0.44767,0.95805 -0.9562,-0.45191 -0.6059,0.86704 v 0 l 0.44768,0.95806 1.0197,-0.28046 -0.60589,0.86678 0.75274,0.74295 v 0 l -0.95621,-0.45191 -0.60589,0.86704 -0.0868,-1.0541 -1.05383,-0.0913 v 0 l -0.6059,0.86677 0.75274,0.74295 -1.05357,-0.0915 -0.26696,1.0234 v 0 0 0 0 0 0 0 0 0 0 0 0 0 0 0 0 0 0 0 0 0 0 0 0 0 0 0 0 0 0 0 l 0.62097,-0.85619 -0.73977,-0.75565 1.05198,0.10954 0.28469,-1.01865 v 0 l -0.73977,-0.75565 -0.86942,0.6022 0.28469,-1.01865 -0.95621,-0.45164 v 0 l 1.05199,0.10953 0.28469,-1.01838 0.43101,0.96573 1.02446,-0.26273 v 0 l 0.28469,-1.01865 -0.9562,-0.45164 1.02447,-0.26273 -0.0871,-1.05384 v 0 0 0 0 0 0 l -0.73978,-0.75591 -0.86915,0.60219 0.28469,-1.01838 -0.95621,-0.45191 v 0 l -0.86942,0.60246 0.44768,0.95805 -0.95621,-0.45164 -0.60589,0.86678 v 0 l 0.28469,-1.01865 -0.9562,-0.45164 1.02446,-0.26274 -0.0871,-1.0541 v 0 l -0.9562,-0.45164 -0.6059,0.86678 -0.087,-1.0541 -1.05357,-0.0913 v 0 0 0 0 0 0 l 1.05198,0.10981 0.28469,-1.01865 0.43101,0.96573 1.02446,-0.26273 v 0 l 0.2847,-1.01838 -0.95621,-0.45191 1.02447,-0.26273 -0.0871,-1.05384 v 0 l 0.43101,0.96573 1.02446,-0.26273 -0.62097,0.85619 0.73977,0.75592 v 0 l 1.02447,-0.26273 -0.0868,-1.0541 0.73951,0.75591 0.86943,-0.60219 v 0 0 0 0 0 0 l 0.28469,-1.01865 -0.95621,-0.45164 1.02447,-0.26273 -0.0868,-1.0541 v 0 l -0.95647,-0.45165 -0.6059,0.86678 -0.0868,-1.0541 -1.05357,-0.0913 v 0 l 1.0242,-0.26273 -0.0868,-1.05384 0.73977,0.75565 0.86916,-0.60219 v 0 l -0.0868,-1.0541 -1.05357,-0.0913 0.86916,-0.60219 -0.44768,-0.95806 v 0 0 0 0 0 0 0 0 0 0 0 0 0 0 0 0 0 0 0 0 0 0 0 0 0 0 0 0 0 0 0 l -0.73977,-0.75591 -0.86916,0.60219 0.2847,-1.01838 -0.95621,-0.45191 v 0 l -0.86942,0.60245 0.44768,0.95806 -0.95621,-0.45164 -0.60589,0.86677 v 0 l 0.28469,-1.01864 -0.95621,-0.45165 1.02447,-0.26273 -0.0871,-1.0541 v 0 l -0.9562,-0.45164 -0.6059,0.86677 -0.087,-1.0541 -1.05357,-0.0913 v 0 0 0 0 0 0 l -0.86942,0.60219 0.44794,0.95832 -0.95647,-0.45191 -0.60589,0.86704 v 0 l 0.44794,0.95806 1.0197,-0.28046 -0.6059,0.86678 0.75274,0.74295 v 0 l -0.95646,-0.45191 -0.6059,0.86704 -0.0868,-1.0541 -1.05357,-0.0913 v 0 l -0.6059,0.86677 0.75274,0.74295 -1.05384,-0.0915 -0.26696,1.0234 v 0 0 0 0 0 0 l 0.28469,-1.01838 -0.9562,-0.4519 1.02446,-0.26274 -0.0868,-1.05383 v 0 l -0.95647,-0.45191 -0.60589,0.86704 -0.0868,-1.0541 -1.05357,-0.0913 v 0 l 1.02447,-0.26273 -0.087,-1.0541 0.73978,0.75591 0.86942,-0.60219 v 0 l -0.087,-1.0541 -1.05357,-0.0913 0.86942,-0.60246 -0.44794,-0.95805 v 0 0 0 0 0 0 l -0.95621,-0.45165 -0.60589,0.86678 -0.0868,-1.0541 -1.05384,-0.0913 v 0 l -0.6059,0.86677 0.75274,0.74295 -1.05357,-0.0913 -0.26696,1.02341 v 0 l -0.0871,-1.0541 -1.05357,-0.0913 0.86942,-0.60246 -0.44767,-0.95806 v 0 l -1.05384,-0.0913 -0.26696,1.02341 -0.44768,-0.95832 -1.0197,0.28046 v 0 0 0 0 0 0 0 0 0 0 0 0 0 0 0 0 0 0 0 0 0 0 0 0 0 0 0 0 0 0 0 0 0 0 0 0 0 0 0 0 0 0 0 0 0 0 0 0 0 0 0 0 0 0 0 0 0 0 0 0 0 0 0 0 0 0 0 0 0 0 0 0 0 0 0 0 0 0 0 0 0 0 0 0 0 0 0 0 0 0 0 0 0 0 0 0 0 0 0 0 0 0 0 0 0 0 0 0 0 0 0 0 0 0 0 0 0 0 0 0 0 0 0 0 0 0 0 0 0 0 0 0 0 0 0 0 0 0 0 0 0 0 0 0 0 0 0 0 0 0 0 0 0 0 0 0 l -1.02447,0.26273 0.087,1.0541 -0.73978,-0.75591 -0.86942,0.60219 v 0 l 0.0871,1.0541 1.05357,0.0913 -0.86942,0.60219 0.44767,0.95832 v 0 l -0.73951,-0.75591 -0.86942,0.60219 0.28469,-1.01838 -0.9562,-0.45191 v 0 l -0.86942,0.60246 0.44767,0.95805 -0.9562,-0.45164 -0.6059,0.86677 v 0 0 0 0 0 0 l 0.0871,1.0541 1.05357,0.0913 -0.86942,0.6022 0.44768,0.95805 v 0 l 1.05383,0.0916 0.26697,-1.02341 0.44767,0.95806 1.01971,-0.28046 v 0 l -0.86942,0.60219 0.44767,0.95832 -0.9562,-0.45191 -0.6059,0.86704 v 0 l 0.44768,0.95806 1.0197,-0.28046 -0.6059,0.86677 0.75274,0.74295 v 0 0 0 0 0 0 l -0.73951,-0.75591 -0.86942,0.60219 0.28469,-1.01838 -0.9562,-0.45191 v 0 l -0.86942,0.60246 0.44767,0.95805 -0.9562,-0.45164 -0.6059,0.86678 v 0 l 0.2847,-1.01865 -0.95621,-0.45164 1.02447,-0.26274 -0.0871,-1.0541 v 0 l -0.9562,-0.45164 -0.6059,0.86678 -0.0868,-1.0541 -1.05384,-0.0913 v 0 0 0 0 0 0 l -0.86915,0.60246 0.44767,0.95806 -0.9562,-0.45165 -0.6059,0.86678 v 0 l 0.44768,0.95805 1.0197,-0.28045 -0.6059,0.86677 0.75274,0.74295 v 0 l -0.9562,-0.45164 -0.6059,0.86677 -0.087,-1.0541 -1.05358,-0.0913 v 0 l -0.60589,0.86678 0.75274,0.74295 -1.05357,-0.0913 -0.26723,1.02315 v 0 0 0 0 0 0 0 0 0 0 0 0 0 0 0 0 0 0 0 0 0 0 0 0 0 0 0 0 0 0 0 l 0.0871,1.0541 1.05357,0.0913 -0.86916,0.60219 0.44768,0.95832 v 0 l 1.05357,0.0913 0.26696,-1.0234 0.44768,0.95832 1.0197,-0.28046 v 0 l -0.86916,0.60219 0.44768,0.95806 -0.9562,-0.45165 -0.6059,0.86678 v 0 l 0.44767,0.95805 1.01971,-0.28046 -0.6059,0.86678 0.75274,0.74295 v 0 0 0 0 0 0 l 1.05357,0.0913 0.26697,-1.02314 0.44767,0.95805 1.01971,-0.28045 v 0 l 0.26696,-1.02341 -0.96388,-0.43498 1.01971,-0.28046 -0.10531,-1.05224 v 0 l 0.44794,0.95805 1.01971,-0.28046 -0.6059,0.86678 0.75274,0.74295 v 0 l 1.01971,-0.28046 -0.10531,-1.05251 0.75274,0.74295 0.85884,-0.61728 v 0 0 0 0 0 0 l -0.86942,0.6022 0.44767,0.95832 -0.9562,-0.45191 -0.6059,0.86704 v 0 l 0.44768,0.95805 1.0197,-0.28045 -0.60589,0.86677 0.75274,0.74295 v 0 l -0.95621,-0.45191 -0.60589,0.86704 -0.0871,-1.0541 -1.05357,-0.0913 v 0 l -0.6059,0.86678 0.75274,0.74295 -1.05357,-0.0915 -0.26696,1.02341 v 0 0 0 0 0 0 l 0.44767,0.95806 1.0197,-0.28046 -0.60589,0.86704 0.75274,0.74268 v 0 l 1.0197,-0.28046 -0.1053,-1.05224 0.75274,0.74295 0.85884,-0.61728 v 0 l -0.6059,0.86678 0.75274,0.74268 -1.05357,-0.0913 -0.26697,1.02341 v 0 l 0.75274,0.74295 0.85858,-0.61727 -0.26697,1.02314 0.96414,0.43524 v 0 0 0 0 0 0 0 0 0 0 0 0 0 0 0 0 0 0 0 0 0 0 0 0 0 0 0 0 0 0 0 l -0.73977,-0.75591 -0.86942,0.60219 0.28469,-1.01838 -0.9562,-0.45191 v 0 l -0.86943,0.60219 0.44794,0.95832 -0.95646,-0.45191 -0.6059,0.86704 v 0 l 0.28496,-1.01864 -0.95647,-0.45165 1.02446,-0.26273 -0.0868,-1.0541 v 0 l -0.9562,-0.45164 -0.6059,0.86677 -0.0871,-1.0541 -1.05357,-0.0913 v 0 0 0 0 0 0 l -0.86942,0.60219 0.44768,0.95832 -0.95621,-0.4519 -0.60589,0.86703 v 0 l 0.44767,0.95806 1.0197,-0.28046 -0.60589,0.86678 0.75274,0.74295 v 0 l -0.95621,-0.45191 -0.60589,0.86704 -0.0871,-1.0541 -1.05357,-0.0913 v 0 l -0.6059,0.86677 0.75274,0.74295 -1.05357,-0.0915 -0.26696,1.02341 v 0 0 0 0 0 0 l 0.28469,-1.01839 -0.956195,-0.4519 1.024455,-0.26274 -0.0871,-1.05383 v 0 l -0.956195,-0.45191 -0.6059,0.86678 -0.08704,-1.05384 -1.053571,-0.0913 v 0 l 1.024466,-0.26273 -0.08678,-1.0541 0.739515,0.75591 0.869415,-0.60219 v 0 l -0.0868,-1.0541 -1.053835,-0.0913 0.869415,-0.60246 -0.44767,-0.95805 v 0 0 0 0 0 0 l -0.956206,-0.45165 -0.605896,0.86678 -0.08705,-1.0541 -1.053571,-0.0913 v 0 l -0.605896,0.86677 0.752739,0.74295 -1.05357,-0.0913 -0.266965,1.02314 v 0 l -0.08705,-1.05383 -1.053571,-0.0913 0.869157,-0.60246 -0.447675,-0.95805 v 0 l -1.053571,-0.0913 -0.266965,1.02315 -0.447675,-0.95806 -1.019704,0.28046 v 0 0 0 0 0 0 0 0 0 0 0 0 0 0 0 0 0 0 0 0 0 0 0 0 0 0 0 0 0 0 0 l -0.869421,0.60219 0.447675,0.95832 -0.956204,-0.45191 -0.605896,0.86704 v 0 l 0.447675,0.95806 1.019704,-0.28046 -0.605896,0.86678 0.75274,0.74295 v 0 l -0.956204,-0.45191 -0.605896,0.86704 -0.08705,-1.0541 -1.053571,-0.0913 v 0 l -0.605896,0.86677 0.75274,0.74295 -1.053571,-0.0915 -0.266964,1.0234 v 0 0 0 0 0 0 l 0.447675,0.95832 1.019704,-0.28045 -0.605896,0.86677 0.75274,0.74269 v 0 l 1.019704,-0.28046 -0.105304,-1.05225 0.752739,0.74295 0.858838,-0.61727 v 0 l -0.605896,0.86677 0.752739,0.74295 -1.05357,-0.0915 -0.266965,1.02341 v 0 l 0.75274,0.74295 0.858572,-0.61728 -0.266964,1.02315 0.964142,0.43524 v 0 0 0 0 0 0 l -0.956205,-0.45191 -0.60616,0.86704 -0.08678,-1.0541 -1.053571,-0.0913 v 0 l -0.605896,0.86677 0.75274,0.74295 -1.053836,-0.0916 -0.266964,1.02341 v 0 l -0.08678,-1.0541 -1.053571,-0.0913 0.869157,-0.60219 -0.447675,-0.95806 v 0 l -1.053571,-0.0915 -0.266965,1.02341 -0.447675,-0.95806 -1.019704,0.28046 v 0 0 0 0 0 0 l -0.60616,0.86677 0.753004,0.74295 -1.053836,-0.0913 -0.266964,1.02315 v 0 l 0.752739,0.74295 0.858838,-0.61728 -0.266965,1.02341 0.963877,0.43498 v 0 l -1.05357,-0.0913 -0.266965,1.02314 -0.447675,-0.95806 -1.019704,0.28046 v 0 l -0.266965,1.02341 0.963877,0.43497 -1.019704,0.28046 0.105304,1.05225 v 0 0 0 0 0 0 0 0 0 0 0 0 0 0 0 0 0 0 0 0 0 0 0 0 0 0 0 0 0 0 0 0 0 0 0 0 0 0 0 0 0 0 0 0 0 0 0 0 0 0 0 0 0 0 0 0 0 0 0 0 0 0 0 0 0 0 0 0 0 0 0 0 0 0 0 0 0 0 0 0 0 0 0 0 0 0 0 0 0 0 0 0 0 0 0 0 0 0 0 0 0 0 0 0 0 0 0 0 0 0 0 0 0 0 0 0 0 0 0 0 0 0 0 0 0 0 0 0 0 0 0 0 0 0 0 0 0 0 0 0 0 0 0 0 0 0 0 0 0 0 0 0 0 0 0 0 l 0.620713,-0.85593 -0.739775,-0.75591 1.051983,0.10954 0.284692,-1.01838 v 0 l -0.739775,-0.75592 -0.869156,0.60219 0.284691,-1.01838 -0.956204,-0.45191 v 0 l 1.051719,0.1098 0.284956,-1.01864 0.430742,0.96573 1.024466,-0.26273 v 0 l 0.284957,-1.01838 -0.956469,-0.45191 1.024467,-0.26247 -0.08678,-1.0541 v 0 0 0 0 0 0 l -0.739775,-0.75591 -0.869421,0.60219 0.284692,-1.01838 -0.956204,-0.45191 v 0 l -0.869421,0.60245 0.44794,0.95806 -0.956469,-0.45164 -0.605896,0.86677 v 0 l 0.284956,-1.01864 -0.956468,-0.45165 1.024466,-0.26273 -0.08678,-1.0541 v 0 l -0.956204,-0.45164 -0.605896,0.86677 -0.08705,-1.05383 -1.053571,-0.0916 v 0 0 0 0 0 0 l 1.051719,0.1098 0.284956,-1.01864 0.431006,0.96573 1.024202,-0.26247 v 0 l 0.284957,-1.01865 -0.956469,-0.45164 1.024467,-0.26273 -0.08678,-1.0541 v 0 l 0.431007,0.96573 1.024466,-0.26273 -0.620977,0.85619 0.739775,0.75591 v 0 l 1.024467,-0.26273 -0.08705,-1.05383 0.739775,0.75565 0.869421,-0.6022 v 0 0 0 0 0 0 l 0.284691,-1.01864 -0.956204,-0.45164 1.024467,-0.26274 -0.08705,-1.05383 v 0 l -0.956204,-0.45191 -0.605896,0.86678 -0.08705,-1.05384 -1.053571,-0.0916 v 0 l 1.024467,-0.26246 -0.08678,-1.0541 0.73951,0.75591 0.869421,-0.60245 v 0 l -0.08678,-1.05384 -1.053835,-0.0913 0.869421,-0.60246 -0.447675,-0.95805 v 0 0 0 0 0 0 0 0 0 0 0 0 0 0 0 0 0 0 0 0 0 0 0 0 0 0 0 0 0 0 0 l -0.739775,-0.75592 -0.869421,0.60219 0.284692,-1.01838 -0.956204,-0.45191 v 0 l -0.869157,0.60246 0.447675,0.95806 -0.956204,-0.45165 -0.60616,0.86678 v 0 l 0.284956,-1.01865 -0.956469,-0.45164 1.024467,-0.26273 -0.08678,-1.0541 v 0 l -0.956205,-0.45165 -0.605895,0.86678 -0.08705,-1.05384 -1.053571,-0.0915 v 0 0 0 0 0 0 l -0.869421,0.60245 0.447675,0.95806 -0.956204,-0.45164 -0.605896,0.86677 v 0 l 0.447675,0.95806 1.019704,-0.28046 -0.605896,0.86677 0.75274,0.74295 v 0 l -0.956204,-0.45164 -0.605896,0.86677 -0.08678,-1.0541 -1.053836,-0.0913 v 0 l -0.605896,0.86678 0.75274,0.74295 -1.053571,-0.0913 -0.266965,1.02314 v 0 0 0 0 0 0 l 0.284692,-1.01838 -0.956204,-0.45164 1.024467,-0.26274 -0.08705,-1.0541 v 0 l -0.956204,-0.45164 -0.605896,0.86678 -0.08678,-1.0541 -1.053835,-0.0913 v 0 l 1.024467,-0.26273 -0.08678,-1.0541 0.739511,0.75592 0.869421,-0.60219 v 0 l -0.08678,-1.0541 -1.053835,-0.0913 0.869421,-0.6022 -0.447675,-0.95832 v 0 0 0 0 0 0 l -0.956205,-0.45164 -0.605895,0.86677 -0.08705,-1.0541 -1.053571,-0.0913 v 0 l -0.605896,0.86678 0.75274,0.74295 -1.053571,-0.0913 -0.266965,1.0234 v 0 l -0.08705,-1.0541 -1.053571,-0.0913 0.869421,-0.60219 -0.447939,-0.95832 v 0 l -1.053571,-0.0913 -0.266965,1.02341 -0.447675,-0.95832 -1.019704,0.28072 v 0 0 0 0 0 0 0 0 0 0 0 0 0 0 0 0 0 0 0 0 0 0 0 0 0 0 0 0 0 0 0 l 1.051719,0.10954 0.284956,-1.01865 0.431006,0.96573 1.024202,-0.26247 v 0 l 0.284957,-1.01864 -0.956469,-0.45165 1.024467,-0.26273 -0.08678,-1.0541 v 0 l 0.431007,0.96573 1.024466,-0.26246 -0.620977,0.85592 0.739775,0.75592 v 0 l 1.024467,-0.26273 -0.08705,-1.05384 0.739775,0.75565 0.869421,-0.60219 v 0 0 0 0 0 0 l 0.284691,-1.01838 -0.956204,-0.45191 1.024467,-0.26273 -0.08705,-1.05384 v 0 l -0.956204,-0.45191 -0.605896,0.86678 -0.08705,-1.05384 -1.053571,-0.0913 v 0 l 1.024467,-0.26273 -0.08678,-1.0541 0.73951,0.75592 0.869421,-0.6022 v 0 l -0.08678,-1.0541 -1.053835,-0.0913 0.869421,-0.60245 -0.447675,-0.95806 v 0 0 0 0 0 0 l 0.431006,0.96573 1.024467,-0.26273 -0.620977,0.85619 0.739775,0.75592 v 0 l 1.024466,-0.26274 -0.08705,-1.05383 0.739775,0.75565 0.869421,-0.60219 v 0 l -0.620977,0.85619 0.739775,0.75591 -1.051983,-0.1098 -0.284692,1.01865 v 0 l 0.739775,0.75591 0.869421,-0.60245 -0.284956,1.01864 0.956469,0.45164 v 0 0 0 0 0 0 l 1.024466,-0.26273 -0.08705,-1.05383 0.739775,0.75565 0.869421,-0.60219 v 0 l -0.08705,-1.0541 -1.053571,-0.0913 0.869421,-0.6022 -0.447939,-0.95805 v 0 l 0.739775,0.75565 0.86942,-0.60219 -0.284691,1.01864 0.956204,0.45165 v 0 l 0.869421,-0.6022 -0.44794,-0.95832 0.956469,0.45191 0.605896,-0.86677 v 0 0 0 0 0 0 0 0 0 0 0 0 0 0 0 0 0 0 0 0 0 0 0 0 0 0 0 0 0 0 0 l 0.284691,-1.01865 -0.956204,-0.45164 1.024467,-0.26273 -0.08705,-1.0541 v 0 l -0.956204,-0.45165 -0.605896,0.86678 -0.08705,-1.0541 -1.053571,-0.0913 v 0 l 1.024467,-0.26274 -0.08705,-1.05383 0.739775,0.75565 0.869421,-0.60219 v 0 l -0.08678,-1.0541 -1.053836,-0.0913 0.869421,-0.6022 -0.447675,-0.95805 v 0 0 0 0 0 0 l -0.956204,-0.45191 -0.606161,0.86677 -0.08678,-1.05383 -1.053571,-0.0916 v 0 l -0.605896,0.86704 0.75274,0.74269 -1.053835,-0.0913 -0.266965,1.02341 v 0 l -0.08678,-1.0541 -1.053571,-0.0913 0.869156,-0.60219 -0.447675,-0.95832 v 0 l -1.053571,-0.0913 -0.266964,1.02341 -0.447675,-0.95806 -1.019705,0.28046 v 0 0 0 0 0 0 l 1.024203,-0.26273 -0.08678,-1.0541 0.739775,0.75591 0.869156,-0.60219 v 0 l -0.08678,-1.0541 -1.053571,-0.0913 0.869157,-0.60246 -0.447675,-0.95805 v 0 l 0.739775,0.75591 0.86942,-0.60219 -0.284691,1.01838 0.956204,0.45191 v 0 l 0.869421,-0.60246 -0.44794,-0.95805 0.956469,0.45164 0.605896,-0.86677 v 0 0 0 0 0 0 l -0.08705,-1.0541 -1.053571,-0.0913 0.869421,-0.6022 -0.44794,-0.95805 v 0 l -1.053571,-0.0915 -0.266964,1.02341 -0.447675,-0.95806 -1.019704,0.28046 v 0 l 0.86942,-0.60245 -0.447939,-0.95806 0.956469,0.45191 0.605895,-0.86704 v 0 l -0.447939,-0.95806 -1.019704,0.28046 0.605896,-0.86677 -0.75274,-0.74295 v 0 0 0 0 0 0 0 0 0 0 0 0 0 0 0 0 0 0 0 0 0 0 0 0 0 0 0 0 0 0 0 0 0 0 0 0 0 0 0 0 0 0 0 0 0 0 0 0 0 0 0 0 0 0 0 0 0 0 0 0 0 0 0 0 0 0 0 0 0 0 0 0 0 0 0 0 0 0 0 0 0 0 0 0 0 0 0 0 0 0 0 0 0 0 0 0 0 0 0 0 0 0 0 0 0 0 0 0 0 0 0 0 0 0 0 0 0 0 0 0 0 0 0 0 0 0 0 0 0 0 0 0 0 0 0 0 0 0 0 0 0 0 0 0 0 0 0 0 0 0 0 0 0 0 0 0 l -0.73951,-0.75592 -0.869421,0.60246 0.284691,-1.01865 -0.956204,-0.45164 v 0 l -0.869421,0.60219 0.447675,0.95806 -0.956204,-0.45165 -0.605896,0.86678 v 0 l 0.284692,-1.01838 -0.956204,-0.45191 1.024467,-0.26273 -0.08705,-1.05384 v 0 l -0.956205,-0.45191 -0.605895,0.86704 -0.08678,-1.0541 -1.053835,-0.0913 v 0 0 0 0 0 0 l -0.869156,0.60219 0.447675,0.95806 -0.956205,-0.45164 -0.605895,0.86677 v 0 l 0.447675,0.95806 1.019704,-0.28046 -0.605896,0.86704 0.75274,0.74268 v 0 l -0.956205,-0.45164 -0.60616,0.86677 -0.08678,-1.0541 -1.053571,-0.0913 v 0 l -0.605896,0.86678 0.75274,0.74295 -1.053836,-0.0913 -0.266964,1.02341 v 0 0 0 0 0 0 l 0.284956,-1.01865 -0.956469,-0.45164 1.024467,-0.26274 -0.08678,-1.0541 v 0 l -0.956204,-0.45164 -0.60616,0.86678 -0.08678,-1.0541 -1.05357,-0.0913 v 0 l 1.024466,-0.26273 -0.08705,-1.05383 0.739775,0.75565 0.869421,-0.60219 v 0 l -0.08705,-1.0541 -1.053571,-0.0913 0.869421,-0.60219 -0.447939,-0.95805 v 0 0 0 0 0 0 l -0.956204,-0.45191 -0.605896,0.86677 -0.08678,-1.05383 -1.053835,-0.0913 v 0 l -0.605896,0.86677 0.75274,0.74269 -1.053571,-0.0913 -0.266965,1.0234 v 0 l -0.08678,-1.0541 -1.053835,-0.0913 0.86942,-0.60219 -0.447675,-0.95832 v 0 l -1.05357,-0.0913 -0.266965,1.02341 -0.44794,-0.95806 -1.019704,0.28046 v 0 0 0 0 0 0 0 0 0 0 0 0 0 0 0 0 0 0 0 0 0 0 0 0 0 0 0 0 0 0 0 l -0.869156,0.60219 0.447675,0.95806 -0.956204,-0.45165 -0.606161,0.86678 v 0 l 0.44794,0.95832 1.019704,-0.28046 -0.605896,0.86678 0.75274,0.74268 v 0 l -0.956469,-0.45164 -0.605896,0.86677 -0.08678,-1.05383 -1.053571,-0.0916 v 0 l -0.605896,0.86704 0.75274,0.74269 -1.053836,-0.0913 -0.266964,1.0234 v 0 0 0 0 0 0 l 0.447939,0.95806 1.019705,-0.28046 -0.605896,0.86678 0.752739,0.74295 v 0 l 1.019705,-0.28046 -0.105305,-1.05225 0.75274,0.74269 0.858837,-0.61728 v 0 l -0.605895,0.86678 0.752739,0.74295 -1.053835,-0.0913 -0.266965,1.02341 v 0 l 0.75274,0.74268 0.858837,-0.61727 -0.266964,1.02341 0.963877,0.43497 v 0 0 0 0 0 0 l -0.956204,-0.45164 -0.605896,0.86677 -0.08678,-1.0541 -1.053835,-0.0913 v 0 l -0.605896,0.86678 0.75274,0.74295 -1.053571,-0.0913 -0.266965,1.02341 v 0 l -0.08705,-1.0541 -1.05357,-0.0913 0.86942,-0.60245 -0.447675,-0.95806 v 0 l -1.053835,-0.0913 -0.266965,1.02341 -0.447675,-0.95832 -1.019704,0.28045 v 0 0 0 0 0 0 l -0.605896,0.86704 0.75274,0.74269 -1.053571,-0.0913 -0.266964,1.02341 v 0 l 0.752739,0.74295 0.858573,-0.61754 -0.266964,1.02341 0.964141,0.43497 v 0 l -1.053835,-0.0913 -0.266965,1.02341 -0.447675,-0.95806 -1.019704,0.28046 v 0 l -0.266965,1.02314 0.963878,0.43524 -1.019705,0.28046 0.105305,1.05225 v 0 0 0 0 0 0 0 0 0 0 0 0 0 0 0 0 0 0 0 0 0 0 0 0 0 0 0 0 0 0 0 l 0.284691,-1.01865 -0.956204,-0.45164 1.024467,-0.26273 -0.08705,-1.05384 v 0 l -0.956204,-0.4519 -0.605896,0.86677 -0.08678,-1.05383 -1.053835,-0.0913 v 0 l 1.024467,-0.26273 -0.08678,-1.0541 0.739775,0.75592 0.869157,-0.60246 v 0 l -0.08678,-1.05383 -1.053571,-0.0913 0.869157,-0.60245 -0.447675,-0.95806 v 0 0 0 0 0 0 l -0.956204,-0.45164 -0.605896,0.86677 -0.08705,-1.0541 -1.053571,-0.0913 v 0 l -0.605896,0.86678 0.75274,0.74295 -1.053571,-0.0913 -0.266965,1.02314 v 0 l -0.08705,-1.05384 -1.05357,-0.0913 0.86942,-0.60245 -0.447675,-0.95806 v 0 l -1.053835,-0.0913 -0.266965,1.02314 -0.447675,-0.95805 -1.019704,0.28046 v 0 0 0 0 0 0 l 1.024467,-0.26274 -0.08705,-1.05383 0.739775,0.75565 0.869421,-0.60219 v 0 l -0.08705,-1.0541 -1.053571,-0.0913 0.869421,-0.6022 -0.447675,-0.95805 v 0 l 0.73951,0.75565 0.869421,-0.60219 -0.284692,1.01864 0.956205,0.45165 v 0 l 0.86942,-0.6022 -0.447675,-0.95832 0.956205,0.45191 0.605895,-0.86677 v 0 0 0 0 0 0 l -0.08678,-1.0541 -1.053835,-0.0913 0.869421,-0.60246 -0.447675,-0.95806 v 0 l -1.053836,-0.0913 -0.266964,1.02341 -0.447675,-0.95832 -1.019705,0.28046 v 0 l 0.869421,-0.60219 -0.447675,-0.95806 0.956204,0.45164 0.605896,-0.86677 v 0 l -0.447675,-0.95832 -1.019704,0.28046 0.605896,-0.86678 -0.75274,-0.74268 v 0 0 0 0 0 0 0 0 0 0 0 0 0 0 0 0 0 0 0 0 0 0 0 0 0 0 0 0 0 0 0 l -0.956468,-0.45191 -0.605896,0.86677 -0.08678,-1.05383 -1.05357,-0.0913 v 0 l -0.605896,0.86677 0.752739,0.74269 -1.053835,-0.0913 -0.266965,1.02341 v 0 l -0.08678,-1.0541 -1.053571,-0.0913 0.869156,-0.60219 -0.447675,-0.95832 v 0 l -1.05357,-0.0913 -0.266965,1.02341 -0.447675,-0.95806 -1.019704,0.28046 v 0 0 0 0 0 0 l -0.606161,0.86677 0.75274,0.74295 -1.053571,-0.0915 -0.266964,1.02341 v 0 l 0.752739,0.74295 0.858838,-0.61728 -0.266965,1.02341 0.963877,0.43498 v 0 l -1.053571,-0.0913 -0.266964,1.02315 -0.447675,-0.95806 -1.019704,0.28046 v 0 l -0.266965,1.02341 0.963877,0.43497 -1.019704,0.28046 0.105304,1.05225 v 0 0 0 0 0 0 l -0.08705,-1.05384 -1.053571,-0.0913 0.869157,-0.60245 -0.447675,-0.95806 v 0 l -1.053571,-0.0913 -0.266965,1.02314 -0.447675,-0.95805 -1.019704,0.28046 v 0 l 0.869156,-0.6022 -0.447675,-0.95832 0.956204,0.45191 0.605896,-0.86677 v 0 l -0.447675,-0.95832 -1.019704,0.28045 0.605896,-0.86677 -0.75274,-0.74295 v 0 0 0 0 0 0 l -1.053571,-0.0913 -0.266964,1.02341 -0.447675,-0.95806 -1.019704,0.28046 v 0 l -0.266965,1.02314 0.963877,0.43524 -1.019704,0.28046 0.105304,1.05225 v 0 l -0.447939,-0.95806 -1.019705,0.28046 0.605896,-0.86678 -0.752739,-0.74295 v 0 l -1.019704,0.28046 0.105304,1.05225 -0.75274,-0.74268 -0.858837,0.61727 v 0 0 0 0 0 0 0 0 0 0 0 0 0 0 0 0 0 0 0 0 0 0 0 0 0 0 0 0 0 0 0 0 0 0 0 0 0 0 0 0 0 0 0 0 0 0 0 0 0 0 0 0 0 0 0 0 0 0 0 0 0 0 0 0 0 0 0 0 0 0 0 0 0 0 0 0 0 0 0 0 0 0 0 0 0 0 0 0 0 0 0 0 0 0 0 0 0 0 0 0 0 0 0 0 0 0 0 0 0 0 0 0 0 0 0 0 0 0 0 0 0 0 0 0 0 0 0 0 0 0 0 0 0 0 0 0 0 0 0 0 0 0 0 0 0 0 0 0 0 0 0 0 0 0 0 0 0 0 0 0 0 0 0 0 0 0 0 0 0 0 0 0 0 0 0 0 0 0 0 0 0 0 0 0 0 0 0 0 0 0 0 0 0 0 0 0 0 0 0 0 0 0 0 0 0 0 0 0 0 0 0 0 0 0 0 0 0 0 0 0 0 0 0 0 0 0 0 0 0 0 0 0 0 0 0 0 0 0 0 0 0 0 0 0 0 0 0 0 0 0 0 0 0 0 0 0 0 0 0 0 0 0 0 0 0 0 0 0 0 0 0 0 0 0 0 0 0 0 0 0 0 0 0 0 0 0 0 0 0 0 0 0 0 0 0 0 0 0 0 0 0 0 0 0 0 0 0 0 0 0 0 0 0 0 0 0 0 0 0 0 0 0 0 0 0 0 0 0 0 0 0 0 0 0 0 0 0 0 0 0 0 0 0 0 0 0 0 0 0 0 0 0 0 0 0 0 0 0 0 0 0 0 0 0 0 0 0 0 0 0 0 0 0 0 0 0 0 0 0 0 0 0 0 0 0 0 0 0 0 0 0 0 0 0 0 0 0 0 0 0 0 0 0 0 0 0 0 0 0 0 0 0 0 0 0 0 0 0 0 0 0 0 0 0 0 0 0 0 0 0 0 0 0 0 0 0 0 0 0 0 0 0 0 0 0 0 0 0 0 0 0 0 0 0 0 0 0 0 0 0 0 0 0 0 0 0 0 0 0 0 0 0 0 0 0 0 0 0 0 0 0 0 0 0 0 0 0 0 0 0 0 0 0 0 0 0 0 0 0 0 0 0 0 0 0 0 0 0 0 0 0 0 0 0 0 0 0 0 0 0 0 0 0 0 0 0 0 0 0 0 0 0 0 0 0 0 0 0 0 0 0 0 0 0 0 0 0 0 0 0 0 0 0 0 0 0 0 0 0 0 0 0 0 0 0 0 0 0 0 0 0 0 0 0 0 0 0 0 0 0 0 0 0 0 0 0 0 0 0 0 0 0 0 0 0 0 0 0 0 0 0 0 0 0 0 0 0 0 0 0 0 0 0 0 0 0 0 0 0 0 0 0 0 0 0 0 0 0 0 0 0 0 0 0 0 0 0 0 0 0 0 0 0 0 0 0 0 0 0 0 0 0 0 0 0 0 0 0 0 0 0 0 0 0 0 0 0 0 0 0 0 0 0 0 0 0 0 0 0 0 0 0 0 0 0 0 0 0 0 0 0 0 0 0 0 0 0 0 0 0 0 0 0 0 0 0 0 0 0 0 0 0 0 0 0 0 0 0 0 0 0 0 0 0 0 0 0 0 0 0 0 0 0 0 0 0 0 0 0 0 0 0 0 0 0 0 0 0 0 0 0 0 0 0 0 0 0 0 0 0 0 0 0 0 0 0 0 0 0 0 0 0 0 0 0 0 0 0 0 0 0 l 1.051983,0.10954 0.284692,-1.01865 0.431006,0.96599 1.024467,-0.26273 v 0 l 0.284691,-1.01864 -0.956204,-0.45165 1.024467,-0.26273 -0.08705,-1.0541 v 0 l 0.431006,0.966 1.024467,-0.26274 -0.620713,0.8562 0.739511,0.75565 v 0 l 1.024466,-0.26274 -0.08678,-1.05383 0.739775,0.75591 0.869156,-0.60245 v 0 0 0 0 0 0 l 0.284692,-1.01838 -0.956204,-0.45191 1.024466,-0.26273 -0.08678,-1.05384 v 0 l -0.956469,-0.45191 -0.605896,0.86704 -0.08678,-1.0541 -1.053571,-0.0913 v 0 l 1.024467,-0.26273 -0.08705,-1.0541 0.739775,0.75591 0.869421,-0.60219 v 0 l -0.08705,-1.0541 -1.053571,-0.0913 0.869421,-0.60245 -0.44794,-0.95806 v 0 0 0 0 0 0 l 0.431007,0.96573 1.024466,-0.26247 -0.620712,0.85593 0.73951,0.75591 v 0 l 1.024467,-0.26273 -0.08678,-1.05383 0.739775,0.75565 0.869156,-0.60219 v 0 l -0.620713,0.85619 0.739511,0.75591 -1.051719,-0.1098 -0.284692,1.01865 v 0 l 0.739511,0.75591 0.869421,-0.60246 -0.284692,1.01865 0.956204,0.45164 v 0 0 0 0 0 0 l 1.024467,-0.26246 -0.08678,-1.0541 0.739511,0.75591 0.869421,-0.60246 v 0 l -0.08678,-1.05383 -1.053835,-0.0915 0.869421,-0.60219 -0.447675,-0.95805 v 0 l 0.739775,0.75591 0.869156,-0.60246 -0.284692,1.01865 0.956204,0.45164 v 0 l 0.869421,-0.60219 -0.447675,-0.95805 0.956204,0.45164 0.605896,-0.86678 v 0 0 0 0 0 0 0 0 0 0 0 0 0 0 0 0 0 0 0 0 0 0 0 0 0 0 0 0 0 0 0 l 0.284692,-1.01864 -0.956204,-0.45165 1.024466,-0.26273 -0.08678,-1.0541 v 0 l -0.956469,-0.45164 -0.605895,0.86677 -0.08678,-1.0541 -1.053571,-0.0913 v 0 l 1.024202,-0.26273 -0.08678,-1.05383 0.739775,0.75565 0.869421,-0.60219 v 0 l -0.08705,-1.0541 -1.053571,-0.0913 0.869156,-0.60219 -0.447675,-0.95805 v 0 0 0 0 0 0 l -0.956204,-0.45191 -0.605896,0.86677 -0.08705,-1.05383 -1.053571,-0.0913 v 0 l -0.605896,0.86677 0.752739,0.74269 -1.05357,-0.0913 -0.266965,1.0234 v 0 l -0.08705,-1.0541 -1.053571,-0.0913 0.869421,-0.60219 -0.447675,-0.95806 v 0 l -1.053835,-0.0915 -0.266965,1.02341 -0.447675,-0.95806 -1.019704,0.28046 v 0 0 0 0 0 0 l 1.024467,-0.26273 -0.08705,-1.0541 0.739775,0.75591 0.869421,-0.60219 v 0 l -0.08678,-1.0541 -1.053835,-0.0913 0.869421,-0.60219 -0.447675,-0.95832 v 0 l 0.739775,0.75591 0.869156,-0.60219 -0.284692,1.01838 0.956204,0.45191 v 0 l 0.869421,-0.60246 -0.447675,-0.95805 0.956204,0.45164 0.605896,-0.86677 v 0 0 0 0 0 0 l -0.08678,-1.05384 -1.053836,-0.0915 0.869421,-0.60219 -0.447675,-0.95805 v 0 l -1.053571,-0.0913 -0.266964,1.02314 -0.44794,-0.95806 -1.019704,0.28046 v 0 l 0.869421,-0.60219 -0.447675,-0.95832 0.956204,0.45191 0.605896,-0.86704 v 0 l -0.447675,-0.95806 -1.019704,0.28046 0.605896,-0.86677 -0.75274,-0.74295 v 0 0 0 0 0 0 0 0 0 0 0 0 0 0 0 0 0 0 0 0 0 0 0 0 0 0 0 0 0 0 0 l 0.431006,0.96572 1.024467,-0.26246 -0.620977,0.85592 0.739775,0.75592 v 0 l 1.024467,-0.26273 -0.08705,-1.05384 0.739775,0.75592 0.86942,-0.60246 v 0 l -0.620977,0.85619 0.739775,0.75592 -1.051983,-0.10981 -0.284692,1.01865 v 0 l 0.739775,0.75591 0.869421,-0.60219 -0.284956,1.01838 0.956469,0.45165 v 0 0 0 0 0 0 l 1.024466,-0.26247 -0.08705,-1.0541 0.739775,0.75592 0.869421,-0.60246 v 0 l -0.08705,-1.05384 -1.05357,-0.0913 0.86942,-0.60245 -0.447939,-0.95806 v 0 l 0.739775,0.75592 0.869421,-0.60246 -0.284692,1.01864 0.956204,0.45165 v 0 l 0.869421,-0.60219 -0.44794,-0.95806 0.956469,0.45164 0.605896,-0.86677 v 0 0 0 0 0 0 l -0.620977,0.85619 0.739775,0.75565 -1.051983,-0.10954 -0.284692,1.01865 v 0 l 0.739775,0.75591 0.869156,-0.60245 -0.284692,1.01864 0.956469,0.45165 v 0 l -1.051983,-0.10954 -0.284692,1.01838 -0.431006,-0.96573 -1.024467,0.26273 v 0 l -0.284691,1.01865 0.956204,0.45164 -1.024467,0.26273 0.08678,1.05384 v 0 0 0 0 0 0 l 0.739775,0.75591 0.869421,-0.60219 -0.284691,1.01865 0.956204,0.45164 v 0 l 0.869421,-0.60219 -0.447675,-0.95832 0.956204,0.45191 0.605896,-0.86704 v 0 l -0.284692,1.01864 0.956204,0.45165 -1.024467,0.26273 0.08678,1.0541 v 0 l 0.956469,0.45164 0.605895,-0.86677 0.08678,1.0541 1.053571,0.0913 v 0 0 0 0 0 0 0 0 0 0 0 0 0 0 0 0 0 0 0 0 0 0 0 0 0 0 0 0 0 0 0 l 1.024466,-0.26273 -0.08678,-1.0541 0.739775,0.75591 0.869156,-0.60219 v 0 l -0.08678,-1.0541 -1.053571,-0.0913 0.869156,-0.60219 -0.447675,-0.95832 v 0 l 0.739775,0.75591 0.869421,-0.60219 -0.284692,1.01838 0.956205,0.45191 v 0 l 0.869156,-0.60219 -0.447675,-0.95832 0.956204,0.45191 0.60616,-0.86704 v 0 0 0 0 0 0 l -0.08705,-1.05384 -1.05357,-0.0913 0.869156,-0.60246 -0.447675,-0.95805 v 0 l -1.053571,-0.0913 -0.266965,1.02314 -0.447675,-0.95806 -1.019704,0.28046 v 0 l 0.869157,-0.60219 -0.447675,-0.95832 0.956204,0.45191 0.605896,-0.86678 v 0 l -0.447675,-0.95832 -1.019705,0.28046 0.605896,-0.86678 -0.752739,-0.74294 v 0 0 0 0 0 0 l 0.739775,0.75591 0.86942,-0.60219 -0.284691,1.01864 0.956204,0.45165 v 0 l 0.869421,-0.60219 -0.44794,-0.95832 0.956469,0.4519 0.605896,-0.86703 v 0 l -0.284956,1.01864 0.956468,0.45164 -1.024466,0.26273 0.08678,1.0541 v 0 l 0.956204,0.45165 0.606161,-0.86678 0.08678,1.0541 1.053571,0.0913 v 0 0 0 0 0 0 l 0.869421,-0.60219 -0.447675,-0.95832 0.956204,0.45191 0.605896,-0.86678 v 0 l -0.447675,-0.95831 -1.019705,0.28045 0.605896,-0.86677 -0.752739,-0.74295 v 0 l 0.956204,0.45191 0.605896,-0.86677 0.08705,1.05383 1.05357,0.0913 v 0 l 0.605896,-0.86677 -0.752739,-0.74295 1.05357,0.0915 0.266965,-1.02341 v 0 0 0 0 0 0 0 0 0 0 0 0 0 0 0 0 0 0 0 0 0 0 0 0 0 0 0 0 0 0 0 0 0 0 0 0 0 0 0 0 0 0 0 0 0 0 0 0 0 0 0 0 0 0 0 0 0 0 0 0 0 0 0 0 0 0 0 0 0 0 0 0 0 0 0 0 0 0 0 0 0 0 0 0 0 0 0 0 0 0 0 0 0 0 0 0 0 0 0 0 0 0 0 0 0 0 0 0 0 0 0 0 0 0 0 0 0 0 0 0 0 0 0 0 0 0 0 0 0 0 0 0 0 0 0 0 0 0 0 0 0 0 0 0 0 0 0 0 0 0 0 0 0 0 0 0 l 0.284692,-1.01865 -0.956204,-0.45164 1.024466,-0.26273 -0.08678,-1.0541 v 0 l -0.956469,-0.45165 -0.605896,0.86678 -0.08678,-1.05384 -1.053571,-0.0915 v 0 l 1.024202,-0.26246 -0.08678,-1.0541 0.739775,0.75591 0.869156,-0.60246 v 0 l -0.08678,-1.05383 -1.053571,-0.0915 0.869156,-0.60219 -0.447675,-0.95806 v 0 0 0 0 0 0 l -0.956204,-0.45191 -0.605896,0.86704 -0.08705,-1.0541 -1.053571,-0.0913 v 0 l -0.605895,0.86678 0.752739,0.74295 -1.053571,-0.0916 -0.266964,1.0234 v 0 l -0.08705,-1.05383 -1.053571,-0.0915 0.869421,-0.60219 -0.447675,-0.95806 v 0 l -1.053836,-0.0913 -0.266964,1.02314 -0.447675,-0.95805 -1.019704,0.28046 v 0 0 0 0 0 0 l 1.024466,-0.26273 -0.08705,-1.0541 0.739775,0.75591 0.869421,-0.60219 v 0 l -0.08705,-1.0541 -1.05357,-0.0913 0.86942,-0.60219 -0.447675,-0.95832 v 0 l 0.739511,0.75591 0.869421,-0.60219 -0.284692,1.01838 0.956204,0.45191 v 0 l 0.869421,-0.60246 -0.447675,-0.95805 0.956204,0.4519 0.605896,-0.86704 v 0 0 0 0 0 0 l -0.08678,-1.05383 -1.053836,-0.0915 0.869421,-0.60219 -0.447675,-0.95806 v 0 l -1.053571,-0.0913 -0.266964,1.02315 -0.44794,-0.95806 -1.019704,0.28046 v 0 l 0.869421,-0.60219 -0.447675,-0.95833 0.956204,0.45191 0.605896,-0.86677 v 0 l -0.447675,-0.95832 -1.019704,0.28046 0.605895,-0.86678 -0.752739,-0.74295 v 0 0 0 0 0 0 0 0 0 0 0 0 0 0 0 0 0 0 0 0 0 0 0 0 0 0 0 0 0 0 0 l -0.956204,-0.45164 -0.606161,0.86677 -0.08678,-1.05383 -1.053571,-0.0915 v 0 l -0.605896,0.86704 0.75274,0.74268 -1.053836,-0.0913 -0.266964,1.02341 v 0 l -0.08678,-1.0541 -1.05357,-0.0913 0.869156,-0.60219 -0.447675,-0.95832 v 0 l -1.053571,-0.0913 -0.266965,1.0234 -0.447675,-0.95805 -1.019704,0.28046 v 0 0 0 0 0 0 l -0.605896,0.86677 0.75274,0.74269 -1.053835,-0.0913 -0.266965,1.02341 v 0 l 0.75274,0.74295 0.858837,-0.61728 -0.266964,1.02315 0.963877,0.43524 v 0 l -1.053571,-0.0915 -0.266965,1.0234 -0.447675,-0.95805 -1.019704,0.28046 v 0 l -0.266965,1.0234 0.963878,0.43498 -1.019705,0.28046 0.105305,1.05225 v 0 0 0 0 0 0 l -0.08705,-1.05384 -1.053571,-0.0916 0.869421,-0.60219 -0.44794,-0.95806 v 0 l -1.053571,-0.0913 -0.266964,1.02315 -0.447675,-0.95806 -1.019705,0.28046 v 0 l 0.869157,-0.60219 -0.447675,-0.95833 0.956204,0.45191 0.60616,-0.86677 v 0 l -0.447939,-0.95832 -1.019704,0.28046 0.605895,-0.86678 -0.752739,-0.74295 v 0 0 0 0 0 0 l -1.053571,-0.0913 -0.266965,1.02341 -0.447675,-0.95806 -1.019704,0.28046 v 0 l -0.266964,1.02314 0.963877,0.43524 -1.019704,0.28046 0.105304,1.05225 v 0 l -0.44794,-0.95806 -1.019704,0.28046 0.605896,-0.86704 -0.75274,-0.74268 v 0 l -1.019704,0.28046 0.105304,1.05224 -0.752739,-0.74295 -0.858838,0.61728 v 0 0 0 0 0 0 0 0 0 0 0 0 0 0 0 0 0 0 0 0 0 0 0 0 0 0 0 0 0 0 0 l 1.024467,-0.26247 -0.08678,-1.0541 0.739775,0.75591 0.869157,-0.60245 v 0 l -0.08678,-1.05384 -1.05357,-0.0913 0.869156,-0.60245 -0.447675,-0.95806 v 0 l 0.739775,0.75592 0.869421,-0.60246 -0.284957,1.01865 0.956469,0.45164 v 0 l 0.869156,-0.60219 -0.447675,-0.95806 0.956205,0.45165 0.605895,-0.86678 v 0 0 0 0 0 0 l -0.08678,-1.0541 -1.053571,-0.0913 0.869156,-0.60219 -0.447675,-0.95832 v 0 l -1.05357,-0.0913 -0.266965,1.02341 -0.447675,-0.95806 -1.019704,0.28046 v 0 l 0.869156,-0.60246 -0.447675,-0.95805 0.956204,0.45164 0.605896,-0.86678 v 0 l -0.447675,-0.95805 -1.019704,0.28046 0.605896,-0.86678 -0.75274,-0.74295 v 0 0 0 0 0 0 l 0.739775,0.75592 0.869421,-0.60246 -0.284956,1.01865 0.956469,0.45164 v 0 l 0.869156,-0.60219 -0.447675,-0.95806 0.956204,0.45165 0.605896,-0.86678 v 0 l -0.284692,1.01865 0.956469,0.45164 -1.024467,0.26273 0.08678,1.05384 v 0 l 0.956204,0.45191 0.605896,-0.86678 0.08705,1.05384 1.053571,0.0913 v 0 0 0 0 0 0 l 0.869421,-0.6022 -0.447675,-0.95805 0.956204,0.45164 0.605896,-0.86677 v 0 l -0.447675,-0.95806 -1.019704,0.28046 0.605896,-0.86678 -0.75274,-0.74295 v 0 l 0.956204,0.45165 0.605896,-0.86678 0.08678,1.0541 1.053835,0.0913 v 0 l 0.605896,-0.86677 -0.75274,-0.74295 1.053571,0.0913 0.266965,-1.02341 v 0 0 0 0 0 0 0 0 0 0 0 0 0 0 0 0 0 0 0 0 0 0 0 0 0 0 0 0 0 0 0 l -0.08678,-1.05384 -1.053835,-0.0913 0.869421,-0.60245 -0.447675,-0.95806 v 0 l -1.053571,-0.0913 -0.267229,1.02315 -0.447675,-0.95806 -1.019704,0.28046 v 0 l 0.86942,-0.60219 -0.447675,-0.95806 0.956205,0.45164 0.605895,-0.86677 v 0 l -0.447675,-0.95832 -1.019704,0.28046 0.605896,-0.86678 -0.75274,-0.74268 v 0 0 0 0 0 0 l -1.053835,-0.0915 -0.266965,1.0234 -0.447675,-0.95805 -1.019704,0.28046 v 0 l -0.266964,1.02314 0.963877,0.43524 -1.019704,0.28046 0.105304,1.05225 v 0 l -0.447675,-0.95806 -1.019704,0.28046 0.605895,-0.86678 -0.752739,-0.74295 v 0 l -1.019704,0.28046 0.105039,1.05225 -0.752739,-0.74269 -0.858573,0.61728 v 0 0 0 0 0 0 l 0.869156,-0.60246 -0.447675,-0.95806 0.956469,0.45165 0.605896,-0.86678 v 0 l -0.44794,-0.95805 -1.019704,0.28045 0.605896,-0.86677 -0.75274,-0.74295 v 0 l 0.956469,0.451644 0.605896,-0.866775 0.08678,1.0541 1.053571,0.09128 v 0 l 0.605896,-0.866775 -0.75274,-0.74295 1.053836,0.09128 0.266964,-1.023144 v 0 0 0 0 0 0 l -0.447939,-0.958321 -1.019705,0.280459 0.605896,-0.866775 -0.752739,-0.74295 v 0 l -1.019705,0.280458 0.105305,1.052513 -0.75274,-0.74295 -0.858837,0.617273 v 0 l 0.605895,-0.866775 -0.752739,-0.74295 1.053835,0.09128 0.266965,-1.023144 v 0 l -0.75274,-0.74295 -0.858837,0.617273 0.266964,-1.023408 -0.963877,-0.434975 v 0 0 0 0 0 0 0 0 0 0 0 0 0 0 0 0 0 0 0 0 0 0 0 0 0 0 0 0 0 0 0 0 0 0 0 0 0 0 0 0 0 0 0 0 0 0 0 0 0 0 0 0 0 0 0 0 0 0 0 0 0 0 0 0 0 0 0 0 0 0 0 0 0 0 0 0 0 0 0 0 0 0 0 0 0 0 0 0 0 0 0 0 0 0 0 0 0 0 0 0 0 0 0 0 0 0 0 0 0 0 0 0 0 0 0 0 0 0 0 0 0 0 0 0 0 0 0 0 0 0 0 0 0 0 0 0 0 0 0 0 0 0 0 0 0 0 0 0 0 0 0 0 0 0 0 0 l 0.431006,0.965729 1.024467,-0.262467 -0.620977,0.855927 0.739775,0.755915 v 0 l 1.024467,-0.262731 -0.08705,-1.053836 0.739775,0.75565 0.869421,-0.602192 v 0 l -0.620977,0.856192 0.739775,0.755915 -1.051984,-0.109802 -0.284691,1.018645 v 0 l 0.739775,0.755915 0.869156,-0.602456 -0.284692,1.018646 0.956469,0.451643 v 0 0 0 0 0 0 l 1.024202,-0.262466 -0.08678,-1.0541 0.739775,0.755914 0.869156,-0.602456 v 0 l -0.08678,-1.053835 -1.053571,-0.09155 0.869156,-0.602192 -0.447675,-0.958056 v 0 l 0.739775,0.755914 0.869421,-0.602456 -0.284692,1.018646 0.956204,0.451644 v 0 l 0.869421,-0.602192 -0.447939,-0.958056 0.956468,0.451644 0.605896,-0.866775 v 0 0 0 0 0 0 l -0.620977,0.856191 0.739775,0.75565 -1.051983,-0.109537 -0.284692,1.018646 v 0 l 0.739775,0.75565 0.869156,-0.602192 -0.284691,1.018646 0.956204,0.451644 v 0 l -1.051719,-0.109538 -0.284692,1.018381 -0.431006,-0.965729 -1.024467,0.262731 v 0 l -0.284691,1.018382 0.956204,0.451908 -1.024467,0.262731 0.08678,1.053837 v 0 0 0 0 0 0 l 0.739775,0.75591 0.86942,-0.60219 -0.284691,1.01838 0.956204,0.45191 v 0 l 0.869421,-0.60246 -0.44794,-0.95805 0.956469,0.45164 0.605896,-0.866773 v 0 l -0.284692,1.018643 0.956204,0.45165 -1.024466,0.26273 0.08678,1.0541 v 0 l 0.956469,0.45164 0.605896,-0.86677 0.08678,1.0541 1.053571,0.0913 v 0 0 0 0 0 0 0 0 0 0 0 0 0 0 0 0 0 0 0 0 0 0 0 0 0 0 0 0 0 0 0 l 1.023034,-0.26171 -0.08678,-1.0541 0.739775,0.75592 0.869156,-0.60219 v 0 l -0.08678,-1.0541 -1.053571,-0.0913 0.869156,-0.60219 -0.447675,-0.958325 v 0 l 0.739775,0.755915 0.869421,-0.602192 -0.284956,1.018382 0.956469,0.45191 v 0 l 0.869156,-0.60246 -0.447675,-0.958055 0.956204,0.451644 0.605896,-0.866775 v 0 0 0 0 0 0 l -0.08678,-1.053836 -1.053571,-0.09155 0.869156,-0.602192 -0.447675,-0.958056 v 0 l -1.053571,-0.09128 -0.266964,1.023144 -0.447675,-0.958056 -1.019705,0.280458 v 0 l 0.869157,-0.602191 -0.447675,-0.958321 0.956204,0.451908 0.605896,-0.866775 v 0 l -0.447675,-0.958321 -1.019704,0.280459 0.605895,-0.866775 -0.752739,-0.74295 v 0 0 0 0 0 0 l 0.739775,0.755914 0.869421,-0.602191 -0.284957,1.018381 0.956469,0.451908 v 0 l 0.869156,-0.602456 -0.447675,-0.958056 0.956205,0.451643 0.605895,-0.866775 v 0 l -0.284691,1.018646 0.956468,0.451644 -1.024466,0.262731 0.08678,1.0541 v 0 l 0.956204,0.451644 0.605896,-0.866775 0.08705,1.0541 1.053571,0.09128 v 0 0 0 0 0 0 l 0.869421,-0.602456 -0.447675,-0.958056 0.956204,0.451908 0.605896,-0.86704 v 0 l -0.447675,-0.958056 -1.019704,0.280459 0.605895,-0.866775 -0.752739,-0.74295 v 0 l 0.956204,0.451908 0.605896,-0.86704 0.08678,1.0541 1.053836,0.09128 v 0 l 0.605895,-0.866775 -0.752739,-0.74295 1.053571,0.09154 0.266964,-1.023408 v 0 0 0 0 0 0 0 0 0 0 0 0 0 0 0 0 0 0 0 0 0 0 0 0 0 0 0 0 0 0 0 l -0.620977,0.856192 0.739775,0.75565 -1.051983,-0.109538 -0.284692,1.018646 v 0 l 0.739775,0.75565 0.869421,-0.602192 -0.284692,1.018646 0.956204,0.451644 v 0 l -1.051983,-0.109538 -0.284692,1.018382 -0.431006,-0.965729 -1.024466,0.262731 v 0 l -0.284692,1.018646 0.956204,0.451643 -1.024467,0.262732 0.08705,1.053835 v 0 0 0 0 0 0 l 0.739775,0.755915 0.869157,-0.602192 -0.284692,1.018381 0.956204,0.451909 v 0 l 0.869421,-0.602457 -0.447675,-0.958056 0.956204,0.451644 0.605896,-0.866775 v 0 l -0.284692,1.018646 0.956204,0.451643 -1.024466,0.262732 0.08705,1.0541 v 0 l 0.956204,0.451643 0.605896,-0.866775 0.08705,1.0541 1.05357,0.09128 v 0 0 0 0 0 0 l -1.051983,-0.109802 -0.284692,1.018647 -0.431006,-0.965731 -1.024467,0.262731 v 0 l -0.284691,1.01838 0.956204,0.45191 -1.024467,0.26273 0.08705,1.05384 v 0 l -0.431019,-0.96572 -1.024467,0.26273 0.620977,-0.85619 -0.739775,-0.75592 v 0 l -1.024466,0.26274 0.08678,1.0541 -0.73951,-0.75592 -0.869421,0.60219 v 0 0 0 0 0 0 l -0.284692,1.01865 0.956204,0.45164 -1.024466,0.26273 0.08678,1.0541 v 0 l 0.956469,0.45165 0.605896,-0.86678 0.08678,1.0541 1.053571,0.0913 v 0 l -1.024202,0.26273 0.08678,1.05384 -0.739775,-0.75565 -0.869156,0.60219 v 0 l 0.08678,1.0541 1.053571,0.0913 -0.869156,0.60219 0.447675,0.95806 v 0 0 0 0 0 0 0 0 0 0 0 0 0 0 0 0 0 0 0 0 0 0 0 0 0 0 0 0 0 0 0 l 0.739775,0.75591 0.869156,-0.60219 -0.284692,1.01838 0.956204,0.45191 v 0 l 0.869421,-0.60246 -0.447675,-0.95805 0.956204,0.45164 0.605896,-0.86677 v 0 l -0.284691,1.01864 0.956204,0.45165 -1.024467,0.26273 0.08705,1.0541 v 0 l 0.956204,0.45164 0.605896,-0.86677 0.08705,1.0541 1.053571,0.0913 v 0 0 0 0 0 0 l 0.869421,-0.6022 -0.44794,-0.95832 0.956469,0.45191 0.605896,-0.86704 v 0 l -0.44794,-0.95805 -1.019704,0.28045 0.605896,-0.86677 -0.75274,-0.74295 v 0 l 0.956469,0.45191 0.605896,-0.86704 0.08678,1.0541 1.053571,0.0913 v 0 l 0.605896,-0.86678 -0.75274,-0.74295 1.053835,0.0915 0.266965,-1.0234 v 0 0 0 0 0 0 l -0.284692,1.01838 0.956205,0.4519 -1.024467,0.26274 0.08678,1.05383 v 0 l 0.956469,0.45191 0.605896,-0.86704 0.08678,1.0541 1.053571,0.0913 v 0 l -1.024467,0.26273 0.08705,1.0541 -0.739775,-0.75591 -0.869421,0.60219 v 0 l 0.08705,1.0541 1.053571,0.0913 -0.869421,0.60246 0.44794,0.95805 v 0 0 0 0 0 0 l 0.956204,0.45165 0.605896,-0.86678 0.08678,1.0541 1.053836,0.0913 v 0 l 0.605895,-0.86677 -0.752739,-0.74295 1.053571,0.0913 0.266964,-1.02341 v 0 l 0.08705,1.0541 1.053571,0.0913 -0.869421,0.60245 0.447675,0.95806 v 0 l 1.053836,0.0913 0.266964,-1.02341 0.447675,0.95832 1.019704,-0.28046 v 0 0 0 0 0 0 0 0 0 0 0 0 0 0 0 0 0 0 0 0 0 0 0 0 0 0 0 0 0 0 0 0 0 0 0 0 0 0 0 0 0 0 0 0 0 0 0 0 0 0 0 0 0 0 0 0 0 0 0 0 0 0 0 0 0 0 0 0 0 0 0 0 0 0 0 0 0 0 0 0 0 0 0 0 0 0 0 0 0 0 0 0 0 0 0 0 0 0 0 0 0 0 0 0 0 0 0 0 0 0 0 0 0 0 0 0 0 0 0 0 0 0 0 0 0 0 0 0 0 0 0 0 0 0 0 0 0 0 0 0 0 0 0 0 0 0 0 0 0 0 0 0 0 0 0 0 l 1.024467,-0.26273 -0.08705,-1.0541 0.739775,0.75592 0.869421,-0.60219 v 0 l -0.08705,-1.0541 -1.053571,-0.0913 0.869421,-0.60219 -0.447675,-0.95833 v 0 l 0.73951,0.75592 0.869419,-0.60219 -0.284689,1.01838 0.956204,0.45191 v 0 l 0.86942,-0.60246 -0.44768,-0.95806 0.95621,0.45165 0.60589,-0.86678 v 0 0 0 0 0 0 l -0.0871,-1.0541 -1.05357,-0.0913 0.86942,-0.60219 -0.44767,-0.95805 v 0 l -1.05384,-0.0915 -0.26696,1.0234 -0.447675,-0.95805 -1.019701,0.28046 v 0 l 0.869421,-0.6022 -0.447676,-0.95832 0.956201,0.45191 0.6059,-0.86704 v 0 l -0.44768,-0.95805 -1.0197,0.28045 0.605895,-0.86677 -0.752739,-0.74295 v 0 0 0 0 0 0 l 0.739509,0.75591 0.869415,-0.60219 -0.28469,1.01838 0.95621,0.45191 v 0 l 0.86942,-0.60245 -0.44768,-0.95806 0.95621,0.45164 0.60589,-0.86677 v 0 l -0.28469,1.01864 0.9562,0.45165 -1.02446,0.26273 0.0871,1.0541 v 0 l 0.9562,0.45164 0.6059,-0.86677 0.0868,1.0541 1.05383,0.0913 v 0 0 0 0 0 0 l 0.86916,-0.60246 -0.44767,-0.95805 0.9562,0.45164 0.6059,-0.86678 v 0 l -0.44768,-0.95805 -1.0197,0.28046 0.60589,-0.86678 -0.75274,-0.74295 v 0 l 0.95621,0.45165 0.60589,-0.86678 0.0871,1.0541 1.05357,0.0913 v 0 l 0.6059,-0.86677 -0.75274,-0.74295 1.05357,0.0913 0.26723,-1.02315 v 0 0 0 0 0 0 0 0 0 0 0 0 0 0 0 0 0 0 0 0 0 0 0 0 0 0 0 0 0 0 0 l -0.0871,-1.054098 -1.05357,-0.09128 0.86916,-0.602192 -0.44768,-0.958321 v 0 l -1.05357,-0.09128 -0.26697,1.023408 -0.44767,-0.958321 -1.0197,0.280459 v 0 l 0.86915,-0.602192 -0.44767,-0.958056 0.9562,0.451644 0.6059,-0.866775 v 0 l -0.44768,-0.958057 -1.0197,0.280459 0.60589,-0.866775 -0.75274,-0.74295 v 0 0 0 0 0 0 l -1.05357,-0.09128 -0.26696,1.023144 -0.44768,-0.958056 -1.0197,0.280458 v 0 l -0.26697,1.023409 0.96388,0.434975 -1.0197,0.280458 0.1053,1.052248 v 0 l -0.44794,-0.958056 -1.0197,0.280458 0.60589,-0.866775 -0.75274,-0.74295 v 0 l -1.0197,0.280458 0.1053,1.052513 -0.75274,-0.74295 -0.858825,0.617273 v 0 0 0 0 0 0 l 0.869415,-0.602192 -0.44768,-0.958321 0.95621,0.451908 0.60589,-0.867039 v 0 l -0.44767,-0.958056 -1.01971,0.280458 0.6059,-0.866775 -0.75274,-0.74295 v 0 l 0.9562,0.451908 0.6059,-0.867039 0.087,1.0541 1.05357,0.09128 v 0 l 0.60589,-0.866775 -0.75273,-0.74295 1.05357,0.09155 0.26696,-1.023409 v 0 0 0 0 0 0 l -0.44767,-0.958056 -1.01971,0.280459 0.6059,-0.86704 -0.75274,-0.742685 v 0 l -1.01971,0.280458 0.10531,1.052248 -0.75274,-0.74295 -0.858835,0.617273 v 0 l 0.605895,-0.866775 -0.752735,-0.742686 1.053565,0.09128 0.26696,-1.023409 v 0 l -0.75274,-0.74295 -0.858565,0.617273 0.26696,-1.023144 -0.964138,-0.435239 v 0 0 0 0 0 0 0 0 0 0 0 0 0 0 0 0 0 0 0 0 0 0 0 0 0 0 0 0 0 0 0 l 0.739778,0.755914 0.869415,-0.602191 -0.284685,1.018381 0.956195,0.451908 v 0 l 0.86942,-0.602191 -0.44794,-0.958321 0.95647,0.451908 0.6059,-0.867039 v 0 l -0.28496,1.018645 0.95647,0.451644 -1.02447,0.262731 0.0868,1.0541 v 0 l 0.9562,0.451644 0.6059,-0.866775 0.087,1.0541 1.05357,0.09128 v 0 0 0 0 0 0 l 0.86943,-0.602191 -0.44768,-0.958321 0.9562,0.451908 0.6059,-0.867039 v 0 l -0.44767,-0.958057 -1.01971,0.280459 0.6059,-0.866775 -0.75274,-0.74295 v 0 l 0.9562,0.451908 0.6059,-0.86704 0.087,1.0541 1.05357,0.09128 v 0 l 0.60589,-0.866775 -0.75274,-0.74295 1.05357,0.09155 0.26697,-1.023409 v 0 0 0 0 0 0 l -0.28469,1.018381 0.9562,0.451909 -1.02447,0.262731 0.0871,1.053835 v 0 l 0.95621,0.451909 0.60589,-0.866775 0.0871,1.053835 1.05357,0.09128 v 0 l -1.02447,0.262732 0.0868,1.0541 -0.73951,-0.755915 -0.86942,0.602192 v 0 l 0.0868,1.0541 1.05383,0.09128 -0.86942,0.602456 0.44768,0.958057 v 0 0 0 0 0 0 l 0.9562,0.451643 0.6059,-0.866775 0.0871,1.0541 1.05357,0.09128 v 0 l 0.60589,-0.866775 -0.75274,-0.74295 1.05357,0.09128 0.26697,-1.023144 v 0 l 0.087,1.053835 1.05357,0.09128 -0.86916,0.602456 0.44768,0.958056 v 0 l 1.05357,0.09128 0.26696,-1.023143 0.44768,0.958056 1.0197,-0.280458 v 0 0 0 0 0 0 0 0 0 0 0 0 0 0 0 0 0 0 0 0 0 0 0 0 0 0 0 0 0 0 0 l 0.86942,-0.602192 -0.44767,-0.958321 0.9562,0.451908 0.6059,-0.867039 v 0 l -0.44768,-0.958056 -1.0197,0.280458 0.60589,-0.866775 -0.75274,-0.74295 v 0 l 0.95621,0.451908 0.60589,-0.867039 0.0871,1.0541 1.05357,0.09128 v 0 l 0.6059,-0.866775 -0.75274,-0.74295 1.05357,0.09155 0.26696,-1.023409 v 0 0 0 0 0 0 l -0.44767,-0.95832 -1.0197,0.280458 0.60589,-0.866775 -0.75274,-0.742685 v 0 l -1.0197,0.280458 0.1053,1.052248 -0.75274,-0.74295 -0.85884,0.617273 v 0 l 0.6059,-0.866775 -0.75274,-0.74295 1.05357,0.09155 0.26697,-1.023409 v 0 l -0.75274,-0.74295 -0.85858,0.617273 0.26697,-1.023144 -0.96414,-0.435239 v 0 0 0 0 0 0 l 0.9562,0.451908 0.60616,-0.867039 0.0868,1.0541 1.05358,0.09128 v 0 l 0.60589,-0.866775 -0.75274,-0.74295 1.05384,0.09155 0.26696,-1.023409 v 0 l 0.0868,1.0541 1.05357,0.09128 -0.86916,0.602191 0.44767,0.958056 v 0 l 1.05358,0.09155 0.26696,-1.023408 0.44768,0.958056 1.0197,-0.280458 v 0 0 0 0 0 0 l 0.60616,-0.866775 -0.753,-0.74295 1.05383,0.09128 0.26697,-1.023144 v 0 l -0.75274,-0.74295 -0.85884,0.617273 0.26696,-1.023408 -0.96387,-0.434975 v 0 l 1.05357,0.09128 0.26696,-1.023144 0.44768,0.958057 1.0197,-0.280459 v 0 l 0.26697,-1.023408 -0.96388,-0.434975 1.0197,-0.280458 -0.1053,-1.052248 v 0 0 0 0 0 0 0 0 0 0 0 0 0 0 0 0 0 0 0 0 0 0 0 0 0 0 0 0 0 0 0 0 0 0 0 0 0 0 0 0 0 0 0 0 0 0 0 0 0 0 0 0 0 0 0 0 0 0 0 0 0 0 0 0 0 0 0 0 0 0 0 0 0 0 0 0 0 0 0 0 0 0 0 0 0 0 0 0 0 0 0 0 0 0 0 0 0 0 0 0 0 0 0 0 0 0 0 0 0 0 0 0 0 0 0 0 0 0 0 0 0 0 0 0 0 0 0 0 0 0 0 0 0 0 0 0 0 0 0 0 0 0 0 0 0 0 0 0 0 0 0 0 0 0 0 0 0 0 0 0 0 0 0 0 0 0 0 0 0 0 0 0 0 0 0 0 0 0 0 0 0 0 0 0 0 0 0 0 0 0 0 0 0 0 0 0 0 0 0 0 0 0 0 0 0 0 0 0 0 0 0 0 0 0 0 0 0 0 0 0 0 0 0 0 0 0 0 0 0 0 0 0 0 0 0 0 0 0 0 0 0 0 0 0 0 0 0 0 0 0 0 0 0 0 0 0 0 0 0 0 0 0 0 0 0 0 0 0 0 0 0 0 0 0 0 0 0 0 0 0 0 0 0 0 0 0 0 0 0 0 0 0 0 0 0 0 0 0 0 0 0 0 0 0 0 0 0 0 0 0 0 0 0 0 0 0 0 0 0 0 0 0 0 0 0 0 0 0 0 0 0 0 0 0 0 0 0 0 0 0 0 0 0 0 0 0 0 0 0 0 0 0 0 0 0 0 0 0 0 0 0 0 0 0 0 0 0 0 0 0 0 0 0 0 0 0 0 0 0 0 0 0 0 0 0 0 0 0 0 0 0 0 0 0 0 0 0 0 0 0 0 0 0 0 0 0 0 0 0 0 0 0 0 0 0 0 0 0 0 0 0 0 0 0 0 0 0 0 0 0 0 0 0 0 0 0 0 0 0 0 0 0 0 0 0 0 0 0 0 0 0 0 0 0 0 0 0 0 0 0 0 0 0 0 0 0 0 0 0 0 0 0 0 0 0 0 0 0 0 0 0 0 0 0 0 0 0 0 0 0 0 0 0 0 0 0 0 0 0 0 0 0 0 0 0 0 0 0 0 0 0 0 0 0 0 0 0 0 0 0 0 0 0 0 0 0 0 0 0 0 0 0 0 0 0 0 0 0 0 0 0 0 0 0 0 0 0 0 0 0 0 0 0 0 0 0 0 0 0 0 0 0 0 0 0 0 0 0 0 0 0 0 0 0 0 0 0 0 0 0 0 0 0 0 0 0 0 0 0 0 0 0 0 0 0 0 0 0 0 0 0 0 0 0 0 0 0 0 0 0 0 0 0 0 0 0 0 0 0 0 0 0 0 0 0 0 0 0 0 0 0 0 0 0 0 0 0 0 0 0 0 0 0 0 0 0 0 0 0 0 0 0 0 0 0 0 0 0 0 0 0 0 0 0 0 0 0 0 0 0 0 0 0 0 0 0 0 0 0 0 0 0 0 0 0 0 0 0 0 0 0 0 0 0 0 0 0 0 0 0 0 0 0 0 0 0 0 0 0 0 0 0 0 0 0 0 0 0 0 0 0 0 0 0 0 0 0 0 0 0 0 0 0 0 0 0 0 0 0 0 0 0 0 0 0 0 0 0 0 0 0 0 0 0 0 0 0 0 0 0 0 0 0 0 0 0 0 0 0 0 0 0 0 0 0 0 0 0 0 z"
       fill="none"
       stroke="#000000"
       stroke-width="0.5"
       id="path1" /></g></svg>
