<?xml version="1.0" encoding="UTF-8" standalone="no"?>
<!-- Created with Inkscape (http://www.inkscape.org/) -->

<svg
   width="138.57574mm"
   height="160.13631mm"
   viewBox="0 0 138.57574 160.13631"
   version="1.1"
   id="svg1"
   xml:space="preserve"
   xmlns:inkscape="http://www.inkscape.org/namespaces/inkscape"
   xmlns:sodipodi="http://sodipodi.sourceforge.net/DTD/sodipodi-0.dtd"
   xmlns="http://www.w3.org/2000/svg"
   xmlns:svg="http://www.w3.org/2000/svg"><sodipodi:namedview
     id="namedview1"
     pagecolor="#ffffff"
     bordercolor="#000000"
     borderopacity="0.25"
     inkscape:showpageshadow="2"
     inkscape:pageopacity="0.0"
     inkscape:pagecheckerboard="0"
     inkscape:deskcolor="#d1d1d1"
     inkscape:document-units="mm" /><defs
     id="defs1" /><g
     inkscape:label="Layer 1"
     inkscape:groupmode="layer"
     id="layer1"
     transform="translate(-35.712129,-26.221145)"><path
       d="m 105,27.118344 0.28919,0.478632 0.55933,-0.0066 -0.26987,0.490008 0.28548,0.481013 v 0 l 0.55907,-0.0069 0.27781,-0.485511 0.28548,0.481013 0.55933,-0.0021 v 0 l -0.26987,0.489744 0.28522,0.481012 -0.55906,0.01138 -0.27385,0.487627 v 0 l 0.28549,0.481013 0.55933,-0.0024 -0.27411,0.487891 0.28178,0.48313 v 0 0 0 0 0 0 l 0.55933,-0.0066 0.27755,-0.48551 0.28548,0.481012 0.55933,-0.0021 v 0 l 0.27781,-0.48551 -0.27781,-0.48551 0.55933,-0.0024 0.28152,-0.483129 v 0 l 0.28548,0.481013 0.55933,-0.0024 -0.27384,0.487892 0.28151,0.483129 v 0 l 0.55933,-0.0021 0.28178,-0.483394 0.28152,0.483394 0.55933,0.0021 v 0 0 0 0 0 0 l -0.26987,0.490009 0.28522,0.481012 -0.55907,0.01111 -0.27384,0.487627 v 0 l 0.28548,0.481012 0.55933,-0.0024 -0.27384,0.487892 0.28152,0.483129 v 0 l -0.55933,0.01111 -0.27385,0.487892 -0.28919,-0.478896 -0.55933,0.0069 v 0 l -0.27384,0.487627 0.28152,0.483129 -0.55933,0.0069 -0.27755,0.48551 v 0 0 0 0 0 0 l 0.28548,0.481013 0.55933,-0.0024 -0.27384,0.487892 0.28152,0.483129 v 0 l 0.55933,-0.0021 0.28151,-0.483393 0.28152,0.483393 0.55933,0.0021 v 0 l -0.27385,0.487627 0.28179,0.483394 -0.55933,0.0066 -0.27782,0.48551 v 0 l 0.28152,0.483394 0.55933,0.0021 -0.27755,0.485511 0.27755,0.48551 v 0 0 0 0 0 0 0 0 0 0 0 0 0 0 0 0 0 0 0 0 0 0 0 0 0 0 0 0 0 0 0 l 0.55933,-0.0066 0.27781,-0.485511 0.28549,0.481013 0.55933,-0.0024 v 0 l 0.27754,-0.48551 -0.27754,-0.48551 0.55933,-0.0021 0.28151,-0.483394 v 0 l 0.28549,0.481277 0.55933,-0.0024 -0.27385,0.487627 0.28152,0.483394 v 0 l 0.55933,-0.0024 0.28152,-0.48313 0.28151,0.48313 0.55933,0.0024 v 0 0 0 0 0 0 l 0.27781,-0.485511 -0.27781,-0.48551 0.55933,-0.0021 0.28178,-0.483393 v 0 l -0.27781,-0.485511 -0.55933,-0.0066 0.28152,-0.483394 -0.27385,-0.487627 v 0 l 0.55933,-0.0021 0.28178,-0.483394 0.28152,0.483394 0.55933,0.0021 v 0 l 0.28152,-0.483394 -0.27385,-0.487627 0.55933,0.0024 0.28549,-0.481012 v 0 0 0 0 0 0 l 0.28548,0.481012 0.55933,-0.0024 -0.27384,0.487627 0.28151,0.483394 v 0 l 0.55933,-0.0021 0.28152,-0.483394 0.28152,0.483394 0.55933,0.0021 v 0 l -0.27385,0.487627 0.28178,0.483394 -0.55933,0.0066 -0.27781,0.485511 v 0 l 0.28152,0.483393 0.55933,0.0021 -0.27755,0.48551 0.27755,0.485511 v 0 0 0 0 0 0 l 0.55933,-0.0024 0.28178,-0.48313 0.28151,0.48313 0.55933,0.0024 v 0 l 0.28152,-0.483394 -0.27384,-0.487627 0.55933,0.0024 0.28548,-0.481277 v 0 l 0.28152,0.483394 0.55933,0.0021 -0.27755,0.48551 0.27755,0.48551 v 0 l 0.55933,0.0024 0.28548,-0.481013 0.27781,0.485511 0.55933,0.0066 v 0 0 0 0 0 0 0 0 0 0 0 0 0 0 0 0 0 0 0 0 0 0 0 0 0 0 0 0 0 0 0 l -0.27014,0.490009 0.28549,0.481012 -0.55933,0.01111 -0.27384,0.487627 v 0 l 0.28548,0.481012 0.55933,-0.0024 -0.27384,0.487892 0.28151,0.483129 v 0 l -0.55906,0.01111 -0.27384,0.487892 -0.28919,-0.478896 -0.55933,0.0069 v 0 l -0.27385,0.487627 0.28152,0.483129 -0.55933,0.0069 -0.27781,0.48551 v 0 0 0 0 0 0 l 0.28548,0.481013 0.55933,-0.0024 -0.27384,0.487892 0.28152,0.483129 v 0 l 0.55932,-0.0021 0.28179,-0.483393 0.28151,0.483393 0.55933,0.0021 v 0 l -0.27384,0.487627 0.28151,0.483394 -0.55932,0.0066 -0.27755,0.48551 v 0 l 0.28151,0.483394 0.55933,0.0021 -0.27781,0.485511 0.27781,0.48551 v 0 0 0 0 0 0 l -0.55933,0.01111 -0.27384,0.487627 -0.28919,-0.478631 -0.55933,0.0066 v 0 l -0.27384,0.487892 0.28151,0.483129 -0.55906,0.0066 -0.27781,0.48551 v 0 l -0.28919,-0.478631 -0.55933,0.0066 0.26987,-0.489743 -0.28548,-0.481013 v 0 l -0.55933,0.0066 -0.27755,0.48551 -0.28548,-0.481012 -0.55933,0.0021 v 0 0 0 0 0 0 l -0.27385,0.487892 0.28152,0.483129 -0.55933,0.0069 -0.27755,0.485511 v 0 l 0.28152,0.483129 0.55933,0.0024 -0.27781,0.485246 0.27781,0.48551 v 0 l -0.55933,0.0069 -0.27781,0.485511 -0.28522,-0.481013 -0.55933,0.0021 v 0 l -0.27782,0.48551 0.27782,0.485511 -0.55933,0.0021 -0.28178,0.483393 v 0 0 0 0 0 0 0 0 0 0 0 0 0 0 0 0 0 0 0 0 0 0 0 0 0 0 0 0 0 0 0 l 0.28548,0.481013 0.55933,-0.0021 -0.27384,0.487627 0.28151,0.483129 v 0 l 0.55933,-0.0021 0.28178,-0.483394 0.28152,0.483394 0.55933,0.0021 v 0 l -0.27384,0.487892 0.28151,0.483129 -0.55933,0.0069 -0.27754,0.485246 v 0 l 0.28151,0.483394 0.55933,0.0021 -0.27781,0.48551 0.27781,0.48551 v 0 0 0 0 0 0 l 0.55933,-0.0021 0.28152,-0.483394 0.28151,0.483394 0.55933,0.0021 v 0 l 0.28178,-0.483129 -0.27384,-0.487627 0.55933,0.0021 0.28522,-0.481013 v 0 l 0.28178,0.483394 0.55933,0.0021 -0.27781,0.48551 0.27781,0.485511 v 0 l 0.55933,0.0021 0.28522,-0.481012 0.27781,0.48551 0.55933,0.0069 v 0 0 0 0 0 0 l -0.27384,0.487627 0.28152,0.48313 -0.55933,0.0069 -0.27755,0.48551 v 0 l 0.28152,0.483129 0.55932,0.0024 -0.27781,0.48551 0.27781,0.485246 v 0 l -0.55932,0.0069 -0.27782,0.48551 -0.28522,-0.481012 -0.55933,0.0021 v 0 l -0.27781,0.48551 0.27781,0.48551 -0.55933,0.0024 -0.28178,0.483129 v 0 0 0 0 0 0 l 0.28178,0.483394 0.55933,0.0021 -0.27781,0.485511 0.27781,0.48551 v 0 l 0.55933,0.0021 0.28522,-0.481013 0.27782,0.485511 0.55932,0.0069 v 0 l -0.27781,0.48551 0.27781,0.485511 -0.55932,0.0021 -0.28152,0.483394 v 0 l 0.27755,0.485246 0.55933,0.0069 -0.28152,0.483129 0.27384,0.487892 v 0 0 0 0 0 0 0 0 0 0 0 0 0 0 0 0 0 0 0 0 0 0 0 0 0 0 0 0 0 0 0 0 0 0 0 0 0 0 0 0 0 0 0 0 0 0 0 0 0 0 0 0 0 0 0 0 0 0 0 0 0 0 0 0 0 0 0 0 0 0 0 0 0 0 0 0 0 0 0 0 0 0 0 0 0 0 0 0 0 0 0 0 0 0 0 0 0 0 0 0 0 0 0 0 0 0 0 0 0 0 0 0 0 0 0 0 0 0 0 0 0 0 0 0 0 0 0 0 0 0 0 0 0 0 0 0 0 0 0 0 0 0 0 0 0 0 0 0 0 0 0 0 0 0 0 0 l 0.55933,-0.0069 0.27781,-0.485511 0.28523,0.481013 0.55932,-0.0021 v 0 l 0.27782,-0.48551 -0.27782,-0.485511 0.55933,-0.0021 0.28179,-0.483394 v 0 l 0.28522,0.481012 0.55933,-0.0021 -0.27385,0.487627 0.28178,0.483129 v 0 l 0.55933,-0.0021 0.28152,-0.483393 0.28152,0.483393 0.55932,0.0021 v 0 0 0 0 0 0 l 0.27782,-0.48551 -0.27782,-0.485511 0.55933,-0.0021 0.28152,-0.48313 v 0 l -0.27755,-0.48551 -0.55933,-0.0069 0.28152,-0.483129 -0.27384,-0.487892 v 0 l 0.55933,-0.0021 0.28151,-0.483393 0.28178,0.483393 0.55933,0.0021 v 0 l 0.28152,-0.483129 -0.27384,-0.487627 0.55932,0.0021 0.28549,-0.481012 v 0 0 0 0 0 0 l 0.28522,0.481012 0.55933,-0.0021 -0.27384,0.487627 0.28178,0.483129 v 0 l 0.55933,-0.0021 0.28151,-0.483393 0.28152,0.483393 0.55933,0.0021 v 0 l -0.27384,0.487892 0.28151,0.483129 -0.55906,0.0069 -0.27782,0.48551 v 0 l 0.28152,0.48313 0.55933,0.0021 -0.27781,0.485511 0.27781,0.48551 v 0 0 0 0 0 0 l 0.55933,-0.0021 0.28152,-0.483393 0.28178,0.483393 0.55933,0.0021 v 0 l 0.28151,-0.483129 -0.27384,-0.487627 0.55933,0.0021 0.28548,-0.481012 v 0 l 0.28152,0.483394 0.55933,0.0021 -0.27781,0.485511 0.27781,0.48551 v 0 l 0.55933,0.0021 0.28548,-0.481013 0.27755,0.485511 0.55933,0.0069 v 0 0 0 0 0 0 0 0 0 0 0 0 0 0 0 0 0 0 0 0 0 0 0 0 0 0 0 0 0 0 0 l 0.27781,-0.48551 -0.27781,-0.485511 0.55933,-0.0024 0.28178,-0.483129 v 0 l -0.27781,-0.485511 -0.55933,-0.0069 0.28152,-0.483129 -0.27385,-0.487627 v 0 l 0.55933,-0.0024 0.28152,-0.48313 0.28178,0.48313 0.55933,0.0024 v 0 l 0.28152,-0.483394 -0.27385,-0.487627 0.55933,0.0021 0.28549,-0.481013 v 0 0 0 0 0 0 l -0.27782,-0.48551 -0.55932,-0.0066 0.28178,-0.483394 -0.27411,-0.487627 v 0 l -0.55907,-0.0066 -0.28945,0.478631 -0.27384,-0.487627 -0.55907,-0.01111 v 0 l 0.28152,-0.483393 -0.27385,-0.487627 0.55933,0.0021 0.28549,-0.481012 v 0 l -0.27384,-0.487627 -0.55933,-0.01111 0.28548,-0.481012 -0.26987,-0.489744 v 0 0 0 0 0 0 l 0.55933,-0.0024 0.28151,-0.483129 0.28152,0.483129 0.55933,0.0024 v 0 l 0.28151,-0.483394 -0.27384,-0.487627 0.55933,0.0021 0.28549,-0.481013 v 0 l 0.28151,0.483394 0.55933,0.0021 -0.27755,0.48551 0.27755,0.485511 v 0 l 0.55933,0.0021 0.28549,-0.481012 0.27781,0.48551 0.55933,0.0069 v 0 0 0 0 0 0 l 0.28151,-0.483393 -0.27384,-0.487628 0.55933,0.0021 0.28549,-0.481012 v 0 l -0.27385,-0.487627 -0.55933,-0.01111 0.28549,-0.481012 -0.26988,-0.490009 v 0 l 0.55933,0.0024 0.28522,-0.481012 0.27782,0.48551 0.55932,0.0066 v 0 l 0.28549,-0.481013 -0.27014,-0.489743 0.55933,0.0066 0.28945,-0.478631 v 0 0 0 0 0 0 0 0 0 0 0 0 0 0 0 0 0 0 0 0 0 0 0 0 0 0 0 0 0 0 0 l 0.28522,0.481013 0.55933,-0.0024 -0.27384,0.487627 0.28178,0.483394 v 0 l 0.55933,-0.0021 0.28152,-0.483393 0.28151,0.483393 0.55933,0.0021 v 0 l -0.27384,0.487627 0.28152,0.483394 -0.55933,0.0066 -0.27755,0.48551 v 0 l 0.28152,0.483394 0.55932,0.0021 -0.27781,0.485511 0.27781,0.48551 v 0 0 0 0 0 0 l 0.55933,-0.0024 0.28152,-0.483129 0.28178,0.483129 0.55933,0.0024 v 0 l 0.28152,-0.483394 -0.27385,-0.487627 0.55933,0.0024 0.28549,-0.481277 v 0 l 0.28151,0.483393 0.55933,0.0021 -0.27781,0.48551 0.27781,0.485511 v 0 l 0.55933,0.0024 0.28549,-0.481012 0.27755,0.48551 0.55933,0.0066 v 0 0 0 0 0 0 l -0.27385,0.487627 0.28152,0.483393 -0.55907,0.0066 -0.27781,0.48551 v 0 l 0.28152,0.483394 0.55933,0.0021 -0.27782,0.48551 0.27782,0.485511 v 0 l -0.55933,0.0066 -0.27755,0.485511 -0.28549,-0.481013 -0.55932,0.0024 v 0 l -0.27782,0.485511 0.27782,0.48551 -0.55933,0.0021 -0.28152,0.483394 v 0 0 0 0 0 0 l 0.28152,0.483129 0.55933,0.0024 -0.27782,0.48551 0.27782,0.485246 v 0 l 0.55932,0.0024 0.28549,-0.481013 0.27755,0.48551 0.55933,0.0066 v 0 l -0.27782,0.48551 0.27782,0.485511 -0.55933,0.0021 -0.28152,0.483393 v 0 l 0.27781,0.485511 0.55907,0.0066 -0.28152,0.483394 0.27385,0.487627 v 0 0 0 0 0 0 0 0 0 0 0 0 0 0 0 0 0 0 0 0 0 0 0 0 0 0 0 0 0 0 0 l 0.55932,-0.0021 0.28152,-0.483393 0.28178,0.483393 0.55933,0.0021 v 0 l 0.28152,-0.483129 -0.27385,-0.487892 0.55933,0.0024 0.28549,-0.481013 v 0 l 0.28152,0.483129 0.55933,0.0024 -0.27782,0.485511 0.27782,0.48551 v 0 l 0.55932,0.0021 0.28549,-0.481013 0.27755,0.485511 0.55933,0.0066 v 0 0 0 0 0 0 l 0.28178,-0.483129 -0.27385,-0.487891 0.55933,0.0024 0.28522,-0.481013 v 0 l -0.27384,-0.487627 -0.55906,-0.01138 0.28548,-0.481012 -0.27014,-0.489744 v 0 l 0.55933,0.0021 0.28549,-0.481013 0.27781,0.485511 0.55933,0.0069 v 0 l 0.28522,-0.481013 -0.26988,-0.490008 0.55933,0.0066 0.28919,-0.478631 v 0 0 0 0 0 0 l 0.28152,0.483394 0.55933,0.0021 -0.27755,0.48551 0.27755,0.48551 v 0 l 0.55933,0.0021 0.28548,-0.481012 0.27782,0.48551 0.55932,0.0069 v 0 l -0.27781,0.485511 0.27781,0.48551 -0.55932,0.0021 -0.28179,0.483393 v 0 l 0.27782,0.485246 0.55933,0.0069 -0.28152,0.48313 0.27384,0.487891 v 0 0 0 0 0 0 l 0.55933,0.0021 0.28522,-0.481013 0.27782,0.485511 0.55932,0.0066 v 0 l 0.28549,-0.481012 -0.26987,-0.489744 0.55906,0.0066 0.28945,-0.478631 v 0 l 0.27755,0.48551 0.55933,0.0066 -0.28152,0.483129 0.27385,0.487891 v 0 l 0.55933,0.0066 0.28919,-0.478631 0.27384,0.487627 0.55933,0.01111 v 0 0 0 0 0 0 0 0 0 0 0 0 0 0 0 0 0 0 0 0 0 0 0 0 0 0 0 0 0 0 0 0 0 0 0 0 0 0 0 0 0 0 0 0 0 0 0 0 0 0 0 0 0 0 0 0 0 0 0 0 0 0 0 0 0 0 0 0 0 0 0 0 0 0 0 0 0 0 0 0 0 0 0 0 0 0 0 0 0 0 0 0 0 0 0 0 0 0 0 0 0 0 0 0 0 0 0 0 0 0 0 0 0 0 0 0 0 0 0 0 0 0 0 0 0 0 0 0 0 0 0 0 0 0 0 0 0 0 0 0 0 0 0 0 0 0 0 0 0 0 0 0 0 0 0 0 l -0.27014,0.489744 0.28549,0.481013 -0.55907,0.01138 -0.27411,0.487627 v 0 l 0.28549,0.481012 0.55933,-0.0024 -0.27385,0.487892 0.28152,0.483129 v 0 l -0.55906,0.01111 -0.27385,0.487892 -0.28919,-0.478896 -0.55933,0.0069 v 0 l -0.27384,0.487627 0.28152,0.48313 -0.55933,0.0069 -0.27782,0.48551 v 0 0 0 0 0 0 l 0.28549,0.481013 0.55933,-0.0024 -0.27384,0.487627 0.28178,0.483394 v 0 l 0.55906,-0.0021 0.28178,-0.483394 0.28152,0.483394 0.55933,0.0021 v 0 l -0.27385,0.487627 0.28152,0.483394 -0.55933,0.0066 -0.27755,0.48551 v 0 l 0.28152,0.483394 0.55933,0.0021 -0.27781,0.485511 0.27781,0.48551 v 0 0 0 0 0 0 l -0.55933,0.01111 -0.27384,0.487627 -0.28919,-0.478631 -0.55933,0.0066 v 0 l -0.27385,0.487892 0.28179,0.483129 -0.55933,0.0066 -0.27782,0.48551 v 0 l -0.28919,-0.478631 -0.55932,0.0066 0.26987,-0.489743 -0.28549,-0.481013 v 0 l -0.55906,0.0066 -0.27781,0.48551 -0.28549,-0.481012 -0.55933,0.0021 v 0 0 0 0 0 0 l -0.27384,0.487892 0.28152,0.483129 -0.55933,0.0069 -0.27755,0.485246 v 0 l 0.28152,0.483394 0.55932,0.0021 -0.27781,0.48551 0.27781,0.48551 v 0 l -0.55932,0.0069 -0.27782,0.48551 -0.28522,-0.481013 -0.55933,0.0021 v 0 l -0.27781,0.485511 0.27781,0.48551 -0.55933,0.0021 -0.28178,0.483393 v 0 0 0 0 0 0 0 0 0 0 0 0 0 0 0 0 0 0 0 0 0 0 0 0 0 0 0 0 0 0 0 l 0.28549,0.481013 0.55933,-0.0021 -0.27385,0.487627 0.28152,0.483129 v 0 l 0.55933,-0.0021 0.28178,-0.483394 0.28152,0.483394 0.55933,0.0021 v 0 l -0.27385,0.487892 0.28152,0.483129 -0.55933,0.0066 -0.27755,0.48551 v 0 l 0.28152,0.483394 0.55933,0.0021 -0.27781,0.48551 0.27781,0.485511 v 0 0 0 0 0 0 l 0.55933,-0.0021 0.28151,-0.483394 0.28152,0.483394 0.55933,0.0021 v 0 l 0.28178,-0.48313 -0.27384,-0.487627 0.55933,0.0021 0.28522,-0.481013 v 0 l 0.28178,0.48313 0.55933,0.0024 -0.27781,0.48551 0.27781,0.485511 v 0 l 0.55933,0.0021 0.28548,-0.481012 0.27755,0.48551 0.55933,0.0066 v 0 0 0 0 0 0 l -0.27384,0.487892 0.28151,0.483129 -0.55933,0.0069 -0.27754,0.48551 v 0 l 0.28151,0.483129 0.55933,0.0024 -0.27781,0.485246 0.27781,0.48551 v 0 l -0.55933,0.0069 -0.27781,0.485511 -0.28522,-0.481013 -0.55933,0.0021 v 0 l -0.27781,0.48551 0.27781,0.485511 -0.55933,0.0021 -0.28178,0.483394 v 0 0 0 0 0 0 l 0.28178,0.483394 0.55933,0.0021 -0.27781,0.485511 0.27781,0.48551 v 0 l 0.55933,0.0021 0.28522,-0.481013 0.27781,0.485511 0.55933,0.0069 v 0 l -0.27781,0.48551 0.27781,0.485246 -0.55933,0.0024 -0.28151,0.48313 v 0 l 0.27754,0.48551 0.55933,0.0069 -0.28151,0.483129 0.27384,0.487892 v 0 0 0 0 0 0 0 0 0 0 0 0 0 0 0 0 0 0 0 0 0 0 0 0 0 0 0 0 0 0 0 l -0.55907,0.01111 -0.2741,0.487627 -0.28919,-0.478632 -0.55933,0.0066 v 0 l -0.27385,0.487627 0.28179,0.483394 -0.55933,0.0066 -0.27782,0.485511 v 0 l -0.28919,-0.478631 -0.55933,0.0066 0.26988,-0.490008 -0.28549,-0.481013 v 0 l -0.55906,0.0069 -0.27781,0.485511 -0.28549,-0.481013 -0.55933,0.0021 v 0 0 0 0 0 0 l -0.27384,0.487627 0.28152,0.483394 -0.55907,0.0066 -0.27781,0.485511 v 0 l 0.28152,0.483394 0.55932,0.0021 -0.27781,0.485511 0.27781,0.48551 v 0 l -0.55932,0.0066 -0.27755,0.48551 -0.28549,-0.481012 -0.55933,0.0024 v 0 l -0.27781,0.48551 0.27781,0.485511 -0.55933,0.0021 -0.28151,0.48313 v 0 0 0 0 0 0 l -0.28946,-0.478632 -0.55933,0.0066 0.27014,-0.489744 -0.28548,-0.481012 v 0 l -0.55933,0.0066 -0.27781,0.485511 -0.28522,-0.481013 -0.55933,0.0024 v 0 l 0.26987,-0.490008 -0.28548,-0.481012 0.55932,-0.01111 0.27385,-0.487627 v 0 l -0.28549,-0.481013 -0.55933,0.0021 0.27385,-0.487627 -0.28152,-0.483394 v 0 0 0 0 0 0 l -0.55933,0.0069 -0.27781,0.485511 -0.28549,-0.481013 -0.55933,0.0021 v 0 l -0.27754,0.48551 0.27754,0.485511 -0.55932,0.0021 -0.28152,0.483393 v 0 l -0.28549,-0.481012 -0.55933,0.0021 0.27385,-0.487627 -0.28152,-0.483393 v 0 l -0.55933,0.0024 -0.28151,0.483129 -0.28152,-0.483129 -0.55933,-0.0024 v 0 0 0 0 0 0 0 0 0 0 0 0 0 0 0 0 0 0 0 0 0 0 0 0 0 0 0 0 0 0 0 l -0.27384,0.487891 0.28151,0.483129 -0.55933,0.0069 -0.27781,0.485245 v 0 l 0.28178,0.483394 0.55933,0.0021 -0.27781,0.48551 0.27781,0.485511 v 0 l -0.55933,0.0069 -0.27781,0.48551 -0.28549,-0.481012 -0.55932,0.0021 v 0 l -0.27755,0.485511 0.27755,0.48551 -0.55933,0.0021 -0.28152,0.483394 v 0 0 0 0 0 0 l 0.28152,0.483129 0.55933,0.0024 -0.27755,0.485511 0.27755,0.48551 v 0 l 0.55932,0.0021 0.28549,-0.481013 0.27781,0.485511 0.55933,0.0069 v 0 l -0.27781,0.485246 0.27781,0.485508 -0.55933,0.002 -0.28178,0.48313 v 0 l 0.27781,0.48552 0.55933,0.007 -0.28151,0.48313 0.27384,0.48763 v 0 0 0 0 0 0 l -0.55933,0.007 -0.27781,0.48551 -0.28549,-0.48101 -0.55933,0.002 v 0 l -0.27754,0.48552 0.27754,0.48551 -0.55933,0.002 -0.28151,0.4834 v 0 l -0.28549,-0.48102 -0.55933,0.002 0.27385,-0.48763 -0.28152,-0.48313 v 0 l -0.55933,0.002 -0.28152,0.48339 -0.28178,-0.48339 -0.55906,-0.002 v 0 0 0 0 0 0 l -0.27781,0.48551 0.27781,0.48551 -0.55933,0.002 -0.28178,0.4834 v 0 l 0.27781,0.48524 0.55933,0.007 -0.28152,0.48313 0.27385,0.48789 v 0 l -0.55933,0.002 -0.28178,0.48339 -0.28152,-0.48339 -0.55933,-0.002 v 0 l -0.28152,0.48313 0.27385,0.48763 -0.55933,-0.002 -0.28549,0.48101 v 0 0 0 0 0 0 0 0 0 0 0 0 0 0 0 0 0 0 0 0 0 0 0 0 0 0 0 0 0 0 0 0 0 0 0 0 0 0 0 0 0 0 0 0 0 0 0 0 0 0 0 0 0 0 0 0 0 0 0 0 0 0 0 0 0 0 0 0 0 0 0 0 0 0 0 0 0 0 0 0 0 0 0 0 0 0 0 0 0 0 0 0 0 0 0 0 0 0 0 0 0 0 0 0 0 0 0 0 0 0 0 0 0 0 0 0 0 0 0 0 0 0 0 0 0 0 0 0 0 0 0 0 0 0 0 0 0 0 0 0 0 0 0 0 0 0 0 0 0 0 0 0 0 0 0 0 l 0.28549,0.48102 0.55933,-0.002 -0.27385,0.48763 0.28152,0.48313 v 0 l 0.55933,-0.002 0.28152,-0.4834 0.28178,0.4834 0.55933,0.002 v 0 l -0.27385,0.48789 0.28152,0.48313 -0.55933,0.007 -0.27781,0.48524 v 0 l 0.28178,0.48339 0.55933,0.002 -0.27781,0.48551 0.27781,0.48551 v 0 0 0 0 0 0 l 0.55906,-0.002 0.28178,-0.4834 0.28152,0.4834 0.55933,0.002 v 0 l 0.28152,-0.48313 -0.27385,-0.48762 0.55933,0.002 0.28549,-0.48101 v 0 l 0.28151,0.48339 0.55933,0.002 -0.27754,0.48551 0.27754,0.48551 v 0 l 0.55933,0.002 0.28549,-0.48101 0.27781,0.48551 0.55933,0.007 v 0 0 0 0 0 0 l -0.27384,0.48762 0.28151,0.48313 -0.55933,0.007 -0.27781,0.48551 v 0 l 0.28178,0.48313 0.55933,0.002 -0.27781,0.48551 0.27781,0.48525 v 0 l -0.55933,0.007 -0.27781,0.48551 -0.28549,-0.48102 -0.55932,0.002 v 0 l -0.27755,0.48551 0.27755,0.48551 -0.55933,0.002 -0.28152,0.48313 v 0 0 0 0 0 0 l 0.28152,0.4834 0.55933,0.002 -0.27755,0.48551 0.27755,0.48551 v 0 l 0.55932,0.002 0.28549,-0.48101 0.27781,0.48551 0.55933,0.007 v 0 l -0.27781,0.48551 0.27781,0.48551 -0.55933,0.002 -0.28178,0.48339 v 0 l 0.27781,0.48524 0.55933,0.007 -0.28151,0.48313 0.27384,0.48789 v 0 0 0 0 0 0 0 0 0 0 0 0 0 0 0 0 0 0 0 0 0 0 0 0 0 0 0 0 0 0 0 l 0.55933,-0.002 0.28152,-0.48313 0.28151,0.48313 0.55933,0.002 v 0 l 0.28152,-0.48339 -0.27385,-0.48763 0.55933,0.002 0.28549,-0.48101 v 0 l 0.28152,0.48339 0.55932,0.002 -0.27754,0.48551 0.27754,0.48551 v 0 l 0.55933,0.002 0.28549,-0.48102 0.27781,0.48551 0.55933,0.007 v 0 0 0 0 0 0 l 0.28152,-0.48339 -0.27385,-0.48763 0.55933,0.002 0.28549,-0.48101 v 0 l -0.27385,-0.48763 -0.55932,-0.0111 0.28548,-0.48102 -0.26987,-0.49 v 0 l 0.55933,0.002 0.28522,-0.48102 0.27781,0.48552 0.55933,0.007 v 0 l 0.28548,-0.48101 -0.27014,-0.48975 0.55933,0.007 0.28946,-0.47863 v 0 0 0 0 0 0 l 0.28151,0.48313 0.55933,0.002 -0.27781,0.48551 0.27781,0.48551 v 0 l 0.55933,0.002 0.28549,-0.48101 0.27755,0.48551 0.55932,0.007 v 0 l -0.27781,0.48551 0.27781,0.48551 -0.55932,0.002 -0.28152,0.4834 v 0 l 0.27781,0.48551 0.55907,0.007 -0.28152,0.4834 0.27384,0.48762 v 0 0 0 0 0 0 l 0.55933,0.002 0.28549,-0.48101 0.27781,0.48551 0.55906,0.007 v 0 l 0.28549,-0.48101 -0.26988,-0.49001 0.55933,0.007 0.28919,-0.47863 v 0 l 0.27782,0.48551 0.55933,0.007 -0.28179,0.48339 0.27385,0.48763 v 0 l 0.55933,0.007 0.28919,-0.47863 0.2741,0.48763 0.55907,0.0111 v 0 0 0 0 0 0 0 0 0 0 0 0 0 0 0 0 0 0 0 0 0 0 0 0 0 0 0 0 0 0 0 l -0.27384,0.48789 0.28151,0.48313 -0.55933,0.007 -0.27754,0.48551 v 0 l 0.28151,0.48313 0.55933,0.002 -0.27781,0.48525 0.27781,0.48551 v 0 l -0.55933,0.007 -0.27781,0.48551 -0.28522,-0.48102 -0.55933,0.002 v 0 l -0.27781,0.48551 0.27781,0.48551 -0.55933,0.002 -0.28178,0.48339 v 0 0 0 0 0 0 l 0.28178,0.4834 0.55933,0.002 -0.27781,0.48551 0.27781,0.48551 v 0 l 0.55933,0.002 0.28522,-0.48101 0.27781,0.48551 0.55933,0.007 v 0 l -0.27781,0.48551 0.27781,0.48524 -0.55933,0.002 -0.28151,0.48313 v 0 l 0.27754,0.48551 0.55933,0.007 -0.28151,0.48313 0.27384,0.48789 v 0 0 0 0 0 0 l -0.55933,0.007 -0.27755,0.48551 -0.28548,-0.48101 -0.55933,0.002 v 0 l -0.27781,0.48551 0.27781,0.48551 -0.55933,0.002 -0.28178,0.48313 v 0 l -0.28522,-0.48101 -0.55933,0.002 0.27384,-0.48763 -0.28178,-0.48313 v 0 l -0.55933,0.002 -0.28152,0.48339 -0.28151,-0.48339 -0.55933,-0.002 v 0 0 0 0 0 0 l -0.27781,0.48551 0.27781,0.48551 -0.55933,0.002 -0.28152,0.48339 v 0 l 0.27755,0.48551 0.55933,0.007 -0.28152,0.48313 0.27385,0.48789 v 0 l -0.55933,0.002 -0.28152,0.48339 -0.28178,-0.48339 -0.55933,-0.002 v 0 l -0.28152,0.48313 0.27385,0.48763 -0.55933,-0.002 -0.28549,0.48101 v 0 0 0 0 0 0 0 0 0 0 0 0 0 0 0 0 0 0 0 0 0 0 0 0 0 0 0 0 0 0 0 l 0.28178,0.48339 0.55933,0.002 -0.27781,0.48551 0.27781,0.48551 v 0 l 0.55933,0.002 0.28522,-0.48101 0.27782,0.48551 0.55932,0.007 v 0 l -0.27781,0.48551 0.27781,0.48551 -0.55932,0.002 -0.28152,0.4834 v 0 l 0.27755,0.48524 0.55933,0.007 -0.28152,0.48313 0.27384,0.48789 v 0 0 0 0 0 0 l 0.55933,0.002 0.28549,-0.48101 0.27781,0.48551 0.55906,0.007 v 0 l 0.28549,-0.48101 -0.26987,-0.48974 0.55932,0.007 0.28919,-0.47863 v 0 l 0.27782,0.48551 0.55933,0.007 -0.28179,0.48313 0.27385,0.4879 v 0 l 0.55933,0.007 0.28919,-0.47863 0.27384,0.48763 0.55933,0.0111 v 0 0 0 0 0 0 l -0.27781,0.48551 0.27781,0.48551 -0.55933,0.002 -0.28152,0.48339 v 0 l 0.27755,0.48551 0.55933,0.007 -0.28152,0.4834 0.27385,0.48763 v 0 l -0.55933,0.002 -0.28152,0.4834 -0.28178,-0.4834 -0.55906,-0.002 v 0 l -0.28178,0.48339 0.27384,0.48763 -0.55933,-0.002 -0.28549,0.48102 v 0 0 0 0 0 0 l 0.27782,0.48551 0.55933,0.007 -0.28152,0.48313 0.27384,0.48762 v 0 l 0.55933,0.007 0.28919,-0.47889 0.27385,0.48789 0.55906,0.0111 v 0 l -0.28152,0.48313 0.27385,0.48789 -0.55933,-0.002 -0.28549,0.48101 v 0 l 0.27411,0.48763 0.55907,0.0114 -0.28549,0.48101 0.27014,0.48974 v 0 0 0 0 0 0 0 0 0 0 0 0 0 0 0 0 0 0 0 0 0 0 0 0 0 0 0 0 0 0 0 0 0 0 0 0 0 0 0 0 0 0 0 0 0 0 0 0 0 0 0 0 0 0 0 0 0 0 0 0 0 0 0 0 0 0 0 0 0 0 0 0 0 0 0 0 0 0 0 0 0 0 0 0 0 0 0 0 0 0 0 0 0 0 0 0 0 0 0 0 0 0 0 0 0 0 0 0 0 0 0 0 0 0 0 0 0 0 0 0 0 0 0 0 0 0 0 0 0 0 0 0 0 0 0 0 0 0 0 0 0 0 0 0 0 0 0 0 0 0 0 0 0 0 0 0 0 0 0 0 0 0 0 0 0 0 0 0 0 0 0 0 0 0 0 0 0 0 0 0 0 0 0 0 0 0 0 0 0 0 0 0 0 0 0 0 0 0 0 0 0 0 0 0 0 0 0 0 0 0 0 0 0 0 0 0 0 0 0 0 0 0 0 0 0 0 0 0 0 0 0 0 0 0 0 0 0 0 0 0 0 0 0 0 0 0 0 0 0 0 0 0 0 0 0 0 0 0 0 0 0 0 0 0 0 0 0 0 0 0 0 0 0 0 0 0 0 0 0 0 0 0 0 0 0 0 0 0 0 0 0 0 0 0 0 0 0 0 0 0 0 0 0 0 0 0 0 0 0 0 0 0 0 0 0 0 0 0 0 0 0 0 0 0 0 0 0 0 0 0 0 0 0 0 0 0 0 0 0 0 0 0 0 0 0 0 0 0 0 0 0 0 0 0 0 0 0 0 0 0 0 0 0 0 0 0 0 0 0 0 0 0 0 0 0 0 0 0 0 0 0 0 0 0 0 0 0 0 0 0 0 0 0 0 0 0 0 0 0 0 0 0 0 0 0 0 0 0 0 0 0 0 0 0 0 0 0 0 0 0 0 0 0 0 0 0 0 0 0 0 0 0 0 0 0 0 0 0 0 0 0 0 0 0 0 0 0 0 0 0 0 0 0 0 0 0 0 0 0 0 0 0 0 0 0 0 0 0 0 0 0 0 0 0 0 0 0 0 0 0 0 0 0 0 0 0 0 0 0 0 0 0 0 0 0 0 0 0 0 0 0 0 0 0 0 0 0 0 0 0 0 0 0 0 0 0 0 0 0 0 0 0 0 0 0 0 0 0 0 0 0 0 0 0 0 0 0 0 0 0 0 0 0 0 0 0 0 0 0 0 0 0 0 0 0 0 0 0 0 0 0 0 0 0 0 0 0 0 0 0 0 0 0 0 0 0 0 0 0 0 0 0 0 0 0 0 0 0 0 0 0 0 0 0 0 0 0 0 0 0 0 0 0 0 0 0 0 0 0 0 0 0 0 0 0 0 0 0 0 0 0 0 0 0 0 0 0 0 0 0 0 0 0 0 0 0 0 0 0 0 0 0 0 0 0 0 0 0 0 0 0 0 0 0 0 0 0 0 0 0 0 0 0 0 0 0 0 0 0 0 0 0 0 0 0 0 0 0 0 0 0 0 0 0 0 0 0 0 0 0 0 0 0 0 0 0 0 0 0 0 0 0 0 0 0 0 0 0 0 0 0 0 0 0 0 0 0 0 0 0 0 0 0 0 0 0 0 0 0 0 0 0 0 0 0 0 0 0 0 0 0 0 0 0 0 0 0 0 0 0 0 0 0 0 0 0 0 0 0 0 0 0 0 0 0 0 0 0 0 0 0 0 0 0 0 0 0 0 0 0 0 l -0.55933,0.0111 -0.27384,0.48762 -0.28919,-0.47863 -0.55933,0.007 v 0 l -0.27385,0.48789 0.28152,0.48313 -0.55933,0.007 -0.27755,0.48551 v 0 l -0.28945,-0.47863 -0.55906,0.007 0.26987,-0.48975 -0.28549,-0.48101 v 0 l -0.55932,0.007 -0.27782,0.48551 -0.28522,-0.48101 -0.55933,0.002 v 0 0 0 0 0 0 l -0.27384,0.48789 0.28152,0.48313 -0.55933,0.007 -0.27782,0.48524 v 0 l 0.28179,0.4834 0.55932,0.002 -0.27781,0.48551 0.27781,0.48552 v 0 l -0.55932,0.007 -0.27782,0.48551 -0.28548,-0.48101 -0.55933,0.002 v 0 l -0.27755,0.48551 0.27755,0.48551 -0.55933,0.002 -0.28152,0.48339 v 0 0 0 0 0 0 l -0.28919,-0.47863 -0.55933,0.007 0.26988,-0.49 -0.28522,-0.48102 v 0 l -0.55933,0.007 -0.27781,0.48551 -0.28549,-0.48101 -0.55933,0.002 v 0 l 0.27014,-0.48975 -0.28548,-0.48101 0.55906,-0.0114 0.27384,-0.48762 v 0 l -0.28522,-0.48102 -0.55933,0.002 0.27385,-0.48789 -0.28178,-0.48313 v 0 0 0 0 0 0 l -0.55933,0.007 -0.27755,0.48551 -0.28549,-0.48101 -0.55932,0.002 v 0 l -0.27782,0.48551 0.27782,0.48551 -0.55933,0.002 -0.28152,0.48312 v 0 l -0.28549,-0.48101 -0.55933,0.002 0.27385,-0.48789 -0.28152,-0.48313 v 0 l -0.55933,0.002 -0.28178,0.48339 -0.28152,-0.48339 -0.55932,-0.002 v 0 0 0 0 0 0 0 0 0 0 0 0 0 0 0 0 0 0 0 0 0 0 0 0 0 0 0 0 0 0 0 l -0.27385,0.48763 0.28152,0.48339 -0.55907,0.007 -0.27781,0.48551 v 0 l 0.28152,0.48339 0.55933,0.002 -0.27782,0.48551 0.27782,0.48551 v 0 l -0.55933,0.007 -0.27755,0.48551 -0.28549,-0.48101 -0.55932,0.002 v 0 l -0.27782,0.48525 0.27782,0.48551 -0.55933,0.002 -0.28152,0.48313 v 0 0 0 0 0 0 l 0.28152,0.48339 0.55933,0.002 -0.27782,0.48551 0.27782,0.48551 v 0 l 0.55932,0.002 0.28549,-0.48101 0.27755,0.48551 0.55933,0.007 v 0 l -0.27782,0.48552 0.27782,0.48551 -0.55933,0.002 -0.28152,0.4834 v 0 l 0.27781,0.48551 0.55907,0.007 -0.28152,0.48339 0.27385,0.48763 v 0 0 0 0 0 0 l -0.55933,0.007 -0.27755,0.48551 -0.28549,-0.48102 -0.55933,0.002 v 0 l -0.27781,0.48551 0.27781,0.48551 -0.55933,0.002 -0.28151,0.4834 v 0 l -0.28549,-0.48128 -0.55933,0.002 0.27385,-0.48763 -0.28152,-0.48339 v 0 l -0.55933,0.002 -0.28178,0.48313 -0.28152,-0.48313 -0.55933,-0.002 v 0 0 0 0 0 0 l -0.27781,0.48551 0.27781,0.48551 -0.55932,0.002 -0.28152,0.48339 v 0 l 0.27755,0.48551 0.55933,0.007 -0.28152,0.48339 0.27384,0.48763 v 0 l -0.55933,0.002 -0.28151,0.4834 -0.28152,-0.4834 -0.55933,-0.002 v 0 l -0.28178,0.48339 0.27384,0.48763 -0.55933,-0.002 -0.28522,0.48101 v 0 0 0 0 0 0 0 0 0 0 0 0 0 0 0 0 0 0 0 0 0 0 0 0 0 0 0 0 0 0 0 l -0.28945,-0.47863 -0.55933,0.007 0.27014,-0.48974 -0.28549,-0.48101 v 0 l -0.55932,0.007 -0.27782,0.48551 -0.28522,-0.48101 -0.55933,0.002 v 0 l 0.26988,-0.49001 -0.28549,-0.48101 0.55933,-0.0111 0.27385,-0.48763 v 0 l -0.28549,-0.48101 -0.55933,0.002 0.27384,-0.48762 -0.28151,-0.4834 v 0 0 0 0 0 0 l -0.55933,0.007 -0.27781,0.48551 -0.28549,-0.48101 -0.55933,0.002 v 0 l -0.27755,0.48551 0.27755,0.48551 -0.55933,0.002 -0.28151,0.4834 v 0 l -0.28549,-0.48101 -0.55933,0.002 0.27384,-0.48762 -0.28151,-0.4834 v 0 l -0.55933,0.002 -0.28152,0.48313 -0.28151,-0.48313 -0.55933,-0.002 v 0 0 0 0 0 0 l 0.26987,-0.48974 -0.28548,-0.48101 0.55933,-0.0111 0.27384,-0.48762 v 0 l -0.28549,-0.48102 -0.55933,0.002 0.27385,-0.48763 -0.28152,-0.48339 v 0 l 0.55907,-0.0111 0.27384,-0.48763 0.28945,0.47863 0.55907,-0.007 v 0 l 0.27411,-0.48763 -0.28178,-0.48339 0.55932,-0.007 0.27782,-0.48551 v 0 0 0 0 0 0 l -0.28549,-0.48101 -0.55933,0.002 0.27385,-0.48762 -0.28152,-0.4834 v 0 l -0.55933,0.002 -0.28178,0.48313 -0.28152,-0.48313 -0.55933,-0.002 v 0 l 0.27385,-0.48762 -0.28152,-0.48313 0.55933,-0.007 0.27781,-0.48551 v 0 l -0.28178,-0.48313 -0.55933,-0.002 0.27781,-0.48551 -0.27781,-0.48551 v 0 0 0 0 0 0 0 0 0 0 0 0 0 0 0 0 0 0 0 0 0 0 0 0 0 0 0 0 0 0 0 l -0.55933,0.007 -0.27755,0.48551 -0.28548,-0.48102 -0.55933,0.002 v 0 l -0.27781,0.48551 0.27781,0.48551 -0.55933,0.002 -0.28152,0.48339 v 0 l -0.28548,-0.48101 -0.55933,0.002 0.27384,-0.48763 -0.28151,-0.48313 v 0 l -0.55933,0.002 -0.28178,0.48339 -0.28152,-0.48339 -0.55933,-0.002 v 0 0 0 0 0 0 l -0.27781,0.48551 0.27781,0.48551 -0.55933,0.002 -0.28152,0.48313 v 0 l 0.27782,0.48551 0.55906,0.007 -0.28151,0.48312 0.27384,0.4879 v 0 l -0.55933,0.002 -0.28152,0.4834 -0.28151,-0.4834 -0.55933,-0.002 v 0 l -0.28178,0.48313 0.27384,0.48762 -0.55933,-0.002 -0.28522,0.48101 v 0 0 0 0 0 0 l -0.28549,-0.48101 -0.55932,0.002 0.27384,-0.48762 -0.28152,-0.48313 v 0 l -0.55933,0.002 -0.28178,0.4834 -0.28151,-0.4834 -0.55933,-0.002 v 0 l 0.27384,-0.4879 -0.28152,-0.48312 0.55933,-0.007 0.27755,-0.48551 v 0 l -0.28152,-0.48313 -0.55933,-0.002 0.27782,-0.48551 -0.27782,-0.48551 v 0 0 0 0 0 0 l -0.55932,0.002 -0.28152,0.48339 -0.28152,-0.48339 -0.55933,-0.002 v 0 l -0.28178,0.48313 0.27385,0.48763 -0.55933,-0.002 -0.28522,0.48101 v 0 l -0.28179,-0.48339 -0.55933,-0.002 0.27782,-0.48551 -0.27782,-0.48551 v 0 l -0.55932,-0.002 -0.28523,0.48102 -0.27781,-0.48551 -0.55933,-0.007 v 0 0 0 0 0 0 0 0 0 0 0 0 0 0 0 0 0 0 0 0 0 0 0 0 0 0 0 0 0 0 0 0 0 0 0 0 0 0 0 0 0 0 0 0 0 0 0 0 0 0 0 0 0 0 0 0 0 0 0 0 0 0 0 0 0 0 0 0 0 0 0 0 0 0 0 0 0 0 0 0 0 0 0 0 0 0 0 0 0 0 0 0 0 0 0 0 0 0 0 0 0 0 0 0 0 0 0 0 0 0 0 0 0 0 0 0 0 0 0 0 0 0 0 0 0 0 0 0 0 0 0 0 0 0 0 0 0 0 0 0 0 0 0 0 0 0 0 0 0 0 0 0 0 0 0 0 l -0.27384,0.48789 0.28152,0.48313 -0.55933,0.007 -0.27755,0.48524 v 0 l 0.28152,0.4834 0.55932,0.002 -0.27781,0.48551 0.27781,0.48551 v 0 l -0.55932,0.007 -0.27782,0.48551 -0.28522,-0.48101 -0.55933,0.002 v 0 l -0.27781,0.48551 0.27781,0.48551 -0.55933,0.002 -0.28178,0.4834 v 0 0 0 0 0 0 l 0.28178,0.48313 0.55933,0.002 -0.27781,0.48551 0.27781,0.48551 v 0 l 0.55933,0.002 0.28522,-0.48102 0.27782,0.48551 0.55932,0.007 v 0 l -0.27781,0.48525 0.27781,0.48551 -0.55932,0.002 -0.28152,0.48313 v 0 l 0.27755,0.48551 0.55933,0.007 -0.28152,0.48313 0.27384,0.48763 v 0 0 0 0 0 0 l -0.55933,0.007 -0.27781,0.48551 -0.28522,-0.48102 -0.55933,0.002 v 0 l -0.27781,0.48551 0.27781,0.48551 -0.55933,0.002 -0.28178,0.48339 v 0 l -0.28522,-0.48101 -0.55933,0.002 0.27384,-0.48763 -0.28178,-0.48313 v 0 l -0.55933,0.002 -0.28151,0.48339 -0.28152,-0.48339 -0.55933,-0.002 v 0 0 0 0 0 0 l -0.27781,0.48551 0.27781,0.48551 -0.55933,0.002 -0.28151,0.48339 v 0 l 0.27754,0.48525 0.55933,0.007 -0.28151,0.48312 0.27384,0.4879 v 0 l -0.55933,0.002 -0.28152,0.4834 -0.28178,-0.4834 -0.55933,-0.002 v 0 l -0.28151,0.48313 0.27384,0.48762 -0.55933,-0.002 -0.28548,0.48101 v 0 0 0 0 0 0 0 0 0 0 0 0 0 0 0 0 0 0 0 0 0 0 0 0 0 0 0 0 0 0 0 l 0.28178,0.48339 0.55933,0.002 -0.27782,0.48551 0.27782,0.48551 v 0 l 0.55933,0.002 0.28522,-0.48102 0.27781,0.48551 0.55933,0.007 v 0 l -0.27781,0.48551 0.27781,0.48525 -0.55933,0.002 -0.28152,0.48313 v 0 l 0.27755,0.48551 0.55933,0.007 -0.28152,0.48313 0.27385,0.48789 v 0 0 0 0 0 0 l 0.55933,0.002 0.28548,-0.48102 0.27755,0.48551 0.55933,0.007 v 0 l 0.28548,-0.48101 -0.26987,-0.48975 0.55933,0.007 0.28919,-0.47863 v 0 l 0.27781,0.48551 0.55906,0.007 -0.28151,0.48313 0.27384,0.48789 v 0 l 0.55933,0.007 0.28919,-0.47863 0.27384,0.48762 0.55933,0.0111 v 0 0 0 0 0 0 l -0.27781,0.48551 0.27781,0.48551 -0.55933,0.002 -0.28151,0.4834 v 0 l 0.27755,0.48551 0.55932,0.007 -0.28151,0.4834 0.27384,0.48762 v 0 l -0.55933,0.002 -0.28151,0.48339 -0.28179,-0.48339 -0.55932,-0.002 v 0 l -0.28152,0.48313 0.27384,0.48789 -0.55933,-0.002 -0.28548,0.48101 v 0 0 0 0 0 0 l 0.27781,0.48551 0.55933,0.007 -0.28152,0.48313 0.27385,0.48763 v 0 l 0.55933,0.007 0.28919,-0.4789 0.27384,0.4879 0.55906,0.0111 v 0 l -0.28151,0.48313 0.27384,0.48789 -0.55933,-0.002 -0.28548,0.48101 v 0 l 0.27384,0.48763 0.55933,0.0111 -0.28549,0.48101 0.27014,0.49001 v 0 0 0 0 0 0 0 0 0 0 0 0 0 0 0 0 0 0 0 0 0 0 0 0 0 0 0 0 0 0 0 l -0.55933,0.007 -0.27781,0.48552 -0.28548,-0.48102 -0.55933,0.002 v 0 l -0.27755,0.48551 0.27755,0.48551 -0.55933,0.002 -0.28152,0.4834 v 0 l -0.28548,-0.48128 -0.55933,0.002 0.27384,-0.48763 -0.28152,-0.48339 v 0 l -0.55933,0.002 -0.28151,0.48313 -0.28178,-0.48313 -0.55933,-0.002 v 0 0 0 0 0 0 l -0.27755,0.48551 0.27755,0.48551 -0.55933,0.002 -0.28152,0.48339 v 0 l 0.27781,0.48551 0.55933,0.007 -0.28178,0.4834 0.27385,0.48763 v 0 l -0.55933,0.002 -0.28152,0.4834 -0.28152,-0.4834 -0.55933,-0.002 v 0 l -0.28151,0.48339 0.27384,0.48763 -0.55933,-0.002 -0.28548,0.48101 v 0 0 0 0 0 0 l -0.28549,-0.48101 -0.55933,0.002 0.27385,-0.48763 -0.28152,-0.48339 v 0 l -0.55933,0.002 -0.28152,0.4834 -0.28178,-0.4834 -0.55933,-0.002 v 0 l 0.27385,-0.48763 -0.28152,-0.4834 0.55933,-0.007 0.27781,-0.48551 v 0 l -0.28178,-0.48339 -0.55933,-0.002 0.27781,-0.48551 -0.27781,-0.48551 v 0 0 0 0 0 0 l -0.55933,0.002 -0.28151,0.48313 -0.28152,-0.48313 -0.55933,-0.002 v 0 l -0.28152,0.48339 0.27385,0.48763 -0.55933,-0.002 -0.28549,0.48128 v 0 l -0.28151,-0.4834 -0.55933,-0.002 0.27754,-0.48551 -0.27754,-0.48551 v 0 l -0.55933,-0.002 -0.28549,0.48102 -0.27781,-0.48552 -0.55933,-0.007 v 0 0 0 0 0 0 0 0 0 0 0 0 0 0 0 0 0 0 0 0 0 0 0 0 0 0 0 0 0 0 0 l -0.27755,0.48551 0.27755,0.48551 -0.55933,0.002 -0.28152,0.48339 v 0 l 0.27782,0.48551 0.55933,0.007 -0.28179,0.48339 0.27385,0.48763 v 0 l -0.55933,0.002 -0.28152,0.4834 -0.28151,-0.4834 -0.55933,-0.002 v 0 l -0.28152,0.48313 0.27384,0.48789 -0.55933,-0.002 -0.28548,0.48101 v 0 0 0 0 0 0 l 0.27755,0.48551 0.55933,0.007 -0.28152,0.48313 0.27384,0.48763 v 0 l 0.55933,0.007 0.28919,-0.47889 0.27385,0.48789 0.55933,0.0111 v 0 l -0.28152,0.48313 0.27384,0.48789 -0.55933,-0.002 -0.28548,0.48101 v 0 l 0.27384,0.48763 0.55907,0.0111 -0.28522,0.48102 0.26987,0.49001 v 0 0 0 0 0 0 l -0.55933,0.002 -0.28152,0.4834 -0.28178,-0.4834 -0.55933,-0.002 v 0 l -0.28151,0.48312 0.27384,0.4879 -0.55933,-0.002 -0.28548,0.48102 v 0 l -0.28152,-0.48313 -0.55933,-0.002 0.27781,-0.48551 -0.27781,-0.48551 v 0 l -0.55933,-0.002 -0.28548,0.48101 -0.27755,-0.48551 -0.55933,-0.007 v 0 0 0 0 0 0 l -0.28178,0.48313 0.27411,0.48789 -0.55933,-0.002 -0.28549,0.48101 v 0 l 0.27385,0.48763 0.55906,0.0114 -0.28522,0.48102 0.26987,0.48974 v 0 l -0.55933,-0.002 -0.28548,0.48102 -0.27781,-0.48552 -0.55907,-0.007 v 0 l -0.28548,0.48101 0.26987,0.49001 -0.55933,-0.007 L 105,185.87387 v 0 0 0 0 0 0 0 0 0 0 0 0 0 0 0 0 0 0 0 0 0 0 0 0 0 0 0 0 0 0 0 0 0 0 0 0 0 0 0 0 0 0 0 0 0 0 0 0 0 0 0 0 0 0 0 0 0 0 0 0 0 0 0 0 0 0 0 0 0 0 0 0 0 0 0 0 0 0 0 0 0 0 0 0 0 0 0 0 0 0 0 0 0 0 0 0 0 0 0 0 0 0 0 0 0 0 0 0 0 0 0 0 0 0 0 0 0 0 0 0 0 0 0 0 0 0 0 0 0 0 0 0 0 0 0 0 0 0 0 0 0 0 0 0 0 0 0 0 0 0 0 0 0 0 0 0 l -0.28919,-0.47863 -0.55933,0.007 0.26988,-0.49001 -0.28549,-0.48101 v 0 l -0.55906,0.007 -0.27781,0.48552 -0.28549,-0.48102 -0.55933,0.002 v 0 l 0.26988,-0.48974 -0.28522,-0.48102 0.55906,-0.0114 0.27384,-0.48763 v 0 l -0.28548,-0.48101 -0.55933,0.002 0.27411,-0.48789 -0.28178,-0.48313 v 0 0 0 0 0 0 l -0.55933,0.007 -0.27755,0.48551 -0.28549,-0.48101 -0.55932,0.002 v 0 l -0.27782,0.48551 0.27782,0.48551 -0.55933,0.002 -0.281521,0.48313 v 0 l -0.28549,-0.48102 -0.559325,0.002 0.273845,-0.4879 -0.281518,-0.48312 v 0 l -0.559329,0.002 -0.281781,0.4834 -0.281517,-0.4834 -0.559329,-0.002 v 0 0 0 0 0 0 l 0.269875,-0.49001 -0.285221,-0.48102 0.559065,-0.0111 0.273844,-0.48763 v 0 l -0.285486,-0.48101 -0.559329,0.002 0.273844,-0.48789 -0.281517,-0.48313 v 0 l 0.559329,-0.0111 0.273844,-0.48789 0.28919,0.47889 0.559329,-0.007 v 0 l 0.273847,-0.48763 -0.28152,-0.48313 0.55933,-0.007 0.27755,-0.48551 v 0 0 0 0 0 0 l -0.28549,-0.48101 -0.559328,0.002 0.273848,-0.48789 -0.28152,-0.48313 v 0 l -0.55933,0.002 -0.281516,0.4834 -0.281517,-0.4834 -0.559329,-0.002 v 0 l 0.273844,-0.48763 -0.281782,-0.48339 0.55933,-0.007 0.277812,-0.48551 v 0 l -0.281517,-0.48339 -0.559329,-0.002 0.277548,-0.48551 -0.277548,-0.48551 v 0 0 0 0 0 0 0 0 0 0 0 0 0 0 0 0 0 0 0 0 0 0 0 0 0 0 0 0 0 0 0 l -0.559329,0.007 -0.277812,0.48552 -0.285486,-0.48102 -0.559329,0.002 v 0 l -0.277548,0.48551 0.277548,0.48551 -0.559329,0.002 -0.281517,0.4834 v 0 l -0.285485,-0.48128 -0.559329,0.002 0.273843,-0.48763 -0.281516,-0.48339 v 0 l -0.55933,0.002 -0.281516,0.48313 -0.281517,-0.48313 -0.559329,-0.002 v 0 0 0 0 0 0 l -0.277813,0.48551 0.277813,0.48551 -0.559329,0.002 -0.281781,0.48339 v 0 l 0.277812,0.48551 0.559329,0.007 -0.281516,0.4834 0.273843,0.48763 v 0 l -0.559329,0.002 -0.281781,0.4834 -0.281517,-0.4834 -0.559329,-0.002 v 0 l -0.281517,0.48339 0.273844,0.48763 -0.559329,-0.002 -0.285485,0.48101 v 0 0 0 0 0 0 l -0.285486,-0.48101 -0.559329,0.002 0.273844,-0.48763 -0.281517,-0.48339 v 0 l -0.559329,0.002 -0.281517,0.4834 -0.281516,-0.4834 -0.55933,-0.002 v 0 l 0.273844,-0.48763 -0.281781,-0.4834 0.559329,-0.007 0.277813,-0.48551 v 0 l -0.281517,-0.48339 -0.559329,-0.002 0.277548,-0.48551 -0.277548,-0.48551 v 0 0 0 0 0 0 l -0.559329,0.002 -0.281782,0.48313 -0.281516,-0.48313 -0.55933,-0.002 v 0 l -0.281516,0.48339 0.273844,0.48763 -0.55933,-0.002 -0.285485,0.48128 v 0 l -0.281517,-0.4834 -0.559329,-0.002 0.277548,-0.48551 -0.277548,-0.48551 v 0 l -0.559329,-0.002 -0.285485,0.48102 -0.277813,-0.48552 -0.559329,-0.007 v 0 0 0 0 0 0 0 0 0 0 0 0 0 0 0 0 0 0 0 0 0 0 0 0 0 0 0 0 0 0 0 l 0.270139,-0.49001 -0.285485,-0.48101 0.559329,-0.0111 0.273844,-0.48763 v 0 l -0.285485,-0.48101 -0.55933,0.002 0.273844,-0.48789 -0.281517,-0.48313 v 0 l 0.559065,-0.0111 0.273844,-0.4879 0.289189,0.4789 0.55933,-0.007 v 0 l 0.273843,-0.48763 -0.281516,-0.48313 0.559329,-0.007 0.277812,-0.48551 v 0 0 0 0 0 0 l -0.285485,-0.48101 -0.559329,0.002 0.273843,-0.48789 -0.281516,-0.48313 v 0 l -0.559329,0.002 -0.281782,0.48339 -0.281516,-0.48339 -0.559329,-0.002 v 0 l 0.273843,-0.48762 -0.281516,-0.4834 0.559329,-0.007 0.277548,-0.48551 v 0 l -0.281517,-0.4834 -0.559329,-0.002 0.277812,-0.48551 -0.277812,-0.48551 v 0 0 0 0 0 0 l 0.559329,-0.0111 0.273844,-0.48762 0.289189,0.47863 0.55933,-0.007 v 0 l 0.273843,-0.48789 -0.281516,-0.48313 0.559064,-0.007 0.277813,-0.48551 v 0 l 0.289189,0.47863 0.559329,-0.007 -0.269875,0.48975 0.285486,0.48101 v 0 l 0.559329,-0.007 0.277548,-0.48551 0.285485,0.48102 0.55933,-0.002 v 0 0 0 0 0 0 l 0.273843,-0.48789 -0.281516,-0.48313 0.559329,-0.007 0.277548,-0.48551 v 0 l -0.281517,-0.48313 -0.559329,-0.002 0.277812,-0.48525 -0.277812,-0.48551 v 0 l 0.559329,-0.007 0.277813,-0.48551 0.28522,0.48102 0.55933,-0.002 v 0 l 0.277812,-0.48551 -0.277812,-0.48551 0.559329,-0.002 0.281781,-0.48339 v 0 0 0 0 0 0 0 0 0 0 0 0 0 0 0 0 0 0 0 0 0 0 0 0 0 0 0 0 0 0 0 l -0.285485,-0.48101 -0.55933,0.002 0.273844,-0.48762 -0.281517,-0.48313 v 0 l -0.559329,0.002 -0.281781,0.4834 -0.281517,-0.4834 -0.559329,-0.002 v 0 l 0.273844,-0.4879 -0.281517,-0.48312 0.559329,-0.007 0.277548,-0.48525 v 0 l -0.281516,-0.48339 -0.559329,-0.002 0.277812,-0.48551 -0.277812,-0.48551 v 0 0 0 0 0 0 l -0.55933,0.002 -0.281516,0.48339 -0.281517,-0.48339 -0.559329,-0.002 v 0 l -0.281781,0.48313 0.273843,0.48763 -0.559329,-0.002 -0.285221,0.48101 v 0 l -0.281781,-0.48339 -0.559329,-0.002 0.277812,-0.48551 -0.277812,-0.48551 v 0 l -0.559329,-0.002 -0.285221,0.48102 -0.277813,-0.48551 -0.559329,-0.007 v 0 0 0 0 0 0 l 0.273844,-0.48763 -0.281517,-0.48313 0.55933,-0.007 0.277547,-0.48551 v 0 l -0.281516,-0.48313 -0.559329,-0.002 0.277812,-0.48551 -0.277812,-0.48525 v 0 l 0.559329,-0.007 0.277812,-0.48551 0.285221,0.48102 0.559329,-0.002 v 0 l 0.277813,-0.48551 -0.277813,-0.48551 0.559329,-0.002 0.281782,-0.48313 v 0 0 0 0 0 0 l -0.281782,-0.4834 -0.559329,-0.002 0.277813,-0.48551 -0.277813,-0.48551 v 0 l -0.559329,-0.002 -0.285221,0.48101 -0.277812,-0.48551 -0.559329,-0.007 v 0 l 0.277812,-0.48551 -0.277812,-0.48551 0.559329,-0.002 0.281516,-0.4834 v 0 l -0.277547,-0.48524 -0.55933,-0.007 0.281517,-0.48313 -0.273844,-0.48789 v 0 0 0 0 0 0 0 0 0 0 0 0 0 0 0 0 0 0 0 0 0 0 0 0 0 0 0 0 0 0 0 0 0 0 0 0 0 0 0 0 0 0 0 0 0 0 0 0 0 0 0 0 0 0 0 0 0 0 0 0 0 0 0 0 0 0 0 0 0 0 0 0 0 0 0 0 0 0 0 0 0 0 0 0 0 0 0 0 0 0 0 0 0 0 0 0 0 0 0 0 0 0 0 0 0 0 0 0 0 0 0 0 0 0 0 0 0 0 0 0 0 0 0 0 0 0 0 0 0 0 0 0 0 0 0 0 0 0 0 0 0 0 0 0 0 0 0 0 0 0 0 0 0 0 0 0 l -0.559329,0.007 -0.277812,0.48551 -0.285221,-0.48102 -0.559329,0.002 v 0 l -0.277813,0.48551 0.277813,0.48551 -0.55933,0.002 -0.281781,0.48339 v 0 l -0.285221,-0.48101 -0.559329,0.002 0.273844,-0.48763 -0.281781,-0.48313 v 0 l -0.559329,0.002 -0.281517,0.48339 -0.281517,-0.48339 -0.559329,-0.002 v 0 0 0 0 0 0 l -0.277812,0.48551 0.277812,0.48551 -0.559329,0.002 -0.281517,0.48313 v 0 l 0.277548,0.48551 0.559329,0.007 -0.281516,0.48312 0.273843,0.4879 v 0 l -0.559329,0.002 -0.281516,0.4834 -0.281782,-0.4834 -0.559329,-0.002 v 0 l -0.281517,0.48313 0.273844,0.48762 -0.559329,-0.002 -0.285485,0.48101 v 0 0 0 0 0 0 l -0.285221,-0.48101 -0.559329,0.002 0.273843,-0.48762 -0.281781,-0.48313 v 0 l -0.559329,0.002 -0.281517,0.4834 -0.281516,-0.4834 -0.55933,-0.002 v 0 l 0.273844,-0.4879 -0.281516,-0.48312 0.559064,-0.007 0.277813,-0.48551 v 0 l -0.281517,-0.48313 -0.559329,-0.002 0.277812,-0.48551 -0.277812,-0.48551 v 0 0 0 0 0 0 l -0.559329,0.002 -0.281517,0.48339 -0.281781,-0.48339 -0.559329,-0.002 v 0 l -0.281517,0.48313 0.273844,0.48763 -0.55933,-0.002 -0.285485,0.48101 v 0 l -0.281517,-0.48339 -0.559329,-0.002 0.277813,-0.48551 -0.277813,-0.48551 v 0 l -0.559329,-0.002 -0.285485,0.48102 -0.277548,-0.48551 -0.559329,-0.007 v 0 0 0 0 0 0 0 0 0 0 0 0 0 0 0 0 0 0 0 0 0 0 0 0 0 0 0 0 0 0 0 l -0.277813,0.48551 0.277813,0.48551 -0.55933,0.002 -0.281781,0.48313 v 0 l 0.277813,0.48551 0.559329,0.007 -0.281517,0.48313 0.273844,0.48762 v 0 l -0.559329,0.002 -0.281517,0.48313 -0.281781,-0.48313 -0.559329,-0.002 v 0 l -0.281517,0.4834 0.273844,0.48762 -0.559329,-0.002 -0.285486,0.48101 v 0 0 0 0 0 0 l 0.277813,0.48551 0.559329,0.007 -0.281781,0.48339 0.274108,0.48763 v 0 l 0.559064,0.007 0.289455,-0.47863 0.273843,0.48763 0.559065,0.0111 v 0 l -0.281517,0.48339 0.273844,0.48763 -0.559329,-0.002 -0.285486,0.48102 v 0 l 0.273844,0.48762 0.559329,0.0111 -0.285485,0.48101 0.269875,0.48974 v 0 0 0 0 0 0 l -0.559329,0.002 -0.281517,0.48313 -0.281517,-0.48313 -0.559329,-0.002 v 0 l -0.281516,0.4834 0.273843,0.48762 -0.559329,-0.002 -0.285485,0.48101 v 0 l -0.281517,-0.4834 -0.559329,-0.002 0.277548,-0.48551 -0.277548,-0.48551 v 0 l -0.559329,-0.002 -0.285486,0.48101 -0.277812,-0.48551 -0.559329,-0.007 v 0 0 0 0 0 0 l -0.281517,0.4834 0.273844,0.48762 -0.559329,-0.002 -0.285486,0.48101 v 0 l 0.273844,0.48763 0.559329,0.0111 -0.285485,0.48101 0.269875,0.49001 v 0 l -0.559329,-0.002 -0.285221,0.48101 -0.277813,-0.48551 -0.559329,-0.007 v 0 l -0.285485,0.48101 0.270139,0.48974 -0.559329,-0.007 -0.289454,0.47863 v 0 0 0 0 0 0 0 0 0 0 0 0 0 0 0 0 0 0 0 0 0 0 0 0 0 0 0 0 0 0 0 l -0.285221,-0.48101 -0.559329,0.002 0.273844,-0.48763 -0.281782,-0.48339 v 0 l -0.559329,0.002 -0.281516,0.4834 -0.281517,-0.4834 -0.559329,-0.002 v 0 l 0.273843,-0.48763 -0.281516,-0.48339 0.559329,-0.007 0.277548,-0.48551 v 0 l -0.281517,-0.48339 -0.559329,-0.002 0.277813,-0.48551 -0.277813,-0.48551 v 0 0 0 0 0 0 l -0.559329,0.002 -0.281517,0.48313 -0.281781,-0.48313 -0.559329,-0.002 v 0 l -0.281517,0.48339 0.273844,0.48763 -0.559329,-0.002 -0.285486,0.48128 v 0 l -0.281516,-0.4834 -0.55933,-0.002 0.277813,-0.48551 -0.277813,-0.48551 v 0 l -0.559329,-0.002 -0.285485,0.48102 -0.277548,-0.48551 -0.559329,-0.007 v 0 0 0 0 0 0 l 0.273844,-0.48763 -0.281517,-0.48339 0.559064,-0.007 0.277813,-0.48551 v 0 l -0.281517,-0.4834 -0.559329,-0.002 0.277813,-0.48551 -0.277813,-0.48552 v 0 l 0.559329,-0.007 0.277548,-0.48551 0.285486,0.48101 0.559329,-0.002 v 0 l 0.277812,-0.48551 -0.277812,-0.48551 0.559329,-0.002 0.281517,-0.48339 v 0 0 0 0 0 0 l -0.281517,-0.48313 -0.559329,-0.002 0.277812,-0.48551 -0.277812,-0.48525 v 0 l -0.559329,-0.002 -0.285486,0.48101 -0.277548,-0.48551 -0.559329,-0.007 v 0 l 0.277813,-0.48551 -0.277813,-0.48551 0.559329,-0.002 0.281517,-0.48339 v 0 l -0.277813,-0.48551 -0.559064,-0.007 0.281517,-0.48339 -0.273844,-0.48763 v 0 0 0 0 0 0 0 0 0 0 0 0 0 0 0 0 0 0 0 0 0 0 0 0 0 0 0 0 0 0 0 l -0.559329,0.002 -0.281517,0.48339 -0.281781,-0.48339 -0.559329,-0.002 v 0 l -0.281517,0.48313 0.273844,0.48789 -0.55933,-0.002 -0.285485,0.48101 v 0 l -0.281517,-0.48312 -0.559329,-0.002 0.277813,-0.48551 -0.277813,-0.48551 v 0 l -0.559329,-0.002 -0.285485,0.48101 -0.277548,-0.48551 -0.559329,-0.007 v 0 0 0 0 0 0 l -0.281782,0.48313 0.273844,0.48789 -0.559329,-0.002 -0.285221,0.48102 v 0 l 0.273844,0.48762 0.559064,0.0114 -0.285485,0.48101 0.27014,0.48975 v 0 l -0.55933,-0.002 -0.285485,0.48101 -0.277813,-0.48551 -0.559329,-0.007 v 0 l -0.285221,0.48102 0.269875,0.49 -0.559329,-0.007 -0.289189,0.47863 v 0 0 0 0 0 0 l -0.281517,-0.48339 -0.559329,-0.002 0.277548,-0.48551 -0.277548,-0.48551 v 0 l -0.559329,-0.002 -0.285486,0.48101 -0.277812,-0.48551 -0.559329,-0.007 v 0 l 0.277812,-0.48552 -0.277812,-0.48551 0.559329,-0.002 0.281781,-0.4834 v 0 l -0.277812,-0.48524 -0.55933,-0.007 0.281517,-0.48313 -0.273844,-0.48789 v 0 0 0 0 0 0 l -0.559329,-0.002 -0.285221,0.48101 -0.277812,-0.48551 -0.559329,-0.007 v 0 l -0.285486,0.48101 0.269875,0.48975 -0.559064,-0.007 -0.289455,0.47863 v 0 l -0.277547,-0.48551 -0.55933,-0.007 0.281517,-0.48313 -0.273844,-0.48789 v 0 l -0.559329,-0.007 -0.289189,0.47863 -0.273844,-0.48762 -0.559329,-0.0111 v 0 0 0 0 0 0 0 0 0 0 0 0 0 0 0 0 0 0 0 0 0 0 0 0 0 0 0 0 0 0 0 0 0 0 0 0 0 0 0 0 0 0 0 0 0 0 0 0 0 0 0 0 0 0 0 0 0 0 0 0 0 0 0 0 0 0 0 0 0 0 0 0 0 0 0 0 0 0 0 0 0 0 0 0 0 0 0 0 0 0 0 0 0 0 0 0 0 0 0 0 0 0 0 0 0 0 0 0 0 0 0 0 0 0 0 0 0 0 0 0 0 0 0 0 0 0 0 0 0 0 0 0 0 0 0 0 0 0 0 0 0 0 0 0 0 0 0 0 0 0 0 0 0 0 0 0 0 0 0 0 0 0 0 0 0 0 0 0 0 0 0 0 0 0 0 0 0 0 0 0 0 0 0 0 0 0 0 0 0 0 0 0 0 0 0 0 0 0 0 0 0 0 0 0 0 0 0 0 0 0 0 0 0 0 0 0 0 0 0 0 0 0 0 0 0 0 0 0 0 0 0 0 0 0 0 0 0 0 0 0 0 0 0 0 0 0 0 0 0 0 0 0 0 0 0 0 0 0 0 0 0 0 0 0 0 0 0 0 0 0 0 0 0 0 0 0 0 0 0 0 0 0 0 0 0 0 0 0 0 0 0 0 0 0 0 0 0 0 0 0 0 0 0 0 0 0 0 0 0 0 0 0 0 0 0 0 0 0 0 0 0 0 0 0 0 0 0 0 0 0 0 0 0 0 0 0 0 0 0 0 0 0 0 0 0 0 0 0 0 0 0 0 0 0 0 0 0 0 0 0 0 0 0 0 0 0 0 0 0 0 0 0 0 0 0 0 0 0 0 0 0 0 0 0 0 0 0 0 0 0 0 0 0 0 0 0 0 0 0 0 0 0 0 0 0 0 0 0 0 0 0 0 0 0 0 0 0 0 0 0 0 0 0 0 0 0 0 0 0 0 0 0 0 0 0 0 0 0 0 0 0 0 0 0 0 0 0 0 0 0 0 0 0 0 0 0 0 0 0 0 0 0 0 0 0 0 0 0 0 0 0 0 0 0 0 0 0 0 0 0 0 0 0 0 0 0 0 0 0 0 0 0 0 0 0 0 0 0 0 0 0 0 0 0 0 0 0 0 0 0 0 0 0 0 0 0 0 0 0 0 0 0 0 0 0 0 0 0 0 0 0 0 0 0 0 0 0 0 0 0 0 0 0 0 0 0 0 0 0 0 0 0 0 0 0 0 0 0 0 0 0 0 0 0 0 0 0 0 0 0 0 0 0 0 0 0 0 0 0 0 0 0 0 0 0 0 0 0 0 0 0 0 0 0 0 0 0 0 0 0 0 0 0 0 0 0 0 0 0 0 0 0 0 0 0 0 0 0 0 0 0 0 0 0 0 0 0 0 0 0 0 0 0 0 0 0 0 0 0 0 0 0 0 0 0 0 0 0 0 0 0 0 0 0 0 0 0 0 0 0 0 0 0 0 0 0 0 0 0 0 0 0 0 0 0 0 0 0 0 0 0 0 0 0 0 0 0 0 0 0 0 0 0 0 0 0 0 0 0 0 0 0 0 0 0 0 0 0 0 0 0 0 0 0 0 0 0 0 0 0 0 0 0 0 0 0 0 0 0 0 0 0 0 0 0 0 0 0 0 0 0 0 0 0 0 0 0 0 0 0 0 0 0 0 0 0 0 0 0 0 0 0 0 0 0 0 0 0 0 0 0 0 0 0 0 0 0 0 0 0 0 l 0.270139,-0.48974 -0.285485,-0.48101 0.559064,-0.0114 0.274109,-0.48763 v 0 l -0.285486,-0.48101 -0.559329,0.002 0.273844,-0.48789 -0.281517,-0.48313 v 0 l 0.559065,-0.0111 0.273844,-0.48789 0.289189,0.47889 0.559329,-0.007 v 0 l 0.273844,-0.48762 -0.281517,-0.48313 0.55933,-0.007 0.277812,-0.48551 v 0 0 0 0 0 0 l -0.285485,-0.48102 -0.55933,0.002 0.273844,-0.48763 -0.281781,-0.48339 v 0 l -0.559065,0.002 -0.281781,0.4834 -0.281517,-0.4834 -0.559329,-0.002 v 0 l 0.273844,-0.48763 -0.281517,-0.4834 0.55933,-0.007 0.277547,-0.48551 v 0 l -0.281516,-0.48339 -0.559329,-0.002 0.277812,-0.48551 -0.277812,-0.48551 v 0 0 0 0 0 0 l 0.559329,-0.0111 0.273844,-0.48763 0.289189,0.47863 0.559329,-0.007 v 0 l 0.273844,-0.4879 -0.281781,-0.48313 0.559329,-0.007 0.277812,-0.48551 v 0 l 0.28919,0.47863 0.559329,-0.007 -0.269875,0.48974 0.285486,0.48101 v 0 l 0.559064,-0.007 0.277813,-0.48551 0.285485,0.48101 0.559329,-0.002 v 0 0 0 0 0 0 l 0.273844,-0.48789 -0.281517,-0.48313 0.55933,-0.007 0.277547,-0.48524 v 0 l -0.281516,-0.4834 -0.559329,-0.002 0.277812,-0.48551 -0.277812,-0.48551 v 0 l 0.559329,-0.007 0.277812,-0.48551 0.285221,0.48101 0.559329,-0.002 v 0 l 0.277813,-0.48551 -0.277813,-0.48551 0.559329,-0.002 0.281782,-0.48339 v 0 0 0 0 0 0 0 0 0 0 0 0 0 0 0 0 0 0 0 0 0 0 0 0 0 0 0 0 0 0 0 l -0.285486,-0.48101 -0.559329,0.002 0.273844,-0.48763 -0.281517,-0.48313 v 0 l -0.559329,0.002 -0.281781,0.48339 -0.281517,-0.48339 -0.559329,-0.002 v 0 l 0.273844,-0.48789 -0.281517,-0.48313 0.559329,-0.007 0.277548,-0.48551 v 0 l -0.281517,-0.48339 -0.559329,-0.002 0.277813,-0.48551 -0.277813,-0.48551 v 0 0 0 0 0 0 l -0.559329,0.002 -0.281517,0.48339 -0.281516,-0.48339 -0.559329,-0.002 v 0 l -0.281782,0.48313 0.273844,0.48763 -0.559329,-0.002 -0.285221,0.48101 v 0 l -0.281781,-0.48313 -0.559329,-0.002 0.277812,-0.48551 -0.277812,-0.48551 v 0 l -0.559329,-0.002 -0.285486,0.48101 -0.277548,-0.48551 -0.559329,-0.007 v 0 0 0 0 0 0 l 0.273844,-0.48789 -0.281517,-0.48313 0.559329,-0.007 0.277548,-0.48551 v 0 l -0.281516,-0.48313 -0.55933,-0.002 0.277813,-0.48524 -0.277813,-0.48551 v 0 l 0.55933,-0.007 0.277812,-0.48551 0.285221,0.48101 0.559329,-0.002 v 0 l 0.277813,-0.48551 -0.277813,-0.48551 0.559329,-0.002 0.281781,-0.4834 v 0 0 0 0 0 0 l -0.281781,-0.48339 -0.559329,-0.002 0.277813,-0.48551 -0.277813,-0.48551 v 0 l -0.559329,-0.002 -0.285221,0.48102 -0.277812,-0.48551 -0.55933,-0.007 v 0 l 0.277813,-0.48551 -0.277813,-0.48525 0.55933,-0.002 0.281516,-0.48313 v 0 l -0.277548,-0.48551 -0.559329,-0.007 0.281517,-0.48313 -0.273844,-0.48789 v 0 0 0 0 0 0 0 0 0 0 0 0 0 0 0 0 0 0 0 0 0 0 0 0 0 0 0 0 0 0 0 l 0.559065,-0.0111 0.274108,-0.48763 0.28919,0.47863 0.559329,-0.007 v 0 l 0.273843,-0.48763 -0.281781,-0.48339 0.559329,-0.007 0.277813,-0.48551 v 0 l 0.289189,0.47863 0.55933,-0.007 -0.269875,0.49001 0.285485,0.48101 v 0 l 0.559065,-0.007 0.277812,-0.48551 0.285486,0.48101 0.559329,-0.002 v 0 0 0 0 0 0 l 0.273843,-0.48762 -0.281516,-0.4834 0.559064,-0.007 0.277813,-0.48551 v 0 l -0.281517,-0.4834 -0.559329,-0.002 0.277813,-0.48551 -0.277813,-0.48551 v 0 l 0.559329,-0.007 0.277548,-0.48551 0.285486,0.48101 0.559329,-0.002 v 0 l 0.277812,-0.48551 -0.277812,-0.48551 0.559329,-0.002 0.281517,-0.48313 v 0 0 0 0 0 0 l 0.289454,0.47863 0.559329,-0.007 -0.27014,0.48975 0.285486,0.48101 v 0 l 0.559329,-0.007 0.277812,-0.48552 0.285221,0.48102 0.559329,-0.002 v 0 l -0.269875,0.49 0.285486,0.48102 -0.559329,0.0111 -0.273844,0.48763 v 0 l 0.285485,0.48101 0.559329,-0.002 -0.273843,0.48763 0.281516,0.48339 v 0 0 0 0 0 0 l 0.55933,-0.007 0.277812,-0.48551 0.285485,0.48102 0.55933,-0.002 v 0 l 0.277548,-0.48551 -0.277548,-0.48551 0.559329,-0.002 0.281516,-0.48339 v 0 l 0.285486,0.48101 0.559329,-0.002 -0.273844,0.48763 0.281517,0.48339 v 0 l 0.559329,-0.002 0.281517,-0.48313 0.281516,0.48313 0.55933,0.002 v 0 0 0 0 0 0 0 0 0 0 0 0 0 0 0 0 0 0 0 0 0 0 0 0 0 0 0 0 0 0 0 l 0.273843,-0.48789 -0.281516,-0.48313 0.559329,-0.007 0.277812,-0.48524 v 0 l -0.281781,-0.48339 -0.559329,-0.002 0.277812,-0.48551 -0.277812,-0.48551 v 0 l 0.559329,-0.007 0.277813,-0.48551 0.285485,0.48101 0.559329,-0.002 v 0 l 0.277548,-0.48551 -0.277548,-0.48551 0.559329,-0.002 0.281517,-0.4834 v 0 0 0 0 0 0 l -0.281517,-0.48313 -0.559329,-0.002 0.277548,-0.48551 -0.277548,-0.48551 v 0 l -0.559329,-0.002 -0.285485,0.48102 -0.277813,-0.48551 -0.559329,-0.007 v 0 l 0.277812,-0.48525 -0.277812,-0.48551 0.559329,-0.002 0.281781,-0.48313 v 0 l -0.277812,-0.48551 -0.559329,-0.007 0.281516,-0.48313 -0.273843,-0.48762 v 0 0 0 0 0 0 l 0.559329,-0.007 0.277812,-0.48551 0.285486,0.48101 0.559329,-0.002 v 0 l 0.277548,-0.48551 -0.277548,-0.48551 0.559329,-0.002 0.281517,-0.48339 v 0 l 0.285485,0.48101 0.559329,-0.002 -0.273843,0.48762 0.281516,0.48313 v 0 l 0.559329,-0.002 0.281517,-0.4834 0.281781,0.4834 0.559065,0.002 v 0 0 0 0 0 0 l 0.277812,-0.48551 -0.277812,-0.48551 0.559329,-0.002 0.281781,-0.48339 v 0 l -0.277812,-0.48524 -0.559329,-0.007 0.281516,-0.48313 -0.273843,-0.48789 v 0 l 0.559329,-0.002 0.281781,-0.4834 0.281517,0.4834 0.559329,0.002 v 0 l 0.281516,-0.48313 -0.273843,-0.48763 0.559329,0.002 0.285485,-0.48102 v 0 0 0 0 0 0 0 0 0 0 0 0 0 0 0 0 0 0 0 0 0 0 0 0 0 0 0 0 0 0 0 0 0 0 0 0 0 0 0 0 0 0 0 0 0 0 0 0 0 0 0 0 0 0 0 0 0 0 0 0 0 0 0 0 0 0 0 0 0 0 0 0 0 0 0 0 0 0 0 0 0 0 0 0 0 0 0 0 0 0 0 0 0 0 0 0 0 0 0 0 0 0 0 0 0 0 0 0 0 0 0 0 0 0 0 0 0 0 0 0 0 0 0 0 0 0 0 0 0 0 0 0 0 0 0 0 0 0 0 0 0 0 0 0 0 0 0 0 0 0 0 0 0 0 0 0 l -0.285485,-0.48101 -0.559329,0.002 0.273843,-0.48763 -0.281516,-0.48313 v 0 l -0.559329,0.002 -0.281517,0.48339 -0.281781,-0.48339 -0.559329,-0.002 v 0 l 0.273843,-0.48789 -0.281516,-0.48313 0.559329,-0.007 0.277812,-0.48524 v 0 l -0.281781,-0.4834 -0.559329,-0.002 0.277812,-0.48551 -0.277812,-0.48551 v 0 0 0 0 0 0 l -0.559065,0.002 -0.281781,0.48339 -0.281517,-0.48339 -0.559329,-0.002 v 0 l -0.281516,0.48313 0.273843,0.48763 -0.559329,-0.002 -0.285485,0.48102 v 0 l -0.281517,-0.4834 -0.559329,-0.002 0.277548,-0.48551 -0.277548,-0.48552 v 0 l -0.559329,-0.002 -0.285486,0.48101 -0.277812,-0.48551 -0.559329,-0.007 v 0 0 0 0 0 0 l 0.273843,-0.48763 -0.281516,-0.48313 0.559329,-0.007 0.277812,-0.48552 v 0 l -0.281781,-0.48313 -0.559329,-0.002 0.277812,-0.485508 -0.277812,-0.485246 v 0 l 0.559329,-0.0069 0.277813,-0.485511 0.285485,0.481013 0.559329,-0.0021 v 0 l 0.277548,-0.48551 -0.277548,-0.485511 0.559329,-0.0024 0.281517,-0.483129 v 0 0 0 0 0 0 l -0.281517,-0.482807 -0.559329,-0.0021 0.277548,-0.48551 -0.277548,-0.485511 v 0 l -0.559329,-0.0021 -0.285485,0.481012 -0.277813,-0.48551 -0.559329,-0.0069 v 0 l 0.277812,-0.485511 -0.277812,-0.48551 0.559329,-0.0021 0.281781,-0.483394 v 0 l -0.277812,-0.485245 -0.559329,-0.0069 0.281516,-0.483129 -0.273843,-0.487891 v 0 0 0 0 0 0 0 0 0 0 0 0 0 0 0 0 0 0 0 0 0 0 0 0 0 0 0 0 0 0 0 l -0.55933,0.0024 -0.281516,0.483129 -0.281517,-0.483129 -0.559329,-0.0024 v 0 l -0.281517,0.483393 0.273844,0.487627 -0.559329,-0.0021 -0.285486,0.481012 v 0 l -0.281516,-0.483393 -0.559329,-0.0021 0.277548,-0.485511 -0.277548,-0.48551 v 0 l -0.55933,-0.0021 -0.285485,0.481013 -0.277812,-0.485511 -0.55933,-0.0069 v 0 0 0 0 0 0 l -0.281516,0.483394 0.273843,0.487627 -0.559329,-0.0021 -0.285485,0.481013 v 0 l 0.273844,0.487627 0.559329,0.01111 -0.285486,0.481012 0.269875,0.490008 v 0 l -0.559329,-0.0024 -0.285221,0.481013 -0.277812,-0.485511 -0.559329,-0.0066 v 0 l -0.285486,0.481012 0.27014,0.489744 -0.559329,-0.0066 -0.289454,0.478632 v 0 0 0 0 0 0 l -0.281517,-0.48313 -0.559329,-0.0021 0.277812,-0.485511 -0.277812,-0.48551 v 0 l -0.559329,-0.0024 -0.285486,0.481012 -0.277548,-0.48551 -0.559329,-0.0066 v 0 l 0.277813,-0.48551 -0.277813,-0.485511 0.559329,-0.0021 0.281517,-0.483394 v 0 l -0.277813,-0.485511 -0.559064,-0.0066 0.281516,-0.483394 -0.273843,-0.487627 v 0 0 0 0 0 0 l -0.559329,-0.0021 -0.285486,0.481013 -0.277812,-0.485511 -0.559065,-0.0069 v 0 l -0.285485,0.481013 0.269875,0.490008 -0.55933,-0.0066 -0.289189,0.478631 v 0 l -0.277813,-0.485511 -0.559329,-0.0066 0.281781,-0.483394 -0.273843,-0.487627 v 0 l -0.559329,-0.0066 -0.28919,0.478632 -0.274108,-0.487627 -0.559065,-0.01111 v 0 0 0 0 0 0 0 0 0 0 0 0 0 0 0 0 0 0 0 0 0 0 0 0 0 0 0 0 0 0 0 l 0.273844,-0.487892 -0.281517,-0.483129 0.559329,-0.0069 0.277548,-0.48551 v 0 l -0.281516,-0.48313 -0.55933,-0.0024 0.277813,-0.485246 -0.277813,-0.48551 v 0 l 0.55933,-0.0069 0.277812,-0.485511 0.285221,0.481013 0.559329,-0.0021 v 0 l 0.277813,-0.48551 -0.277813,-0.485511 0.559329,-0.0021 0.281781,-0.483394 v 0 0 0 0 0 0 l -0.281781,-0.483394 -0.559329,-0.0021 0.277813,-0.485511 -0.277813,-0.48551 v 0 l -0.559329,-0.0021 -0.285221,0.481013 -0.277812,-0.485511 -0.55933,-0.0069 v 0 l 0.277813,-0.48551 -0.277813,-0.485246 0.55933,-0.0024 0.281516,-0.483129 v 0 l -0.277548,-0.48551 -0.559329,-0.0069 0.281517,-0.483129 -0.273844,-0.487892 v 0 0 0 0 0 0 l 0.559329,-0.0066 0.277548,-0.48551 0.285486,0.481012 0.559329,-0.0021 v 0 l 0.277812,-0.485511 -0.277812,-0.48551 0.559329,-0.0024 0.281781,-0.48313 v 0 l 0.285221,0.481013 0.559329,-0.0021 -0.273844,0.487627 0.281782,0.48313 v 0 l 0.559329,-0.0021 0.281516,-0.483394 0.281517,0.483394 0.559329,0.0021 v 0 0 0 0 0 0 l 0.277813,-0.485511 -0.277813,-0.48551 0.559329,-0.0021 0.281517,-0.483394 v 0 l -0.277548,-0.48551 -0.559329,-0.0066 0.281517,-0.483129 -0.273844,-0.487892 v 0 l 0.559329,-0.0021 0.281517,-0.483394 0.281781,0.483394 0.559329,0.0021 v 0 l 0.281517,-0.483129 -0.273844,-0.487627 0.559329,0.0021 0.285486,-0.481013 v 0 0 0 0 0 0 0 0 0 0 0 0 0 0 0 0 0 0 0 0 0 0 0 0 0 0 0 0 0 0 0 l -0.281782,-0.483393 -0.559329,-0.0021 0.277813,-0.48551 -0.277813,-0.485511 v 0 l -0.559329,-0.0021 -0.285221,0.481013 -0.277812,-0.48551 -0.559329,-0.0069 v 0 l 0.277812,-0.48551 -0.277812,-0.48551 0.559329,-0.0021 0.281516,-0.483394 v 0 l -0.277547,-0.485246 -0.55933,-0.0069 0.281517,-0.483129 -0.273844,-0.487892 v 0 0 0 0 0 0 l -0.559329,-0.0021 -0.285485,0.481012 -0.277813,-0.48551 -0.559064,-0.0066 v 0 l -0.285486,0.481013 0.269875,0.489743 -0.559329,-0.0066 -0.28919,0.478631 v 0 l -0.277812,-0.48551 -0.559329,-0.0066 0.281781,-0.483129 -0.273844,-0.487892 v 0 l -0.559329,-0.0066 -0.289189,0.478631 -0.273844,-0.487627 -0.559329,-0.01111 v 0 0 0 0 0 0 l 0.277812,-0.48551 -0.277812,-0.485511 0.559329,-0.0021 0.281516,-0.483394 v 0 l -0.277547,-0.48551 -0.55933,-0.0066 0.281517,-0.483394 -0.273844,-0.487627 v 0 l 0.559329,-0.0021 0.281517,-0.483394 0.281781,0.483394 0.559065,0.0021 v 0 l 0.281781,-0.483394 -0.273844,-0.487627 0.55933,0.0024 0.285485,-0.481013 v 0 0 0 0 0 0 l -0.277812,-0.48551 -0.55933,-0.0069 0.281517,-0.48313 -0.273844,-0.487627 v 0 l -0.559329,-0.0069 -0.289189,0.478896 -0.273844,-0.487892 -0.559065,-0.01111 v 0 l 0.281517,-0.483129 -0.273844,-0.487892 0.559329,0.0024 0.285486,-0.481012 v 0 l -0.274109,-0.487627 -0.559064,-0.01138 0.285485,-0.481013 -0.270139,-0.489744 v 0 0 0 0 0 0 0 0 0 0 0 0 0 0 0 0 0 0 0 0 0 0 0 0 0 0 0 0 0 0 0 0 0 0 0 0 0 0 0 0 0 0 0 0 0 0 0 0 0 0 0 0 0 0 0 0 0 0 0 0 0 0 0 0 0 0 0 0 0 0 0 0 0 0 0 0 0 0 0 0 0 0 0 0 0 0 0 0 0 0 0 0 0 0 0 0 0 0 0 0 0 0 0 0 0 0 0 0 0 0 0 0 0 0 0 0 0 0 0 0 0 0 0 0 0 0 0 0 0 0 0 0 0 0 0 0 0 0 0 0 0 0 0 0 0 0 0 0 0 0 0 0 0 0 0 0 l 0.559329,-0.01111 0.273844,-0.487627 0.289189,0.478631 0.559329,-0.0066 v 0 l 0.273844,-0.487891 -0.281517,-0.483129 0.55933,-0.0066 0.277547,-0.48551 v 0 l 0.289455,0.478631 0.559064,-0.0066 -0.269875,0.489744 0.285486,0.481012 v 0 l 0.559329,-0.0066 0.277812,-0.485511 0.285221,0.481013 0.559329,-0.0021 v 0 0 0 0 0 0 l 0.273844,-0.487891 -0.281517,-0.48313 0.55933,-0.0069 0.277812,-0.485246 v 0 l -0.281781,-0.483393 -0.559329,-0.0021 0.277812,-0.48551 -0.277812,-0.485511 v 0 l 0.559329,-0.0069 0.277812,-0.48551 0.285486,0.481012 0.559329,-0.0021 v 0 l 0.277548,-0.48551 -0.277548,-0.48551 0.559329,-0.0021 0.281517,-0.483394 v 0 0 0 0 0 0 l 0.289189,0.478631 0.559329,-0.0066 -0.269875,0.490008 0.285221,0.481013 v 0 l 0.559329,-0.0069 0.277813,-0.485511 0.285485,0.481013 0.55933,-0.0021 v 0 l -0.27014,0.489744 0.285485,0.481012 -0.559064,0.01138 -0.273844,0.487627 v 0 l 0.285221,0.481013 0.559329,-0.0024 -0.273844,0.487891 0.281782,0.483129 v 0 0 0 0 0 0 l 0.559329,-0.0066 0.277548,-0.485511 0.285485,0.481013 0.559329,-0.0021 v 0 l 0.277813,-0.48551 -0.277813,-0.485511 0.559329,-0.0024 0.281517,-0.483129 v 0 l 0.285485,0.481013 0.55933,-0.0024 -0.273844,0.487892 0.281517,0.483129 v 0 l 0.559329,-0.0021 0.281781,-0.483393 0.281517,0.483393 0.559329,0.0021 v 0 0 0 0 0 0 0 0 0 0 0 0 0 0 0 0 0 0 0 0 0 0 0 0 0 0 0 0 0 0 0 l 0.273844,-0.487627 -0.281517,-0.483394 0.559064,-0.0066 0.277813,-0.485511 v 0 l -0.281517,-0.483393 -0.559329,-0.0021 0.277813,-0.485511 -0.277813,-0.48551 v 0 l 0.559329,-0.0066 0.277548,-0.48551 0.285486,0.481013 0.559329,-0.0024 v 0 l 0.277812,-0.485246 -0.277812,-0.48551 0.559329,-0.0024 0.281517,-0.483129 v 0 0 0 0 0 0 l -0.281517,-0.483394 -0.559329,-0.0021 0.277812,-0.48551 -0.277812,-0.485511 v 0 l -0.559329,-0.0024 -0.285486,0.481013 -0.277548,-0.485511 -0.559329,-0.0066 v 0 l 0.277813,-0.485511 -0.277813,-0.48551 0.559329,-0.0021 0.281517,-0.483394 v 0 l -0.277813,-0.48551 -0.559064,-0.0066 0.281517,-0.483393 -0.273844,-0.487627 v 0 0 0 0 0 0 l 0.559329,-0.0066 0.277548,-0.48551 0.285485,0.481012 0.559329,-0.0024 v 0 l 0.277813,-0.485511 -0.277813,-0.48551 0.55933,-0.0021 0.281516,-0.483393 v 0 l 0.285486,0.481277 0.559329,-0.0024 -0.273844,0.487627 0.281517,0.483394 v 0 l 0.559329,-0.0024 0.281781,-0.483129 0.281517,0.483129 0.559329,0.0024 v 0 0 0 0 0 0 l 0.277813,-0.48551 -0.277813,-0.485511 0.559329,-0.0021 0.281517,-0.483394 v 0 l -0.277548,-0.48551 -0.559329,-0.0066 0.281516,-0.483394 -0.273843,-0.487627 v 0 l 0.559329,-0.0021 0.281517,-0.483393 0.281516,0.483393 0.559329,0.0021 v 0 l 0.281782,-0.483394 -0.273844,-0.487627 0.559329,0.0024 0.285221,-0.481013 v 0 0 0 0 0 0 0 0 0 0 0 0 0 0 0 0 0 0 0 0 0 0 0 0 0 0 0 0 0 0 0 l 0.289454,0.478631 0.559329,-0.0066 -0.270139,0.489743 0.285485,0.481013 v 0 l 0.559329,-0.0066 0.277813,-0.48551 0.285221,0.481012 0.559329,-0.0024 v 0 l -0.269875,0.490009 0.285485,0.481012 -0.559329,0.01111 -0.273844,0.487627 v 0 l 0.285486,0.481012 0.559329,-0.0021 -0.273844,0.487628 0.281517,0.483393 v 0 0 0 0 0 0 l 0.559329,-0.0069 0.277812,-0.48551 0.285486,0.481012 0.559329,-0.0021 v 0 l 0.277548,-0.485511 -0.277548,-0.48551 0.559329,-0.0021 0.281517,-0.483394 v 0 l 0.285485,0.481013 0.559329,-0.0021 -0.273843,0.487627 0.281516,0.483394 v 0 l 0.559329,-0.0024 0.281517,-0.483129 0.281517,0.483129 0.559329,0.0024 v 0 0 0 0 0 0 l -0.269875,0.489744 0.285485,0.481012 -0.559329,0.01111 -0.273844,0.487627 v 0 l 0.285486,0.481012 0.559329,-0.0021 -0.273844,0.487627 0.281517,0.483393 v 0 l -0.559065,0.01111 -0.273843,0.487627 -0.289455,-0.478631 -0.559064,0.0066 v 0 l -0.274108,0.487627 0.281781,0.483394 -0.559329,0.0066 -0.277813,0.48551 v 0 0 0 0 0 0 l 0.285486,0.481013 0.559329,-0.0021 -0.273844,0.487627 0.281517,0.483394 v 0 l 0.559329,-0.0024 0.281781,-0.48313 0.281517,0.48313 0.559329,0.0024 v 0 l -0.273844,0.487627 0.281517,0.483129 -0.559329,0.0069 -0.277813,0.485511 v 0 l 0.281781,0.483129 0.55933,0.0024 -0.277813,0.485511 0.277813,0.48551 v 0 0 0 0 0 0 0 0 0 0 0 0 0 0 0 0 0 0 0 0 0 0 0 0 0 0 0 0 0 0 0 l 0.559329,-0.0069 0.277548,-0.485511 0.285485,0.481013 0.559329,-0.0021 v 0 l 0.277813,-0.48551 -0.277813,-0.485511 0.559329,-0.0021 0.281517,-0.483394 v 0 l 0.285485,0.481012 0.55933,-0.0021 -0.273844,0.487627 0.281517,0.483129 v 0 l 0.559329,-0.0021 0.281781,-0.483393 0.281517,0.483393 0.559329,0.0021 v 0 0 0 0 0 0 l 0.277812,-0.48551 -0.277812,-0.485511 0.559329,-0.0021 0.281517,-0.48313 v 0 l -0.277813,-0.48551 -0.559064,-0.0069 0.281516,-0.483129 -0.273844,-0.487892 v 0 l 0.55933,-0.0021 0.281516,-0.483393 0.281517,0.483393 0.559329,0.0021 v 0 l 0.281781,-0.483129 -0.273843,-0.487627 0.559329,0.0021 0.285221,-0.481012 v 0 0 0 0 0 0 l 0.285485,0.481012 0.559329,-0.0021 -0.273844,0.487627 0.281517,0.483129 v 0 l 0.559329,-0.0021 0.281782,-0.483393 0.281516,0.483393 0.559329,0.0021 v 0 l -0.273843,0.487892 0.281516,0.483129 -0.559329,0.0069 -0.277548,0.48551 v 0 l 0.281517,0.48313 0.559329,0.0021 -0.277812,0.485511 0.277812,0.48551 v 0 0 0 0 0 0 l 0.559329,-0.0021 0.281517,-0.483393 0.281517,0.483393 0.559329,0.0021 v 0 l 0.281781,-0.483129 -0.273844,-0.487627 0.559329,0.0021 0.285221,-0.481012 v 0 l 0.281781,0.483394 0.55933,0.0021 -0.277813,0.485511 0.277813,0.48551 v 0 l 0.559329,0.0021 0.285221,-0.481013 0.277812,0.485511 0.559329,0.0069 v 0 0 0 0 0 0 0 0 0 0 0 0 0 0 0 0 0 0 0 0 0 0 0 0 0 0 0 0 0 0 0 0 0 0 0 0 0 0 0 0 0 0 0 0 0 0 0 0 0 0 0 0 0 0 0 0 0 0 0 0 0 0 0 0 0 0 0 0 0 0 0 0 0 0 0 0 0 0 0 0 0 0 0 0 0 0 0 0 0 0 0 0 0 0 0 0 0 0 0 0 0 0 0 0 0 0 0 0 0 0 0 0 0 0 0 0 0 0 0 0 0 0 0 0 0 0 0 0 0 0 0 0 0 0 0 0 0 0 0 0 0 0 0 0 0 0 0 0 0 0 0 0 0 0 0 0 l 0.273844,-0.487892 -0.281517,-0.483129 0.55933,-0.0069 0.277547,-0.485246 v 0 l -0.281516,-0.483394 -0.559329,-0.0021 0.277812,-0.485511 -0.277812,-0.48551 v 0 l 0.559329,-0.0069 0.277812,-0.485511 0.285221,0.481013 0.559329,-0.0021 v 0 l 0.277813,-0.48551 -0.277813,-0.485511 0.559329,-0.0021 0.281782,-0.483394 v 0 0 0 0 0 0 l -0.281782,-0.483129 -0.559329,-0.0024 0.277813,-0.48551 -0.277813,-0.48551 v 0 l -0.559329,-0.0021 -0.285221,0.481012 -0.277812,-0.48551 -0.559329,-0.0069 v 0 l 0.277812,-0.485246 -0.277812,-0.48551 0.559329,-0.0024 0.281516,-0.483129 v 0 l -0.277547,-0.48551 -0.55933,-0.0069 0.281517,-0.48313 -0.273844,-0.487627 v 0 0 0 0 0 0 l 0.559329,-0.0069 0.277813,-0.48551 0.285221,0.481012 0.559329,-0.0021 v 0 l 0.277812,-0.485511 -0.277812,-0.48551 0.559329,-0.0021 0.281781,-0.483394 v 0 l 0.285221,0.481013 0.559329,-0.0021 -0.273843,0.487627 0.281781,0.483129 v 0 l 0.559329,-0.0021 0.281517,-0.483394 0.281516,0.483394 0.55933,0.0021 v 0 0 0 0 0 0 l 0.277812,-0.48551 -0.277812,-0.48551 0.559329,-0.0021 0.281516,-0.483394 v 0 l -0.277548,-0.485246 -0.559329,-0.0069 0.281517,-0.483129 -0.273844,-0.487892 v 0 l 0.559329,-0.0021 0.281517,-0.483394 0.281781,0.483394 0.559329,0.0021 v 0 l 0.281517,-0.483129 -0.273844,-0.487627 0.55933,0.0021 0.285485,-0.481013 v 0 0 0 0 0 0 0 0 0 0 0 0 0 0 0 0 0 0 0 0 0 0 0 0 0 0 0 0 0 0 0 l -0.281781,-0.483393 -0.559329,-0.0021 0.277812,-0.485511 -0.277812,-0.48551 v 0 l -0.55933,-0.0021 -0.28522,0.481013 -0.277813,-0.485511 -0.559329,-0.0069 v 0 l 0.277812,-0.48551 -0.277812,-0.485246 0.559329,-0.0024 0.281517,-0.483129 v 0 l -0.277548,-0.485511 -0.559329,-0.0069 0.281516,-0.483129 -0.273843,-0.487892 v 0 0 0 0 0 0 l -0.55933,-0.0021 -0.285485,0.481012 -0.277548,-0.48551 -0.559329,-0.0066 v 0 l -0.285486,0.481013 0.269875,0.489743 -0.559329,-0.0066 -0.289189,0.478631 v 0 l -0.277813,-0.48551 -0.559064,-0.0066 0.281516,-0.483129 -0.273843,-0.487892 v 0 l -0.55933,-0.0066 -0.289189,0.478631 -0.273844,-0.487627 -0.559329,-0.01111 v 0 0 0 0 0 0 l 0.277812,-0.48551 -0.277812,-0.485511 0.559329,-0.0021 0.281517,-0.483394 v 0 l -0.277548,-0.48551 -0.559329,-0.0066 0.281516,-0.483394 -0.273843,-0.487627 v 0 l 0.559329,-0.0021 0.281516,-0.483393 0.281782,0.483393 0.559329,0.0021 v 0 l 0.281516,-0.483129 -0.273843,-0.487892 0.559329,0.0024 0.285485,-0.481013 v 0 0 0 0 0 0 l -0.277812,-0.48551 -0.559329,-0.0069 0.281516,-0.483129 -0.273843,-0.487627 v 0 l -0.55933,-0.0069 -0.289189,0.478896 -0.273844,-0.487892 -0.559065,-0.01111 v 0 l 0.281517,-0.483129 -0.273844,-0.487892 0.55933,0.0024 0.285485,-0.481012 v 0 l -0.273844,-0.487627 -0.559329,-0.01111 0.285485,-0.481012 -0.270139,-0.490009 v 0 0 0 0 0 0 0 0 0 0 0 0 0 0 0 0 0 0 0 0 0 0 0 0 0 0 0 0 0 0 0 l 0.559329,-0.0066 0.277813,-0.485511 0.285485,0.481013 0.559329,-0.0024 v 0 l 0.277548,-0.48551 -0.277548,-0.48551 0.559329,-0.0021 0.281517,-0.483394 v 0 l 0.285485,0.481277 0.55933,-0.0024 -0.273844,0.487627 0.281516,0.483394 v 0 l 0.55933,-0.0024 0.281516,-0.48313 0.281782,0.48313 0.559329,0.0024 v 0 0 0 0 0 0 l 0.277548,-0.485511 -0.277548,-0.48551 0.559329,-0.0021 0.281517,-0.483393 v 0 l -0.277813,-0.485511 -0.559329,-0.0066 0.281781,-0.483394 -0.273844,-0.487627 v 0 l 0.55933,-0.0021 0.281516,-0.483394 0.281517,0.483394 0.559329,0.0021 v 0 l 0.281517,-0.483394 -0.273844,-0.487627 0.559329,0.0024 0.285486,-0.481012 v 0 0 0 0 0 0 l 0.285485,0.481012 0.559329,-0.0024 -0.273844,0.487627 0.281517,0.483394 v 0 l 0.559329,-0.0021 0.281517,-0.483394 0.281781,0.483394 0.559329,0.0021 v 0 l -0.273843,0.487627 0.281516,0.483394 -0.559329,0.0066 -0.277812,0.485511 v 0 l 0.281781,0.483393 0.559329,0.0021 -0.277813,0.48551 0.277813,0.485511 v 0 0 0 0 0 0 l 0.559329,-0.0024 0.281517,-0.48313 0.281516,0.48313 0.55933,0.0024 v 0 l 0.281516,-0.483394 -0.273843,-0.487627 0.559329,0.0024 0.285485,-0.481277 v 0 l 0.281517,0.483394 0.559329,0.0021 -0.277548,0.48551 0.277548,0.48551 v 0 l 0.559329,0.0024 0.285486,-0.481013 0.277812,0.485511 0.559329,0.0066 v 0 0 0 0 0 0 0 0 0 0 0 0 0 0 0 0 0 0 0 0 0 0 0 0 0 0 0 0 0 0 0 l 0.277548,-0.48551 -0.277548,-0.485511 0.559329,-0.0021 0.281517,-0.483394 v 0 l -0.277812,-0.48551 -0.55933,-0.0066 0.281782,-0.483394 -0.273844,-0.487627 v 0 l 0.559329,-0.0021 0.281517,-0.483393 0.281516,0.483393 0.55933,0.0021 v 0 l 0.28152,-0.483129 -0.273848,-0.487892 0.559328,0.0024 0.28549,-0.481013 v 0 0 0 0 0 0 l -0.27755,-0.48551 -0.55933,-0.0069 0.28152,-0.483129 -0.273847,-0.487627 v 0 l -0.559329,-0.0069 -0.28919,0.478896 -0.273844,-0.487892 -0.559329,-0.01111 v 0 l 0.281517,-0.483129 -0.273844,-0.487892 0.559329,0.0024 0.285486,-0.481012 v 0 l -0.273844,-0.487627 -0.559065,-0.01111 0.285221,-0.481012 -0.269875,-0.490009 v 0 0 0 0 0 0 l 0.559329,-0.0021 0.281517,-0.483394 0.281781,0.483394 0.559329,0.0021 v 0 l 0.281518,-0.483129 -0.273845,-0.487892 0.559325,0.0024 0.28549,-0.481013 v 0 l 0.281521,0.483129 0.55933,0.0024 -0.27782,0.48551 0.27782,0.48551 v 0 l 0.55932,0.0021 0.28549,-0.481012 0.27755,0.48551 0.55933,0.0066 v 0 0 0 0 0 0 l 0.28178,-0.48313 -0.27411,-0.487891 0.55933,0.0024 0.28548,-0.481013 v 0 l -0.27384,-0.487627 -0.55906,-0.01138 0.28522,-0.481012 -0.26988,-0.489744 v 0 l 0.55933,0.0021 0.28549,-0.481013 0.27781,0.485511 0.55906,0.0069 v 0 l 0.28549,-0.481013 -0.26988,-0.490008 0.55933,0.0066 L 105,27.118931 v 0 0 0 0 0 0 0 0 0 0 0 0 0 0 0 0 0 0 0 0 0 0 0 0 0 0 0 0 0 0 0 0 0 0 0 0 0 0 0 0 0 0 0 0 0 0 0 0 0 0 0 0 0 0 0 0 0 0 0 0 0 0 0 0 0 0 0 0 0 0 0 0 0 0 0 0 0 0 0 0 0 0 0 0 0 0 0 0 0 0 0 0 0 0 0 0 0 0 0 0 0 0 0 0 0 0 0 0 0 0 0 0 0 0 0 0 0 0 0 0 0 0 0 0 0 0 0 0 0 0 0 0 0 0 0 0 0 0 0 0 0 0 0 0 0 0 0 0 0 0 0 0 0 0 0 0 0 0 0 0 0 0 0 0 0 0 0 0 0 0 0 0 0 0 0 0 0 0 0 0 0 0 0 0 0 0 0 0 0 0 0 0 0 0 0 0 0 0 0 0 0 0 0 0 0 0 0 0 0 0 0 0 0 0 0 0 0 0 0 0 0 0 0 0 0 0 0 0 0 0 0 0 0 0 0 0 0 0 0 0 0 0 0 0 0 0 0 0 0 0 0 0 0 0 0 0 0 0 0 0 0 0 0 0 0 0 0 0 0 0 0 0 0 0 0 0 0 0 0 0 0 0 0 0 0 0 0 0 0 0 0 0 0 0 0 0 0 0 0 0 0 0 0 0 0 0 0 0 0 0 0 0 0 0 0 0 0 0 0 0 0 0 0 0 0 0 0 0 0 0 0 0 0 0 0 0 0 0 0 0 0 0 0 0 0 0 0 0 0 0 0 0 0 0 0 0 0 0 0 0 0 0 0 0 0 0 0 0 0 0 0 0 0 0 0 0 0 0 0 0 0 0 0 0 0 0 0 0 0 0 0 0 0 0 0 0 0 0 0 0 0 0 0 0 0 0 0 0 0 0 0 0 0 0 0 0 0 0 0 0 0 0 0 0 0 0 0 0 0 0 0 0 0 0 0 0 0 0 0 0 0 0 0 0 0 0 0 0 0 0 0 0 0 0 0 0 0 0 0 0 0 0 0 0 0 0 0 0 0 0 0 0 0 0 0 0 0 0 0 0 0 0 0 0 0 0 0 0 0 0 0 0 0 0 0 0 0 0 0 0 0 0 0 0 0 0 0 0 0 0 0 0 0 0 0 0 0 0 0 0 0 0 0 0 0 0 0 0 0 0 0 0 0 0 0 0 0 0 0 0 0 0 0 0 0 0 0 0 0 0 0 0 0 0 0 0 0 0 0 0 0 0 0 0 0 0 0 0 0 0 0 0 0 0 0 0 0 0 0 0 0 0 0 0 0 0 0 0 0 0 0 0 0 0 0 0 0 0 0 0 0 0 0 0 0 0 0 0 0 0 0 0 0 0 0 0 0 0 0 0 0 0 0 0 0 0 0 0 0 0 0 0 0 0 0 0 0 0 0 0 0 0 0 0 0 0 0 0 0 0 0 0 0 0 0 0 0 0 0 0 0 0 0 0 0 0 0 0 0 0 0 0 0 0 0 0 0 0 0 0 0 0 0 0 0 0 0 0 0 0 0 0 0 0 0 0 0 0 0 0 0 0 0 0 0 0 0 0 0 0 0 0 0 0 0 0 0 0 0 0 0 0 0 0 0 0 0 0 0 0 0 0 0 0 0 0 0 0 0 0 0 0 0 0 0 0 0 0 0 0 0 0 0 0 0 0 0 0 0 0 0 0 0 0 0 0 0 0 0 0 0 0 0 0 0 0 0 0 0 z"
       fill="none"
       stroke="#000000"
       stroke-width="0.5"
       id="path1" /></g></svg>
