<?xml version="1.0"?>
<svg xmlns="http://www.w3.org/2000/svg">
<path d="M 428.589 184.720 L 435.143 184.079 L 441.672 183.651 L 448.174 183.434 L 454.644 183.430 L 461.078 183.639 L 467.472 184.058 L 473.821 184.689 L 480.123 185.530 L 486.372 186.580 L 492.565 187.838 L 498.698 189.303 L 504.767 190.972 L 510.769 192.845 L 516.699 194.918 L 522.554 197.190 L 528.330 199.658 L 534.024 202.320 L 539.632 205.173 L 545.150 208.214 L 550.575 211.439 L 555.904 214.845 L 561.133 218.429 L 566.259 222.187 L 571.278 226.116 L 576.189 230.210 L 580.987 234.466 L 585.669 238.880 L 590.233 243.447 L 594.676 248.162 L 598.995 253.021 L 603.188 258.018 L 607.251 263.149 L 611.182 268.408 L 614.979 273.790 L 618.640 279.290 L 622.162 284.902 L 625.542 290.620 L 628.780 296.439 L 631.872 302.352 L 634.818 308.354 L 637.614 314.439 L 640.260 320.601 L 642.754 326.833 L 645.094 333.130 L 647.279 339.484 L 649.308 345.891 L 651.179 352.342 L 652.890 358.832 L 654.443 365.355 L 655.834 371.903 L 657.064 378.471 L 658.131 385.051 L 659.035 391.638 L 659.776 398.224 L 660.353 404.804 L 660.766 411.370 L 661.014 417.917 L 661.098 424.437 L 661.017 430.925 L 660.772 437.373 L 660.362 443.776 L 659.789 450.128 L 659.052 456.421 L 658.152 462.650 L 657.090 468.808 L 655.865 474.890 L 654.480 480.890 L 652.936 486.801 L 651.232 492.619 L 649.370 498.337 L 647.352 503.949 L 645.178 509.450 L 642.851 514.836 L 640.371 520.100 L 637.740 525.238 L 634.960 530.244 L 632.034 535.113 L 628.961 539.842 L 625.745 544.425 L 622.388 548.858 L 618.892 553.136 L 615.259 557.256 L 611.491 561.214 L 607.591 565.006 L 603.561 568.628 L 599.404 572.076 L 595.122 575.348 L 590.719 578.441 L 586.197 581.351 L 581.558 584.076 L 576.806 586.613 L 571.944 588.960 L 566.976 591.114 L 561.903 593.075 L 556.729 594.839 L 551.458 596.406 L 546.093 597.774 L 540.637 598.942 L 535.094 599.909 L 529.467 600.673 L 523.760 601.236 L 517.977 601.595 L 512.120 601.752 L 506.195 601.706 L 500.203 601.457 L 494.150 601.005 L 488.040 600.353 L 481.875 599.499 L 475.660 598.446 L 469.398 597.194 L 463.095 595.745 L 456.753 594.101 L 450.376 592.263 L 443.970 590.234 L 437.537 588.015 L 431.081 585.610 L 424.608 583.020 L 418.120 580.248 L 411.622 577.298 L 405.119 574.173 L 398.613 570.875 L 392.109 567.409 L 385.612 563.777 L 379.125 559.985 L 372.652 556.035 L 366.198 551.932 L 359.766 547.679 L 353.361 543.283 L 346.986 538.746 L 340.646 534.074 L 334.344 529.272 L 328.084 524.344 L 321.871 519.296 L 315.708 514.132 L 309.599 508.859 L 303.548 503.481 L 297.558 498.004 L 291.634 492.433 L 285.779 486.775 L 279.997 481.035 L 274.291 475.219 L 268.664 469.333 L 263.122 463.382 L 257.666 457.373 L 252.300 451.313 L 247.028 445.207 L 241.852 439.061 L 236.777 432.881 L 231.805 426.675 L 226.939 420.448 L 222.183 414.206 L 217.539 407.956 L 213.010 401.704 L 208.599 395.457 L 204.309 389.220 L 200.142 383.001 L 196.102 376.805 L 192.189 370.638 L 188.408 364.507 L 184.760 358.419 L 181.247 352.378 L 177.872 346.392 L 174.637 340.466 L 171.543 334.606 L 168.593 328.818 L 165.789 323.109 L 163.131 317.483 L 160.623 311.946 L 158.265 306.504 L 156.059 301.162 L 154.006 295.926 L 152.107 290.800 L 150.364 285.791 L 148.778 280.903 L 147.349 276.140 L 146.079 271.509 L 144.968 267.012 L 144.017 262.655 L 143.226 258.443 L 142.596 254.378 L 142.128 250.466 L 141.821 246.710 L 141.676 243.114 L 141.693 239.681 L 141.872 236.415 L 142.212 233.319 L 142.714 230.397 L 143.376 227.650 L 144.200 225.082 L 145.183 222.694 L 146.326 220.491 L 147.628 218.473 L 149.087 216.643 L 150.703 215.002 L 152.476 213.552 L 154.403 212.294 L 156.483 211.229 L 158.716 210.359 L 161.100 209.685 L 163.633 209.206 L 166.314 208.923 L 169.141 208.837 L 172.111 208.947 L 175.225 209.253 L 178.479 209.755 L 181.871 210.452 L 185.399 211.344 L 189.061 212.429 L 192.855 213.706 L 196.778 215.174 L 200.829 216.831 L 205.003 218.675 L 209.299 220.705 L 213.714 222.918 L 218.245 225.313 L 222.890 227.886 L 227.645 230.634 L 232.508 233.556 L 237.475 236.647 L 242.543 239.905 L 247.710 243.327 L 252.971 246.908 L 258.324 250.645 L 263.765 254.535 L 269.292 258.572 L 274.899 262.753 L 280.585 267.075 L 286.345 271.531 L 292.175 276.118 L 298.073 280.831 L 304.034 285.664 L 310.055 290.614 L 316.132 295.675 L 322.261 300.842 L 328.438 306.109 L 334.659 311.471 L 340.922 316.923 L 347.221 322.459 L 353.552 328.073 L 359.913 333.760 L 366.298 339.513 L 372.704 345.327 L 379.127 351.197 L 385.562 357.115 L 392.007 363.075 L 398.456 369.073 L 404.906 375.101 L 411.352 381.154 L 417.792 387.225 L 424.220 393.308 L 430.632 399.396 L 437.026 405.485 L 443.396 411.566 L 449.738 417.635 L 456.050 423.685 L 462.326 429.709 L 468.563 435.702 L 474.758 441.658 L 480.905 447.570 L 487.002 453.432 L 493.044 459.239 L 499.028 464.984 L 504.950 470.662 L 510.806 476.267 L 516.593 481.792 L 522.307 487.233 L 527.944 492.584 L 533.501 497.839 L 538.975 502.993 L 544.362 508.041 L 549.659 512.977 L 554.862 517.797 L 559.968 522.496 L 564.974 527.068 L 569.878 531.509 L 574.674 535.815 L 579.362 539.981 L 583.938 544.003 L 588.398 547.876 L 592.741 551.598 L 596.964 555.163 L 601.063 558.568 L 605.036 561.811 L 608.882 564.887 L 612.597 567.793 L 616.179 570.526 L 619.626 573.084 L 622.935 575.464 L 626.105 577.663 L 629.134 579.679 L 632.020 581.510 L 634.761 583.155 L 637.354 584.610 L 639.800 585.876 L 642.096 586.950 L 644.240 587.832 L 646.231 588.520 L 648.069 589.014 L 649.751 589.312 L 651.278 589.416 L 652.647 589.325 L 653.858 589.038 L 654.911 588.556 L 655.804 587.880 L 656.537 587.009 L 657.109 585.946 L 657.521 584.690 L 657.772 583.243 L 657.861 581.607 L 657.789 579.784 L 657.556 577.774 L 657.161 575.580 L 656.606 573.204 L 655.890 570.649 L 655.014 567.917 L 653.978 565.011 L 652.783 561.933 L 651.430 558.687 L 649.919 555.276 L 648.252 551.704 L 646.429 547.973 L 644.452 544.089 L 642.322 540.054 L 640.040 535.872 L 637.608 531.549 L 635.027 527.088 L 632.298 522.493 L 629.424 517.770 L 626.405 512.924 L 623.245 507.958 L 619.945 502.878 L 616.507 497.689 L 612.932 492.397 L 609.225 487.007 L 605.385 481.524 L 601.417 475.953 L 597.323 470.301 L 593.104 464.573 L 588.764 458.775 L 584.305 452.912 L 579.731 446.992 L 575.043 441.018 L 570.246 434.999 L 565.341 428.940 L 560.332 422.846 L 555.222 416.725 L 550.014 410.582 L 544.712 404.423 L 539.318 398.256 L 533.837 392.086 L 528.271 385.919 L 522.624 379.761 L 516.899 373.620 L 511.101 367.501 L 505.232 361.410 L 499.296 355.354 L 493.298 349.339 L 487.240 343.371 L 481.127 337.456 L 474.962 331.600 L 468.749 325.809 L 462.492 320.089 L 456.196 314.446 L 449.863 308.885 L 443.498 303.413 L 437.105 298.035 L 430.688 292.756 L 424.251 287.582 L 417.797 282.519 L 411.331 277.571 L 404.858 272.743 L 398.380 268.041 L 391.902 263.469 L 385.429 259.033 L 378.963 254.736 L 372.510 250.583 L 366.073 246.579 L 359.656 242.727 L 353.264 239.032 L 346.900 235.498 L 340.568 232.127 L 334.272 228.925 L 328.017 225.893 L 321.806 223.036 L 315.642 220.356 L 309.531 217.857 L 303.475 215.540 L 297.479 213.408 L 291.546 211.464 L 285.680 209.710 L 279.885 208.148 L 274.164 206.779 L 268.521 205.605 L 262.960 204.628 L 257.484 203.847 L 252.096 203.265 L 246.800 202.883 L 241.599 202.700 L 236.496 202.717 L 231.496 202.934 L 226.600 203.352 L 221.812 203.969 L 217.135 204.786 L 212.572 205.802 L 208.126 207.015 L 203.799 208.426 L 199.595 210.032 L 195.516 211.832 L 191.564 213.825 L 187.743 216.009 L 184.054 218.381 L 180.500 220.940 L 177.083 223.682 L 173.805 226.607 L 170.669 229.710 L 167.676 232.988 L 164.829 236.439 L 162.129 240.060 L 159.578 243.846 L 157.177 247.795 L 154.928 251.901 L 152.833 256.162 L 150.892 260.574 L 149.108 265.131 L 147.481 269.829 L 146.013 274.665 L 144.703 279.632 L 143.554 284.727 L 142.566 289.944 L 141.740 295.278 L 141.075 300.724 L 140.574 306.277 L 140.235 311.931 L 140.059 317.680 L 140.047 323.519 L 140.199 329.442 L 140.513 335.444 L 140.991 341.518 L 141.632 347.658 L 142.436 353.858 L 143.401 360.112 L 144.529 366.414 L 145.817 372.758 L 147.265 379.137 L 148.873 385.545 L 150.639 391.975 L 152.562 398.422 L 154.642 404.878 L 156.876 411.337 L 159.264 417.794 L 161.804 424.240 L 164.494 430.671 L 167.333 437.079 L 170.319 443.458 L 173.450 449.801 L 176.725 456.103 L 180.141 462.357 L 183.696 468.557 L 187.388 474.695 L 191.215 480.768 L 195.174 486.767 L 199.263 492.687 L 203.480 498.522 L 207.821 504.267 L 212.284 509.915 L 216.866 515.460 L 221.565 520.898 L 226.377 526.222 L 231.300 531.427 L 236.330 536.508 L 241.465 541.459 L 246.700 546.276 L 252.034 550.953 L 257.461 555.487 L 262.980 559.871 L 268.587 564.102 L 274.278 568.175 L 280.049 572.087 L 285.897 575.832 L 291.819 579.407 L 297.810 582.809 L 303.867 586.034 L 309.986 589.078 L 316.163 591.938 L 322.395 594.612 L 328.676 597.096 L 335.005 599.387 L 341.376 601.484 L 347.785 603.384 L 354.229 605.084 L 360.703 606.584 L 367.204 607.881 L 373.727 608.973 L 380.268 609.861 L 386.823 610.541 L 393.388 611.014 L 399.958 611.279 L 406.531 611.335 L 413.100 611.183 L 419.663 610.821 L 426.216 610.250 L 432.753 609.471 L 439.271 608.484 L 445.766 607.290 L 452.233 605.890 L 458.669 604.284 L 465.070 602.475 L 471.431 600.464 L 477.749 598.253 L 484.018 595.843 L 490.237 593.237 L 496.400 590.437 L 502.503 587.446 L 508.543 584.266 L 514.517 580.901 L 520.419 577.353 L 526.246 573.627 L 531.996 569.725 L 537.663 565.650 L 543.244 561.408 L 548.737 557.002 L 554.136 552.435 L 559.440 547.713 L 564.644 542.840 L 569.745 537.820 L 574.741 532.659 L 579.626 527.361 L 584.400 521.931 L 589.058 516.375 L 593.598 510.698 L 598.016 504.905 L 602.311 499.001 L 606.478 492.994 L 610.516 486.888 L 614.421 480.689 L 618.192 474.403 L 621.826 468.036 L 625.320 461.596 L 628.673 455.087 L 631.882 448.516 L 634.945 441.889 L 637.859 435.213 L 640.625 428.495 L 643.238 421.741 L 645.698 414.957 L 648.004 408.150 L 650.152 401.328 L 652.143 394.495 L 653.975 387.660 L 655.647 380.828 L 657.157 374.008 L 658.505 367.204 L 659.689 360.424 L 660.709 353.675 L 661.565 346.963 L 662.255 340.295 L 662.779 333.677 L 663.137 327.115 L 663.328 320.618 L 663.352 314.190 L 663.210 307.838 L 662.901 301.568 L 662.425 295.387 L 661.783 289.301 L 660.975 283.315 L 660.002 277.436 L 658.863 271.669 L 657.560 266.021 L 656.094 260.497 L 654.465 255.102 L 652.674 249.841 L 650.723 244.721 L 648.613 239.745 L 646.344 234.920 L 643.919 230.250 L 641.339 225.739 L 638.605 221.393 L 635.719 217.215 L 632.683 213.209 L 629.499 209.381 L 626.169 205.733 L 622.695 202.270 L 619.078 198.995 L 615.322 195.911 L 611.429 193.021 L 607.400 190.329 L 603.239 187.837 L 598.949 185.548 L 594.531 183.464 L 589.989 181.588 L 585.325 179.921 L 580.543 178.465 L 575.645 177.222 L 570.635 176.194 L 565.516 175.380 L 560.290 174.784 L 554.961 174.404 L 549.533 174.242 L 544.009 174.298 L 538.393 174.572 L 532.687 175.065 L 526.897 175.775 L 521.024 176.702 L 515.073 177.846 L 509.048 179.205 L 502.953 180.779 L 496.791 182.566 L 490.566 184.565 L 484.283 186.773 L 477.945 189.189 L 471.556 191.811 L 465.120 194.636 L 458.642 197.662 L 452.125 200.886 L 445.574 204.304 L 438.993 207.914 L 432.386 211.713 L 425.756 215.697 L 419.110 219.862 L 412.449 224.204 L 405.780 228.719 L 399.106 233.403 L 392.431 238.252 L 385.759 243.261 L 379.096 248.424 L 372.444 253.739 L 365.809 259.199 L 359.194 264.798 L 352.604 270.533 L 346.043 276.397 L 339.515 282.385 L 333.025 288.492 L 326.575 294.710 L 320.172 301.035 L 313.818 307.460 L 307.517 313.980 L 301.275 320.587 L 295.094 327.276 L 288.978 334.041 L 282.933 340.874 L 276.960 347.769 L 271.065 354.720 L 265.251 361.720 L 259.522 368.763 L 253.881 375.840 L 248.332 382.947 L 242.879 390.075 L 237.524 397.218 L 232.272 404.370 L 227.126 411.522 L 222.090 418.669 L 217.165 425.803 L 212.356 432.918 L 207.666 440.006 L 203.098 447.061 L 198.654 454.077 L 194.337 461.045 L 190.151 467.960 L 186.097 474.815 L 182.179 481.603 L 178.399 488.317 L 174.760 494.952 L 171.263 501.500 L 167.912 507.955 L 164.708 514.312 L 161.653 520.563 L 158.749 526.703 L 155.998 532.726 L 153.403 538.626 L 150.964 544.397 L 148.683 550.033 L 146.562 555.530 L 144.602 560.882 L 142.804 566.083 L 141.170 571.128 L 139.700 576.013 L 138.396 580.733 L 137.259 585.283 L 136.288 589.658 L 135.485 593.855 L 134.851 597.869 L 134.385 601.696 L 134.089 605.333 L 133.962 608.776 L 134.004 612.022 L 134.216 615.067 L 134.596 617.908 L 135.146 620.543 L 135.865 622.968 L 136.752 625.183 L 137.807 627.183 L 139.029 628.968 L 140.417 630.535 L 141.971 631.883 L 143.689 633.010 L 145.571 633.916 L 147.615 634.599 L 149.820 635.059 L 152.185 635.295 L 154.708 635.307 L 157.387 635.094 L 160.221 634.657 L 163.208 633.997 L 166.346 633.113 L 169.634 632.006 L 173.068 630.678 L 176.648 629.130 L 180.370 627.363 L 184.232 625.378 L 188.232 623.178 L 192.367 620.764 L 196.635 618.140 L 201.033 615.306 L 205.558 612.267 L 210.208 609.024 L 214.978 605.581 L 219.867 601.941 L 224.871 598.107 L 229.988 594.084 L 235.212 589.875 L 240.542 585.483 L 245.975 580.914 L 251.505 576.171 L 257.131 571.259 L 262.848 566.182 L 268.653 560.946 L 274.542 555.555 L 280.511 550.015 L 286.557 544.331 L 292.675 538.507 L 298.863 532.551 L 305.114 526.467 L 311.427 520.261 L 317.797 513.939 L 324.219 507.508 L 330.690 500.972 L 337.205 494.340 L 343.761 487.616 L 350.353 480.808 L 356.977 473.921 L 363.628 466.963 L 370.303 459.940 L 376.997 452.858 L 383.706 445.725 L 390.426 438.548 L 397.152 431.333 L 403.880 424.087 L 410.605 416.817 L 417.324 409.530 L 424.033 402.233 L 430.726 394.933 L 437.399 387.637 L 444.049 380.353 L 450.672 373.086 L 457.261 365.844 L 463.815 358.633 L 470.328 351.462 L 476.796 344.336 L 483.216 337.263 L 489.582 330.249 L 495.891 323.300 L 502.139 316.425 L 508.323 309.628 L 514.437 302.918 L 520.478 296.299 L 526.443 289.779 L 532.326 283.363 L 538.126 277.059 L 543.837 270.871 L 549.457 264.806 L 554.982 258.869 L 560.407 253.067 L 565.730 247.405 L 570.948 241.888 L 576.057 236.521 L 581.053 231.311 L 585.934 226.260 L 590.696 221.376 L 595.336 216.661 L 599.852 212.121 L 604.241 207.760 L 608.499 203.582 L 612.624 199.591 L 616.613 195.791 L 620.465 192.186 L 624.175 188.779 L 627.743 185.572 L 631.165 182.571 L 634.440 179.776 L 637.565 177.191 L 640.539 174.818 L 643.359 172.660 L 646.024 170.718 L 648.532 168.995 L 650.882 167.491 L 653.071 166.209 L 655.100 165.150 L 656.965 164.314 L 658.667 163.702 L 660.203 163.315 L 661.574 163.154 L 662.778 163.217 L 663.814 163.506 L 664.682 164.020 L 665.381 164.758 L 665.912 165.719 L 666.272 166.904 L 666.463 168.309 L 666.484 169.935 L 666.335 171.779 L 666.017 173.840 L 665.529 176.116 L 664.871 178.603 L 664.045 181.301 L 663.051 184.206 L 661.889 187.315 L 660.561 190.626 L 659.066 194.135 L 657.406 197.839 L 655.583 201.734 L 653.597 205.817 L 651.449 210.083 L 649.141 214.528 L 646.675 219.148 L 644.051 223.939 L 641.273 228.895 L 638.341 234.013 L 635.257 239.286 L 632.024 244.711 L 628.643 250.281 L 625.116 255.992 L 621.447 261.837 L 617.637 267.812 L 613.688 273.910 L 609.604 280.125 L 605.387 286.452 L 601.039 292.884 L 596.564 299.416 L 591.963 306.040 L 587.241 312.751 L 582.401 319.542 L 577.444 326.406 L 572.375 333.337 L 567.197 340.329 L 561.913 347.374 L 556.526 354.465 L 551.040 361.596 L 545.459 368.760 L 539.785 375.951 L 534.024 383.160 L 528.177 390.382 L 522.250 397.609 L 516.245 404.834 L 510.167 412.050 L 504.020 419.252 L 497.807 426.430 L 491.533 433.580 L 485.201 440.693 L 478.816 447.763 L 472.381 454.784 L 465.902 461.747 L 459.381 468.648 L 452.823 475.479 L 446.232 482.234 L 439.613 488.906 L 432.969 495.489 L 426.305 501.977 L 419.626 508.363 L 412.935 514.641 L 406.236 520.806 L 399.535 526.851 L 392.835 532.771 L 386.140 538.560 L 379.455 544.213 L 372.784 549.723 L 366.132 555.087 L 359.502 560.299 L 352.898 565.354 L 346.326 570.247 L 339.789 574.974 L 333.291 579.530 L 326.836 583.911 L 320.429 588.113 L 314.074 592.131 L 307.774 595.963 L 301.534 599.604 L 295.358 603.051 L 289.249 606.301 L 283.211 609.351 L 277.249 612.198 L 271.366 614.840 L 265.565 617.274 L 259.851 619.497 L 254.227 621.509 L 248.697 623.306 L 243.264 624.888 L 237.931 626.253 L 232.703 627.400 L 227.581 628.327 L 222.570 629.035 L 217.673 629.523 L 212.892 629.790 L 208.231 629.836 L 203.693 629.661 L 199.281 629.266 L 194.997 628.652 L 190.844 627.818 L 186.824 626.766 L 182.941 625.497 L 179.196 624.013 L 175.593 622.315 L 172.132 620.404 L 168.817 618.283 L 165.650 615.955 L 162.632 613.421 L 159.765 610.683 L 157.051 607.746 L 154.493 604.612 L 152.090 601.283 L 149.846 597.764 L 147.761 594.058 L 145.836 590.168 L 144.074 586.099 L 142.474 581.855 L 141.038 577.439 L 139.766 572.857 L 138.661 568.113 L 137.721 563.211 L 136.948 558.157 L 136.342 552.955 L 135.904 547.611 L 135.633 542.129 L 135.530 536.516 L 135.596 530.777 L 135.829 524.918 L 136.229 518.944 L 136.797 512.861 L 137.532 506.675 L 138.433 500.392 L 139.500 494.019 L 140.732 487.562 L 142.128 481.026 L 143.687 474.420 L 145.409 467.748 L 147.292 461.017 L 149.335 454.235 L 151.536 447.407 L 153.895 440.541 L 156.409 433.643 L 159.077 426.719 L 161.897 419.777 L 164.868 412.823 L 167.987 405.865 L 171.252 398.908 L 174.662 391.960 L 178.214 385.027 L 181.906 378.117 L 185.735 371.235 L 189.699 364.388 L 193.795 357.584 L 198.022 350.828 L 202.375 344.128 L 206.853 337.489 L 211.452 330.918 L 216.169 324.422 L 221.002 318.006 L 225.947 311.677 L 231.002 305.442 L 236.162 299.305 L 241.425 293.273 L 246.787 287.351 L 252.245 281.546 L 257.796 275.863 L 263.435 270.307 L 269.159 264.883 L 274.965 259.598 L 280.849 254.455 L 286.807 249.459 L 292.835 244.617 L 298.930 239.931 L 305.087 235.406 L 311.303 231.047 L 317.573 226.858 L 323.894 222.843 L 330.262 219.005 L 336.673 215.348 L 343.122 211.876 L 349.606 208.591 L 356.120 205.497 L 362.660 202.596 L 369.222 199.892 L 375.803 197.386 L 382.397 195.081 L 389.000 192.979 L 395.609 191.082 L 402.220 189.392 L 408.827 187.909 L 415.427 186.636 L 422.016 185.572 Z" fill="none" stroke="black" stroke-width="2.39680"  />
</svg>
