<?xml version="1.0" encoding="UTF-8" standalone="no"?>
<!-- Created with Inkscape (http://www.inkscape.org/) -->

<svg
   width="143.29456mm"
   height="127.32456mm"
   viewBox="0 0 143.29456 127.32456"
   version="1.1"
   id="svg1"
   xml:space="preserve"
   xmlns:inkscape="http://www.inkscape.org/namespaces/inkscape"
   xmlns:sodipodi="http://sodipodi.sourceforge.net/DTD/sodipodi-0.dtd"
   xmlns="http://www.w3.org/2000/svg"
   xmlns:svg="http://www.w3.org/2000/svg"><sodipodi:namedview
     id="namedview1"
     pagecolor="#ffffff"
     bordercolor="#000000"
     borderopacity="0.25"
     inkscape:showpageshadow="2"
     inkscape:pageopacity="0.0"
     inkscape:pagecheckerboard="0"
     inkscape:deskcolor="#d1d1d1"
     inkscape:document-units="mm" /><defs
     id="defs1" /><g
     inkscape:label="Layer 1"
     inkscape:groupmode="layer"
     id="layer1"
     transform="translate(-33.454877,-84.709707)"><path
       d="m 112.60736,91.618079 1.73408,-0.169598 1.72746,-0.113241 1.72032,-0.05741 1.71185,-0.0011 1.70233,0.0553 1.69175,0.11086 1.67984,0.166952 1.6674,0.222515 1.65338,0.277812 1.63857,0.332846 1.62269,0.387615 1.60576,0.441589 1.58802,0.495565 1.56898,0.548481 1.54914,0.601133 1.52823,0.652992 1.50654,0.704321 1.48378,0.754856 1.45997,0.804598 1.43537,0.853281 1.40996,0.901171 1.38351,0.948263 1.35625,0.99431 1.32795,1.03955 1.29937,1.0832 1.26947,1.12607 1.23878,1.16787 1.20755,1.20835 1.17555,1.24751 1.14273,1.28561 1.1094,1.32212 1.075,1.35758 1.04008,1.39144 1.00462,1.42399 0.96864,1.45521 0.93187,1.48484 0.89429,1.51289 0.85672,1.53961 0.81809,1.56448 0.77946,1.58803 0.73978,1.60999 0.70008,1.63036 0.65988,1.64889 0.61912,1.66608 0.57812,1.68116 0.53683,1.69518 0.49504,1.70683 0.4527,1.71715 0.4109,1.72587 0.36804,1.7325 0.32543,1.73779 0.28231,1.74096 0.23919,1.74281 0.19605,1.74254 0.15267,1.74096 0.10927,1.73726 0.0656,1.73222 0.0222,1.72509 -0.0214,1.71661 -0.0648,1.70604 -0.10848,1.69412 -0.15161,1.68064 -0.195,1.66502 -0.23812,1.64809 -0.28099,1.6293 -0.32411,1.6092 -0.36645,1.5875 -0.40852,1.56394 -0.45085,1.53936 -0.49265,1.51288 -0.53393,1.48484 -0.5752,1.45547 -0.61569,1.42504 -0.65617,1.39277 -0.69612,1.35943 -0.73554,1.3245 -0.77417,1.28827 -0.81306,1.25121 -0.8509,1.21258 -0.88821,1.1729 -0.92498,1.13189 -0.96123,1.09008 -0.99695,1.04723 -1.03188,1.0033 -1.06627,0.95831 -1.09987,0.91228 -1.13295,0.86573 -1.16496,0.81836 -1.19644,0.76994 -1.22741,0.72098 -1.2573,0.67124 -1.2864,0.62098 -1.31445,0.56991 -1.34223,0.51885 -1.36896,0.46673 -1.39461,0.4146 -1.41949,0.36196 -1.44357,0.30903 -1.46659,0.25585 -1.48881,0.20214 -1.50997,0.14896 -1.53009,0.095 -1.54966,0.0415 -1.56766,-0.0122 -1.58538,-0.0659 -1.60153,-0.11959 -1.6166,-0.17251 -1.63116,-0.22596 -1.64438,-0.2786 -1.65682,-0.33126 -1.66767,-0.38338 -1.67799,-0.43498 -1.68725,-0.4863 -1.69492,-0.53684 -1.70206,-0.58711 -1.70815,-0.63632 -1.71265,-0.68528 -1.71662,-0.73342 -1.71926,-0.78052 -1.72058,-0.82682 -1.72138,-0.8726 -1.72085,-0.91705 -1.719,-0.96096 -1.716349,-1.0033 -1.712652,-1.04511 -1.707621,-1.08558 -1.7018,-1.12527 -1.694656,-1.16311 -1.686719,-1.20042 -1.677458,-1.23613 -1.667404,-1.27053 -1.656292,-1.30387 -1.643856,-1.33561 -1.630627,-1.36631 -1.61634,-1.39515 -1.600993,-1.42293 -1.584855,-1.44912 -1.567391,-1.474 -1.549136,-1.49701 -1.52982,-1.51871 -1.509713,-1.53881 -1.48881,-1.55734 -1.466321,-1.57454 -1.443567,-1.58988 -1.419754,-1.60337 -1.394883,-1.61555 -1.369484,-1.62613 -1.34276,-1.63512 -1.315508,-1.64201 -1.287463,-1.64756 -1.258358,-1.65153 -1.228725,-1.65364 -1.198298,-1.65418 -1.167077,-1.65285 -1.135063,-1.65021 -1.102519,-1.64544 -1.068916,-1.63937 -1.035315,-1.63168 -1.000389,-1.62216 -0.9652,-1.61079 -0.929492,-1.59823 -0.892968,-1.58379 -0.855927,-1.56793 -0.818621,-1.55045 -0.780521,-1.53141 -0.741892,-1.51051 -0.703262,-1.48854 -0.663575,-1.465 -0.623888,-1.43986 -0.583671,-1.41341 -0.543189,-1.38536 -0.502444,-1.35625 -0.461169,-1.3253 -0.419629,-1.29328 -0.378089,-1.26021 -0.336021,-1.22529 -0.293952,-1.18983 -0.251619,-1.15279 -0.209286,-1.11442 -0.166687,-1.07554 -0.123825,-1.03505 -0.08123,-0.99377 -0.03837,-0.95144 0.0045,-0.90832 0.04736,-0.86413 0.08996,-0.81915 0.132821,-0.77311 0.175154,-0.72681 0.218017,-0.67945 0.260085,-0.63182 0.302419,-0.58288 0.344487,-0.53393 0.386027,-0.48419 0.427567,-0.434178 0.469106,-0.383646 0.509852,-0.332846 0.550334,-0.281781 0.590814,-0.230188 0.630767,-0.178329 0.67019,-0.126735 0.709347,-0.07488 0.747978,-0.02275 0.785812,0.0291 0.823913,0.08096 0.860954,0.132821 0.897466,0.184415 0.93345,0.236008 0.968905,0.287073 1.003829,0.337873 1.03796,0.388408 1.071827,0.438415 1.104371,0.48789 1.13665,0.53711 1.168135,0.58552 1.198828,0.63368 1.228989,0.68077 1.258094,0.72707 1.286669,0.77312 1.314185,0.81782 1.340908,0.86202 1.367102,0.9054 1.391973,0.94747 1.416315,0.98875 1.439598,1.02923 1.462352,1.06812 1.483519,1.10623 1.504421,1.14352 1.524,1.17899 1.54252,1.21364 1.560513,1.24698 1.577181,1.27873 1.593056,1.30969 1.607873,1.33906 1.621632,1.3671 1.634331,1.39356 1.645973,1.4187 1.657085,1.4425 1.666611,1.46474 1.675077,1.48537 1.683014,1.50468 1.689365,1.52215 1.694921,1.53829 1.699418,1.5531 1.702589,1.56581 1.70524,1.57691 1.7063,1.58698 1.70656,1.5949 1.7055,1.60154 1.70392,1.60628 1.70074,1.60946 1.69651,1.61078 1.69175,1.61105 1.68539,1.60893 1.67799,1.60576 1.67005,1.60073 1.66052,1.59385 1.65021,1.58565 1.63909,1.57586 1.6264,1.56421 1.61316,1.55099 1.59861,1.53644 1.58327,1.52003 1.56686,1.5023 1.5494,1.48299 1.53115,1.46182 1.51183,1.4396 1.49145,1.41579 1.47029,1.39038 1.44833,1.36366 1.42531,1.33562 1.4015,1.30598 1.37663,1.2753 1.35096,1.24327 1.3245,1.20968 1.29752,1.17501 1.26894,1.13929 1.24037,1.10225 1.21073,1.06416 1.18004,1.02473 1.14909,0.98478 1.11733,0.94324 1.08453,0.9009 1.05119,0.85805 1.01759,0.81386 0.98293,0.76887 0.94773,0.72311 0.91202,0.6768 0.87551,0.62971 0.83873,0.58182 0.80142,0.5334 0.76359,0.48445 0.72522,0.43524 0.68607,0.38497 0.64717,0.33496 0.60748,0.28417 0.56727,0.23336 0.52678,0.18203 0.48631,0.13071 0.44503,0.0788 0.40401,0.0275 0.36222,-0.0241 0.32042,-0.0759 0.2786,-0.12753 0.23627,-0.17886 0.19394,-0.23045 0.15134,-0.28125 0.10901,-0.33232 0.0664,-0.38285 0.0236,-0.43286 -0.019,-0.48234 -0.0616,-0.53181 -0.10451,-0.5805 -0.14685,-0.62865 -0.18944,-0.67601 -0.23177,-0.72284 -0.27411,-0.76888 -0.31618,-0.81438 -0.35798,-0.85883 -0.39978,-0.90251 -0.44107,-0.94508 -0.48233,-0.98716 -0.52308,-1.02764 -0.56356,-1.06759 -0.60378,-1.10649 -0.64347,-1.14379 -0.68289,-1.18031 -0.72205,-1.21576 -0.76041,-1.24963 -0.79878,-1.28217 -0.83608,-1.31392 -0.87313,-1.34408 -0.90963,-1.37293 -0.94589,-1.40017 -0.9808,-1.4261 -1.016,-1.45072 -1.04987,-1.47399 -1.0832,-1.49542 -1.11628,-1.51554 -1.14829,-1.53405 -1.17978,-1.55125 -1.2102,-1.56634 -1.24037,-1.58062 -1.2692,-1.59252 -1.29778,-1.60312 -1.3253,-1.61237 -1.35202,-1.61951 -1.37795,-1.62534 -1.40282,-1.62956 -1.42717,-1.63169 -1.45018,-1.63248 -1.47267,-1.63168 -1.4941,-1.62931 -1.51474,-1.62481 -1.53405,-1.61899 -1.55284,-1.61158 -1.57057,-1.60231 -1.58697,-1.59147 -1.60285,-1.57904 -1.61739,-1.56501 -1.63116,-1.5494 -1.64386,-1.5322 -1.6555,-1.51341 -1.66581,-1.49305 -1.67561,-1.47135 -1.68407,-1.4478 -1.69148,-1.42293 -1.69783,-1.39673 -1.70313,-1.36896 -1.70762,-1.33958 -1.71079,-1.30916 -1.71265,-1.27741 -1.71397,-1.24407 -1.71397,-1.20967 -1.71265,-1.17369 -1.710939,-1.13686 -1.707353,-1.09882 -1.703122,-1.05939 -1.697832,-1.01918 -1.691216,-0.97763 -1.683809,-0.93504 -1.675341,-0.89191 -1.665817,-0.84719 -1.654969,-0.80222 -1.643327,-0.75592 -1.630892,-0.70908 -1.616868,-0.66119 -1.602317,-0.613042 -1.586442,-0.564092 -1.569773,-0.51435 -1.552045,-0.464079 -1.533261,-0.413279 -1.513681,-0.362215 -1.493044,-0.310621 -1.471348,-0.258498 -1.448858,-0.206639 -1.425575,-0.153988 -1.401233,-0.101071 -1.376098,-0.04842 -1.350169,0.0045 -1.322917,0.05741 -1.2954,0.110596 -1.266825,0.163248 -1.237456,0.216164 -1.207294,0.268817 -1.176337,0.32094 -1.144852,0.373327 -1.112309,0.424921 -1.079235,0.47625 -1.045633,0.527314 -1.010973,0.57785 -0.976048,0.627587 -0.940329,0.67707 -0.904082,0.72549 -0.867304,0.77391 -0.829733,0.821 -0.791898,0.8673 -0.753269,0.91308 -0.714375,0.95806 -0.674952,1.00171 -0.635264,1.04484 -0.595048,1.08638 -0.554302,1.12739 -0.513557,1.16734 -0.472016,1.20571 -0.430477,1.24301 -0.388409,1.27952 -0.346604,1.31419 -0.304006,1.34805 -0.261409,1.38033 -0.218545,1.41129 -0.175948,1.44092 -0.132557,1.46923 -0.08969,1.49596 -0.04657,1.52108 -0.0032,1.54491 0.04022,1.56712 0.08308,1.58803 0.126471,1.60708 0.169598,1.62454 0.212725,1.64042 0.255323,1.6547 0.29845,1.66741 0.340783,1.67852 0.383117,1.68778 0.42545,1.69545 0.467254,1.70127 0.508793,1.70577 0.550334,1.70815 0.591079,1.70894 0.631825,1.70842 0.672042,1.7055 0.711729,1.70154 0.751152,1.69545 0.790046,1.68778 0.82841,1.67825 0.866511,1.6674 0.903816,1.65471 0.940594,1.64041 0.976842,1.62402 1.01256,1.60681 1.047485,1.58724 1.081882,1.56633 1.115748,1.54384 1.148556,1.52003 1.180835,1.49437 1.212321,1.46711 1.243277,1.43881 1.273175,1.40864 1.302544,1.37716 1.330854,1.34434 1.358636,1.30996 1.385093,1.27449 1.411288,1.23746 1.435894,1.19962 1.460235,1.15994 1.483519,1.11945 1.505743,1.07765 1.526911,1.03505 1.547283,0.99086 1.566863,0.94589 1.585118,0.90011 1.602582,0.85328 1.618985,0.80539 1.634331,0.75671 1.648884,0.70749 1.661848,0.65723 1.674548,0.60616 1.68566,0.55483 1.695715,0.50271 1.704975,0.44979 1.712912,0.39688 1.720056,0.34316 1.725877,0.28893 1.730636,0.23495 1.734349,0.17991 1.73699,0.12515 1.73831,0.0701 1.73911,0.0148 1.73804,-0.0402 1.73647,-0.0958 1.73381,-0.15108 1.72958,-0.20611 1.72456,-0.26115 1.71846,-0.31591 1.71106,-0.37041 1.70286,-0.42493 1.6936,-0.47863 1.68302,-0.53207 1.67163,-0.585 1.65868,-0.63764 1.64544,-0.68951 1.63063,-0.74083 1.61475,-0.79137 1.59808,-0.84137 1.58062,-0.89033 1.56157,-0.93874 1.54173,-0.98584 1.52135,-1.0324 1.4994,-1.07818 1.47664,-1.12236 1.45335,-1.16575 1.42849,-1.20836 1.40335,-1.24936 1.37689,-1.28931 1.34964,-1.32821 1.32186,-1.36552 1.29249,-1.40176 1.26312,-1.43669 1.23243,-1.47002 1.20121,-1.50204 1.16893,-1.53273 1.13638,-1.5621 1.10252,-1.58935 1.06839,-1.61555 1.0332,-1.64015 0.99774,-1.66317 0.9615,-1.68461 0.92445,-1.70391 0.88715,-1.72217 0.84905,-1.73858 0.81041,-1.7534 0.771,-1.76635 0.73184,-1.77747 0.69135,-1.787 0.65088,-1.79493 0.61013,-1.80102 0.56832,-1.80499 0.52679,-1.8079 0.48472,-1.80843 0.44238,-1.80763 0.39952,-1.80447 0.35666,-1.80022 0.31326,-1.79388 0.26988,-1.78567 0.22648,-1.77588 0.18257,-1.76424 0.13864,-1.75102 0.0947,-1.73619 0.0505,-1.719 0.006,-1.70074 -0.0376,-1.68063 -0.0817,-1.65894 -0.12595,-1.63539 -0.16986,-1.61026 -0.21378,-1.58379 -0.25744,-1.55549 -0.30136,-1.52585 -0.34475,-1.49437 -0.38788,-1.46155 -0.43101,-1.42743 -0.47387,-1.39197 -0.5162,-1.35467 -0.55827,-1.31657 -0.60034,-1.27661 -0.64161,-1.23561 -0.68263,-1.19353 -0.72337,-1.14988 -0.76359,-1.10543 -0.80327,-1.05992 -0.84244,-1.012825 -0.88106,-0.9652 -0.91916,-0.916252 -0.957,-0.866511 -0.99377,-0.815975 -1.03003,-0.764645 -1.066,-0.712259 -1.10093,-0.659341 -1.13507,-0.605632 -1.16893,-0.551391 -1.20173,-0.496359 -1.23402,-0.44106 -1.26524,-0.385233 -1.29593,-0.328878 -1.32556,-0.271991 -1.3544,-0.215371 -1.38271,-0.157692 -1.40997,-0.100541 -1.43616,-0.04286 -1.46156,0.01482 -1.4859,0.0725 -1.50971,0.130439 -1.53194,0.187854 -1.55389,0.245269 -1.57454,0.302683 -1.59411,0.359569 -1.61264,0.416454 -1.63036,0.472811 -1.64703,0.528902 -1.66238,0.5842 -1.67693,0.639233 -1.69042,0.693738 -1.70286,0.747448 -1.71397,0.800629 -1.72429,0.853016 -1.73329,0.904346 -1.74122,0.955146 -1.7481,1.005152 -1.75419,1.0541 -1.75842,1.101987 -1.76239,1.14882 -1.76451,1.1946 -1.76582,1.23931 -1.7661,1.28296 -1.7653,1.3253 -1.762919,1.36604 -1.760006,1.40626 -1.75551,1.44463 -1.750219,1.4814 -1.743604,1.51738 -1.735932,1.55152 -1.7272,1.58433 -1.717145,1.61581 -1.706563,1.64518 -1.694127,1.67349 -1.681163,1.69994 -1.667139,1.72509 -1.651529,1.7481 -1.63539,1.7698 -1.618192,1.7899 -1.599406,1.8079 -1.580356,1.8243 -1.559719,1.83912 -1.538287,1.85208 -1.515798,1.86347 -1.492515,1.87245 -1.468173,1.8804 -1.442773,1.88595 -1.416843,1.88992 -1.389592,1.8923 -1.361546,1.8923 -1.332442,1.89098 -1.303072,1.88754 -1.272382,1.88251 -1.240896,1.87536 -1.208616,1.86664 -1.175809,1.85632 -1.142206,1.84361 -1.107546,1.8296 -1.07262,1.81372 -1.036638,1.79599 -1.000125,1.77641 -0.962819,1.75551 -0.925248,1.73249 -0.886618,1.70789 -0.847725,1.68195 -0.808302,1.65391 -0.76835,1.62455 -0.727869,1.59358 -0.686594,1.56104 -0.645319,1.52691 -0.603514,1.49119 -0.561182,1.45442 -0.518583,1.41605 -0.475721,1.3761 -0.432329,1.33482 -0.388937,1.29249 -0.345017,1.24883 -0.300831,1.20386 -0.256911,1.15755 -0.21246,1.11046 -0.167746,1.06203 -0.123296,1.01256 -0.07832,0.96229 -0.0336,0.91096 0.01111,0.85884 0.05609,0.80566 0.100541,0.75168 0.145521,0.69718 0.190236,0.64161 0.234685,0.58605 0.279135,0.52917 0.323321,0.47228 0.367242,0.4146 0.411162,0.35666 0.454555,0.29819 0.497945,0.23971 0.540809,0.18071 0.583406,0.12171 0.62574,0.0624 0.667543,0.003 0.708819,-0.0564 0.749829,-0.11563 0.790311,-0.17462 0.830262,-0.23389 0.86995,-0.2929 0.908579,-0.35136 0.947209,-0.40958 0.984779,-0.46752 1.021821,-0.52519 1.058333,-0.58209 1.094052,-0.6387 1.129242,-0.69427 1.163637,-0.74983 1.19724,-0.80407 1.230312,-0.85804 1.262063,-0.91096 1.293548,-0.96308 1.323975,-1.01442 1.353873,-1.06442 1.382183,-1.11363 1.410229,-1.16205 1.437481,-1.20888 1.463146,-1.25492 1.488546,-1.29963 1.512623,-1.34329 1.535906,-1.38536 1.558131,-1.42637 1.579298,-1.46579 1.599671,-1.50389 1.618721,-1.54093 1.637242,-1.57586 1.65391,-1.60973 1.670315,-1.642 1.685396,-1.6727 1.699154,-1.70153 1.712118,-1.72932 1.723761,-1.75472 1.734608,-1.77905 1.744134,-1.80129 1.7526,-1.82218 1.759743,-1.84097 1.766094,-1.85817 1.771121,-1.87378 1.775083,-1.88727 1.778,-1.89892 1.77959,-1.90897 1.78012,-1.91717 1.77932,-1.92352 1.77773,-1.92802 1.77509,-1.93066 1.77086,-1.93146 1.76557,-1.9304 1.75947,-1.92723 1.75234,-1.92273 1.74334,-1.91611 1.73408,-1.90791 1.72323,-1.89733 1.71132,-1.88542 1.69863,-1.8714 1.68434,-1.85579 1.66925,-1.83859 1.65312,-1.81901 1.63618,-1.79837 1.61767,-1.77535 1.59834,-1.75128 1.57824,-1.72508 1.55655,-1.69757 1.53458,-1.66793 1.51104,-1.63725 1.48695,-1.60469 1.46183,-1.57084 1.43536,-1.53511 1.40838,-1.49807 1.38059,-1.45971 1.35176,-1.42001 1.32186,-1.37848 1.29143,-1.33641 1.25995,-1.29223 1.22766,-1.24751 1.19486,-1.201207 1.16126,-1.153848 1.12659,-1.105429 1.09141,-1.055952 1.05542,-1.005417 1.01918,-0.953823 0.9816,-0.901435 0.94404,-0.848519 0.9054,-0.794014 0.86651,-0.739511 0.82682,-0.683948 0.78687,-0.627856 0.74613,-0.570971 0.70511,-0.513821 0.66358,-0.455877 0.62177,-0.397933 0.57917,-0.339196 0.53684,-0.280194 0.49345,-0.221191 0.45032,-0.161925 0.4064,-0.102394 0.36274,-0.0426 0.31856,0.01667 0.27411,0.07646 0.22966,0.135996 0.18494,0.195263 0.1405,0.254264 0.0952,0.313532 0.0505,0.371739 0.006,0.430213 -0.0394,0.487891 -0.0841,0.545307 -0.12912,0.602191 -0.17409,0.658019 -0.21855,0.713846 -0.263,0.768614 -0.30744,0.82259 -0.35137,0.876035 -0.39555,0.928423 -0.43921,0.980017 -0.48233,1.030552 -0.52547,1.080294 -0.56832,1.128712 -0.61066,1.176073 -0.65246,1.22237 -0.69427,1.26762 -0.73501,1.31128 -0.77576,1.35414 -0.81598,1.39514 -0.85539,1.43537 -0.89456,1.47373 -0.93319,1.51103 -0.97075,1.54649 -1.00806,1.58089 -1.04484,1.61343 -1.08056,1.64438 -1.11575,1.67402 -1.15041,1.7018 -1.18401,1.72826 -1.21735,1.7526 -1.24936,1.77562 -1.28058,1.79678 -1.31154,1.8161 -1.34117,1.83383 -1.37002,1.84997 -1.39806,1.86399 -1.42531,1.87616 -1.4515,1.88674 -1.47664,1.89548 -1.50125,1.90262 -1.52426,1.90738 -1.54702,1.91082 -1.56818,1.91214 -1.58883,1.91162 -1.60813,1.90923 -1.6264,1.90553 -1.64385,1.89918 -1.66,1.89177 -1.67534,1.88198 -1.68937,1.87061 -1.70259,1.85764 -1.71424,1.84229 -1.72534,1.82589 -1.73514,1.80737 -1.74387,1.78726 -1.75128,1.7653 -1.75789,1.74175 -1.76318,1.71662 -1.76715,1.68963 -1.77033,1.66105 -1.77245,1.63116 -1.77297,1.5994 -1.77271,1.56634 -1.77138,1.53167 -1.768739,1.49569 -1.765034,1.45785 -1.760008,1.41923 -1.754188,1.37901 -1.747308,1.33747 -1.738842,1.2946 -1.729581,1.25069 -1.719262,1.20544 -1.707886,1.15914 -1.695185,1.11178 -1.681427,1.06309 -1.666875,1.01389 -1.651,0.96334 -1.634067,0.91202 -1.616339,0.8599 -1.597555,0.80698 -1.577445,0.75327 -1.556544,0.69903 -1.534848,0.64399 -1.511829,0.58817 -1.488017,0.53234 -1.463146,0.47546 -1.437481,0.41857 -1.411023,0.36116 -1.383242,0.30347 -1.355195,0.24527 -1.325828,0.18733 -1.295664,0.12911 -1.264973,0.0706 -1.233223,0.0122 -1.200679,-0.0463 -1.167342,-0.10451 -1.133475,-0.16246 -1.098814,-0.22066 -1.063625,-0.27834 -1.027377,-0.33576 -0.990865,-0.39264 -0.953294,-0.44926 -0.915723,-0.50562 -0.877093,-0.56118 -0.837936,-0.61595 -0.798512,-0.67046 -0.758561,-0.72443 -0.718079,-0.77708 -0.676804,-0.8292 -0.635794,-0.8808 -0.593725,-0.93107 -0.551656,-0.98054 -0.509323,-1.02923 -0.466196,-1.07659 -0.423333,-1.12289 -0.379942,-1.1684 -0.33655,-1.21233 -0.292364,-1.25518 -0.248709,-1.29699 -0.204523,-1.3372 -0.160337,-1.37636 -0.115888,-1.41394 -0.0717,-1.45044 -0.02725,-1.48511 0.01746,-1.51844 0.06165,-1.5502 0.105833,-1.58062 0.150283,-1.60946 0.194469,-1.63671 0.23839,-1.66238 0.28231,-1.68619 0.325967,-1.70841 0.369358,-1.72932 0.412485,-1.74784 0.455613,-1.7653 0.49821,-1.78091 0.540544,-1.7944 0.582348,-1.80657 0.624152,-1.81663 0.665163,-1.8251 0.705908,-1.83197 0.746125,-1.83674 0.786077,-1.83991 0.825235,-1.84098 0.863865,-1.8407 0.902229,-1.83833 0.9398,-1.83435 0.976842,-1.82827 1.013089,-1.82087 1.048809,-1.8116 1.083733,-1.80023 1.118394,-1.78752 1.151731,-1.77271 1.184804,-1.75657 1.216819,-1.73858 1.24804,-1.71873 1.278731,-1.69757 1.308364,-1.67454 1.337469,-1.64968 1.36525,-1.62375 1.392502,-1.59597 1.418696,-1.56686 1.444096,-1.5359 1.468702,-1.50363 1.491985,-1.47003 1.514475,-1.4351 1.536171,-1.39832 1.556809,-1.36075 1.576387,-1.32186 1.594908,-1.28111 1.612636,-1.23984 1.629039,-1.19724 1.64465,-1.15332 1.658938,-1.10834 1.672431,-1.0623 1.684867,-1.01547 1.696244,-0.967581 1.706297,-0.918634 1.715559,-0.869156 1.723496,-0.818621 1.730375,-0.767556 1.736195,-0.715433 1.741223,-0.663046 1.744663,-0.609865 1.74705,-0.556154 1.74863,-0.501915 1.74916,-0.447145 1.7481,-0.392377 1.74625,-0.336815 1.74334,-0.281517 z"
       fill="none"
       stroke="#000000"
       stroke-width="2.3968"
       id="path1" /></g></svg>
