<?xml version="1.0" encoding="UTF-8" standalone="no"?>
<!-- Created with Inkscape (http://www.inkscape.org/) -->

<svg
   width="201.13147mm"
   height="191.28761mm"
   viewBox="0 0 201.13147 191.28761"
   version="1.1"
   id="svg1"
   xml:space="preserve"
   xmlns:inkscape="http://www.inkscape.org/namespaces/inkscape"
   xmlns:sodipodi="http://sodipodi.sourceforge.net/DTD/sodipodi-0.dtd"
   xmlns="http://www.w3.org/2000/svg"
   xmlns:svg="http://www.w3.org/2000/svg"><sodipodi:namedview
     id="namedview1"
     pagecolor="#ffffff"
     bordercolor="#000000"
     borderopacity="0.25"
     inkscape:showpageshadow="2"
     inkscape:pageopacity="0.0"
     inkscape:pagecheckerboard="0"
     inkscape:deskcolor="#d1d1d1"
     inkscape:document-units="mm" /><defs
     id="defs1" /><g
     inkscape:label="Layer 1"
     inkscape:groupmode="layer"
     id="layer1"
     transform="translate(-4.5364162,-52.728186)"><g
       id="g1"
       transform="matrix(0.26458333,0,0,0.26458333,-0.73113699,52.635979)"><path
         d="M 400,3.3166 777.268,277.418 633.165,720.924 H 166.835 L 22.7317,277.418 Z"
         fill="none"
         stroke="#000000"
         stroke-width="4.8025"
         id="path1" /><path
         d="M 482.62,78.215 731.567,379.14 522.299,708.893 144.018,611.766 119.495,221.986 Z"
         fill="none"
         stroke="#000000"
         stroke-width="4.8025"
         id="path2" /><path
         d="M 534.041,156.18 673.308,452.136 434.872,676.042 148.244,518.467 209.534,197.175 Z"
         fill="none"
         stroke="#000000"
         stroke-width="4.8025"
         id="path3" /><path
         d="M 559.515,230.134 610.845,499.216 370.794,631.185 171.105,443.664 287.74,195.801 Z"
         fill="none"
         stroke="#000000"
         stroke-width="4.8025"
         id="path4" /><path
         d="M 564.776,295.43 550.371,524.398 328.158,581.452 205.228,387.746 351.467,210.975 Z"
         fill="none"
         stroke="#000000"
         stroke-width="4.8025"
         id="path5" /><path
         d="M 555.444,349.493 496.07,532.229 H 303.93 L 244.556,349.493 400,236.556 Z"
         fill="none"
         stroke="#000000"
         stroke-width="4.8025"
         id="path6" /><path
         d="M 536.614,391.405 450.39,527.272 294.529,487.253 284.425,326.654 434.042,267.416 Z"
         fill="none"
         stroke="#000000"
         stroke-width="4.8025"
         id="path7" /><path
         d="M 512.61,421.481 414.368,513.736 296.27,448.812 321.523,316.431 455.228,299.54 Z"
         fill="none"
         stroke="#000000"
         stroke-width="4.8025"
         id="path8" /><path
         d="m 486.874,440.88 -98.907,54.374 -82.278,-77.263 48.057,-102.126 111.978,14.146 z"
         fill="none"
         stroke="#000000"
         stroke-width="4.8025"
         id="path9" /><path
         d="m 461.957,451.255 -91.558,23.508 -50.65,-79.812 60.254,-72.834 87.889,34.797 z"
         fill="none"
         stroke="#000000"
         stroke-width="4.8025"
         id="path10" /><path
         d="M 439.583,454.482 H 360.417 L 335.953,379.19 400,332.657 464.047,379.19 Z"
         fill="none"
         stroke="#000000"
         stroke-width="4.8025"
         id="path11" /><path
         d="m 420.762,452.439 -64.219,-16.488 -4.163,-66.171 61.646,-24.408 42.262,51.087 z"
         fill="none"
         stroke="#000000"
         stroke-width="4.8025"
         id="path12" /><path
         d="m 405.92,446.862 -48.659,-26.75 10.405,-54.545 55.09,-6.959 23.642,50.243 z"
         fill="none"
         stroke="#000000"
         stroke-width="4.8025"
         id="path13" /><path
         d="m 395.042,439.247 -33.9,-31.834 19.8,-42.079 46.138,5.829 8.714,45.68 z"
         fill="none"
         stroke="#000000"
         stroke-width="4.8025"
         id="path14" /><path
         d="m 387.804,430.804 -20.869,-32.884 24.826,-30.01 36.212,14.338 -2.445,38.87 z"
         fill="none"
         stroke="#000000"
         stroke-width="4.8025"
         id="path15" /><path
         d="m 383.691,422.448 -10.08,-31.022 26.389,-19.173 26.389,19.173 -10.08,31.022 z"
         fill="none"
         stroke="#000000"
         stroke-width="4.8025"
         id="path16" /><path
         d="m 382.095,414.813 -1.716,-27.265 25.4,-10.056 17.413,21.049 -14.637,23.065 z"
         fill="none"
         stroke="#000000"
         stroke-width="4.8025"
         id="path17" /><path
         d="m 382.39,408.286 4.287,-22.473 22.699,-2.868 9.741,20.702 -16.678,15.661 z"
         fill="none"
         stroke="#000000"
         stroke-width="4.8025"
         id="path18" /><path
         d="m 383.989,403.054 8.159,-17.337 19.01,2.401 3.59,18.822 -16.791,9.231 z"
         fill="none"
         stroke="#000000"
         stroke-width="4.8025"
         id="path19" /><path
         d="m 386.376,399.143 10.229,-12.365 14.921,5.908 -1.008,16.015 -15.543,3.991 z"
         fill="none"
         stroke="#000000"
         stroke-width="4.8025"
         id="path20" /><path
         d="m 389.127,396.467 10.873,-7.899 10.873,7.899 -4.153,12.782 h -13.44 z"
         fill="none"
         stroke="#000000"
         stroke-width="4.8025"
         id="path21" /><path
         d="m 391.916,394.87 10.465,-4.144 7.175,8.673 -6.031,9.503 -10.902,-2.799 z"
         fill="none"
         stroke="#000000"
         stroke-width="4.8025"
         id="path22" /><path
         d="m 394.511,394.155 9.352,-1.182 4.014,8.53 -6.872,6.453 -8.261,-4.542 z"
         fill="none"
         stroke="#000000"
         stroke-width="4.8025"
         id="path23" /><path
         d="m 396.765,394.115 7.832,0.989 1.48,7.755 -6.919,3.804 -5.755,-5.405 z"
         fill="none"
         stroke="#000000"
         stroke-width="4.8025"
         id="path24" /><path
         d="m 398.601,394.552 6.148,2.434 -0.415,6.599 -6.404,1.644 -3.543,-5.582 z"
         fill="none"
         stroke="#000000"
         stroke-width="4.8025"
         id="path25" /><path
         d="m 400,395.29 4.48,3.254 -1.711,5.267 h -5.538 l -1.711,-5.267 z"
         fill="none"
         stroke="#000000"
         stroke-width="4.8025"
         id="path26" /><path
         d="m 400.981,396.179 2.956,3.573 -2.485,3.916 -4.492,-1.153 -0.291,-4.629 z"
         fill="none"
         stroke="#000000"
         stroke-width="4.8025"
         id="path27" /><path
         d="m 401.592,397.105 1.653,3.514 -2.831,2.659 -3.404,-1.871 0.728,-3.815 z"
         fill="none"
         stroke="#000000"
         stroke-width="4.8025"
         id="path28" /><path
         d="m 401.894,397.983 0.61,3.195 -2.851,1.567 -2.371,-2.227 1.385,-2.943 z"
         fill="none"
         stroke="#000000"
         stroke-width="4.8025"
         id="path29" /><path
         d="m 401.957,398.758 -0.171,2.719 -2.639,0.678 -1.46,-2.301 1.737,-2.099 z"
         fill="none"
         stroke="#000000"
         stroke-width="4.8025"
         id="path30" /><path
         d="m 401.846,399.4 -0.705,2.17 h -2.282 l -0.705,-2.17 1.846,-1.341 z"
         fill="none"
         stroke="#000000"
         stroke-width="4.8025"
         id="path31" /><path
         d="m 401.622,399.898 -1.024,1.613 -1.85,-0.475 -0.12,-1.907 1.776,-0.703 z"
         fill="none"
         stroke="#000000"
         stroke-width="4.8025"
         id="path32" /><path
         d="m 401.337,400.255 -1.166,1.096 -1.403,-0.771 0.3,-1.572 1.588,-0.201 z"
         fill="none"
         stroke="#000000"
         stroke-width="4.8025"
         id="path33" /><path
         d="m 401.032,400.485 -1.175,0.646 -0.977,-0.917 0.571,-1.213 1.329,0.168 z"
         fill="none"
         stroke="#000000"
         stroke-width="4.8025"
         id="path34" /><path
         d="m 400.736,400.609 -1.087,0.279 -0.602,-0.948 0.716,-0.865 1.043,0.413 z"
         fill="none"
         stroke="#000000"
         stroke-width="4.8025"
         id="path35" /><path
         d="m 400.47,400.647 h -0.94 l -0.291,-0.894 0.761,-0.553 0.761,0.553 z"
         fill="none"
         stroke="#000000"
         stroke-width="4.8025"
         id="path36" /><path
         d="m 400.247,400.623 -0.763,-0.196 -0.049,-0.786 0.732,-0.29 0.501,0.607 z"
         fill="none"
         stroke="#000000"
         stroke-width="4.8025"
         id="path37" /><path
         d="m 400.07,400.556 -0.578,-0.317 0.124,-0.648 0.654,-0.083 0.281,0.597 z"
         fill="none"
         stroke="#000000"
         stroke-width="4.8025"
         id="path38" /><path
         d="m 399.941,400.466 -0.402,-0.378 0.235,-0.5 0.548,0.07 0.103,0.542 z"
         fill="none"
         stroke="#000000"
         stroke-width="4.8025"
         id="path39" /><path
         d="m 399.855,400.366 -0.248,-0.391 0.295,-0.356 0.43,0.17 -0.029,0.462 z"
         fill="none"
         stroke="#000000"
         stroke-width="4.8025"
         id="path40" /><path
         d="m 399.806,400.267 -0.119,-0.369 0.313,-0.227 0.313,0.227 -0.119,0.369 z"
         fill="none"
         stroke="#000000"
         stroke-width="4.8025"
         id="path41" /><path
         d="m 399.787,400.176 -0.02,-0.324 0.302,-0.119 0.206,0.25 -0.173,0.274 z"
         fill="none"
         stroke="#000000"
         stroke-width="4.8025"
         id="path42" /><path
         d="m 399.791,400.098 0.051,-0.266 0.269,-0.035 0.116,0.246 -0.198,0.186 z"
         fill="none"
         stroke="#000000"
         stroke-width="4.8025"
         id="path43" /><path
         d="m 399.81,400.036 0.097,-0.206 0.225,0.029 0.043,0.223 -0.199,0.11 z"
         fill="none"
         stroke="#000000"
         stroke-width="4.8025"
         id="path44" /><path
         d="m 399.838,399.99 0.122,-0.147 0.177,0.07 -0.012,0.19 -0.185,0.048 z"
         fill="none"
         stroke="#000000"
         stroke-width="4.8025"
         id="path45" /><path
         d="m 399.871,399.958 0.129,-0.094 0.129,0.094 -0.049,0.152 h -0.16 z"
         fill="none"
         stroke="#000000"
         stroke-width="4.8025"
         id="path46" /><path
         d="m 399.904,399.939 0.124,-0.049 0.085,0.103 -0.071,0.113 -0.13,-0.034 z"
         fill="none"
         stroke="#000000"
         stroke-width="4.8025"
         id="path47" /><path
         d="m 399.935,399.931 0.111,-0.014 0.048,0.101 -0.082,0.076 -0.098,-0.053 z"
         fill="none"
         stroke="#000000"
         stroke-width="4.8025"
         id="path48" /><path
         d="m 399.962,399.93 0.093,0.012 0.017,0.092 -0.082,0.045 -0.068,-0.064 z"
         fill="none"
         stroke="#000000"
         stroke-width="4.8025"
         id="path49" /><path
         d="m 399.983,399.935 0.073,0.029 -0.005,0.079 -0.076,0.019 -0.042,-0.066 z"
         fill="none"
         stroke="#000000"
         stroke-width="4.8025"
         id="path50" /><path
         d="m 400,399.944 0.053,0.039 -0.02,0.062 h -0.066 l -0.02,-0.062 z"
         fill="none"
         stroke="#000000"
         stroke-width="4.8025"
         id="path51" /><path
         d="m 400.012,399.955 0.035,0.042 -0.03,0.047 -0.053,-0.014 -0.004,-0.055 z"
         fill="none"
         stroke="#000000"
         stroke-width="4.8025"
         id="path52" /><path
         d="m 400.019,399.966 0.02,0.041 -0.034,0.032 -0.04,-0.022 0.008,-0.046 z"
         fill="none"
         stroke="#000000"
         stroke-width="4.8025"
         id="path53" /><path
         d="m 400.022,399.976 0.008,0.038 -0.034,0.019 -0.028,-0.027 0.016,-0.035 z"
         fill="none"
         stroke="#000000"
         stroke-width="4.8025"
         id="path54" /><path
         d="m 400.023,399.985 -0.002,0.033 -0.031,0.008 -0.017,-0.028 0.02,-0.025 z"
         fill="none"
         stroke="#000000"
         stroke-width="4.8025"
         id="path55" /><path
         d="m 400.022,399.993 -0.008,0.026 h -0.028 l -0.008,-0.026 0.022,-0.016 z"
         fill="none"
         stroke="#000000"
         stroke-width="4.8025"
         id="path56" /><path
         d="m 400.019,399.999 -0.012,0.019 -0.022,-0.006 -0.001,-0.022 0.021,-0.009 z"
         fill="none"
         stroke="#000000"
         stroke-width="4.8025"
         id="path57" /><path
         d="m 400.016,400.003 -0.014,0.013 -0.017,-0.009 0.004,-0.019 0.019,-0.002 z"
         fill="none"
         stroke="#000000"
         stroke-width="4.8025"
         id="path58" /><path
         d="m 400.012,400.006 -0.014,0.007 -0.011,-0.01 0.006,-0.015 0.016,0.002 z"
         fill="none"
         stroke="#000000"
         stroke-width="4.8025"
         id="path59" /><path
         d="m 400.009,400.007 -0.013,0.004 -0.007,-0.012 0.008,-0.01 0.013,0.005 z"
         fill="none"
         stroke="#000000"
         stroke-width="4.8025"
         id="path60" /><path
         d="m 400.006,400.008 h -0.012 l -0.003,-0.011 0.009,-0.006 0.009,0.006 z"
         fill="none"
         stroke="#000000"
         stroke-width="4.8025"
         id="path61" /><path
         d="m 400.003,400.007 -0.009,-0.002 -0.001,-0.009 0.009,-0.004 0.006,0.008 z"
         fill="none"
         stroke="#000000"
         stroke-width="4.8025"
         id="path62" /><path
         d="m 400.001,400.007 -0.007,-0.004 10e-4,-0.008 0.008,-10e-4 0.004,0.007 z"
         fill="none"
         stroke="#000000"
         stroke-width="4.8025"
         id="path63" /><path
         d="m 399.999,400.006 -0.004,-0.005 0.002,-0.006 0.007,10e-4 10e-4,0.006 z"
         fill="none"
         stroke="#000000"
         stroke-width="4.8025"
         id="path64" /><path
         d="m 399.998,400.004 -0.003,-0.004 0.004,-0.005 0.005,0.002 v 0.006 z"
         fill="none"
         stroke="#000000"
         stroke-width="4.8025"
         id="path65" /><path
         d="m 399.998,400.003 -0.002,-0.004 0.004,-0.003 0.004,0.003 -0.002,0.004 z"
         fill="none"
         stroke="#000000"
         stroke-width="4.8025"
         id="path66" /><path
         d="m 399.997,400.002 v -0.004 l 0.004,-10e-4 0.002,0.003 -0.002,0.003 z"
         fill="none"
         stroke="#000000"
         stroke-width="4.8025"
         id="path67" /><path
         d="m 399.998,400.001 v -0.003 h 0.003 l 0.002,0.003 -0.003,0.002 z"
         fill="none"
         stroke="#000000"
         stroke-width="4.8025"
         id="path68" /><path
         d="m 399.998,400 0.001,-0.002 h 0.003 v 0.003 L 400,400.002 Z"
         fill="none"
         stroke="#000000"
         stroke-width="4.8025"
         id="path69" /><path
         d="m 399.998,400 0.002,-0.002 0.002,0.001 -0.001,0.002 -0.002,0.001 z"
         fill="none"
         stroke="#000000"
         stroke-width="4.8025"
         id="path70" /><path
         d="m 399.998,400 0.002,-0.002 0.002,0.002 -0.001,10e-4 h -0.002 z"
         fill="none"
         stroke="#000000"
         stroke-width="4.8025"
         id="path71" /><path
         d="M 399.999,399.999 H 400 L 400.001,400 400,400.001 h -10e-4 z"
         fill="none"
         stroke="#000000"
         stroke-width="4.8025"
         id="path72" /><path
         d="m 399.999,399.999 h 0.002 V 400 L 400,400.001 399.999,400 Z"
         fill="none"
         stroke="#000000"
         stroke-width="4.8025"
         id="path73" /><path
         d="m 400,399.999 h 10e-4 V 400 L 400,400.001 399.999,400 Z"
         fill="none"
         stroke="#000000"
         stroke-width="4.8025"
         id="path74" /><path
         d="m 400,399.999 10e-4,10e-4 v 10e-4 H 400 L 399.999,400 Z"
         fill="none"
         stroke="#000000"
         stroke-width="4.8025"
         id="path75" /><path
         d="M 400,399.999 400.001,400 400,400.001 v 0 L 399.999,400 Z"
         fill="none"
         stroke="#000000"
         stroke-width="4.8025"
         id="path76" /><path
         d="M 400,399.999 400.001,400 400,400.001 V 400 v 0 z"
         fill="none"
         stroke="#000000"
         stroke-width="4.8025"
         id="path77" /><path
         d="M 400,400 Z"
         fill="none"
         stroke="#000000"
         stroke-width="4.8025"
         id="path78" /><path
         d="M 400,400 Z"
         fill="none"
         stroke="#000000"
         stroke-width="4.8025"
         id="path79" /><path
         d="M 400,400 Z"
         fill="none"
         stroke="#000000"
         stroke-width="4.8025"
         id="path80" /><path
         d="M 400,400 Z"
         fill="none"
         stroke="#000000"
         stroke-width="4.8025"
         id="path81" /><path
         d="M 400,400 Z"
         fill="none"
         stroke="#000000"
         stroke-width="4.8025"
         id="path82" /><path
         d="M 400,400 Z"
         fill="none"
         stroke="#000000"
         stroke-width="4.8025"
         id="path83" /><path
         d="M 400,400 Z"
         fill="none"
         stroke="#000000"
         stroke-width="4.8025"
         id="path84" /><path
         d="M 400,400 Z"
         fill="none"
         stroke="#000000"
         stroke-width="4.8025"
         id="path85" /><path
         d="M 400,400 Z"
         fill="none"
         stroke="#000000"
         stroke-width="4.8025"
         id="path86" /><path
         d="M 400,400 Z"
         fill="none"
         stroke="#000000"
         stroke-width="4.8025"
         id="path87" /><path
         d="M 400,400 Z"
         fill="none"
         stroke="#000000"
         stroke-width="4.8025"
         id="path88" /><path
         d="M 400,400 Z"
         fill="none"
         stroke="#000000"
         stroke-width="4.8025"
         id="path89" /><path
         d="M 400,400 Z"
         fill="none"
         stroke="#000000"
         stroke-width="4.8025"
         id="path90" /><path
         d="M 400,400 Z"
         fill="none"
         stroke="#000000"
         stroke-width="4.8025"
         id="path91" /><path
         d="M 400,400 Z"
         fill="none"
         stroke="#000000"
         stroke-width="4.8025"
         id="path92" /><path
         d="M 400,400 Z"
         fill="none"
         stroke="#000000"
         stroke-width="4.8025"
         id="path93" /><path
         d="M 400,400 Z"
         fill="none"
         stroke="#000000"
         stroke-width="4.8025"
         id="path94" /><path
         d="M 400,400 Z"
         fill="none"
         stroke="#000000"
         stroke-width="4.8025"
         id="path95" /><path
         d="M 400,400 Z"
         fill="none"
         stroke="#000000"
         stroke-width="4.8025"
         id="path96" /><path
         d="M 400,400 Z"
         fill="none"
         stroke="#000000"
         stroke-width="4.8025"
         id="path97" /><path
         d="M 400,400 Z"
         fill="none"
         stroke="#000000"
         stroke-width="4.8025"
         id="path98" /><path
         d="M 400,400 Z"
         fill="none"
         stroke="#000000"
         stroke-width="4.8025"
         id="path99" /><path
         d="M 400,400 Z"
         fill="none"
         stroke="#000000"
         stroke-width="4.8025"
         id="path100" /></g></g></svg>
