<?xml version="1.0"?>
<svg xmlns="http://www.w3.org/2000/svg">
<path d="M 400.000 3.31660 L 777.268 277.418 L 633.165 720.924 L 166.835 720.924 L 22.7317 277.418 Z" fill="none" stroke="black" stroke-width="4.80250"  />
<path d="M 482.620 78.2150 L 731.567 379.140 L 522.299 708.893 L 144.018 611.766 L 119.495 221.986 Z" fill="none" stroke="black" stroke-width="4.80250"  />
<path d="M 534.041 156.180 L 673.308 452.136 L 434.872 676.042 L 148.244 518.467 L 209.534 197.175 Z" fill="none" stroke="black" stroke-width="4.80250"  />
<path d="M 559.515 230.134 L 610.845 499.216 L 370.794 631.185 L 171.105 443.664 L 287.740 195.801 Z" fill="none" stroke="black" stroke-width="4.80250"  />
<path d="M 564.776 295.430 L 550.371 524.398 L 328.158 581.452 L 205.228 387.746 L 351.467 210.975 Z" fill="none" stroke="black" stroke-width="4.80250"  />
<path d="M 555.444 349.493 L 496.070 532.229 L 303.930 532.229 L 244.556 349.493 L 400.000 236.556 Z" fill="none" stroke="black" stroke-width="4.80250"  />
<path d="M 536.614 391.405 L 450.390 527.272 L 294.529 487.253 L 284.425 326.654 L 434.042 267.416 Z" fill="none" stroke="black" stroke-width="4.80250"  />
<path d="M 512.610 421.481 L 414.368 513.736 L 296.270 448.812 L 321.523 316.431 L 455.228 299.540 Z" fill="none" stroke="black" stroke-width="4.80250"  />
<path d="M 486.874 440.880 L 387.967 495.254 L 305.689 417.991 L 353.746 315.865 L 465.724 330.011 Z" fill="none" stroke="black" stroke-width="4.80250"  />
<path d="M 461.957 451.255 L 370.399 474.763 L 319.749 394.951 L 380.003 322.117 L 467.892 356.914 Z" fill="none" stroke="black" stroke-width="4.80250"  />
<path d="M 439.583 454.482 L 360.417 454.482 L 335.953 379.190 L 400.000 332.657 L 464.047 379.190 Z" fill="none" stroke="black" stroke-width="4.80250"  />
<path d="M 420.762 452.439 L 356.543 435.951 L 352.380 369.780 L 414.026 345.372 L 456.288 396.459 Z" fill="none" stroke="black" stroke-width="4.80250"  />
<path d="M 405.920 446.862 L 357.261 420.112 L 367.666 365.567 L 422.756 358.608 L 446.398 408.851 Z" fill="none" stroke="black" stroke-width="4.80250"  />
<path d="M 395.042 439.247 L 361.142 407.413 L 380.942 365.334 L 427.080 371.163 L 435.794 416.843 Z" fill="none" stroke="black" stroke-width="4.80250"  />
<path d="M 387.804 430.804 L 366.935 397.920 L 391.761 367.910 L 427.973 382.248 L 425.528 421.118 Z" fill="none" stroke="black" stroke-width="4.80250"  />
<path d="M 383.691 422.448 L 373.611 391.426 L 400.000 372.253 L 426.389 391.426 L 416.309 422.448 Z" fill="none" stroke="black" stroke-width="4.80250"  />
<path d="M 382.095 414.813 L 380.379 387.548 L 405.779 377.492 L 423.192 398.541 L 408.555 421.606 Z" fill="none" stroke="black" stroke-width="4.80250"  />
<path d="M 382.390 408.286 L 386.677 385.813 L 409.376 382.945 L 419.117 403.647 L 402.439 419.308 Z" fill="none" stroke="black" stroke-width="4.80250"  />
<path d="M 383.989 403.054 L 392.148 385.717 L 411.158 388.118 L 414.748 406.940 L 397.957 416.171 Z" fill="none" stroke="black" stroke-width="4.80250"  />
<path d="M 386.376 399.143 L 396.605 386.778 L 411.526 392.686 L 410.518 408.701 L 394.975 412.692 Z" fill="none" stroke="black" stroke-width="4.80250"  />
<path d="M 389.127 396.467 L 400.000 388.568 L 410.873 396.467 L 406.720 409.249 L 393.280 409.249 Z" fill="none" stroke="black" stroke-width="4.80250"  />
<path d="M 391.916 394.870 L 402.381 390.726 L 409.556 399.399 L 403.525 408.902 L 392.623 406.103 Z" fill="none" stroke="black" stroke-width="4.80250"  />
<path d="M 394.511 394.155 L 403.863 392.973 L 407.877 401.503 L 401.005 407.956 L 392.744 403.414 Z" fill="none" stroke="black" stroke-width="4.80250"  />
<path d="M 396.765 394.115 L 404.597 395.104 L 406.077 402.859 L 399.158 406.663 L 393.403 401.258 Z" fill="none" stroke="black" stroke-width="4.80250"  />
<path d="M 398.601 394.552 L 404.749 396.986 L 404.334 403.585 L 397.930 405.229 L 394.387 399.647 Z" fill="none" stroke="black" stroke-width="4.80250"  />
<path d="M 400.000 395.290 L 404.480 398.544 L 402.769 403.811 L 397.231 403.811 L 395.520 398.544 Z" fill="none" stroke="black" stroke-width="4.80250"  />
<path d="M 400.981 396.179 L 403.937 399.752 L 401.452 403.668 L 396.960 402.515 L 396.669 397.886 Z" fill="none" stroke="black" stroke-width="4.80250"  />
<path d="M 401.592 397.105 L 403.245 400.619 L 400.414 403.278 L 397.010 401.407 L 397.738 397.592 Z" fill="none" stroke="black" stroke-width="4.80250"  />
<path d="M 401.894 397.983 L 402.504 401.178 L 399.653 402.745 L 397.282 400.518 L 398.667 397.575 Z" fill="none" stroke="black" stroke-width="4.80250"  />
<path d="M 401.957 398.758 L 401.786 401.477 L 399.147 402.155 L 397.687 399.854 L 399.424 397.755 Z" fill="none" stroke="black" stroke-width="4.80250"  />
<path d="M 401.846 399.400 L 401.141 401.570 L 398.859 401.570 L 398.154 399.400 L 400.000 398.059 Z" fill="none" stroke="black" stroke-width="4.80250"  />
<path d="M 401.622 399.898 L 400.598 401.511 L 398.748 401.036 L 398.628 399.129 L 400.404 398.426 Z" fill="none" stroke="black" stroke-width="4.80250"  />
<path d="M 401.337 400.255 L 400.171 401.351 L 398.768 400.580 L 399.068 399.008 L 400.656 398.807 Z" fill="none" stroke="black" stroke-width="4.80250"  />
<path d="M 401.032 400.485 L 399.857 401.131 L 398.880 400.214 L 399.451 399.001 L 400.780 399.169 Z" fill="none" stroke="black" stroke-width="4.80250"  />
<path d="M 400.736 400.609 L 399.649 400.888 L 399.047 399.940 L 399.763 399.075 L 400.806 399.488 Z" fill="none" stroke="black" stroke-width="4.80250"  />
<path d="M 400.470 400.647 L 399.530 400.647 L 399.239 399.753 L 400.000 399.200 L 400.761 399.753 Z" fill="none" stroke="black" stroke-width="4.80250"  />
<path d="M 400.247 400.623 L 399.484 400.427 L 399.435 399.641 L 400.167 399.351 L 400.668 399.958 Z" fill="none" stroke="black" stroke-width="4.80250"  />
<path d="M 400.070 400.556 L 399.492 400.239 L 399.616 399.591 L 400.270 399.508 L 400.551 400.105 Z" fill="none" stroke="black" stroke-width="4.80250"  />
<path d="M 399.941 400.466 L 399.539 400.088 L 399.774 399.588 L 400.322 399.658 L 400.425 400.200 Z" fill="none" stroke="black" stroke-width="4.80250"  />
<path d="M 399.855 400.366 L 399.607 399.975 L 399.902 399.619 L 400.332 399.789 L 400.303 400.251 Z" fill="none" stroke="black" stroke-width="4.80250"  />
<path d="M 399.806 400.267 L 399.687 399.898 L 400.000 399.671 L 400.313 399.898 L 400.194 400.267 Z" fill="none" stroke="black" stroke-width="4.80250"  />
<path d="M 399.787 400.176 L 399.767 399.852 L 400.069 399.733 L 400.275 399.983 L 400.102 400.257 Z" fill="none" stroke="black" stroke-width="4.80250"  />
<path d="M 399.791 400.098 L 399.842 399.832 L 400.111 399.797 L 400.227 400.043 L 400.029 400.229 Z" fill="none" stroke="black" stroke-width="4.80250"  />
<path d="M 399.810 400.036 L 399.907 399.830 L 400.132 399.859 L 400.175 400.082 L 399.976 400.192 Z" fill="none" stroke="black" stroke-width="4.80250"  />
<path d="M 399.838 399.990 L 399.960 399.843 L 400.137 399.913 L 400.125 400.103 L 399.940 400.151 Z" fill="none" stroke="black" stroke-width="4.80250"  />
<path d="M 399.871 399.958 L 400.000 399.864 L 400.129 399.958 L 400.080 400.110 L 399.920 400.110 Z" fill="none" stroke="black" stroke-width="4.80250"  />
<path d="M 399.904 399.939 L 400.028 399.890 L 400.113 399.993 L 400.042 400.106 L 399.912 400.072 Z" fill="none" stroke="black" stroke-width="4.80250"  />
<path d="M 399.935 399.931 L 400.046 399.917 L 400.094 400.018 L 400.012 400.094 L 399.914 400.041 Z" fill="none" stroke="black" stroke-width="4.80250"  />
<path d="M 399.962 399.930 L 400.055 399.942 L 400.072 400.034 L 399.990 400.079 L 399.922 400.015 Z" fill="none" stroke="black" stroke-width="4.80250"  />
<path d="M 399.983 399.935 L 400.056 399.964 L 400.051 400.043 L 399.975 400.062 L 399.933 399.996 Z" fill="none" stroke="black" stroke-width="4.80250"  />
<path d="M 400.000 399.944 L 400.053 399.983 L 400.033 400.045 L 399.967 400.045 L 399.947 399.983 Z" fill="none" stroke="black" stroke-width="4.80250"  />
<path d="M 400.012 399.955 L 400.047 399.997 L 400.017 400.044 L 399.964 400.030 L 399.960 399.975 Z" fill="none" stroke="black" stroke-width="4.80250"  />
<path d="M 400.019 399.966 L 400.039 400.007 L 400.005 400.039 L 399.965 400.017 L 399.973 399.971 Z" fill="none" stroke="black" stroke-width="4.80250"  />
<path d="M 400.022 399.976 L 400.030 400.014 L 399.996 400.033 L 399.968 400.006 L 399.984 399.971 Z" fill="none" stroke="black" stroke-width="4.80250"  />
<path d="M 400.023 399.985 L 400.021 400.018 L 399.990 400.026 L 399.973 399.998 L 399.993 399.973 Z" fill="none" stroke="black" stroke-width="4.80250"  />
<path d="M 400.022 399.993 L 400.014 400.019 L 399.986 400.019 L 399.978 399.993 L 400.000 399.977 Z" fill="none" stroke="black" stroke-width="4.80250"  />
<path d="M 400.019 399.999 L 400.007 400.018 L 399.985 400.012 L 399.984 399.990 L 400.005 399.981 Z" fill="none" stroke="black" stroke-width="4.80250"  />
<path d="M 400.016 400.003 L 400.002 400.016 L 399.985 400.007 L 399.989 399.988 L 400.008 399.986 Z" fill="none" stroke="black" stroke-width="4.80250"  />
<path d="M 400.012 400.006 L 399.998 400.013 L 399.987 400.003 L 399.993 399.988 L 400.009 399.990 Z" fill="none" stroke="black" stroke-width="4.80250"  />
<path d="M 400.009 400.007 L 399.996 400.011 L 399.989 399.999 L 399.997 399.989 L 400.010 399.994 Z" fill="none" stroke="black" stroke-width="4.80250"  />
<path d="M 400.006 400.008 L 399.994 400.008 L 399.991 399.997 L 400.000 399.991 L 400.009 399.997 Z" fill="none" stroke="black" stroke-width="4.80250"  />
<path d="M 400.003 400.007 L 399.994 400.005 L 399.993 399.996 L 400.002 399.992 L 400.008 400.000 Z" fill="none" stroke="black" stroke-width="4.80250"  />
<path d="M 400.001 400.007 L 399.994 400.003 L 399.995 399.995 L 400.003 399.994 L 400.007 400.001 Z" fill="none" stroke="black" stroke-width="4.80250"  />
<path d="M 399.999 400.006 L 399.995 400.001 L 399.997 399.995 L 400.004 399.996 L 400.005 400.002 Z" fill="none" stroke="black" stroke-width="4.80250"  />
<path d="M 399.998 400.004 L 399.995 400.000 L 399.999 399.995 L 400.004 399.997 L 400.004 400.003 Z" fill="none" stroke="black" stroke-width="4.80250"  />
<path d="M 399.998 400.003 L 399.996 399.999 L 400.000 399.996 L 400.004 399.999 L 400.002 400.003 Z" fill="none" stroke="black" stroke-width="4.80250"  />
<path d="M 399.997 400.002 L 399.997 399.998 L 400.001 399.997 L 400.003 400.000 L 400.001 400.003 Z" fill="none" stroke="black" stroke-width="4.80250"  />
<path d="M 399.998 400.001 L 399.998 399.998 L 400.001 399.998 L 400.003 400.001 L 400.000 400.003 Z" fill="none" stroke="black" stroke-width="4.80250"  />
<path d="M 399.998 400.000 L 399.999 399.998 L 400.002 399.998 L 400.002 400.001 L 400.000 400.002 Z" fill="none" stroke="black" stroke-width="4.80250"  />
<path d="M 399.998 400.000 L 400.000 399.998 L 400.002 399.999 L 400.001 400.001 L 399.999 400.002 Z" fill="none" stroke="black" stroke-width="4.80250"  />
<path d="M 399.998 400.000 L 400.000 399.998 L 400.002 400.000 L 400.001 400.001 L 399.999 400.001 Z" fill="none" stroke="black" stroke-width="4.80250"  />
<path d="M 399.999 399.999 L 400.000 399.999 L 400.001 400.000 L 400.000 400.001 L 399.999 400.001 Z" fill="none" stroke="black" stroke-width="4.80250"  />
<path d="M 399.999 399.999 L 400.001 399.999 L 400.001 400.000 L 400.000 400.001 L 399.999 400.000 Z" fill="none" stroke="black" stroke-width="4.80250"  />
<path d="M 400.000 399.999 L 400.001 399.999 L 400.001 400.000 L 400.000 400.001 L 399.999 400.000 Z" fill="none" stroke="black" stroke-width="4.80250"  />
<path d="M 400.000 399.999 L 400.001 400.000 L 400.001 400.001 L 400.000 400.001 L 399.999 400.000 Z" fill="none" stroke="black" stroke-width="4.80250"  />
<path d="M 400.000 399.999 L 400.001 400.000 L 400.000 400.001 L 400.000 400.001 L 399.999 400.000 Z" fill="none" stroke="black" stroke-width="4.80250"  />
<path d="M 400.000 399.999 L 400.001 400.000 L 400.000 400.001 L 400.000 400.000 L 400.000 400.000 Z" fill="none" stroke="black" stroke-width="4.80250"  />
<path d="M 400.000 400.000 L 400.000 400.000 L 400.000 400.000 L 400.000 400.000 L 400.000 400.000 Z" fill="none" stroke="black" stroke-width="4.80250"  />
<path d="M 400.000 400.000 L 400.000 400.000 L 400.000 400.000 L 400.000 400.000 L 400.000 400.000 Z" fill="none" stroke="black" stroke-width="4.80250"  />
<path d="M 400.000 400.000 L 400.000 400.000 L 400.000 400.000 L 400.000 400.000 L 400.000 400.000 Z" fill="none" stroke="black" stroke-width="4.80250"  />
<path d="M 400.000 400.000 L 400.000 400.000 L 400.000 400.000 L 400.000 400.000 L 400.000 400.000 Z" fill="none" stroke="black" stroke-width="4.80250"  />
<path d="M 400.000 400.000 L 400.000 400.000 L 400.000 400.000 L 400.000 400.000 L 400.000 400.000 Z" fill="none" stroke="black" stroke-width="4.80250"  />
<path d="M 400.000 400.000 L 400.000 400.000 L 400.000 400.000 L 400.000 400.000 L 400.000 400.000 Z" fill="none" stroke="black" stroke-width="4.80250"  />
<path d="M 400.000 400.000 L 400.000 400.000 L 400.000 400.000 L 400.000 400.000 L 400.000 400.000 Z" fill="none" stroke="black" stroke-width="4.80250"  />
<path d="M 400.000 400.000 L 400.000 400.000 L 400.000 400.000 L 400.000 400.000 L 400.000 400.000 Z" fill="none" stroke="black" stroke-width="4.80250"  />
<path d="M 400.000 400.000 L 400.000 400.000 L 400.000 400.000 L 400.000 400.000 L 400.000 400.000 Z" fill="none" stroke="black" stroke-width="4.80250"  />
<path d="M 400.000 400.000 L 400.000 400.000 L 400.000 400.000 L 400.000 400.000 L 400.000 400.000 Z" fill="none" stroke="black" stroke-width="4.80250"  />
<path d="M 400.000 400.000 L 400.000 400.000 L 400.000 400.000 L 400.000 400.000 L 400.000 400.000 Z" fill="none" stroke="black" stroke-width="4.80250"  />
<path d="M 400.000 400.000 L 400.000 400.000 L 400.000 400.000 L 400.000 400.000 L 400.000 400.000 Z" fill="none" stroke="black" stroke-width="4.80250"  />
<path d="M 400.000 400.000 L 400.000 400.000 L 400.000 400.000 L 400.000 400.000 L 400.000 400.000 Z" fill="none" stroke="black" stroke-width="4.80250"  />
<path d="M 400.000 400.000 L 400.000 400.000 L 400.000 400.000 L 400.000 400.000 L 400.000 400.000 Z" fill="none" stroke="black" stroke-width="4.80250"  />
<path d="M 400.000 400.000 L 400.000 400.000 L 400.000 400.000 L 400.000 400.000 L 400.000 400.000 Z" fill="none" stroke="black" stroke-width="4.80250"  />
<path d="M 400.000 400.000 L 400.000 400.000 L 400.000 400.000 L 400.000 400.000 L 400.000 400.000 Z" fill="none" stroke="black" stroke-width="4.80250"  />
<path d="M 400.000 400.000 L 400.000 400.000 L 400.000 400.000 L 400.000 400.000 L 400.000 400.000 Z" fill="none" stroke="black" stroke-width="4.80250"  />
<path d="M 400.000 400.000 L 400.000 400.000 L 400.000 400.000 L 400.000 400.000 L 400.000 400.000 Z" fill="none" stroke="black" stroke-width="4.80250"  />
<path d="M 400.000 400.000 L 400.000 400.000 L 400.000 400.000 L 400.000 400.000 L 400.000 400.000 Z" fill="none" stroke="black" stroke-width="4.80250"  />
<path d="M 400.000 400.000 L 400.000 400.000 L 400.000 400.000 L 400.000 400.000 L 400.000 400.000 Z" fill="none" stroke="black" stroke-width="4.80250"  />
<path d="M 400.000 400.000 L 400.000 400.000 L 400.000 400.000 L 400.000 400.000 L 400.000 400.000 Z" fill="none" stroke="black" stroke-width="4.80250"  />
<path d="M 400.000 400.000 L 400.000 400.000 L 400.000 400.000 L 400.000 400.000 L 400.000 400.000 Z" fill="none" stroke="black" stroke-width="4.80250"  />
<path d="M 400.000 400.000 L 400.000 400.000 L 400.000 400.000 L 400.000 400.000 L 400.000 400.000 Z" fill="none" stroke="black" stroke-width="4.80250"  />
</svg>
