<?xml version="1.0"?>
<svg xmlns="http://www.w3.org/2000/svg">
<path d="M 298.925 421.484 L 100.731 379.073" fill="none" stroke="#b917e6" stroke-width="1.00000"  />
<path d="M 289.015 419.364 L 110.640 381.194" fill="none" stroke="#b917e6" stroke-width="1.00000"  />
<path d="M 279.105 417.243 L 120.550 383.314" fill="none" stroke="#b917e6" stroke-width="1.00000"  />
<path d="M 269.196 415.123 L 130.460 385.435" fill="none" stroke="#b917e6" stroke-width="1.00000"  />
<path d="M 259.286 413.002 L 140.370 387.555" fill="none" stroke="#b917e6" stroke-width="1.00000"  />
<path d="M 249.376 410.881 L 150.279 389.676" fill="none" stroke="#b917e6" stroke-width="1.00000"  />
<path d="M 239.467 408.761 L 160.189 391.796" fill="none" stroke="#b917e6" stroke-width="1.00000"  />
<path d="M 229.557 406.640 L 170.099 393.917" fill="none" stroke="#b917e6" stroke-width="1.00000"  />
<path d="M 219.647 404.520 L 180.008 396.038" fill="none" stroke="#b917e6" stroke-width="1.00000"  />
<path d="M 209.738 402.399 L 189.918 398.158" fill="none" stroke="#b917e6" stroke-width="1.00000"  />
<path d="M 199.828 400.279 L 199.828 400.279" fill="none" stroke="#b917e6" stroke-width="1.00000"  />
<path d="M 189.918 398.158 L 209.738 402.399" fill="none" stroke="#b917e6" stroke-width="1.00000"  />
<path d="M 180.008 396.038 L 219.647 404.520" fill="none" stroke="#b917e6" stroke-width="1.00000"  />
<path d="M 170.099 393.917 L 229.557 406.640" fill="none" stroke="#b917e6" stroke-width="1.00000"  />
<path d="M 160.189 391.796 L 239.467 408.761" fill="none" stroke="#b917e6" stroke-width="1.00000"  />
<path d="M 150.279 389.676 L 249.376 410.881" fill="none" stroke="#b917e6" stroke-width="1.00000"  />
<path d="M 140.370 387.555 L 259.286 413.002" fill="none" stroke="#b917e6" stroke-width="1.00000"  />
<path d="M 130.460 385.435 L 269.196 415.123" fill="none" stroke="#b917e6" stroke-width="1.00000"  />
<path d="M 120.550 383.314 L 279.105 417.243" fill="none" stroke="#b917e6" stroke-width="1.00000"  />
<path d="M 110.640 381.194 L 289.015 419.364" fill="none" stroke="#b917e6" stroke-width="1.00000"  />
<path d="M 100.731 379.073 L 298.925 421.484" fill="none" stroke="#b917e6" stroke-width="1.00000"  />
<path d="M 100.731 379.073 L 298.925 421.484" fill="none" stroke="#b917e6" stroke-width="1.00000"  />
<path d="M 110.640 381.194 L 289.015 419.364" fill="none" stroke="#b917e6" stroke-width="1.00000"  />
<path d="M 120.550 383.314 L 279.105 417.243" fill="none" stroke="#b917e6" stroke-width="1.00000"  />
<path d="M 130.460 385.435 L 269.196 415.123" fill="none" stroke="#b917e6" stroke-width="1.00000"  />
<path d="M 140.370 387.555 L 259.286 413.002" fill="none" stroke="#b917e6" stroke-width="1.00000"  />
<path d="M 150.279 389.676 L 249.376 410.881" fill="none" stroke="#b917e6" stroke-width="1.00000"  />
<path d="M 160.189 391.796 L 239.467 408.761" fill="none" stroke="#b917e6" stroke-width="1.00000"  />
<path d="M 170.099 393.917 L 229.557 406.640" fill="none" stroke="#b917e6" stroke-width="1.00000"  />
<path d="M 180.008 396.038 L 219.647 404.520" fill="none" stroke="#b917e6" stroke-width="1.00000"  />
<path d="M 189.918 398.158 L 209.738 402.399" fill="none" stroke="#b917e6" stroke-width="1.00000"  />
<path d="M 199.828 400.279 L 199.828 400.279" fill="none" stroke="#b917e6" stroke-width="1.00000"  />
<path d="M 209.738 402.399 L 189.918 398.158" fill="none" stroke="#b917e6" stroke-width="1.00000"  />
<path d="M 219.647 404.520 L 180.008 396.038" fill="none" stroke="#b917e6" stroke-width="1.00000"  />
<path d="M 229.557 406.640 L 170.099 393.917" fill="none" stroke="#b917e6" stroke-width="1.00000"  />
<path d="M 239.467 408.761 L 160.189 391.796" fill="none" stroke="#b917e6" stroke-width="1.00000"  />
<path d="M 249.376 410.881 L 150.279 389.676" fill="none" stroke="#b917e6" stroke-width="1.00000"  />
<path d="M 259.286 413.002 L 140.370 387.555" fill="none" stroke="#b917e6" stroke-width="1.00000"  />
<path d="M 269.196 415.123 L 130.460 385.435" fill="none" stroke="#b917e6" stroke-width="1.00000"  />
<path d="M 279.105 417.243 L 120.550 383.314" fill="none" stroke="#b917e6" stroke-width="1.00000"  />
<path d="M 289.015 419.364 L 110.640 381.194" fill="none" stroke="#b917e6" stroke-width="1.00000"  />
<path d="M 298.925 421.484 L 100.731 379.073" fill="none" stroke="#b917e6" stroke-width="1.00000"  />
<path d="M 298.925 421.484 L 100.731 379.073" fill="none" stroke="#b917e6" stroke-width="1.00000"  />
<path d="M 295.467 408.059 L 110.640 381.194" fill="none" stroke="#b917e6" stroke-width="1.00000"  />
<path d="M 292.009 394.633 L 120.550 383.314" fill="none" stroke="#b917e6" stroke-width="1.00000"  />
<path d="M 288.552 381.208 L 130.460 385.435" fill="none" stroke="#b917e6" stroke-width="1.00000"  />
<path d="M 285.094 367.782 L 140.370 387.555" fill="none" stroke="#b917e6" stroke-width="1.00000"  />
<path d="M 281.636 354.357 L 150.279 389.676" fill="none" stroke="#b917e6" stroke-width="1.00000"  />
<path d="M 278.178 340.931 L 160.189 391.796" fill="none" stroke="#b917e6" stroke-width="1.00000"  />
<path d="M 274.721 327.506 L 170.099 393.917" fill="none" stroke="#b917e6" stroke-width="1.00000"  />
<path d="M 271.263 314.080 L 180.008 396.038" fill="none" stroke="#b917e6" stroke-width="1.00000"  />
<path d="M 267.805 300.655 L 189.918 398.158" fill="none" stroke="#b917e6" stroke-width="1.00000"  />
<path d="M 264.347 287.229 L 199.828 400.279" fill="none" stroke="#b917e6" stroke-width="1.00000"  />
<path d="M 260.890 273.804 L 209.738 402.399" fill="none" stroke="#b917e6" stroke-width="1.00000"  />
<path d="M 257.432 260.378 L 219.647 404.520" fill="none" stroke="#b917e6" stroke-width="1.00000"  />
<path d="M 253.974 246.953 L 229.557 406.640" fill="none" stroke="#b917e6" stroke-width="1.00000"  />
<path d="M 250.516 233.527 L 239.467 408.761" fill="none" stroke="#b917e6" stroke-width="1.00000"  />
<path d="M 247.059 220.102 L 249.376 410.881" fill="none" stroke="#b917e6" stroke-width="1.00000"  />
<path d="M 243.601 206.676 L 259.286 413.002" fill="none" stroke="#b917e6" stroke-width="1.00000"  />
<path d="M 240.143 193.251 L 269.196 415.123" fill="none" stroke="#b917e6" stroke-width="1.00000"  />
<path d="M 236.686 179.825 L 279.105 417.243" fill="none" stroke="#b917e6" stroke-width="1.00000"  />
<path d="M 233.228 166.400 L 289.015 419.364" fill="none" stroke="#b917e6" stroke-width="1.00000"  />
<path d="M 229.770 152.974 L 298.925 421.484" fill="none" stroke="#b917e6" stroke-width="1.00000"  />
<path d="M 229.770 152.974 L 298.925 421.484" fill="none" stroke="#b917e6" stroke-width="1.00000"  />
<path d="M 233.228 166.400 L 289.015 419.364" fill="none" stroke="#b917e6" stroke-width="1.00000"  />
<path d="M 236.686 179.825 L 279.105 417.243" fill="none" stroke="#b917e6" stroke-width="1.00000"  />
<path d="M 240.143 193.251 L 269.196 415.123" fill="none" stroke="#b917e6" stroke-width="1.00000"  />
<path d="M 243.601 206.676 L 259.286 413.002" fill="none" stroke="#b917e6" stroke-width="1.00000"  />
<path d="M 247.059 220.102 L 249.376 410.881" fill="none" stroke="#b917e6" stroke-width="1.00000"  />
<path d="M 250.516 233.527 L 239.467 408.761" fill="none" stroke="#b917e6" stroke-width="1.00000"  />
<path d="M 253.974 246.953 L 229.557 406.640" fill="none" stroke="#b917e6" stroke-width="1.00000"  />
<path d="M 257.432 260.378 L 219.647 404.520" fill="none" stroke="#b917e6" stroke-width="1.00000"  />
<path d="M 260.890 273.804 L 209.738 402.399" fill="none" stroke="#b917e6" stroke-width="1.00000"  />
<path d="M 264.347 287.229 L 199.828 400.279" fill="none" stroke="#b917e6" stroke-width="1.00000"  />
<path d="M 267.805 300.655 L 189.918 398.158" fill="none" stroke="#b917e6" stroke-width="1.00000"  />
<path d="M 271.263 314.080 L 180.008 396.038" fill="none" stroke="#b917e6" stroke-width="1.00000"  />
<path d="M 274.721 327.506 L 170.099 393.917" fill="none" stroke="#b917e6" stroke-width="1.00000"  />
<path d="M 278.178 340.931 L 160.189 391.796" fill="none" stroke="#b917e6" stroke-width="1.00000"  />
<path d="M 281.636 354.357 L 150.279 389.676" fill="none" stroke="#b917e6" stroke-width="1.00000"  />
<path d="M 285.094 367.782 L 140.370 387.555" fill="none" stroke="#b917e6" stroke-width="1.00000"  />
<path d="M 288.552 381.208 L 130.460 385.435" fill="none" stroke="#b917e6" stroke-width="1.00000"  />
<path d="M 292.009 394.633 L 120.550 383.314" fill="none" stroke="#b917e6" stroke-width="1.00000"  />
<path d="M 295.467 408.059 L 110.640 381.194" fill="none" stroke="#b917e6" stroke-width="1.00000"  />
<path d="M 298.925 421.484 L 100.731 379.073" fill="none" stroke="#b917e6" stroke-width="1.00000"  />
<path d="M 298.925 421.484 L 229.770 152.974" fill="none" stroke="#b917e6" stroke-width="1.00000"  />
<path d="M 308.328 406.055 L 233.228 166.400" fill="none" stroke="#b917e6" stroke-width="1.00000"  />
<path d="M 317.732 390.625 L 236.686 179.825" fill="none" stroke="#b917e6" stroke-width="1.00000"  />
<path d="M 327.136 375.195 L 240.143 193.251" fill="none" stroke="#b917e6" stroke-width="1.00000"  />
<path d="M 336.539 359.765 L 243.601 206.676" fill="none" stroke="#b917e6" stroke-width="1.00000"  />
<path d="M 345.943 344.336 L 247.059 220.102" fill="none" stroke="#b917e6" stroke-width="1.00000"  />
<path d="M 355.346 328.906 L 250.516 233.527" fill="none" stroke="#b917e6" stroke-width="1.00000"  />
<path d="M 364.750 313.476 L 253.974 246.953" fill="none" stroke="#b917e6" stroke-width="1.00000"  />
<path d="M 374.153 298.047 L 257.432 260.378" fill="none" stroke="#b917e6" stroke-width="1.00000"  />
<path d="M 383.557 282.617 L 260.890 273.804" fill="none" stroke="#b917e6" stroke-width="1.00000"  />
<path d="M 392.960 267.187 L 264.347 287.229" fill="none" stroke="#b917e6" stroke-width="1.00000"  />
<path d="M 402.364 251.758 L 267.805 300.655" fill="none" stroke="#b917e6" stroke-width="1.00000"  />
<path d="M 411.768 236.328 L 271.263 314.080" fill="none" stroke="#b917e6" stroke-width="1.00000"  />
<path d="M 421.171 220.898 L 274.721 327.506" fill="none" stroke="#b917e6" stroke-width="1.00000"  />
<path d="M 430.575 205.469 L 278.178 340.931" fill="none" stroke="#b917e6" stroke-width="1.00000"  />
<path d="M 439.978 190.039 L 281.636 354.357" fill="none" stroke="#b917e6" stroke-width="1.00000"  />
<path d="M 449.382 174.609 L 285.094 367.782" fill="none" stroke="#b917e6" stroke-width="1.00000"  />
<path d="M 458.785 159.180 L 288.552 381.208" fill="none" stroke="#b917e6" stroke-width="1.00000"  />
<path d="M 468.189 143.750 L 292.009 394.633" fill="none" stroke="#b917e6" stroke-width="1.00000"  />
<path d="M 477.592 128.320 L 295.467 408.059" fill="none" stroke="#b917e6" stroke-width="1.00000"  />
<path d="M 486.996 112.891 L 298.925 421.484" fill="none" stroke="#b917e6" stroke-width="1.00000"  />
<path d="M 486.996 112.891 L 298.925 421.484" fill="none" stroke="#b917e6" stroke-width="1.00000"  />
<path d="M 477.592 128.320 L 295.467 408.059" fill="none" stroke="#b917e6" stroke-width="1.00000"  />
<path d="M 468.189 143.750 L 292.009 394.633" fill="none" stroke="#b917e6" stroke-width="1.00000"  />
<path d="M 458.785 159.180 L 288.552 381.208" fill="none" stroke="#b917e6" stroke-width="1.00000"  />
<path d="M 449.382 174.609 L 285.094 367.782" fill="none" stroke="#b917e6" stroke-width="1.00000"  />
<path d="M 439.978 190.039 L 281.636 354.357" fill="none" stroke="#b917e6" stroke-width="1.00000"  />
<path d="M 430.575 205.469 L 278.178 340.931" fill="none" stroke="#b917e6" stroke-width="1.00000"  />
<path d="M 421.171 220.898 L 274.721 327.506" fill="none" stroke="#b917e6" stroke-width="1.00000"  />
<path d="M 411.768 236.328 L 271.263 314.080" fill="none" stroke="#b917e6" stroke-width="1.00000"  />
<path d="M 402.364 251.758 L 267.805 300.655" fill="none" stroke="#b917e6" stroke-width="1.00000"  />
<path d="M 392.960 267.187 L 264.347 287.229" fill="none" stroke="#b917e6" stroke-width="1.00000"  />
<path d="M 383.557 282.617 L 260.890 273.804" fill="none" stroke="#b917e6" stroke-width="1.00000"  />
<path d="M 374.153 298.047 L 257.432 260.378" fill="none" stroke="#b917e6" stroke-width="1.00000"  />
<path d="M 364.750 313.476 L 253.974 246.953" fill="none" stroke="#b917e6" stroke-width="1.00000"  />
<path d="M 355.346 328.906 L 250.516 233.527" fill="none" stroke="#b917e6" stroke-width="1.00000"  />
<path d="M 345.943 344.336 L 247.059 220.102" fill="none" stroke="#b917e6" stroke-width="1.00000"  />
<path d="M 336.539 359.765 L 243.601 206.676" fill="none" stroke="#b917e6" stroke-width="1.00000"  />
<path d="M 327.136 375.195 L 240.143 193.251" fill="none" stroke="#b917e6" stroke-width="1.00000"  />
<path d="M 317.732 390.625 L 236.686 179.825" fill="none" stroke="#b917e6" stroke-width="1.00000"  />
<path d="M 308.328 406.055 L 233.228 166.400" fill="none" stroke="#b917e6" stroke-width="1.00000"  />
<path d="M 298.925 421.484 L 229.770 152.974" fill="none" stroke="#b917e6" stroke-width="1.00000"  />
<path d="M 298.925 421.484 L 486.996 112.891" fill="none" stroke="#b917e6" stroke-width="1.00000"  />
<path d="M 317.914 414.860 L 477.592 128.320" fill="none" stroke="#b917e6" stroke-width="1.00000"  />
<path d="M 336.904 408.236 L 468.189 143.750" fill="none" stroke="#b917e6" stroke-width="1.00000"  />
<path d="M 355.893 401.613 L 458.785 159.180" fill="none" stroke="#b917e6" stroke-width="1.00000"  />
<path d="M 374.882 394.989 L 449.382 174.609" fill="none" stroke="#b917e6" stroke-width="1.00000"  />
<path d="M 393.872 388.365 L 439.978 190.039" fill="none" stroke="#b917e6" stroke-width="1.00000"  />
<path d="M 412.861 381.741 L 430.575 205.469" fill="none" stroke="#b917e6" stroke-width="1.00000"  />
<path d="M 431.850 375.117 L 421.171 220.898" fill="none" stroke="#b917e6" stroke-width="1.00000"  />
<path d="M 450.840 368.493 L 411.768 236.328" fill="none" stroke="#b917e6" stroke-width="1.00000"  />
<path d="M 469.829 361.869 L 402.364 251.758" fill="none" stroke="#b917e6" stroke-width="1.00000"  />
<path d="M 488.818 355.245 L 392.960 267.187" fill="none" stroke="#b917e6" stroke-width="1.00000"  />
<path d="M 507.808 348.621 L 383.557 282.617" fill="none" stroke="#b917e6" stroke-width="1.00000"  />
<path d="M 526.797 341.998 L 374.153 298.047" fill="none" stroke="#b917e6" stroke-width="1.00000"  />
<path d="M 545.787 335.374 L 364.750 313.476" fill="none" stroke="#b917e6" stroke-width="1.00000"  />
<path d="M 564.776 328.750 L 355.346 328.906" fill="none" stroke="#b917e6" stroke-width="1.00000"  />
<path d="M 583.765 322.126 L 345.943 344.336" fill="none" stroke="#b917e6" stroke-width="1.00000"  />
<path d="M 602.755 315.502 L 336.539 359.765" fill="none" stroke="#b917e6" stroke-width="1.00000"  />
<path d="M 621.744 308.878 L 327.136 375.195" fill="none" stroke="#b917e6" stroke-width="1.00000"  />
<path d="M 640.733 302.254 L 317.732 390.625" fill="none" stroke="#b917e6" stroke-width="1.00000"  />
<path d="M 659.723 295.630 L 308.328 406.055" fill="none" stroke="#b917e6" stroke-width="1.00000"  />
<path d="M 678.712 289.006 L 298.925 421.484" fill="none" stroke="#b917e6" stroke-width="1.00000"  />
<path d="M 678.712 289.006 L 298.925 421.484" fill="none" stroke="#b917e6" stroke-width="1.00000"  />
<path d="M 659.723 295.630 L 308.328 406.055" fill="none" stroke="#b917e6" stroke-width="1.00000"  />
<path d="M 640.733 302.254 L 317.732 390.625" fill="none" stroke="#b917e6" stroke-width="1.00000"  />
<path d="M 621.744 308.878 L 327.136 375.195" fill="none" stroke="#b917e6" stroke-width="1.00000"  />
<path d="M 602.755 315.502 L 336.539 359.765" fill="none" stroke="#b917e6" stroke-width="1.00000"  />
<path d="M 583.765 322.126 L 345.943 344.336" fill="none" stroke="#b917e6" stroke-width="1.00000"  />
<path d="M 564.776 328.750 L 355.346 328.906" fill="none" stroke="#b917e6" stroke-width="1.00000"  />
<path d="M 545.787 335.374 L 364.750 313.476" fill="none" stroke="#b917e6" stroke-width="1.00000"  />
<path d="M 526.797 341.998 L 374.153 298.047" fill="none" stroke="#b917e6" stroke-width="1.00000"  />
<path d="M 507.808 348.621 L 383.557 282.617" fill="none" stroke="#b917e6" stroke-width="1.00000"  />
<path d="M 488.818 355.245 L 392.960 267.187" fill="none" stroke="#b917e6" stroke-width="1.00000"  />
<path d="M 469.829 361.869 L 402.364 251.758" fill="none" stroke="#b917e6" stroke-width="1.00000"  />
<path d="M 450.840 368.493 L 411.768 236.328" fill="none" stroke="#b917e6" stroke-width="1.00000"  />
<path d="M 431.850 375.117 L 421.171 220.898" fill="none" stroke="#b917e6" stroke-width="1.00000"  />
<path d="M 412.861 381.741 L 430.575 205.469" fill="none" stroke="#b917e6" stroke-width="1.00000"  />
<path d="M 393.872 388.365 L 439.978 190.039" fill="none" stroke="#b917e6" stroke-width="1.00000"  />
<path d="M 374.882 394.989 L 449.382 174.609" fill="none" stroke="#b917e6" stroke-width="1.00000"  />
<path d="M 355.893 401.613 L 458.785 159.180" fill="none" stroke="#b917e6" stroke-width="1.00000"  />
<path d="M 336.904 408.236 L 468.189 143.750" fill="none" stroke="#b917e6" stroke-width="1.00000"  />
<path d="M 317.914 414.860 L 477.592 128.320" fill="none" stroke="#b917e6" stroke-width="1.00000"  />
<path d="M 298.925 421.484 L 486.996 112.891" fill="none" stroke="#b917e6" stroke-width="1.00000"  />
<path d="M 298.925 421.484 L 678.712 289.006" fill="none" stroke="#b917e6" stroke-width="1.00000"  />
<path d="M 317.006 427.845 L 659.723 295.630" fill="none" stroke="#b917e6" stroke-width="1.00000"  />
<path d="M 335.088 434.206 L 640.733 302.254" fill="none" stroke="#b917e6" stroke-width="1.00000"  />
<path d="M 353.169 440.567 L 621.744 308.878" fill="none" stroke="#b917e6" stroke-width="1.00000"  />
<path d="M 371.250 446.928 L 602.755 315.502" fill="none" stroke="#b917e6" stroke-width="1.00000"  />
<path d="M 389.332 453.289 L 583.765 322.126" fill="none" stroke="#b917e6" stroke-width="1.00000"  />
<path d="M 407.413 459.650 L 564.776 328.750" fill="none" stroke="#b917e6" stroke-width="1.00000"  />
<path d="M 425.495 466.011 L 545.787 335.374" fill="none" stroke="#b917e6" stroke-width="1.00000"  />
<path d="M 443.576 472.372 L 526.797 341.998" fill="none" stroke="#b917e6" stroke-width="1.00000"  />
<path d="M 461.657 478.732 L 507.808 348.621" fill="none" stroke="#b917e6" stroke-width="1.00000"  />
<path d="M 479.739 485.093 L 488.818 355.245" fill="none" stroke="#b917e6" stroke-width="1.00000"  />
<path d="M 497.820 491.454 L 469.829 361.869" fill="none" stroke="#b917e6" stroke-width="1.00000"  />
<path d="M 515.901 497.815 L 450.840 368.493" fill="none" stroke="#b917e6" stroke-width="1.00000"  />
<path d="M 533.983 504.176 L 431.850 375.117" fill="none" stroke="#b917e6" stroke-width="1.00000"  />
<path d="M 552.064 510.537 L 412.861 381.741" fill="none" stroke="#b917e6" stroke-width="1.00000"  />
<path d="M 570.146 516.898 L 393.872 388.365" fill="none" stroke="#b917e6" stroke-width="1.00000"  />
<path d="M 588.227 523.259 L 374.882 394.989" fill="none" stroke="#b917e6" stroke-width="1.00000"  />
<path d="M 606.308 529.620 L 355.893 401.613" fill="none" stroke="#b917e6" stroke-width="1.00000"  />
<path d="M 624.390 535.981 L 336.904 408.236" fill="none" stroke="#b917e6" stroke-width="1.00000"  />
<path d="M 642.471 542.342 L 317.914 414.860" fill="none" stroke="#b917e6" stroke-width="1.00000"  />
<path d="M 660.552 548.703 L 298.925 421.484" fill="none" stroke="#b917e6" stroke-width="1.00000"  />
<path d="M 660.552 548.703 L 298.925 421.484" fill="none" stroke="#b917e6" stroke-width="1.00000"  />
<path d="M 642.471 542.342 L 317.914 414.860" fill="none" stroke="#b917e6" stroke-width="1.00000"  />
<path d="M 624.390 535.981 L 336.904 408.236" fill="none" stroke="#b917e6" stroke-width="1.00000"  />
<path d="M 606.308 529.620 L 355.893 401.613" fill="none" stroke="#b917e6" stroke-width="1.00000"  />
<path d="M 588.227 523.259 L 374.882 394.989" fill="none" stroke="#b917e6" stroke-width="1.00000"  />
<path d="M 570.146 516.898 L 393.872 388.365" fill="none" stroke="#b917e6" stroke-width="1.00000"  />
<path d="M 552.064 510.537 L 412.861 381.741" fill="none" stroke="#b917e6" stroke-width="1.00000"  />
<path d="M 533.983 504.176 L 431.850 375.117" fill="none" stroke="#b917e6" stroke-width="1.00000"  />
<path d="M 515.901 497.815 L 450.840 368.493" fill="none" stroke="#b917e6" stroke-width="1.00000"  />
<path d="M 497.820 491.454 L 469.829 361.869" fill="none" stroke="#b917e6" stroke-width="1.00000"  />
<path d="M 479.739 485.093 L 488.818 355.245" fill="none" stroke="#b917e6" stroke-width="1.00000"  />
<path d="M 461.657 478.732 L 507.808 348.621" fill="none" stroke="#b917e6" stroke-width="1.00000"  />
<path d="M 443.576 472.372 L 526.797 341.998" fill="none" stroke="#b917e6" stroke-width="1.00000"  />
<path d="M 425.495 466.011 L 545.787 335.374" fill="none" stroke="#b917e6" stroke-width="1.00000"  />
<path d="M 407.413 459.650 L 564.776 328.750" fill="none" stroke="#b917e6" stroke-width="1.00000"  />
<path d="M 389.332 453.289 L 583.765 322.126" fill="none" stroke="#b917e6" stroke-width="1.00000"  />
<path d="M 371.250 446.928 L 602.755 315.502" fill="none" stroke="#b917e6" stroke-width="1.00000"  />
<path d="M 353.169 440.567 L 621.744 308.878" fill="none" stroke="#b917e6" stroke-width="1.00000"  />
<path d="M 335.088 434.206 L 640.733 302.254" fill="none" stroke="#b917e6" stroke-width="1.00000"  />
<path d="M 317.006 427.845 L 659.723 295.630" fill="none" stroke="#b917e6" stroke-width="1.00000"  />
<path d="M 298.925 421.484 L 678.712 289.006" fill="none" stroke="#b917e6" stroke-width="1.00000"  />
<path d="M 298.925 421.484 L 660.552 548.703" fill="none" stroke="#b917e6" stroke-width="1.00000"  />
<path d="M 306.288 435.231 L 642.471 542.342" fill="none" stroke="#b917e6" stroke-width="1.00000"  />
<path d="M 313.652 448.978 L 624.390 535.981" fill="none" stroke="#b917e6" stroke-width="1.00000"  />
<path d="M 321.015 462.725 L 606.308 529.620" fill="none" stroke="#b917e6" stroke-width="1.00000"  />
<path d="M 328.378 476.472 L 588.227 523.259" fill="none" stroke="#b917e6" stroke-width="1.00000"  />
<path d="M 335.742 490.219 L 570.146 516.898" fill="none" stroke="#b917e6" stroke-width="1.00000"  />
<path d="M 343.105 503.966 L 552.064 510.537" fill="none" stroke="#b917e6" stroke-width="1.00000"  />
<path d="M 350.468 517.713 L 533.983 504.176" fill="none" stroke="#b917e6" stroke-width="1.00000"  />
<path d="M 357.831 531.460 L 515.901 497.815" fill="none" stroke="#b917e6" stroke-width="1.00000"  />
<path d="M 365.195 545.206 L 497.820 491.454" fill="none" stroke="#b917e6" stroke-width="1.00000"  />
<path d="M 372.558 558.953 L 479.739 485.093" fill="none" stroke="#b917e6" stroke-width="1.00000"  />
<path d="M 379.921 572.700 L 461.657 478.732" fill="none" stroke="#b917e6" stroke-width="1.00000"  />
<path d="M 387.285 586.447 L 443.576 472.372" fill="none" stroke="#b917e6" stroke-width="1.00000"  />
<path d="M 394.648 600.194 L 425.495 466.011" fill="none" stroke="#b917e6" stroke-width="1.00000"  />
<path d="M 402.011 613.941 L 407.413 459.650" fill="none" stroke="#b917e6" stroke-width="1.00000"  />
<path d="M 409.375 627.688 L 389.332 453.289" fill="none" stroke="#b917e6" stroke-width="1.00000"  />
<path d="M 416.738 641.435 L 371.250 446.928" fill="none" stroke="#b917e6" stroke-width="1.00000"  />
<path d="M 424.101 655.182 L 353.169 440.567" fill="none" stroke="#b917e6" stroke-width="1.00000"  />
<path d="M 431.465 668.929 L 335.088 434.206" fill="none" stroke="#b917e6" stroke-width="1.00000"  />
<path d="M 438.828 682.676 L 317.006 427.845" fill="none" stroke="#b917e6" stroke-width="1.00000"  />
<path d="M 446.191 696.423 L 298.925 421.484" fill="none" stroke="#b917e6" stroke-width="1.00000"  />
<path d="M 446.191 696.423 L 298.925 421.484" fill="none" stroke="#b917e6" stroke-width="1.00000"  />
<path d="M 438.828 682.676 L 317.006 427.845" fill="none" stroke="#b917e6" stroke-width="1.00000"  />
<path d="M 431.465 668.929 L 335.088 434.206" fill="none" stroke="#b917e6" stroke-width="1.00000"  />
<path d="M 424.101 655.182 L 353.169 440.567" fill="none" stroke="#b917e6" stroke-width="1.00000"  />
<path d="M 416.738 641.435 L 371.250 446.928" fill="none" stroke="#b917e6" stroke-width="1.00000"  />
<path d="M 409.375 627.688 L 389.332 453.289" fill="none" stroke="#b917e6" stroke-width="1.00000"  />
<path d="M 402.011 613.941 L 407.413 459.650" fill="none" stroke="#b917e6" stroke-width="1.00000"  />
<path d="M 394.648 600.194 L 425.495 466.011" fill="none" stroke="#b917e6" stroke-width="1.00000"  />
<path d="M 387.285 586.447 L 443.576 472.372" fill="none" stroke="#b917e6" stroke-width="1.00000"  />
<path d="M 379.921 572.700 L 461.657 478.732" fill="none" stroke="#b917e6" stroke-width="1.00000"  />
<path d="M 372.558 558.953 L 479.739 485.093" fill="none" stroke="#b917e6" stroke-width="1.00000"  />
<path d="M 365.195 545.206 L 497.820 491.454" fill="none" stroke="#b917e6" stroke-width="1.00000"  />
<path d="M 357.831 531.460 L 515.901 497.815" fill="none" stroke="#b917e6" stroke-width="1.00000"  />
<path d="M 350.468 517.713 L 533.983 504.176" fill="none" stroke="#b917e6" stroke-width="1.00000"  />
<path d="M 343.105 503.966 L 552.064 510.537" fill="none" stroke="#b917e6" stroke-width="1.00000"  />
<path d="M 335.742 490.219 L 570.146 516.898" fill="none" stroke="#b917e6" stroke-width="1.00000"  />
<path d="M 328.378 476.472 L 588.227 523.259" fill="none" stroke="#b917e6" stroke-width="1.00000"  />
<path d="M 321.015 462.725 L 606.308 529.620" fill="none" stroke="#b917e6" stroke-width="1.00000"  />
<path d="M 313.652 448.978 L 624.390 535.981" fill="none" stroke="#b917e6" stroke-width="1.00000"  />
<path d="M 306.288 435.231 L 642.471 542.342" fill="none" stroke="#b917e6" stroke-width="1.00000"  />
<path d="M 298.925 421.484 L 660.552 548.703" fill="none" stroke="#b917e6" stroke-width="1.00000"  />
<path d="M 298.925 421.484 L 446.191 696.423" fill="none" stroke="#b917e6" stroke-width="1.00000"  />
<path d="M 293.831 431.456 L 438.828 682.676" fill="none" stroke="#b917e6" stroke-width="1.00000"  />
<path d="M 288.737 441.429 L 431.465 668.929" fill="none" stroke="#b917e6" stroke-width="1.00000"  />
<path d="M 283.643 451.401 L 424.101 655.182" fill="none" stroke="#b917e6" stroke-width="1.00000"  />
<path d="M 278.549 461.373 L 416.738 641.435" fill="none" stroke="#b917e6" stroke-width="1.00000"  />
<path d="M 273.455 471.346 L 409.375 627.688" fill="none" stroke="#b917e6" stroke-width="1.00000"  />
<path d="M 268.362 481.318 L 402.011 613.941" fill="none" stroke="#b917e6" stroke-width="1.00000"  />
<path d="M 263.268 491.290 L 394.648 600.194" fill="none" stroke="#b917e6" stroke-width="1.00000"  />
<path d="M 258.174 501.263 L 387.285 586.447" fill="none" stroke="#b917e6" stroke-width="1.00000"  />
<path d="M 253.080 511.235 L 379.921 572.700" fill="none" stroke="#b917e6" stroke-width="1.00000"  />
<path d="M 247.986 521.207 L 372.558 558.953" fill="none" stroke="#b917e6" stroke-width="1.00000"  />
<path d="M 242.892 531.180 L 365.195 545.206" fill="none" stroke="#b917e6" stroke-width="1.00000"  />
<path d="M 237.798 541.152 L 357.831 531.460" fill="none" stroke="#b917e6" stroke-width="1.00000"  />
<path d="M 232.704 551.124 L 350.468 517.713" fill="none" stroke="#b917e6" stroke-width="1.00000"  />
<path d="M 227.611 561.097 L 343.105 503.966" fill="none" stroke="#b917e6" stroke-width="1.00000"  />
<path d="M 222.517 571.069 L 335.742 490.219" fill="none" stroke="#b917e6" stroke-width="1.00000"  />
<path d="M 217.423 581.041 L 328.378 476.472" fill="none" stroke="#b917e6" stroke-width="1.00000"  />
<path d="M 212.329 591.013 L 321.015 462.725" fill="none" stroke="#b917e6" stroke-width="1.00000"  />
<path d="M 207.235 600.986 L 313.652 448.978" fill="none" stroke="#b917e6" stroke-width="1.00000"  />
<path d="M 202.141 610.958 L 306.288 435.231" fill="none" stroke="#b917e6" stroke-width="1.00000"  />
<path d="M 197.047 620.930 L 298.925 421.484" fill="none" stroke="#b917e6" stroke-width="1.00000"  />
<path d="M 197.047 620.930 L 298.925 421.484" fill="none" stroke="#b917e6" stroke-width="1.00000"  />
<path d="M 202.141 610.958 L 306.288 435.231" fill="none" stroke="#b917e6" stroke-width="1.00000"  />
<path d="M 207.235 600.986 L 313.652 448.978" fill="none" stroke="#b917e6" stroke-width="1.00000"  />
<path d="M 212.329 591.013 L 321.015 462.725" fill="none" stroke="#b917e6" stroke-width="1.00000"  />
<path d="M 217.423 581.041 L 328.378 476.472" fill="none" stroke="#b917e6" stroke-width="1.00000"  />
<path d="M 222.517 571.069 L 335.742 490.219" fill="none" stroke="#b917e6" stroke-width="1.00000"  />
<path d="M 227.611 561.097 L 343.105 503.966" fill="none" stroke="#b917e6" stroke-width="1.00000"  />
<path d="M 232.704 551.124 L 350.468 517.713" fill="none" stroke="#b917e6" stroke-width="1.00000"  />
<path d="M 237.798 541.152 L 357.831 531.460" fill="none" stroke="#b917e6" stroke-width="1.00000"  />
<path d="M 242.892 531.180 L 365.195 545.206" fill="none" stroke="#b917e6" stroke-width="1.00000"  />
<path d="M 247.986 521.207 L 372.558 558.953" fill="none" stroke="#b917e6" stroke-width="1.00000"  />
<path d="M 253.080 511.235 L 379.921 572.700" fill="none" stroke="#b917e6" stroke-width="1.00000"  />
<path d="M 258.174 501.263 L 387.285 586.447" fill="none" stroke="#b917e6" stroke-width="1.00000"  />
<path d="M 263.268 491.290 L 394.648 600.194" fill="none" stroke="#b917e6" stroke-width="1.00000"  />
<path d="M 268.362 481.318 L 402.011 613.941" fill="none" stroke="#b917e6" stroke-width="1.00000"  />
<path d="M 273.455 471.346 L 409.375 627.688" fill="none" stroke="#b917e6" stroke-width="1.00000"  />
<path d="M 278.549 461.373 L 416.738 641.435" fill="none" stroke="#b917e6" stroke-width="1.00000"  />
<path d="M 283.643 451.401 L 424.101 655.182" fill="none" stroke="#b917e6" stroke-width="1.00000"  />
<path d="M 288.737 441.429 L 431.465 668.929" fill="none" stroke="#b917e6" stroke-width="1.00000"  />
<path d="M 293.831 431.456 L 438.828 682.676" fill="none" stroke="#b917e6" stroke-width="1.00000"  />
<path d="M 298.925 421.484 L 446.191 696.423" fill="none" stroke="#b917e6" stroke-width="1.00000"  />
<path d="M 298.925 421.484 L 197.047 620.930" fill="none" stroke="#b917e6" stroke-width="1.00000"  />
<path d="M 289.015 419.364 L 202.141 610.958" fill="none" stroke="#b917e6" stroke-width="1.00000"  />
<path d="M 279.105 417.243 L 207.235 600.986" fill="none" stroke="#b917e6" stroke-width="1.00000"  />
<path d="M 269.196 415.123 L 212.329 591.013" fill="none" stroke="#b917e6" stroke-width="1.00000"  />
<path d="M 259.286 413.002 L 217.423 581.041" fill="none" stroke="#b917e6" stroke-width="1.00000"  />
<path d="M 249.376 410.881 L 222.517 571.069" fill="none" stroke="#b917e6" stroke-width="1.00000"  />
<path d="M 239.467 408.761 L 227.611 561.097" fill="none" stroke="#b917e6" stroke-width="1.00000"  />
<path d="M 229.557 406.640 L 232.704 551.124" fill="none" stroke="#b917e6" stroke-width="1.00000"  />
<path d="M 219.647 404.520 L 237.798 541.152" fill="none" stroke="#b917e6" stroke-width="1.00000"  />
<path d="M 209.738 402.399 L 242.892 531.180" fill="none" stroke="#b917e6" stroke-width="1.00000"  />
<path d="M 199.828 400.279 L 247.986 521.207" fill="none" stroke="#b917e6" stroke-width="1.00000"  />
<path d="M 189.918 398.158 L 253.080 511.235" fill="none" stroke="#b917e6" stroke-width="1.00000"  />
<path d="M 180.008 396.038 L 258.174 501.263" fill="none" stroke="#b917e6" stroke-width="1.00000"  />
<path d="M 170.099 393.917 L 263.268 491.290" fill="none" stroke="#b917e6" stroke-width="1.00000"  />
<path d="M 160.189 391.796 L 268.362 481.318" fill="none" stroke="#b917e6" stroke-width="1.00000"  />
<path d="M 150.279 389.676 L 273.455 471.346" fill="none" stroke="#b917e6" stroke-width="1.00000"  />
<path d="M 140.370 387.555 L 278.549 461.373" fill="none" stroke="#b917e6" stroke-width="1.00000"  />
<path d="M 130.460 385.435 L 283.643 451.401" fill="none" stroke="#b917e6" stroke-width="1.00000"  />
<path d="M 120.550 383.314 L 288.737 441.429" fill="none" stroke="#b917e6" stroke-width="1.00000"  />
<path d="M 110.640 381.194 L 293.831 431.456" fill="none" stroke="#b917e6" stroke-width="1.00000"  />
<path d="M 100.731 379.073 L 298.925 421.484" fill="none" stroke="#b917e6" stroke-width="1.00000"  />
<path d="M 100.731 379.073 L 298.925 421.484" fill="none" stroke="#b917e6" stroke-width="1.00000"  />
<path d="M 110.640 381.194 L 293.831 431.456" fill="none" stroke="#b917e6" stroke-width="1.00000"  />
<path d="M 120.550 383.314 L 288.737 441.429" fill="none" stroke="#b917e6" stroke-width="1.00000"  />
<path d="M 130.460 385.435 L 283.643 451.401" fill="none" stroke="#b917e6" stroke-width="1.00000"  />
<path d="M 140.370 387.555 L 278.549 461.373" fill="none" stroke="#b917e6" stroke-width="1.00000"  />
<path d="M 150.279 389.676 L 273.455 471.346" fill="none" stroke="#b917e6" stroke-width="1.00000"  />
<path d="M 160.189 391.796 L 268.362 481.318" fill="none" stroke="#b917e6" stroke-width="1.00000"  />
<path d="M 170.099 393.917 L 263.268 491.290" fill="none" stroke="#b917e6" stroke-width="1.00000"  />
<path d="M 180.008 396.038 L 258.174 501.263" fill="none" stroke="#b917e6" stroke-width="1.00000"  />
<path d="M 189.918 398.158 L 253.080 511.235" fill="none" stroke="#b917e6" stroke-width="1.00000"  />
<path d="M 199.828 400.279 L 247.986 521.207" fill="none" stroke="#b917e6" stroke-width="1.00000"  />
<path d="M 209.738 402.399 L 242.892 531.180" fill="none" stroke="#b917e6" stroke-width="1.00000"  />
<path d="M 219.647 404.520 L 237.798 541.152" fill="none" stroke="#b917e6" stroke-width="1.00000"  />
<path d="M 229.557 406.640 L 232.704 551.124" fill="none" stroke="#b917e6" stroke-width="1.00000"  />
<path d="M 239.467 408.761 L 227.611 561.097" fill="none" stroke="#b917e6" stroke-width="1.00000"  />
<path d="M 249.376 410.881 L 222.517 571.069" fill="none" stroke="#b917e6" stroke-width="1.00000"  />
<path d="M 259.286 413.002 L 217.423 581.041" fill="none" stroke="#b917e6" stroke-width="1.00000"  />
<path d="M 269.196 415.123 L 212.329 591.013" fill="none" stroke="#b917e6" stroke-width="1.00000"  />
<path d="M 279.105 417.243 L 207.235 600.986" fill="none" stroke="#b917e6" stroke-width="1.00000"  />
<path d="M 289.015 419.364 L 202.141 610.958" fill="none" stroke="#b917e6" stroke-width="1.00000"  />
<path d="M 298.925 421.484 L 197.047 620.930" fill="none" stroke="#b917e6" stroke-width="1.00000"  />
</svg>
