<?xml version="1.0" encoding="UTF-8" standalone="no"?>
<!-- Created with Inkscape (http://www.inkscape.org/) -->

<svg
   width="92.146095mm"
   height="94.20266mm"
   viewBox="0 0 92.146095 94.20266"
   version="1.1"
   id="svg1"
   xml:space="preserve"
   xmlns:inkscape="http://www.inkscape.org/namespaces/inkscape"
   xmlns:sodipodi="http://sodipodi.sourceforge.net/DTD/sodipodi-0.dtd"
   xmlns="http://www.w3.org/2000/svg"
   xmlns:svg="http://www.w3.org/2000/svg"><sodipodi:namedview
     id="namedview1"
     pagecolor="#ffffff"
     bordercolor="#000000"
     borderopacity="0.25"
     inkscape:showpageshadow="2"
     inkscape:pageopacity="0.0"
     inkscape:pagecheckerboard="0"
     inkscape:deskcolor="#d1d1d1"
     inkscape:document-units="mm" /><defs
     id="defs1" /><g
     inkscape:label="Layer 1"
     inkscape:groupmode="layer"
     id="layer1"
     transform="translate(-59.029104,-101.27065)"><g
       id="g1"
       transform="matrix(0.26458333,0,0,0.26458333,-2.9478578,42.407288)"><path
         d="m 410.919,227.041 1.6,-0.354 1.617,-0.325 1.635,-0.295 1.65,-0.263 1.666,-0.232 1.679,-0.199 1.693,-0.167 1.704,-0.134 1.716,-0.099 1.725,-0.066 1.733,-0.03 1.742,0.004 1.747,0.039 1.753,0.075 1.757,0.11 1.76,0.147 1.762,0.182 1.762,0.219 1.762,0.255 1.76,0.291 1.758,0.328 1.753,0.363 1.748,0.399 1.741,0.436 1.734,0.471 1.725,0.506 1.715,0.541 1.705,0.576 1.692,0.611 1.679,0.644 1.664,0.678 1.65,0.711 1.633,0.744 1.615,0.775 1.597,0.807 1.577,0.838 1.557,0.867 1.536,0.897 1.514,0.925 1.49,0.953 1.466,0.98 1.442,1.006 1.416,1.032 1.389,1.055 1.363,1.079 1.335,1.102 1.306,1.123 1.277,1.144 1.248,1.163 1.218,1.181 1.187,1.199 1.156,1.215 1.124,1.231 1.092,1.244 1.061,1.258 1.027,1.269 0.995,1.28 0.962,1.29 0.929,1.298 0.896,1.305 0.862,1.312 0.829,1.317 0.795,1.32 0.762,1.323 0.728,1.325 0.696,1.325 0.663,1.324 0.629,1.322 0.598,1.319 0.565,1.315 0.533,1.31 0.502,1.304 0.471,1.296 0.44,1.288 0.41,1.278 0.381,1.268 0.351,1.256 0.323,1.244 0.296,1.231 0.268,1.216 0.242,1.201 0.216,1.185 0.192,1.168 0.167,1.151 0.145,1.132 0.122,1.113 0.1,1.093 0.08,1.073 0.061,1.052 0.042,1.029 0.024,1.008 0.007,0.985 -0.008,0.961 -0.023,0.938 -0.036,0.913 -0.049,0.889 -0.06,0.865 -0.071,0.839 -0.08,0.814 -0.088,0.789 -0.095,0.762 -0.102,0.737 -0.106,0.712 -0.109,0.685 -0.113,0.66 -0.114,0.634 -0.114,0.608 -0.114,0.583 -0.111,0.558 -0.109,0.532 -0.106,0.508 -0.1,0.483 -0.094,0.459 -0.087,0.436 -0.079,0.412 -0.07,0.389 -0.06,0.367 -0.049,0.346 -0.037,0.324 -0.024,0.303 -0.01,0.284 0.004,0.265 0.02,0.246 0.035,0.228 0.053,0.212 0.07,0.195 0.089,0.18 0.108,0.166 0.128,0.152 0.148,0.139 0.168,0.128 0.191,0.117 0.212,0.108 0.234,0.099 0.258,0.091 0.28,0.084 0.305,0.079 0.327,0.074 0.352,0.071 0.377,0.068 0.4,0.067 0.425,0.067 0.45,0.068 0.475,0.069 0.499,0.073 0.524,0.077 0.549,0.082 0.573,0.089 0.597,0.096 0.622,0.104 0.645,0.114 0.669,0.125 0.692,0.137 0.714,0.149 0.738,0.164 0.759,0.178 0.78,0.194 0.802,0.211 0.821,0.228 0.842,0.248 0.861,0.267 0.879,0.287 0.896,0.309 0.914,0.331 0.93,0.354 0.945,0.378 0.96,0.403 0.973,0.428 0.987,0.453 0.998,0.481 1.008,0.507 1.019,0.535 1.028,0.564 1.036,0.592 1.042,0.622 1.049,0.652 1.053,0.681 1.056,0.712 1.06,0.743 1.061,0.774 1.061,0.805 1.06,0.837 1.059,0.868 1.055,0.899 1.052,0.932 1.046,0.963 1.039,0.995 1.032,1.027 1.023,1.058 1.013,1.089 1.002,1.121 0.99,1.151 0.977,1.182 0.962,1.213 0.947,1.242 0.93,1.272 0.912,1.301 0.894,1.329 0.874,1.357 0.854,1.385 0.831,1.412 0.809,1.438 0.785,1.464 0.761,1.488 0.735,1.512 0.709,1.536 0.681,1.558 0.654,1.58 0.625,1.601 0.595,1.62 0.565,1.639 0.534,1.658 0.503,1.674 0.47,1.69 0.438,1.705 0.405,1.72 0.371,1.732 0.336,1.743 0.302,1.755 0.267,1.764 0.232,1.772 0.196,1.78 0.16,1.785 0.124,1.791 0.088,1.795 0.052,1.797 0.015,1.798 -0.021,1.799 -0.058,1.798 -0.094,1.796 -0.13,1.793 -0.167,1.788 -0.203,1.783 -0.238,1.776 -0.274,1.768 -0.309,1.759 -0.344,1.749 -0.378,1.738 -0.412,1.725 -0.446,1.712 -0.479,1.697 -0.511,1.682 -0.544,1.665 -0.574,1.648 -0.606,1.629 -0.635,1.61 -0.664,1.59 -0.693,1.568 -0.721,1.546 -0.747,1.523 -0.773,1.5 -0.799,1.474 -0.823,1.45 -0.846,1.424 -0.868,1.397 -0.89,1.369 -0.91,1.342 -0.929,1.313 -0.948,1.285 -0.964,1.255 -0.981,1.225 -0.996,1.195 -1.01,1.165 -1.023,1.133 -1.035,1.103 -1.045,1.071 -1.055,1.039 -1.063,1.008 -1.07,0.975 -1.076,0.944 -1.081,0.912 -1.084,0.88 -1.088,0.848 -1.088,0.817 -1.089,0.785 -1.089,0.754 -1.086,0.722 -1.083,0.692 -1.079,0.661 -1.074,0.631 -1.067,0.602 -1.061,0.572 -1.051,0.543 -1.043,0.515 -1.032,0.487 -1.021,0.46 -1.009,0.433 -0.995,0.408 -0.981,0.382 -0.967,0.358 -0.951,0.334 -0.934,0.312 -0.917,0.289 -0.899,0.268 -0.88,0.248 -0.86,0.228 -0.841,0.21 -0.82,0.192 -0.799,0.176 -0.777,0.159 -0.755,0.146 -0.732,0.131 -0.71,0.119 -0.685,0.108 -0.663,0.097 -0.638,0.087 -0.614,0.079 -0.589,0.072 -0.565,0.066 -0.54,0.061 -0.515,0.057 -0.491,0.054 -0.466,0.053 -0.441,0.051 -0.416,0.053 -0.392,0.053 -0.367,0.057 -0.344,0.06 -0.32,0.065 -0.296,0.071 -0.273,0.078 -0.25,0.085 -0.228,0.095 -0.207,0.104 -0.184,0.116 -0.165,0.127 -0.143,0.14 -0.125,0.154 -0.105,0.169 -0.087,0.183 -0.069,0.2 -0.053,0.218 -0.037,0.235 -0.021,0.253 -0.007,0.273 0.006,0.293 0.019,0.314 0.031,0.334 0.042,0.357 0.051,0.379 0.06,0.402 0.068,0.425 0.075,0.449 0.08,0.473 0.085,0.497 0.089,0.522 0.091,0.547 0.093,0.572 0.094,0.598 0.092,0.623 0.091,0.649 0.088,0.675 0.084,0.7 0.078,0.726 0.073,0.752 0.065,0.777 0.057,0.802 0.047,0.828 0.036,0.852 0.025,0.877 0.012,0.901 -0.002,0.925 -0.016,0.948 -0.033,0.971 -0.05,0.994 -0.067,1.016 -0.086,1.037 -0.106,1.058 -0.127,1.078 -0.148,1.097 -0.171,1.117 -0.194,1.134 -0.219,1.152 -0.243,1.168 -0.269,1.183 -0.296,1.199 -0.323,1.212 -0.35,1.225 -0.379,1.237 -0.409,1.248 -0.437,1.258 -0.468,1.267 -0.499,1.275 -0.529,1.282 -0.561,1.288 -0.593,1.292 -0.625,1.296 -0.658,1.299 -0.69,1.3 -0.723,1.3 -0.756,1.299 -0.789,1.298 -0.823,1.294 -0.855,1.29 -0.889,1.284 -0.922,1.278 -0.956,1.269 -0.988,1.261 -1.021,1.251 -1.053,1.239 -1.086,1.228 -1.117,1.213 -1.15,1.199 -1.18,1.183 -1.211,1.167 -1.242,1.149 -1.271,1.129 -1.301,1.11 -1.329,1.089 -1.357,1.067 -1.384,1.044 -1.412,1.02 -1.437,0.996 -1.462,0.969 -1.486,0.944 -1.51,0.916 -1.533,0.888 -1.554,0.858 -1.575,0.83 -1.595,0.799 -1.615,0.768 -1.631,0.736 -1.649,0.705 -1.665,0.671 -1.68,0.638 -1.693,0.605 -1.706,0.57 -1.717,0.536 -1.728,0.5 -1.737,0.466 -1.745,0.43 -1.753,0.394 -1.758,0.358 -1.762,0.322 -1.766,0.286 -1.769,0.25 -1.769,0.213 -1.77,0.177 -1.768,0.141 -1.766,0.105 -1.762,0.07 -1.758,0.033 -1.752,-0.002 -1.744,-0.038 -1.737,-0.072 -1.727,-0.106 -1.717,-0.141 -1.706,-0.174 -1.693,-0.208 -1.68,-0.24 -1.664,-0.272 -1.65,-0.304 -1.633,-0.334 -1.615,-0.365 -1.597,-0.394 -1.578,-0.423 -1.557,-0.451 -1.536,-0.478 -1.515,-0.504 -1.492,-0.53 -1.468,-0.554 -1.444,-0.578 -1.42,-0.601 -1.394,-0.623 -1.368,-0.643 -1.342,-0.663 -1.314,-0.682 -1.287,-0.699 -1.258,-0.717 -1.231,-0.731 -1.201,-0.747 -1.172,-0.759 -1.143,-0.772 -1.113,-0.783 -1.083,-0.793 -1.053,-0.802 -1.023,-0.81 -0.992,-0.817 -0.963,-0.821 -0.932,-0.827 -0.901,-0.829 -0.872,-0.832 -0.842,-0.832 -0.812,-0.833 -0.782,-0.831 -0.753,-0.828 -0.724,-0.826 -0.695,-0.821 -0.667,-0.815 -0.639,-0.808 -0.612,-0.801 -0.585,-0.792 -0.558,-0.783 -0.533,-0.772 -0.507,-0.761 -0.483,-0.748 -0.46,-0.734 -0.436,-0.721 -0.414,-0.706 -0.392,-0.689 -0.371,-0.673 -0.352,-0.656 -0.332,-0.638 -0.314,-0.619 -0.297,-0.6 -0.28,-0.58 -0.265,-0.559 -0.251,-0.538 -0.237,-0.517 -0.225,-0.495 -0.213,-0.472 -0.203,-0.45 -0.194,-0.427 -0.186,-0.403 -0.178,-0.38 -0.172,-0.356 -0.168,-0.333 -0.163,-0.308 -0.161,-0.284 -0.159,-0.26 -0.158,-0.235 -0.159,-0.212 -0.16,-0.187 -0.163,-0.164 -0.167,-0.14 -0.172,-0.117 -0.178,-0.094 -0.184,-0.07 -0.193,-0.048 -0.202,-0.026 -0.212,-0.004 -0.222,0.017 -0.235,0.037 -0.248,0.058 -0.262,0.078 -0.276,0.097 -0.293,0.115 -0.309,0.132 -0.326,0.15 -0.344,0.166 -0.364,0.181 -0.383,0.196 -0.404,0.21 -0.425,0.223 -0.447,0.234 -0.469,0.246 -0.492,0.256 -0.515,0.265 -0.54,0.274 -0.564,0.28 -0.589,0.287 -0.615,0.292 -0.64,0.296 -0.666,0.299 -0.693,0.302 -0.718,0.302 -0.746,0.301 -0.772,0.301 -0.8,0.298 -0.826,0.295 -0.853,0.289 -0.88,0.285 -0.907,0.277 -0.934,0.269 -0.96,0.26 -0.987,0.25 -1.013,0.238 -1.039,0.226 -1.065,0.213 -1.089,0.198 -1.115,0.182 -1.139,0.166 -1.163,0.148 -1.186,0.13 -1.208,0.11 -1.232,0.089 -1.252,0.067 -1.274,0.046 -1.293,0.021 -1.313,-0.002 -1.332,-0.028 -1.35,-0.053 -1.366,-0.08 -1.383,-0.108 -1.398,-0.136 -1.413,-0.164 -1.425,-0.194 -1.439,-0.224 -1.449,-0.255 -1.46,-0.285 -1.47,-0.318 -1.477,-0.35 -1.485,-0.382 -1.491,-0.415 -1.496,-0.449 -1.5,-0.482 -1.503,-0.516 -1.505,-0.55 -1.505,-0.585 -1.504,-0.619 -1.503,-0.653 -1.499,-0.688 -1.496,-0.722 -1.49,-0.757 -1.484,-0.792 -1.476,-0.826 -1.467,-0.86 -1.457,-0.893 -1.447,-0.928 -1.434,-0.961 -1.42,-0.994 -1.407,-1.027 -1.391,-1.059 -1.374,-1.091 -1.356,-1.122 -1.338,-1.153 -1.318,-1.183 -1.297,-1.213 -1.276,-1.242 -1.253,-1.27 -1.229,-1.298 -1.204,-1.324 -1.18,-1.351 -1.153,-1.376 -1.126,-1.4 -1.098,-1.423 -1.069,-1.447 -1.04,-1.467 -1.011,-1.489 -0.979,-1.508 -0.948,-1.527 -0.917,-1.545 -0.884,-1.561 -0.851,-1.577 -0.817,-1.591 -0.784,-1.605 -0.75,-1.617 -0.715,-1.628 -0.681,-1.638 -0.645,-1.647 -0.611,-1.655 -0.575,-1.661 -0.539,-1.667 -0.504,-1.671 -0.468,-1.674 -0.432,-1.676 -0.397,-1.676 -0.361,-1.676 -0.326,-1.674 -0.29,-1.672 -0.256,-1.667 -0.221,-1.663 -0.186,-1.656 -0.153,-1.649 -0.118,-1.641 -0.086,-1.631 -0.052,-1.62 -0.02,-1.609 0.011,-1.596 0.043,-1.583 0.074,-1.568 0.103,-1.552 0.133,-1.536 0.161,-1.518 0.189,-1.5 0.216,-1.481 0.242,-1.46 0.268,-1.44 0.292,-1.419 0.316,-1.396 0.339,-1.373 0.36,-1.35 0.381,-1.325 0.401,-1.3 0.419,-1.276 0.438,-1.249 0.454,-1.223 0.469,-1.196 0.485,-1.169 0.497,-1.142 0.511,-1.114 0.521,-1.086 0.532,-1.058 0.541,-1.029 0.548,-1.001 0.556,-0.972 0.561,-0.943 0.566,-0.915 0.569,-0.887 0.571,-0.857 0.573,-0.83 0.573,-0.801 0.572,-0.773 0.569,-0.745 0.567,-0.718 0.562,-0.69 0.557,-0.664 0.55,-0.637 0.543,-0.612 0.535,-0.586 0.526,-0.561 0.515,-0.537 0.504,-0.513 0.491,-0.49 0.479,-0.468 0.465,-0.446 0.45,-0.425 0.434,-0.404 0.418,-0.386 0.402,-0.367 0.383,-0.348 0.365,-0.333 0.346,-0.316 0.327,-0.301 0.306,-0.287 0.285,-0.274 0.264,-0.261 0.243,-0.251 0.22,-0.241 0.198,-0.231 0.176,-0.224 0.152,-0.216 0.129,-0.211 0.105,-0.205 0.082,-0.202 0.058,-0.2 0.034,-0.198 0.01,-0.197 -0.014,-0.198 -0.038,-0.2 -0.061,-0.203 -0.085,-0.206 -0.109,-0.212 -0.132,-0.218 -0.154,-0.225 -0.178,-0.233 -0.199,-0.242 -0.222,-0.253 -0.243,-0.264 -0.264,-0.277 -0.285,-0.289 -0.305,-0.304 -0.324,-0.32 -0.343,-0.335 -0.361,-0.352 -0.379,-0.37 -0.396,-0.389 -0.411,-0.409 -0.427,-0.429 -0.441,-0.449 -0.455,-0.472 -0.468,-0.494 -0.479,-0.518 -0.491,-0.541 -0.5,-0.565 -0.509,-0.59 -0.518,-0.616 -0.524,-0.642 -0.531,-0.668 -0.535,-0.695 -0.54,-0.721 -0.542,-0.75 -0.544,-0.777 -0.544,-0.805 -0.544,-0.833 -0.543,-0.861 -0.54,-0.89 -0.536,-0.918 -0.531,-0.947 -0.525,-0.975 -0.518,-1.003 -0.51,-1.032 -0.5,-1.06 -0.489,-1.088 -0.478,-1.116 -0.466,-1.144 -0.451,-1.17 -0.436,-1.197 -0.421,-1.224 -0.403,-1.249 -0.386,-1.276 -0.366,-1.3 -0.346,-1.324 -0.325,-1.348 -0.303,-1.372 -0.28,-1.394 -0.256,-1.416 -0.232,-1.437 -0.205,-1.457 -0.18,-1.477 -0.152,-1.496 -0.124,-1.513 -0.095,-1.531 -0.066,-1.546 -0.036,-1.561 -0.004,-1.576 0.026,-1.589 0.058,-1.601 0.091,-1.612 0.124,-1.622 0.157,-1.631 0.191,-1.638 0.225,-1.646 0.259,-1.651 0.294,-1.656 0.33,-1.659 0.364,-1.661 0.4,-1.662 0.435,-1.662 0.471,-1.661 0.506,-1.659 0.542,-1.654 0.578,-1.65 0.613,-1.644 0.648,-1.637 0.683,-1.629 0.718,-1.619 0.753,-1.609 0.787,-1.596 0.82,-1.584 0.855,-1.57 0.887,-1.555 0.92,-1.539 0.952,-1.522 0.984,-1.504 1.015,-1.484 1.044,-1.464 1.075,-1.443 1.104,-1.42 1.131,-1.398 1.16,-1.374 1.185,-1.349 1.212,-1.323 1.237,-1.296 1.261,-1.27 1.283,-1.241 1.307,-1.213 1.327,-1.184 1.348,-1.153 1.367,-1.123 1.385,-1.092 1.402,-1.06 1.419,-1.028 1.433,-0.995 1.447,-0.962 1.46,-0.929 1.472,-0.896 1.483,-0.861 1.491,-0.828 1.5,-0.792 1.507,-0.759 1.513,-0.724 1.518,-0.689 1.521,-0.654 1.524,-0.62 1.524,-0.585 1.525,-0.551 1.524,-0.516 1.522,-0.482 1.518,-0.449 1.514,-0.414 1.508,-0.382 1.502,-0.348 1.494,-0.316 1.484,-0.283 1.475,-0.253 1.465,-0.221 1.452,-0.19 1.439,-0.16 1.425,-0.131 1.411,-0.103 1.395,-0.074 1.378,-0.047 1.361,-0.021 1.342,0.005 1.323,0.03 1.304,0.054 1.283,0.077 1.261,0.099 1.24,0.121 1.217,0.141 1.194,0.16 1.17,0.179 1.146,0.196 1.122,0.213 1.096,0.228 1.071,0.242 1.045,0.255 1.018,0.268 0.993,0.278 0.965,0.288 0.939,0.298 0.912,0.305 0.885,0.311 0.858,0.317 0.83,0.321 0.803,0.325 0.777,0.326 0.749,0.328 0.723,0.327 0.696,0.327 0.67,0.324 0.643,0.32 0.619,0.316 0.592,0.311 0.568,0.304 0.543,0.297 0.519,0.288 0.496,0.279 0.473,0.268 0.45,0.257 0.429,0.245 0.407,0.231 0.388,0.217 0.367,0.203 0.349,0.187 0.33,0.17 0.314,0.153 0.297,0.136 0.281,0.116 0.267,0.098 0.252,0.078 0.241,0.057 0.228,0.037 0.217,0.015 0.208,-0.006 0.198,-0.029 0.191,-0.052 0.184,-0.074 0.179,-0.098 0.174,-0.121 0.17,-0.144 0.168,-0.169 0.166,-0.193 0.166,-0.216 0.167,-0.241 0.169,-0.265 0.172,-0.289 0.176,-0.313 0.181,-0.336 0.188,-0.361 0.195,-0.383 0.203,-0.407 0.213,-0.43 0.223,-0.453 0.236,-0.474 0.247,-0.497 0.261,-0.517 0.276,-0.539 0.292,-0.558 0.308,-0.579 0.325,-0.597 0.344,-0.616 0.363,-0.634 0.383,-0.65 0.404,-0.667 0.426,-0.682 0.448,-0.698 0.472,-0.71 0.495,-0.724 0.52,-0.736 0.545,-0.748 0.571,-0.757 0.597,-0.767 0.624,-0.775 0.652,-0.782 0.679,-0.788 0.708,-0.794 0.736,-0.797 0.765,-0.801 0.795,-0.803 0.823,-0.803 0.854,-0.804 0.884,-0.802 0.913,-0.799 0.944,-0.796 0.973,-0.791 1.004,-0.785 1.034,-0.778 1.064,-0.77 1.093,-0.76 1.123,-0.75 1.153,-0.739 1.182,-0.725 1.211,-0.712 1.239,-0.697 1.268,-0.682 1.295,-0.664 1.322,-0.646 1.349,-0.627 1.376,-0.606 1.401,-0.586 1.426,-0.564 1.45,-0.54 1.474,-0.517 1.497,-0.491 1.519,-0.466 1.541,-0.439 1.561,-0.412 z"
         fill="#7292aa"
         fill-opacity="0.8"
         id="path1" /><path
         d="m 410.919,227.041 1.6,-0.354 1.617,-0.325 1.635,-0.295 1.65,-0.263 1.666,-0.232 1.679,-0.199 1.693,-0.167 1.704,-0.134 1.716,-0.099 1.725,-0.066 1.733,-0.03 1.742,0.004 1.747,0.039 1.753,0.075 1.757,0.11 1.76,0.147 1.762,0.182 1.762,0.219 1.762,0.255 1.76,0.291 1.758,0.328 1.753,0.363 1.748,0.399 1.741,0.436 1.734,0.471 1.725,0.506 1.715,0.541 1.705,0.576 1.692,0.611 1.679,0.644 1.664,0.678 1.65,0.711 1.633,0.744 1.615,0.775 1.597,0.807 1.577,0.838 1.557,0.867 1.536,0.897 1.514,0.925 1.49,0.953 1.466,0.98 1.442,1.006 1.416,1.032 1.389,1.055 1.363,1.079 1.335,1.102 1.306,1.123 1.277,1.144 1.248,1.163 1.218,1.181 1.187,1.199 1.156,1.215 1.124,1.231 1.092,1.244 1.061,1.258 1.027,1.269 0.995,1.28 0.962,1.29 0.929,1.298 0.896,1.305 0.862,1.312 0.829,1.317 0.795,1.32 0.762,1.323 0.728,1.325 0.696,1.325 0.663,1.324 0.629,1.322 0.598,1.319 0.565,1.315 0.533,1.31 0.502,1.304 0.471,1.296 0.44,1.288 0.41,1.278 0.381,1.268 0.351,1.256 0.323,1.244 0.296,1.231 0.268,1.216 0.242,1.201 0.216,1.185 0.192,1.168 0.167,1.151 0.145,1.132 0.122,1.113 0.1,1.093 0.08,1.073 0.061,1.052 0.042,1.029 0.024,1.008 0.007,0.985 -0.008,0.961 -0.023,0.938 -0.036,0.913 -0.049,0.889 -0.06,0.865 -0.071,0.839 -0.08,0.814 -0.088,0.789 -0.095,0.762 -0.102,0.737 -0.106,0.712 -0.109,0.685 -0.113,0.66 -0.114,0.634 -0.114,0.608 -0.114,0.583 -0.111,0.558 -0.109,0.532 -0.106,0.508 -0.1,0.483 -0.094,0.459 -0.087,0.436 -0.079,0.412 -0.07,0.389 -0.06,0.367 -0.049,0.346 -0.037,0.324 -0.024,0.303 -0.01,0.284 0.004,0.265 0.02,0.246 0.035,0.228 0.053,0.212 0.07,0.195 0.089,0.18 0.108,0.166 0.128,0.152 0.148,0.139 0.168,0.128 0.191,0.117 0.212,0.108 0.234,0.099 0.258,0.091 0.28,0.084 0.305,0.079 0.327,0.074 0.352,0.071 0.377,0.068 0.4,0.067 0.425,0.067 0.45,0.068 0.475,0.069 0.499,0.073 0.524,0.077 0.549,0.082 0.573,0.089 0.597,0.096 0.622,0.104 0.645,0.114 0.669,0.125 0.692,0.137 0.714,0.149 0.738,0.164 0.759,0.178 0.78,0.194 0.802,0.211 0.821,0.228 0.842,0.248 0.861,0.267 0.879,0.287 0.896,0.309 0.914,0.331 0.93,0.354 0.945,0.378 0.96,0.403 0.973,0.428 0.987,0.453 0.998,0.481 1.008,0.507 1.019,0.535 1.028,0.564 1.036,0.592 1.042,0.622 1.049,0.652 1.053,0.681 1.056,0.712 1.06,0.743 1.061,0.774 1.061,0.805 1.06,0.837 1.059,0.868 1.055,0.899 1.052,0.932 1.046,0.963 1.039,0.995 1.032,1.027 1.023,1.058 1.013,1.089 1.002,1.121 0.99,1.151 0.977,1.182 0.962,1.213 0.947,1.242 0.93,1.272 0.912,1.301 0.894,1.329 0.874,1.357 0.854,1.385 0.831,1.412 0.809,1.438 0.785,1.464 0.761,1.488 0.735,1.512 0.709,1.536 0.681,1.558 0.654,1.58 0.625,1.601 0.595,1.62 0.565,1.639 0.534,1.658 0.503,1.674 0.47,1.69 0.438,1.705 0.405,1.72 0.371,1.732 0.336,1.743 0.302,1.755 0.267,1.764 0.232,1.772 0.196,1.78 0.16,1.785 0.124,1.791 0.088,1.795 0.052,1.797 0.015,1.798 -0.021,1.799 -0.058,1.798 -0.094,1.796 -0.13,1.793 -0.167,1.788 -0.203,1.783 -0.238,1.776 -0.274,1.768 -0.309,1.759 -0.344,1.749 -0.378,1.738 -0.412,1.725 -0.446,1.712 -0.479,1.697 -0.511,1.682 -0.544,1.665 -0.574,1.648 -0.606,1.629 -0.635,1.61 -0.664,1.59 -0.693,1.568 -0.721,1.546 -0.747,1.523 -0.773,1.5 -0.799,1.474 -0.823,1.45 -0.846,1.424 -0.868,1.397 -0.89,1.369 -0.91,1.342 -0.929,1.313 -0.948,1.285 -0.964,1.255 -0.981,1.225 -0.996,1.195 -1.01,1.165 -1.023,1.133 -1.035,1.103 -1.045,1.071 -1.055,1.039 -1.063,1.008 -1.07,0.975 -1.076,0.944 -1.081,0.912 -1.084,0.88 -1.088,0.848 -1.088,0.817 -1.089,0.785 -1.089,0.754 -1.086,0.722 -1.083,0.692 -1.079,0.661 -1.074,0.631 -1.067,0.602 -1.061,0.572 -1.051,0.543 -1.043,0.515 -1.032,0.487 -1.021,0.46 -1.009,0.433 -0.995,0.408 -0.981,0.382 -0.967,0.358 -0.951,0.334 -0.934,0.312 -0.917,0.289 -0.899,0.268 -0.88,0.248 -0.86,0.228 -0.841,0.21 -0.82,0.192 -0.799,0.176 -0.777,0.159 -0.755,0.146 -0.732,0.131 -0.71,0.119 -0.685,0.108 -0.663,0.097 -0.638,0.087 -0.614,0.079 -0.589,0.072 -0.565,0.066 -0.54,0.061 -0.515,0.057 -0.491,0.054 -0.466,0.053 -0.441,0.051 -0.416,0.053 -0.392,0.053 -0.367,0.057 -0.344,0.06 -0.32,0.065 -0.296,0.071 -0.273,0.078 -0.25,0.085 -0.228,0.095 -0.207,0.104 -0.184,0.116 -0.165,0.127 -0.143,0.14 -0.125,0.154 -0.105,0.169 -0.087,0.183 -0.069,0.2 -0.053,0.218 -0.037,0.235 -0.021,0.253 -0.007,0.273 0.006,0.293 0.019,0.314 0.031,0.334 0.042,0.357 0.051,0.379 0.06,0.402 0.068,0.425 0.075,0.449 0.08,0.473 0.085,0.497 0.089,0.522 0.091,0.547 0.093,0.572 0.094,0.598 0.092,0.623 0.091,0.649 0.088,0.675 0.084,0.7 0.078,0.726 0.073,0.752 0.065,0.777 0.057,0.802 0.047,0.828 0.036,0.852 0.025,0.877 0.012,0.901 -0.002,0.925 -0.016,0.948 -0.033,0.971 -0.05,0.994 -0.067,1.016 -0.086,1.037 -0.106,1.058 -0.127,1.078 -0.148,1.097 -0.171,1.117 -0.194,1.134 -0.219,1.152 -0.243,1.168 -0.269,1.183 -0.296,1.199 -0.323,1.212 -0.35,1.225 -0.379,1.237 -0.409,1.248 -0.437,1.258 -0.468,1.267 -0.499,1.275 -0.529,1.282 -0.561,1.288 -0.593,1.292 -0.625,1.296 -0.658,1.299 -0.69,1.3 -0.723,1.3 -0.756,1.299 -0.789,1.298 -0.823,1.294 -0.855,1.29 -0.889,1.284 -0.922,1.278 -0.956,1.269 -0.988,1.261 -1.021,1.251 -1.053,1.239 -1.086,1.228 -1.117,1.213 -1.15,1.199 -1.18,1.183 -1.211,1.167 -1.242,1.149 -1.271,1.129 -1.301,1.11 -1.329,1.089 -1.357,1.067 -1.384,1.044 -1.412,1.02 -1.437,0.996 -1.462,0.969 -1.486,0.944 -1.51,0.916 -1.533,0.888 -1.554,0.858 -1.575,0.83 -1.595,0.799 -1.615,0.768 -1.631,0.736 -1.649,0.705 -1.665,0.671 -1.68,0.638 -1.693,0.605 -1.706,0.57 -1.717,0.536 -1.728,0.5 -1.737,0.466 -1.745,0.43 -1.753,0.394 -1.758,0.358 -1.762,0.322 -1.766,0.286 -1.769,0.25 -1.769,0.213 -1.77,0.177 -1.768,0.141 -1.766,0.105 -1.762,0.07 -1.758,0.033 -1.752,-0.002 -1.744,-0.038 -1.737,-0.072 -1.727,-0.106 -1.717,-0.141 -1.706,-0.174 -1.693,-0.208 -1.68,-0.24 -1.664,-0.272 -1.65,-0.304 -1.633,-0.334 -1.615,-0.365 -1.597,-0.394 -1.578,-0.423 -1.557,-0.451 -1.536,-0.478 -1.515,-0.504 -1.492,-0.53 -1.468,-0.554 -1.444,-0.578 -1.42,-0.601 -1.394,-0.623 -1.368,-0.643 -1.342,-0.663 -1.314,-0.682 -1.287,-0.699 -1.258,-0.717 -1.231,-0.731 -1.201,-0.747 -1.172,-0.759 -1.143,-0.772 -1.113,-0.783 -1.083,-0.793 -1.053,-0.802 -1.023,-0.81 -0.992,-0.817 -0.963,-0.821 -0.932,-0.827 -0.901,-0.829 -0.872,-0.832 -0.842,-0.832 -0.812,-0.833 -0.782,-0.831 -0.753,-0.828 -0.724,-0.826 -0.695,-0.821 -0.667,-0.815 -0.639,-0.808 -0.612,-0.801 -0.585,-0.792 -0.558,-0.783 -0.533,-0.772 -0.507,-0.761 -0.483,-0.748 -0.46,-0.734 -0.436,-0.721 -0.414,-0.706 -0.392,-0.689 -0.371,-0.673 -0.352,-0.656 -0.332,-0.638 -0.314,-0.619 -0.297,-0.6 -0.28,-0.58 -0.265,-0.559 -0.251,-0.538 -0.237,-0.517 -0.225,-0.495 -0.213,-0.472 -0.203,-0.45 -0.194,-0.427 -0.186,-0.403 -0.178,-0.38 -0.172,-0.356 -0.168,-0.333 -0.163,-0.308 -0.161,-0.284 -0.159,-0.26 -0.158,-0.235 -0.159,-0.212 -0.16,-0.187 -0.163,-0.164 -0.167,-0.14 -0.172,-0.117 -0.178,-0.094 -0.184,-0.07 -0.193,-0.048 -0.202,-0.026 -0.212,-0.004 -0.222,0.017 -0.235,0.037 -0.248,0.058 -0.262,0.078 -0.276,0.097 -0.293,0.115 -0.309,0.132 -0.326,0.15 -0.344,0.166 -0.364,0.181 -0.383,0.196 -0.404,0.21 -0.425,0.223 -0.447,0.234 -0.469,0.246 -0.492,0.256 -0.515,0.265 -0.54,0.274 -0.564,0.28 -0.589,0.287 -0.615,0.292 -0.64,0.296 -0.666,0.299 -0.693,0.302 -0.718,0.302 -0.746,0.301 -0.772,0.301 -0.8,0.298 -0.826,0.295 -0.853,0.289 -0.88,0.285 -0.907,0.277 -0.934,0.269 -0.96,0.26 -0.987,0.25 -1.013,0.238 -1.039,0.226 -1.065,0.213 -1.089,0.198 -1.115,0.182 -1.139,0.166 -1.163,0.148 -1.186,0.13 -1.208,0.11 -1.232,0.089 -1.252,0.067 -1.274,0.046 -1.293,0.021 -1.313,-0.002 -1.332,-0.028 -1.35,-0.053 -1.366,-0.08 -1.383,-0.108 -1.398,-0.136 -1.413,-0.164 -1.425,-0.194 -1.439,-0.224 -1.449,-0.255 -1.46,-0.285 -1.47,-0.318 -1.477,-0.35 -1.485,-0.382 -1.491,-0.415 -1.496,-0.449 -1.5,-0.482 -1.503,-0.516 -1.505,-0.55 -1.505,-0.585 -1.504,-0.619 -1.503,-0.653 -1.499,-0.688 -1.496,-0.722 -1.49,-0.757 -1.484,-0.792 -1.476,-0.826 -1.467,-0.86 -1.457,-0.893 -1.447,-0.928 -1.434,-0.961 -1.42,-0.994 -1.407,-1.027 -1.391,-1.059 -1.374,-1.091 -1.356,-1.122 -1.338,-1.153 -1.318,-1.183 -1.297,-1.213 -1.276,-1.242 -1.253,-1.27 -1.229,-1.298 -1.204,-1.324 -1.18,-1.351 -1.153,-1.376 -1.126,-1.4 -1.098,-1.423 -1.069,-1.447 -1.04,-1.467 -1.011,-1.489 -0.979,-1.508 -0.948,-1.527 -0.917,-1.545 -0.884,-1.561 -0.851,-1.577 -0.817,-1.591 -0.784,-1.605 -0.75,-1.617 -0.715,-1.628 -0.681,-1.638 -0.645,-1.647 -0.611,-1.655 -0.575,-1.661 -0.539,-1.667 -0.504,-1.671 -0.468,-1.674 -0.432,-1.676 -0.397,-1.676 -0.361,-1.676 -0.326,-1.674 -0.29,-1.672 -0.256,-1.667 -0.221,-1.663 -0.186,-1.656 -0.153,-1.649 -0.118,-1.641 -0.086,-1.631 -0.052,-1.62 -0.02,-1.609 0.011,-1.596 0.043,-1.583 0.074,-1.568 0.103,-1.552 0.133,-1.536 0.161,-1.518 0.189,-1.5 0.216,-1.481 0.242,-1.46 0.268,-1.44 0.292,-1.419 0.316,-1.396 0.339,-1.373 0.36,-1.35 0.381,-1.325 0.401,-1.3 0.419,-1.276 0.438,-1.249 0.454,-1.223 0.469,-1.196 0.485,-1.169 0.497,-1.142 0.511,-1.114 0.521,-1.086 0.532,-1.058 0.541,-1.029 0.548,-1.001 0.556,-0.972 0.561,-0.943 0.566,-0.915 0.569,-0.887 0.571,-0.857 0.573,-0.83 0.573,-0.801 0.572,-0.773 0.569,-0.745 0.567,-0.718 0.562,-0.69 0.557,-0.664 0.55,-0.637 0.543,-0.612 0.535,-0.586 0.526,-0.561 0.515,-0.537 0.504,-0.513 0.491,-0.49 0.479,-0.468 0.465,-0.446 0.45,-0.425 0.434,-0.404 0.418,-0.386 0.402,-0.367 0.383,-0.348 0.365,-0.333 0.346,-0.316 0.327,-0.301 0.306,-0.287 0.285,-0.274 0.264,-0.261 0.243,-0.251 0.22,-0.241 0.198,-0.231 0.176,-0.224 0.152,-0.216 0.129,-0.211 0.105,-0.205 0.082,-0.202 0.058,-0.2 0.034,-0.198 0.01,-0.197 -0.014,-0.198 -0.038,-0.2 -0.061,-0.203 -0.085,-0.206 -0.109,-0.212 -0.132,-0.218 -0.154,-0.225 -0.178,-0.233 -0.199,-0.242 -0.222,-0.253 -0.243,-0.264 -0.264,-0.277 -0.285,-0.289 -0.305,-0.304 -0.324,-0.32 -0.343,-0.335 -0.361,-0.352 -0.379,-0.37 -0.396,-0.389 -0.411,-0.409 -0.427,-0.429 -0.441,-0.449 -0.455,-0.472 -0.468,-0.494 -0.479,-0.518 -0.491,-0.541 -0.5,-0.565 -0.509,-0.59 -0.518,-0.616 -0.524,-0.642 -0.531,-0.668 -0.535,-0.695 -0.54,-0.721 -0.542,-0.75 -0.544,-0.777 -0.544,-0.805 -0.544,-0.833 -0.543,-0.861 -0.54,-0.89 -0.536,-0.918 -0.531,-0.947 -0.525,-0.975 -0.518,-1.003 -0.51,-1.032 -0.5,-1.06 -0.489,-1.088 -0.478,-1.116 -0.466,-1.144 -0.451,-1.17 -0.436,-1.197 -0.421,-1.224 -0.403,-1.249 -0.386,-1.276 -0.366,-1.3 -0.346,-1.324 -0.325,-1.348 -0.303,-1.372 -0.28,-1.394 -0.256,-1.416 -0.232,-1.437 -0.205,-1.457 -0.18,-1.477 -0.152,-1.496 -0.124,-1.513 -0.095,-1.531 -0.066,-1.546 -0.036,-1.561 -0.004,-1.576 0.026,-1.589 0.058,-1.601 0.091,-1.612 0.124,-1.622 0.157,-1.631 0.191,-1.638 0.225,-1.646 0.259,-1.651 0.294,-1.656 0.33,-1.659 0.364,-1.661 0.4,-1.662 0.435,-1.662 0.471,-1.661 0.506,-1.659 0.542,-1.654 0.578,-1.65 0.613,-1.644 0.648,-1.637 0.683,-1.629 0.718,-1.619 0.753,-1.609 0.787,-1.596 0.82,-1.584 0.855,-1.57 0.887,-1.555 0.92,-1.539 0.952,-1.522 0.984,-1.504 1.015,-1.484 1.044,-1.464 1.075,-1.443 1.104,-1.42 1.131,-1.398 1.16,-1.374 1.185,-1.349 1.212,-1.323 1.237,-1.296 1.261,-1.27 1.283,-1.241 1.307,-1.213 1.327,-1.184 1.348,-1.153 1.367,-1.123 1.385,-1.092 1.402,-1.06 1.419,-1.028 1.433,-0.995 1.447,-0.962 1.46,-0.929 1.472,-0.896 1.483,-0.861 1.491,-0.828 1.5,-0.792 1.507,-0.759 1.513,-0.724 1.518,-0.689 1.521,-0.654 1.524,-0.62 1.524,-0.585 1.525,-0.551 1.524,-0.516 1.522,-0.482 1.518,-0.449 1.514,-0.414 1.508,-0.382 1.502,-0.348 1.494,-0.316 1.484,-0.283 1.475,-0.253 1.465,-0.221 1.452,-0.19 1.439,-0.16 1.425,-0.131 1.411,-0.103 1.395,-0.074 1.378,-0.047 1.361,-0.021 1.342,0.005 1.323,0.03 1.304,0.054 1.283,0.077 1.261,0.099 1.24,0.121 1.217,0.141 1.194,0.16 1.17,0.179 1.146,0.196 1.122,0.213 1.096,0.228 1.071,0.242 1.045,0.255 1.018,0.268 0.993,0.278 0.965,0.288 0.939,0.298 0.912,0.305 0.885,0.311 0.858,0.317 0.83,0.321 0.803,0.325 0.777,0.326 0.749,0.328 0.723,0.327 0.696,0.327 0.67,0.324 0.643,0.32 0.619,0.316 0.592,0.311 0.568,0.304 0.543,0.297 0.519,0.288 0.496,0.279 0.473,0.268 0.45,0.257 0.429,0.245 0.407,0.231 0.388,0.217 0.367,0.203 0.349,0.187 0.33,0.17 0.314,0.153 0.297,0.136 0.281,0.116 0.267,0.098 0.252,0.078 0.241,0.057 0.228,0.037 0.217,0.015 0.208,-0.006 0.198,-0.029 0.191,-0.052 0.184,-0.074 0.179,-0.098 0.174,-0.121 0.17,-0.144 0.168,-0.169 0.166,-0.193 0.166,-0.216 0.167,-0.241 0.169,-0.265 0.172,-0.289 0.176,-0.313 0.181,-0.336 0.188,-0.361 0.195,-0.383 0.203,-0.407 0.213,-0.43 0.223,-0.453 0.236,-0.474 0.247,-0.497 0.261,-0.517 0.276,-0.539 0.292,-0.558 0.308,-0.579 0.325,-0.597 0.344,-0.616 0.363,-0.634 0.383,-0.65 0.404,-0.667 0.426,-0.682 0.448,-0.698 0.472,-0.71 0.495,-0.724 0.52,-0.736 0.545,-0.748 0.571,-0.757 0.597,-0.767 0.624,-0.775 0.652,-0.782 0.679,-0.788 0.708,-0.794 0.736,-0.797 0.765,-0.801 0.795,-0.803 0.823,-0.803 0.854,-0.804 0.884,-0.802 0.913,-0.799 0.944,-0.796 0.973,-0.791 1.004,-0.785 1.034,-0.778 1.064,-0.77 1.093,-0.76 1.123,-0.75 1.153,-0.739 1.182,-0.725 1.211,-0.712 1.239,-0.697 1.268,-0.682 1.295,-0.664 1.322,-0.646 1.349,-0.627 1.376,-0.606 1.401,-0.586 1.426,-0.564 1.45,-0.54 1.474,-0.517 1.497,-0.491 1.519,-0.466 1.541,-0.439 1.561,-0.412 z"
         fill="none"
         stroke="#404040"
         stroke-width="4.8025"
         id="path2" /></g></g></svg>
