<?xml version="1.0"?>
<svg xmlns="http://www.w3.org/2000/svg">
<path d="M 410.919 227.041 L 412.519 226.687 L 414.136 226.362 L 415.771 226.067 L 417.421 225.804 L 419.087 225.572 L 420.766 225.373 L 422.459 225.206 L 424.163 225.072 L 425.879 224.973 L 427.604 224.907 L 429.337 224.877 L 431.079 224.881 L 432.826 224.920 L 434.579 224.995 L 436.336 225.105 L 438.096 225.252 L 439.858 225.434 L 441.620 225.653 L 443.382 225.908 L 445.142 226.199 L 446.900 226.527 L 448.653 226.890 L 450.401 227.289 L 452.142 227.725 L 453.876 228.196 L 455.601 228.702 L 457.316 229.243 L 459.021 229.819 L 460.713 230.430 L 462.392 231.074 L 464.056 231.752 L 465.706 232.463 L 467.339 233.207 L 468.954 233.982 L 470.551 234.789 L 472.128 235.627 L 473.685 236.494 L 475.221 237.391 L 476.735 238.316 L 478.225 239.269 L 479.691 240.249 L 481.133 241.255 L 482.549 242.287 L 483.938 243.342 L 485.301 244.421 L 486.636 245.523 L 487.942 246.646 L 489.219 247.790 L 490.467 248.953 L 491.685 250.134 L 492.872 251.333 L 494.028 252.548 L 495.152 253.779 L 496.244 255.023 L 497.305 256.281 L 498.332 257.550 L 499.327 258.830 L 500.289 260.120 L 501.218 261.418 L 502.114 262.723 L 502.976 264.035 L 503.805 265.352 L 504.600 266.672 L 505.362 267.995 L 506.090 269.320 L 506.786 270.645 L 507.449 271.969 L 508.078 273.291 L 508.676 274.610 L 509.241 275.925 L 509.774 277.235 L 510.276 278.539 L 510.747 279.835 L 511.187 281.123 L 511.597 282.401 L 511.978 283.669 L 512.329 284.925 L 512.652 286.169 L 512.948 287.400 L 513.216 288.616 L 513.458 289.817 L 513.674 291.002 L 513.866 292.170 L 514.033 293.321 L 514.178 294.453 L 514.300 295.566 L 514.400 296.659 L 514.480 297.732 L 514.541 298.784 L 514.583 299.813 L 514.607 300.821 L 514.614 301.806 L 514.606 302.767 L 514.583 303.705 L 514.547 304.618 L 514.498 305.507 L 514.438 306.372 L 514.367 307.211 L 514.287 308.025 L 514.199 308.814 L 514.104 309.576 L 514.002 310.313 L 513.896 311.025 L 513.787 311.710 L 513.674 312.370 L 513.560 313.004 L 513.446 313.612 L 513.332 314.195 L 513.221 314.753 L 513.112 315.285 L 513.006 315.793 L 512.906 316.276 L 512.812 316.735 L 512.725 317.171 L 512.646 317.583 L 512.576 317.972 L 512.516 318.339 L 512.467 318.685 L 512.430 319.009 L 512.406 319.312 L 512.396 319.596 L 512.400 319.861 L 512.420 320.107 L 512.455 320.335 L 512.508 320.547 L 512.578 320.742 L 512.667 320.922 L 512.775 321.088 L 512.903 321.240 L 513.051 321.379 L 513.219 321.507 L 513.410 321.624 L 513.622 321.732 L 513.856 321.831 L 514.114 321.922 L 514.394 322.006 L 514.699 322.085 L 515.026 322.159 L 515.378 322.230 L 515.755 322.298 L 516.155 322.365 L 516.580 322.432 L 517.030 322.500 L 517.505 322.569 L 518.004 322.642 L 518.528 322.719 L 519.077 322.801 L 519.650 322.890 L 520.247 322.986 L 520.869 323.090 L 521.514 323.204 L 522.183 323.329 L 522.875 323.466 L 523.589 323.615 L 524.327 323.779 L 525.086 323.957 L 525.866 324.151 L 526.668 324.362 L 527.489 324.590 L 528.331 324.838 L 529.192 325.105 L 530.071 325.392 L 530.967 325.701 L 531.881 326.032 L 532.811 326.386 L 533.756 326.764 L 534.716 327.167 L 535.689 327.595 L 536.676 328.048 L 537.674 328.529 L 538.682 329.036 L 539.701 329.571 L 540.729 330.135 L 541.765 330.727 L 542.807 331.349 L 543.856 332.001 L 544.909 332.682 L 545.965 333.394 L 547.025 334.137 L 548.086 334.911 L 549.147 335.716 L 550.207 336.553 L 551.266 337.421 L 552.321 338.320 L 553.373 339.252 L 554.419 340.215 L 555.458 341.210 L 556.490 342.237 L 557.513 343.295 L 558.526 344.384 L 559.528 345.505 L 560.518 346.656 L 561.495 347.838 L 562.457 349.051 L 563.404 350.293 L 564.334 351.565 L 565.246 352.866 L 566.140 354.195 L 567.014 355.552 L 567.868 356.937 L 568.699 358.349 L 569.508 359.787 L 570.293 361.251 L 571.054 362.739 L 571.789 364.251 L 572.498 365.787 L 573.179 367.345 L 573.833 368.925 L 574.458 370.526 L 575.053 372.146 L 575.618 373.785 L 576.152 375.443 L 576.655 377.117 L 577.125 378.807 L 577.563 380.512 L 577.968 382.232 L 578.339 383.964 L 578.675 385.707 L 578.977 387.462 L 579.244 389.226 L 579.476 390.998 L 579.672 392.778 L 579.832 394.563 L 579.956 396.354 L 580.044 398.149 L 580.096 399.946 L 580.111 401.744 L 580.090 403.543 L 580.032 405.341 L 579.938 407.137 L 579.808 408.930 L 579.641 410.718 L 579.438 412.501 L 579.200 414.277 L 578.926 416.045 L 578.617 417.804 L 578.273 419.553 L 577.895 421.291 L 577.483 423.016 L 577.037 424.728 L 576.558 426.425 L 576.047 428.107 L 575.503 429.772 L 574.929 431.420 L 574.323 433.049 L 573.688 434.659 L 573.024 436.249 L 572.331 437.817 L 571.610 439.363 L 570.863 440.886 L 570.090 442.386 L 569.291 443.860 L 568.468 445.310 L 567.622 446.734 L 566.754 448.131 L 565.864 449.500 L 564.954 450.842 L 564.025 452.155 L 563.077 453.440 L 562.113 454.695 L 561.132 455.920 L 560.136 457.115 L 559.126 458.280 L 558.103 459.413 L 557.068 460.516 L 556.023 461.587 L 554.968 462.626 L 553.905 463.634 L 552.835 464.609 L 551.759 465.553 L 550.678 466.465 L 549.594 467.345 L 548.506 468.193 L 547.418 469.010 L 546.329 469.795 L 545.240 470.549 L 544.154 471.271 L 543.071 471.963 L 541.992 472.624 L 540.918 473.255 L 539.851 473.857 L 538.790 474.429 L 537.739 474.972 L 536.696 475.487 L 535.664 475.974 L 534.643 476.434 L 533.634 476.867 L 532.639 477.275 L 531.658 477.657 L 530.691 478.015 L 529.740 478.349 L 528.806 478.661 L 527.889 478.950 L 526.990 479.218 L 526.110 479.466 L 525.250 479.694 L 524.409 479.904 L 523.589 480.096 L 522.790 480.272 L 522.013 480.431 L 521.258 480.577 L 520.526 480.708 L 519.816 480.827 L 519.131 480.935 L 518.468 481.032 L 517.830 481.119 L 517.216 481.198 L 516.627 481.270 L 516.062 481.336 L 515.522 481.397 L 515.007 481.454 L 514.516 481.508 L 514.050 481.561 L 513.609 481.612 L 513.193 481.665 L 512.801 481.718 L 512.434 481.775 L 512.090 481.835 L 511.770 481.900 L 511.474 481.971 L 511.201 482.049 L 510.951 482.134 L 510.723 482.229 L 510.516 482.333 L 510.332 482.449 L 510.167 482.576 L 510.024 482.716 L 509.899 482.870 L 509.794 483.039 L 509.707 483.222 L 509.638 483.422 L 509.585 483.640 L 509.548 483.875 L 509.527 484.128 L 509.520 484.401 L 509.526 484.694 L 509.545 485.008 L 509.576 485.342 L 509.618 485.699 L 509.669 486.078 L 509.729 486.480 L 509.797 486.905 L 509.872 487.354 L 509.952 487.827 L 510.037 488.324 L 510.126 488.846 L 510.217 489.393 L 510.310 489.965 L 510.404 490.563 L 510.496 491.186 L 510.587 491.835 L 510.675 492.510 L 510.759 493.210 L 510.837 493.936 L 510.910 494.688 L 510.975 495.465 L 511.032 496.267 L 511.079 497.095 L 511.115 497.947 L 511.140 498.824 L 511.152 499.725 L 511.150 500.650 L 511.134 501.598 L 511.101 502.569 L 511.051 503.563 L 510.984 504.579 L 510.898 505.616 L 510.792 506.674 L 510.665 507.752 L 510.517 508.849 L 510.346 509.966 L 510.152 511.100 L 509.933 512.252 L 509.690 513.420 L 509.421 514.603 L 509.125 515.802 L 508.802 517.014 L 508.452 518.239 L 508.073 519.476 L 507.664 520.724 L 507.227 521.982 L 506.759 523.249 L 506.260 524.524 L 505.731 525.806 L 505.170 527.094 L 504.577 528.386 L 503.952 529.682 L 503.294 530.981 L 502.604 532.281 L 501.881 533.581 L 501.125 534.880 L 500.336 536.178 L 499.513 537.472 L 498.658 538.762 L 497.769 540.046 L 496.847 541.324 L 495.891 542.593 L 494.903 543.854 L 493.882 545.105 L 492.829 546.344 L 491.743 547.572 L 490.626 548.785 L 489.476 549.984 L 488.296 551.167 L 487.085 552.334 L 485.843 553.483 L 484.572 554.612 L 483.271 555.722 L 481.942 556.811 L 480.585 557.878 L 479.201 558.922 L 477.789 559.942 L 476.352 560.938 L 474.890 561.907 L 473.404 562.851 L 471.894 563.767 L 470.361 564.655 L 468.807 565.513 L 467.232 566.343 L 465.637 567.142 L 464.022 567.910 L 462.391 568.646 L 460.742 569.351 L 459.077 570.022 L 457.397 570.660 L 455.704 571.265 L 453.998 571.835 L 452.281 572.371 L 450.553 572.871 L 448.816 573.337 L 447.071 573.767 L 445.318 574.161 L 443.560 574.519 L 441.798 574.841 L 440.032 575.127 L 438.263 575.377 L 436.494 575.590 L 434.724 575.767 L 432.956 575.908 L 431.190 576.013 L 429.428 576.083 L 427.670 576.116 L 425.918 576.114 L 424.174 576.076 L 422.437 576.004 L 420.710 575.898 L 418.993 575.757 L 417.287 575.583 L 415.594 575.375 L 413.914 575.135 L 412.250 574.863 L 410.600 574.559 L 408.967 574.225 L 407.352 573.860 L 405.755 573.466 L 404.177 573.043 L 402.620 572.592 L 401.084 572.114 L 399.569 571.610 L 398.077 571.080 L 396.609 570.526 L 395.165 569.948 L 393.745 569.347 L 392.351 568.724 L 390.983 568.081 L 389.641 567.418 L 388.327 566.736 L 387.040 566.037 L 385.782 565.320 L 384.551 564.589 L 383.350 563.842 L 382.178 563.083 L 381.035 562.311 L 379.922 561.528 L 378.839 560.735 L 377.786 559.933 L 376.763 559.123 L 375.771 558.306 L 374.808 557.485 L 373.876 556.658 L 372.975 555.829 L 372.103 554.997 L 371.261 554.165 L 370.449 553.332 L 369.667 552.501 L 368.914 551.673 L 368.190 550.847 L 367.495 550.026 L 366.828 549.211 L 366.189 548.403 L 365.577 547.602 L 364.992 546.810 L 364.434 546.027 L 363.901 545.255 L 363.394 544.494 L 362.911 543.746 L 362.451 543.012 L 362.015 542.291 L 361.601 541.585 L 361.209 540.896 L 360.838 540.223 L 360.486 539.567 L 360.154 538.929 L 359.840 538.310 L 359.543 537.710 L 359.263 537.130 L 358.998 536.571 L 358.747 536.033 L 358.510 535.516 L 358.285 535.021 L 358.072 534.549 L 357.869 534.099 L 357.675 533.672 L 357.489 533.269 L 357.311 532.889 L 357.139 532.533 L 356.971 532.200 L 356.808 531.892 L 356.647 531.608 L 356.488 531.348 L 356.330 531.113 L 356.171 530.901 L 356.011 530.714 L 355.848 530.550 L 355.681 530.410 L 355.509 530.293 L 355.331 530.199 L 355.147 530.129 L 354.954 530.081 L 354.752 530.055 L 354.540 530.051 L 354.318 530.068 L 354.083 530.105 L 353.835 530.163 L 353.573 530.241 L 353.297 530.338 L 353.004 530.453 L 352.695 530.585 L 352.369 530.735 L 352.025 530.901 L 351.661 531.082 L 351.278 531.278 L 350.874 531.488 L 350.449 531.711 L 350.002 531.945 L 349.533 532.191 L 349.041 532.447 L 348.526 532.712 L 347.986 532.986 L 347.422 533.266 L 346.833 533.553 L 346.218 533.845 L 345.578 534.141 L 344.912 534.440 L 344.219 534.742 L 343.501 535.044 L 342.755 535.345 L 341.983 535.646 L 341.183 535.944 L 340.357 536.239 L 339.504 536.528 L 338.624 536.813 L 337.717 537.090 L 336.783 537.359 L 335.823 537.619 L 334.836 537.869 L 333.823 538.107 L 332.784 538.333 L 331.719 538.546 L 330.630 538.744 L 329.515 538.926 L 328.376 539.092 L 327.213 539.240 L 326.027 539.370 L 324.819 539.480 L 323.587 539.569 L 322.335 539.636 L 321.061 539.682 L 319.768 539.703 L 318.455 539.701 L 317.123 539.673 L 315.773 539.620 L 314.407 539.540 L 313.024 539.432 L 311.626 539.296 L 310.213 539.132 L 308.788 538.938 L 307.349 538.714 L 305.900 538.459 L 304.440 538.174 L 302.970 537.856 L 301.493 537.506 L 300.008 537.124 L 298.517 536.709 L 297.021 536.260 L 295.521 535.778 L 294.018 535.262 L 292.513 534.712 L 291.008 534.127 L 289.504 533.508 L 288.001 532.855 L 286.502 532.167 L 285.006 531.445 L 283.516 530.688 L 282.032 529.896 L 280.556 529.070 L 279.089 528.210 L 277.632 527.317 L 276.185 526.389 L 274.751 525.428 L 273.331 524.434 L 271.924 523.407 L 270.533 522.348 L 269.159 521.257 L 267.803 520.135 L 266.465 518.982 L 265.147 517.799 L 263.850 516.586 L 262.574 515.344 L 261.321 514.074 L 260.092 512.776 L 258.888 511.452 L 257.708 510.101 L 256.555 508.725 L 255.429 507.325 L 254.331 505.902 L 253.262 504.455 L 252.222 502.988 L 251.211 501.499 L 250.232 499.991 L 249.284 498.464 L 248.367 496.919 L 247.483 495.358 L 246.632 493.781 L 245.815 492.190 L 245.031 490.585 L 244.281 488.968 L 243.566 487.340 L 242.885 485.702 L 242.240 484.055 L 241.629 482.400 L 241.054 480.739 L 240.515 479.072 L 240.011 477.401 L 239.543 475.727 L 239.111 474.051 L 238.714 472.375 L 238.353 470.699 L 238.027 469.025 L 237.737 467.353 L 237.481 465.686 L 237.260 464.023 L 237.074 462.367 L 236.921 460.718 L 236.803 459.077 L 236.717 457.446 L 236.665 455.826 L 236.645 454.217 L 236.656 452.621 L 236.699 451.038 L 236.773 449.470 L 236.876 447.918 L 237.009 446.382 L 237.170 444.864 L 237.359 443.364 L 237.575 441.883 L 237.817 440.423 L 238.085 438.983 L 238.377 437.564 L 238.693 436.168 L 239.032 434.795 L 239.392 433.445 L 239.773 432.120 L 240.174 430.820 L 240.593 429.544 L 241.031 428.295 L 241.485 427.072 L 241.954 425.876 L 242.439 424.707 L 242.936 423.565 L 243.447 422.451 L 243.968 421.365 L 244.500 420.307 L 245.041 419.278 L 245.589 418.277 L 246.145 417.305 L 246.706 416.362 L 247.272 415.447 L 247.841 414.560 L 248.412 413.703 L 248.985 412.873 L 249.558 412.072 L 250.130 411.299 L 250.699 410.554 L 251.266 409.836 L 251.828 409.146 L 252.385 408.482 L 252.935 407.845 L 253.478 407.233 L 254.013 406.647 L 254.539 406.086 L 255.054 405.549 L 255.558 405.036 L 256.049 404.546 L 256.528 404.078 L 256.993 403.632 L 257.443 403.207 L 257.877 402.803 L 258.295 402.417 L 258.697 402.050 L 259.080 401.702 L 259.445 401.369 L 259.791 401.053 L 260.118 400.752 L 260.424 400.465 L 260.709 400.191 L 260.973 399.930 L 261.216 399.679 L 261.436 399.438 L 261.634 399.207 L 261.810 398.983 L 261.962 398.767 L 262.091 398.556 L 262.196 398.351 L 262.278 398.149 L 262.336 397.949 L 262.370 397.751 L 262.380 397.554 L 262.366 397.356 L 262.328 397.156 L 262.267 396.953 L 262.182 396.747 L 262.073 396.535 L 261.941 396.317 L 261.787 396.092 L 261.609 395.859 L 261.410 395.617 L 261.188 395.364 L 260.945 395.100 L 260.681 394.823 L 260.396 394.534 L 260.091 394.230 L 259.767 393.910 L 259.424 393.575 L 259.063 393.223 L 258.684 392.853 L 258.288 392.464 L 257.877 392.055 L 257.450 391.626 L 257.009 391.177 L 256.554 390.705 L 256.086 390.211 L 255.607 389.693 L 255.116 389.152 L 254.616 388.587 L 254.107 387.997 L 253.589 387.381 L 253.065 386.739 L 252.534 386.071 L 251.999 385.376 L 251.459 384.655 L 250.917 383.905 L 250.373 383.128 L 249.829 382.323 L 249.285 381.490 L 248.742 380.629 L 248.202 379.739 L 247.666 378.821 L 247.135 377.874 L 246.610 376.899 L 246.092 375.896 L 245.582 374.864 L 245.082 373.804 L 244.593 372.716 L 244.115 371.600 L 243.649 370.456 L 243.198 369.286 L 242.762 368.089 L 242.341 366.865 L 241.938 365.616 L 241.552 364.340 L 241.186 363.040 L 240.840 361.716 L 240.515 360.368 L 240.212 358.996 L 239.932 357.602 L 239.676 356.186 L 239.444 354.749 L 239.239 353.292 L 239.059 351.815 L 238.907 350.319 L 238.783 348.806 L 238.688 347.275 L 238.622 345.729 L 238.586 344.168 L 238.582 342.592 L 238.608 341.003 L 238.666 339.402 L 238.757 337.790 L 238.881 336.168 L 239.038 334.537 L 239.229 332.899 L 239.454 331.253 L 239.713 329.602 L 240.007 327.946 L 240.337 326.287 L 240.701 324.626 L 241.101 322.964 L 241.536 321.302 L 242.007 319.641 L 242.513 317.982 L 243.055 316.328 L 243.633 314.678 L 244.246 313.034 L 244.894 311.397 L 245.577 309.768 L 246.295 308.149 L 247.048 306.540 L 247.835 304.944 L 248.655 303.360 L 249.510 301.790 L 250.397 300.235 L 251.317 298.696 L 252.269 297.174 L 253.253 295.670 L 254.268 294.186 L 255.312 292.722 L 256.387 291.279 L 257.491 289.859 L 258.622 288.461 L 259.782 287.087 L 260.967 285.738 L 262.179 284.415 L 263.416 283.119 L 264.677 281.849 L 265.960 280.608 L 267.267 279.395 L 268.594 278.211 L 269.942 277.058 L 271.309 275.935 L 272.694 274.843 L 274.096 273.783 L 275.515 272.755 L 276.948 271.760 L 278.395 270.798 L 279.855 269.869 L 281.327 268.973 L 282.810 268.112 L 284.301 267.284 L 285.801 266.492 L 287.308 265.733 L 288.821 265.009 L 290.339 264.320 L 291.860 263.666 L 293.384 263.046 L 294.908 262.461 L 296.433 261.910 L 297.957 261.394 L 299.479 260.912 L 300.997 260.463 L 302.511 260.049 L 304.019 259.667 L 305.521 259.319 L 307.015 259.003 L 308.499 258.720 L 309.974 258.467 L 311.439 258.246 L 312.891 258.056 L 314.330 257.896 L 315.755 257.765 L 317.166 257.662 L 318.561 257.588 L 319.939 257.541 L 321.300 257.520 L 322.642 257.525 L 323.965 257.555 L 325.269 257.609 L 326.552 257.686 L 327.813 257.785 L 329.053 257.906 L 330.270 258.047 L 331.464 258.207 L 332.634 258.386 L 333.780 258.582 L 334.902 258.795 L 335.998 259.023 L 337.069 259.265 L 338.114 259.520 L 339.132 259.788 L 340.125 260.066 L 341.090 260.354 L 342.029 260.652 L 342.941 260.957 L 343.826 261.268 L 344.684 261.585 L 345.514 261.906 L 346.317 262.231 L 347.094 262.557 L 347.843 262.885 L 348.566 263.212 L 349.262 263.539 L 349.932 263.863 L 350.575 264.183 L 351.194 264.499 L 351.786 264.810 L 352.354 265.114 L 352.897 265.411 L 353.416 265.699 L 353.912 265.978 L 354.385 266.246 L 354.835 266.503 L 355.264 266.748 L 355.671 266.979 L 356.059 267.196 L 356.426 267.399 L 356.775 267.586 L 357.105 267.756 L 357.419 267.909 L 357.716 268.045 L 357.997 268.161 L 358.264 268.259 L 358.516 268.337 L 358.757 268.394 L 358.985 268.431 L 359.202 268.446 L 359.410 268.440 L 359.608 268.411 L 359.799 268.359 L 359.983 268.285 L 360.162 268.187 L 360.336 268.066 L 360.506 267.922 L 360.674 267.753 L 360.840 267.560 L 361.006 267.344 L 361.173 267.103 L 361.342 266.838 L 361.514 266.549 L 361.690 266.236 L 361.871 265.900 L 362.059 265.539 L 362.254 265.156 L 362.457 264.749 L 362.670 264.319 L 362.893 263.866 L 363.129 263.392 L 363.376 262.895 L 363.637 262.378 L 363.913 261.839 L 364.205 261.281 L 364.513 260.702 L 364.838 260.105 L 365.182 259.489 L 365.545 258.855 L 365.928 258.205 L 366.332 257.538 L 366.758 256.856 L 367.206 256.158 L 367.678 255.448 L 368.173 254.724 L 368.693 253.988 L 369.238 253.240 L 369.809 252.483 L 370.406 251.716 L 371.030 250.941 L 371.682 250.159 L 372.361 249.371 L 373.069 248.577 L 373.805 247.780 L 374.570 246.979 L 375.365 246.176 L 376.188 245.373 L 377.042 244.569 L 377.926 243.767 L 378.839 242.968 L 379.783 242.172 L 380.756 241.381 L 381.760 240.596 L 382.794 239.818 L 383.858 239.048 L 384.951 238.288 L 386.074 237.538 L 387.227 236.799 L 388.409 236.074 L 389.620 235.362 L 390.859 234.665 L 392.127 233.983 L 393.422 233.319 L 394.744 232.673 L 396.093 232.046 L 397.469 231.440 L 398.870 230.854 L 400.296 230.290 L 401.746 229.750 L 403.220 229.233 L 404.717 228.742 L 406.236 228.276 L 407.777 227.837 L 409.338 227.425 Z" fill="#7292aa" fill-opacity="0.80000" />
<path d="M 410.919 227.041 L 412.519 226.687 L 414.136 226.362 L 415.771 226.067 L 417.421 225.804 L 419.087 225.572 L 420.766 225.373 L 422.459 225.206 L 424.163 225.072 L 425.879 224.973 L 427.604 224.907 L 429.337 224.877 L 431.079 224.881 L 432.826 224.920 L 434.579 224.995 L 436.336 225.105 L 438.096 225.252 L 439.858 225.434 L 441.620 225.653 L 443.382 225.908 L 445.142 226.199 L 446.900 226.527 L 448.653 226.890 L 450.401 227.289 L 452.142 227.725 L 453.876 228.196 L 455.601 228.702 L 457.316 229.243 L 459.021 229.819 L 460.713 230.430 L 462.392 231.074 L 464.056 231.752 L 465.706 232.463 L 467.339 233.207 L 468.954 233.982 L 470.551 234.789 L 472.128 235.627 L 473.685 236.494 L 475.221 237.391 L 476.735 238.316 L 478.225 239.269 L 479.691 240.249 L 481.133 241.255 L 482.549 242.287 L 483.938 243.342 L 485.301 244.421 L 486.636 245.523 L 487.942 246.646 L 489.219 247.790 L 490.467 248.953 L 491.685 250.134 L 492.872 251.333 L 494.028 252.548 L 495.152 253.779 L 496.244 255.023 L 497.305 256.281 L 498.332 257.550 L 499.327 258.830 L 500.289 260.120 L 501.218 261.418 L 502.114 262.723 L 502.976 264.035 L 503.805 265.352 L 504.600 266.672 L 505.362 267.995 L 506.090 269.320 L 506.786 270.645 L 507.449 271.969 L 508.078 273.291 L 508.676 274.610 L 509.241 275.925 L 509.774 277.235 L 510.276 278.539 L 510.747 279.835 L 511.187 281.123 L 511.597 282.401 L 511.978 283.669 L 512.329 284.925 L 512.652 286.169 L 512.948 287.400 L 513.216 288.616 L 513.458 289.817 L 513.674 291.002 L 513.866 292.170 L 514.033 293.321 L 514.178 294.453 L 514.300 295.566 L 514.400 296.659 L 514.480 297.732 L 514.541 298.784 L 514.583 299.813 L 514.607 300.821 L 514.614 301.806 L 514.606 302.767 L 514.583 303.705 L 514.547 304.618 L 514.498 305.507 L 514.438 306.372 L 514.367 307.211 L 514.287 308.025 L 514.199 308.814 L 514.104 309.576 L 514.002 310.313 L 513.896 311.025 L 513.787 311.710 L 513.674 312.370 L 513.560 313.004 L 513.446 313.612 L 513.332 314.195 L 513.221 314.753 L 513.112 315.285 L 513.006 315.793 L 512.906 316.276 L 512.812 316.735 L 512.725 317.171 L 512.646 317.583 L 512.576 317.972 L 512.516 318.339 L 512.467 318.685 L 512.430 319.009 L 512.406 319.312 L 512.396 319.596 L 512.400 319.861 L 512.420 320.107 L 512.455 320.335 L 512.508 320.547 L 512.578 320.742 L 512.667 320.922 L 512.775 321.088 L 512.903 321.240 L 513.051 321.379 L 513.219 321.507 L 513.410 321.624 L 513.622 321.732 L 513.856 321.831 L 514.114 321.922 L 514.394 322.006 L 514.699 322.085 L 515.026 322.159 L 515.378 322.230 L 515.755 322.298 L 516.155 322.365 L 516.580 322.432 L 517.030 322.500 L 517.505 322.569 L 518.004 322.642 L 518.528 322.719 L 519.077 322.801 L 519.650 322.890 L 520.247 322.986 L 520.869 323.090 L 521.514 323.204 L 522.183 323.329 L 522.875 323.466 L 523.589 323.615 L 524.327 323.779 L 525.086 323.957 L 525.866 324.151 L 526.668 324.362 L 527.489 324.590 L 528.331 324.838 L 529.192 325.105 L 530.071 325.392 L 530.967 325.701 L 531.881 326.032 L 532.811 326.386 L 533.756 326.764 L 534.716 327.167 L 535.689 327.595 L 536.676 328.048 L 537.674 328.529 L 538.682 329.036 L 539.701 329.571 L 540.729 330.135 L 541.765 330.727 L 542.807 331.349 L 543.856 332.001 L 544.909 332.682 L 545.965 333.394 L 547.025 334.137 L 548.086 334.911 L 549.147 335.716 L 550.207 336.553 L 551.266 337.421 L 552.321 338.320 L 553.373 339.252 L 554.419 340.215 L 555.458 341.210 L 556.490 342.237 L 557.513 343.295 L 558.526 344.384 L 559.528 345.505 L 560.518 346.656 L 561.495 347.838 L 562.457 349.051 L 563.404 350.293 L 564.334 351.565 L 565.246 352.866 L 566.140 354.195 L 567.014 355.552 L 567.868 356.937 L 568.699 358.349 L 569.508 359.787 L 570.293 361.251 L 571.054 362.739 L 571.789 364.251 L 572.498 365.787 L 573.179 367.345 L 573.833 368.925 L 574.458 370.526 L 575.053 372.146 L 575.618 373.785 L 576.152 375.443 L 576.655 377.117 L 577.125 378.807 L 577.563 380.512 L 577.968 382.232 L 578.339 383.964 L 578.675 385.707 L 578.977 387.462 L 579.244 389.226 L 579.476 390.998 L 579.672 392.778 L 579.832 394.563 L 579.956 396.354 L 580.044 398.149 L 580.096 399.946 L 580.111 401.744 L 580.090 403.543 L 580.032 405.341 L 579.938 407.137 L 579.808 408.930 L 579.641 410.718 L 579.438 412.501 L 579.200 414.277 L 578.926 416.045 L 578.617 417.804 L 578.273 419.553 L 577.895 421.291 L 577.483 423.016 L 577.037 424.728 L 576.558 426.425 L 576.047 428.107 L 575.503 429.772 L 574.929 431.420 L 574.323 433.049 L 573.688 434.659 L 573.024 436.249 L 572.331 437.817 L 571.610 439.363 L 570.863 440.886 L 570.090 442.386 L 569.291 443.860 L 568.468 445.310 L 567.622 446.734 L 566.754 448.131 L 565.864 449.500 L 564.954 450.842 L 564.025 452.155 L 563.077 453.440 L 562.113 454.695 L 561.132 455.920 L 560.136 457.115 L 559.126 458.280 L 558.103 459.413 L 557.068 460.516 L 556.023 461.587 L 554.968 462.626 L 553.905 463.634 L 552.835 464.609 L 551.759 465.553 L 550.678 466.465 L 549.594 467.345 L 548.506 468.193 L 547.418 469.010 L 546.329 469.795 L 545.240 470.549 L 544.154 471.271 L 543.071 471.963 L 541.992 472.624 L 540.918 473.255 L 539.851 473.857 L 538.790 474.429 L 537.739 474.972 L 536.696 475.487 L 535.664 475.974 L 534.643 476.434 L 533.634 476.867 L 532.639 477.275 L 531.658 477.657 L 530.691 478.015 L 529.740 478.349 L 528.806 478.661 L 527.889 478.950 L 526.990 479.218 L 526.110 479.466 L 525.250 479.694 L 524.409 479.904 L 523.589 480.096 L 522.790 480.272 L 522.013 480.431 L 521.258 480.577 L 520.526 480.708 L 519.816 480.827 L 519.131 480.935 L 518.468 481.032 L 517.830 481.119 L 517.216 481.198 L 516.627 481.270 L 516.062 481.336 L 515.522 481.397 L 515.007 481.454 L 514.516 481.508 L 514.050 481.561 L 513.609 481.612 L 513.193 481.665 L 512.801 481.718 L 512.434 481.775 L 512.090 481.835 L 511.770 481.900 L 511.474 481.971 L 511.201 482.049 L 510.951 482.134 L 510.723 482.229 L 510.516 482.333 L 510.332 482.449 L 510.167 482.576 L 510.024 482.716 L 509.899 482.870 L 509.794 483.039 L 509.707 483.222 L 509.638 483.422 L 509.585 483.640 L 509.548 483.875 L 509.527 484.128 L 509.520 484.401 L 509.526 484.694 L 509.545 485.008 L 509.576 485.342 L 509.618 485.699 L 509.669 486.078 L 509.729 486.480 L 509.797 486.905 L 509.872 487.354 L 509.952 487.827 L 510.037 488.324 L 510.126 488.846 L 510.217 489.393 L 510.310 489.965 L 510.404 490.563 L 510.496 491.186 L 510.587 491.835 L 510.675 492.510 L 510.759 493.210 L 510.837 493.936 L 510.910 494.688 L 510.975 495.465 L 511.032 496.267 L 511.079 497.095 L 511.115 497.947 L 511.140 498.824 L 511.152 499.725 L 511.150 500.650 L 511.134 501.598 L 511.101 502.569 L 511.051 503.563 L 510.984 504.579 L 510.898 505.616 L 510.792 506.674 L 510.665 507.752 L 510.517 508.849 L 510.346 509.966 L 510.152 511.100 L 509.933 512.252 L 509.690 513.420 L 509.421 514.603 L 509.125 515.802 L 508.802 517.014 L 508.452 518.239 L 508.073 519.476 L 507.664 520.724 L 507.227 521.982 L 506.759 523.249 L 506.260 524.524 L 505.731 525.806 L 505.170 527.094 L 504.577 528.386 L 503.952 529.682 L 503.294 530.981 L 502.604 532.281 L 501.881 533.581 L 501.125 534.880 L 500.336 536.178 L 499.513 537.472 L 498.658 538.762 L 497.769 540.046 L 496.847 541.324 L 495.891 542.593 L 494.903 543.854 L 493.882 545.105 L 492.829 546.344 L 491.743 547.572 L 490.626 548.785 L 489.476 549.984 L 488.296 551.167 L 487.085 552.334 L 485.843 553.483 L 484.572 554.612 L 483.271 555.722 L 481.942 556.811 L 480.585 557.878 L 479.201 558.922 L 477.789 559.942 L 476.352 560.938 L 474.890 561.907 L 473.404 562.851 L 471.894 563.767 L 470.361 564.655 L 468.807 565.513 L 467.232 566.343 L 465.637 567.142 L 464.022 567.910 L 462.391 568.646 L 460.742 569.351 L 459.077 570.022 L 457.397 570.660 L 455.704 571.265 L 453.998 571.835 L 452.281 572.371 L 450.553 572.871 L 448.816 573.337 L 447.071 573.767 L 445.318 574.161 L 443.560 574.519 L 441.798 574.841 L 440.032 575.127 L 438.263 575.377 L 436.494 575.590 L 434.724 575.767 L 432.956 575.908 L 431.190 576.013 L 429.428 576.083 L 427.670 576.116 L 425.918 576.114 L 424.174 576.076 L 422.437 576.004 L 420.710 575.898 L 418.993 575.757 L 417.287 575.583 L 415.594 575.375 L 413.914 575.135 L 412.250 574.863 L 410.600 574.559 L 408.967 574.225 L 407.352 573.860 L 405.755 573.466 L 404.177 573.043 L 402.620 572.592 L 401.084 572.114 L 399.569 571.610 L 398.077 571.080 L 396.609 570.526 L 395.165 569.948 L 393.745 569.347 L 392.351 568.724 L 390.983 568.081 L 389.641 567.418 L 388.327 566.736 L 387.040 566.037 L 385.782 565.320 L 384.551 564.589 L 383.350 563.842 L 382.178 563.083 L 381.035 562.311 L 379.922 561.528 L 378.839 560.735 L 377.786 559.933 L 376.763 559.123 L 375.771 558.306 L 374.808 557.485 L 373.876 556.658 L 372.975 555.829 L 372.103 554.997 L 371.261 554.165 L 370.449 553.332 L 369.667 552.501 L 368.914 551.673 L 368.190 550.847 L 367.495 550.026 L 366.828 549.211 L 366.189 548.403 L 365.577 547.602 L 364.992 546.810 L 364.434 546.027 L 363.901 545.255 L 363.394 544.494 L 362.911 543.746 L 362.451 543.012 L 362.015 542.291 L 361.601 541.585 L 361.209 540.896 L 360.838 540.223 L 360.486 539.567 L 360.154 538.929 L 359.840 538.310 L 359.543 537.710 L 359.263 537.130 L 358.998 536.571 L 358.747 536.033 L 358.510 535.516 L 358.285 535.021 L 358.072 534.549 L 357.869 534.099 L 357.675 533.672 L 357.489 533.269 L 357.311 532.889 L 357.139 532.533 L 356.971 532.200 L 356.808 531.892 L 356.647 531.608 L 356.488 531.348 L 356.330 531.113 L 356.171 530.901 L 356.011 530.714 L 355.848 530.550 L 355.681 530.410 L 355.509 530.293 L 355.331 530.199 L 355.147 530.129 L 354.954 530.081 L 354.752 530.055 L 354.540 530.051 L 354.318 530.068 L 354.083 530.105 L 353.835 530.163 L 353.573 530.241 L 353.297 530.338 L 353.004 530.453 L 352.695 530.585 L 352.369 530.735 L 352.025 530.901 L 351.661 531.082 L 351.278 531.278 L 350.874 531.488 L 350.449 531.711 L 350.002 531.945 L 349.533 532.191 L 349.041 532.447 L 348.526 532.712 L 347.986 532.986 L 347.422 533.266 L 346.833 533.553 L 346.218 533.845 L 345.578 534.141 L 344.912 534.440 L 344.219 534.742 L 343.501 535.044 L 342.755 535.345 L 341.983 535.646 L 341.183 535.944 L 340.357 536.239 L 339.504 536.528 L 338.624 536.813 L 337.717 537.090 L 336.783 537.359 L 335.823 537.619 L 334.836 537.869 L 333.823 538.107 L 332.784 538.333 L 331.719 538.546 L 330.630 538.744 L 329.515 538.926 L 328.376 539.092 L 327.213 539.240 L 326.027 539.370 L 324.819 539.480 L 323.587 539.569 L 322.335 539.636 L 321.061 539.682 L 319.768 539.703 L 318.455 539.701 L 317.123 539.673 L 315.773 539.620 L 314.407 539.540 L 313.024 539.432 L 311.626 539.296 L 310.213 539.132 L 308.788 538.938 L 307.349 538.714 L 305.900 538.459 L 304.440 538.174 L 302.970 537.856 L 301.493 537.506 L 300.008 537.124 L 298.517 536.709 L 297.021 536.260 L 295.521 535.778 L 294.018 535.262 L 292.513 534.712 L 291.008 534.127 L 289.504 533.508 L 288.001 532.855 L 286.502 532.167 L 285.006 531.445 L 283.516 530.688 L 282.032 529.896 L 280.556 529.070 L 279.089 528.210 L 277.632 527.317 L 276.185 526.389 L 274.751 525.428 L 273.331 524.434 L 271.924 523.407 L 270.533 522.348 L 269.159 521.257 L 267.803 520.135 L 266.465 518.982 L 265.147 517.799 L 263.850 516.586 L 262.574 515.344 L 261.321 514.074 L 260.092 512.776 L 258.888 511.452 L 257.708 510.101 L 256.555 508.725 L 255.429 507.325 L 254.331 505.902 L 253.262 504.455 L 252.222 502.988 L 251.211 501.499 L 250.232 499.991 L 249.284 498.464 L 248.367 496.919 L 247.483 495.358 L 246.632 493.781 L 245.815 492.190 L 245.031 490.585 L 244.281 488.968 L 243.566 487.340 L 242.885 485.702 L 242.240 484.055 L 241.629 482.400 L 241.054 480.739 L 240.515 479.072 L 240.011 477.401 L 239.543 475.727 L 239.111 474.051 L 238.714 472.375 L 238.353 470.699 L 238.027 469.025 L 237.737 467.353 L 237.481 465.686 L 237.260 464.023 L 237.074 462.367 L 236.921 460.718 L 236.803 459.077 L 236.717 457.446 L 236.665 455.826 L 236.645 454.217 L 236.656 452.621 L 236.699 451.038 L 236.773 449.470 L 236.876 447.918 L 237.009 446.382 L 237.170 444.864 L 237.359 443.364 L 237.575 441.883 L 237.817 440.423 L 238.085 438.983 L 238.377 437.564 L 238.693 436.168 L 239.032 434.795 L 239.392 433.445 L 239.773 432.120 L 240.174 430.820 L 240.593 429.544 L 241.031 428.295 L 241.485 427.072 L 241.954 425.876 L 242.439 424.707 L 242.936 423.565 L 243.447 422.451 L 243.968 421.365 L 244.500 420.307 L 245.041 419.278 L 245.589 418.277 L 246.145 417.305 L 246.706 416.362 L 247.272 415.447 L 247.841 414.560 L 248.412 413.703 L 248.985 412.873 L 249.558 412.072 L 250.130 411.299 L 250.699 410.554 L 251.266 409.836 L 251.828 409.146 L 252.385 408.482 L 252.935 407.845 L 253.478 407.233 L 254.013 406.647 L 254.539 406.086 L 255.054 405.549 L 255.558 405.036 L 256.049 404.546 L 256.528 404.078 L 256.993 403.632 L 257.443 403.207 L 257.877 402.803 L 258.295 402.417 L 258.697 402.050 L 259.080 401.702 L 259.445 401.369 L 259.791 401.053 L 260.118 400.752 L 260.424 400.465 L 260.709 400.191 L 260.973 399.930 L 261.216 399.679 L 261.436 399.438 L 261.634 399.207 L 261.810 398.983 L 261.962 398.767 L 262.091 398.556 L 262.196 398.351 L 262.278 398.149 L 262.336 397.949 L 262.370 397.751 L 262.380 397.554 L 262.366 397.356 L 262.328 397.156 L 262.267 396.953 L 262.182 396.747 L 262.073 396.535 L 261.941 396.317 L 261.787 396.092 L 261.609 395.859 L 261.410 395.617 L 261.188 395.364 L 260.945 395.100 L 260.681 394.823 L 260.396 394.534 L 260.091 394.230 L 259.767 393.910 L 259.424 393.575 L 259.063 393.223 L 258.684 392.853 L 258.288 392.464 L 257.877 392.055 L 257.450 391.626 L 257.009 391.177 L 256.554 390.705 L 256.086 390.211 L 255.607 389.693 L 255.116 389.152 L 254.616 388.587 L 254.107 387.997 L 253.589 387.381 L 253.065 386.739 L 252.534 386.071 L 251.999 385.376 L 251.459 384.655 L 250.917 383.905 L 250.373 383.128 L 249.829 382.323 L 249.285 381.490 L 248.742 380.629 L 248.202 379.739 L 247.666 378.821 L 247.135 377.874 L 246.610 376.899 L 246.092 375.896 L 245.582 374.864 L 245.082 373.804 L 244.593 372.716 L 244.115 371.600 L 243.649 370.456 L 243.198 369.286 L 242.762 368.089 L 242.341 366.865 L 241.938 365.616 L 241.552 364.340 L 241.186 363.040 L 240.840 361.716 L 240.515 360.368 L 240.212 358.996 L 239.932 357.602 L 239.676 356.186 L 239.444 354.749 L 239.239 353.292 L 239.059 351.815 L 238.907 350.319 L 238.783 348.806 L 238.688 347.275 L 238.622 345.729 L 238.586 344.168 L 238.582 342.592 L 238.608 341.003 L 238.666 339.402 L 238.757 337.790 L 238.881 336.168 L 239.038 334.537 L 239.229 332.899 L 239.454 331.253 L 239.713 329.602 L 240.007 327.946 L 240.337 326.287 L 240.701 324.626 L 241.101 322.964 L 241.536 321.302 L 242.007 319.641 L 242.513 317.982 L 243.055 316.328 L 243.633 314.678 L 244.246 313.034 L 244.894 311.397 L 245.577 309.768 L 246.295 308.149 L 247.048 306.540 L 247.835 304.944 L 248.655 303.360 L 249.510 301.790 L 250.397 300.235 L 251.317 298.696 L 252.269 297.174 L 253.253 295.670 L 254.268 294.186 L 255.312 292.722 L 256.387 291.279 L 257.491 289.859 L 258.622 288.461 L 259.782 287.087 L 260.967 285.738 L 262.179 284.415 L 263.416 283.119 L 264.677 281.849 L 265.960 280.608 L 267.267 279.395 L 268.594 278.211 L 269.942 277.058 L 271.309 275.935 L 272.694 274.843 L 274.096 273.783 L 275.515 272.755 L 276.948 271.760 L 278.395 270.798 L 279.855 269.869 L 281.327 268.973 L 282.810 268.112 L 284.301 267.284 L 285.801 266.492 L 287.308 265.733 L 288.821 265.009 L 290.339 264.320 L 291.860 263.666 L 293.384 263.046 L 294.908 262.461 L 296.433 261.910 L 297.957 261.394 L 299.479 260.912 L 300.997 260.463 L 302.511 260.049 L 304.019 259.667 L 305.521 259.319 L 307.015 259.003 L 308.499 258.720 L 309.974 258.467 L 311.439 258.246 L 312.891 258.056 L 314.330 257.896 L 315.755 257.765 L 317.166 257.662 L 318.561 257.588 L 319.939 257.541 L 321.300 257.520 L 322.642 257.525 L 323.965 257.555 L 325.269 257.609 L 326.552 257.686 L 327.813 257.785 L 329.053 257.906 L 330.270 258.047 L 331.464 258.207 L 332.634 258.386 L 333.780 258.582 L 334.902 258.795 L 335.998 259.023 L 337.069 259.265 L 338.114 259.520 L 339.132 259.788 L 340.125 260.066 L 341.090 260.354 L 342.029 260.652 L 342.941 260.957 L 343.826 261.268 L 344.684 261.585 L 345.514 261.906 L 346.317 262.231 L 347.094 262.557 L 347.843 262.885 L 348.566 263.212 L 349.262 263.539 L 349.932 263.863 L 350.575 264.183 L 351.194 264.499 L 351.786 264.810 L 352.354 265.114 L 352.897 265.411 L 353.416 265.699 L 353.912 265.978 L 354.385 266.246 L 354.835 266.503 L 355.264 266.748 L 355.671 266.979 L 356.059 267.196 L 356.426 267.399 L 356.775 267.586 L 357.105 267.756 L 357.419 267.909 L 357.716 268.045 L 357.997 268.161 L 358.264 268.259 L 358.516 268.337 L 358.757 268.394 L 358.985 268.431 L 359.202 268.446 L 359.410 268.440 L 359.608 268.411 L 359.799 268.359 L 359.983 268.285 L 360.162 268.187 L 360.336 268.066 L 360.506 267.922 L 360.674 267.753 L 360.840 267.560 L 361.006 267.344 L 361.173 267.103 L 361.342 266.838 L 361.514 266.549 L 361.690 266.236 L 361.871 265.900 L 362.059 265.539 L 362.254 265.156 L 362.457 264.749 L 362.670 264.319 L 362.893 263.866 L 363.129 263.392 L 363.376 262.895 L 363.637 262.378 L 363.913 261.839 L 364.205 261.281 L 364.513 260.702 L 364.838 260.105 L 365.182 259.489 L 365.545 258.855 L 365.928 258.205 L 366.332 257.538 L 366.758 256.856 L 367.206 256.158 L 367.678 255.448 L 368.173 254.724 L 368.693 253.988 L 369.238 253.240 L 369.809 252.483 L 370.406 251.716 L 371.030 250.941 L 371.682 250.159 L 372.361 249.371 L 373.069 248.577 L 373.805 247.780 L 374.570 246.979 L 375.365 246.176 L 376.188 245.373 L 377.042 244.569 L 377.926 243.767 L 378.839 242.968 L 379.783 242.172 L 380.756 241.381 L 381.760 240.596 L 382.794 239.818 L 383.858 239.048 L 384.951 238.288 L 386.074 237.538 L 387.227 236.799 L 388.409 236.074 L 389.620 235.362 L 390.859 234.665 L 392.127 233.983 L 393.422 233.319 L 394.744 232.673 L 396.093 232.046 L 397.469 231.440 L 398.870 230.854 L 400.296 230.290 L 401.746 229.750 L 403.220 229.233 L 404.717 228.742 L 406.236 228.276 L 407.777 227.837 L 409.338 227.425 Z" fill="none" stroke="#404040" stroke-width="4.80250"  />
</svg>
